<?xml version="1.0" encoding="utf-8" standalone="no"?>
<!DOCTYPE svg PUBLIC "-//W3C//DTD SVG 1.1//EN"
  "http://www.w3.org/Graphics/SVG/1.1/DTD/svg11.dtd">
<svg xmlns:xlink="http://www.w3.org/1999/xlink" width="565.92pt" height="230.735625pt" viewBox="0 0 565.92 230.735625" xmlns="http://www.w3.org/2000/svg" version="1.1">
 <metadata>
  <rdf:RDF xmlns:dc="http://purl.org/dc/elements/1.1/" xmlns:cc="http://creativecommons.org/ns#" xmlns:rdf="http://www.w3.org/1999/02/22-rdf-syntax-ns#">
   <cc:Work>
    <dc:type rdf:resource="http://purl.org/dc/dcmitype/StillImage"/>
    <dc:date>2025-01-24T16:09:04.224103</dc:date>
    <dc:format>image/svg+xml</dc:format>
    <dc:creator>
     <cc:Agent>
      <dc:title>Matplotlib v3.10.0, https://matplotlib.org/</dc:title>
     </cc:Agent>
    </dc:creator>
   </cc:Work>
  </rdf:RDF>
 </metadata>
 <defs>
  <style type="text/css">*{stroke-linejoin: round; stroke-linecap: butt}</style>
 </defs>
 <g id="figure_1">
  <g id="patch_1">
   <path d="M 0 230.735625 
L 565.92 230.735625 
L 565.92 0 
L 0 0 
z
" style="fill: #ffffff"/>
  </g>
  <g id="axes_1">
   <g id="patch_2">
    <path d="M 55.37 177.32 
L 558.72 177.32 
L 558.72 7.2 
L 55.37 7.2 
z
" style="fill: #ffffff"/>
   </g>
   <g id="matplotlib.axis_1">
    <g id="xtick_1">
     <g id="line2d_1">
      <defs>
       <path id="m5329c3f0c6" d="M 0 0 
L 0 3.5 
" style="stroke: #000000"/>
      </defs>
      <g>
       <use xlink:href="#m5329c3f0c6" x="77.244955" y="177.32" style="stroke: #000000"/>
      </g>
     </g>
     <g id="text_1">
      <!-- 2016 -->
      <g transform="translate(61.974955 193.438125) scale(0.12 -0.12)">
       <defs>
        <path id="DejaVuSans-32" d="M 1228 531 
L 3431 531 
L 3431 0 
L 469 0 
L 469 531 
Q 828 903 1448 1529 
Q 2069 2156 2228 2338 
Q 2531 2678 2651 2914 
Q 2772 3150 2772 3378 
Q 2772 3750 2511 3984 
Q 2250 4219 1831 4219 
Q 1534 4219 1204 4116 
Q 875 4013 500 3803 
L 500 4441 
Q 881 4594 1212 4672 
Q 1544 4750 1819 4750 
Q 2544 4750 2975 4387 
Q 3406 4025 3406 3419 
Q 3406 3131 3298 2873 
Q 3191 2616 2906 2266 
Q 2828 2175 2409 1742 
Q 1991 1309 1228 531 
z
" transform="scale(0.015625)"/>
        <path id="DejaVuSans-30" d="M 2034 4250 
Q 1547 4250 1301 3770 
Q 1056 3291 1056 2328 
Q 1056 1369 1301 889 
Q 1547 409 2034 409 
Q 2525 409 2770 889 
Q 3016 1369 3016 2328 
Q 3016 3291 2770 3770 
Q 2525 4250 2034 4250 
z
M 2034 4750 
Q 2819 4750 3233 4129 
Q 3647 3509 3647 2328 
Q 3647 1150 3233 529 
Q 2819 -91 2034 -91 
Q 1250 -91 836 529 
Q 422 1150 422 2328 
Q 422 3509 836 4129 
Q 1250 4750 2034 4750 
z
" transform="scale(0.015625)"/>
        <path id="DejaVuSans-31" d="M 794 531 
L 1825 531 
L 1825 4091 
L 703 3866 
L 703 4441 
L 1819 4666 
L 2450 4666 
L 2450 531 
L 3481 531 
L 3481 0 
L 794 0 
L 794 531 
z
" transform="scale(0.015625)"/>
        <path id="DejaVuSans-36" d="M 2113 2584 
Q 1688 2584 1439 2293 
Q 1191 2003 1191 1497 
Q 1191 994 1439 701 
Q 1688 409 2113 409 
Q 2538 409 2786 701 
Q 3034 994 3034 1497 
Q 3034 2003 2786 2293 
Q 2538 2584 2113 2584 
z
M 3366 4563 
L 3366 3988 
Q 3128 4100 2886 4159 
Q 2644 4219 2406 4219 
Q 1781 4219 1451 3797 
Q 1122 3375 1075 2522 
Q 1259 2794 1537 2939 
Q 1816 3084 2150 3084 
Q 2853 3084 3261 2657 
Q 3669 2231 3669 1497 
Q 3669 778 3244 343 
Q 2819 -91 2113 -91 
Q 1303 -91 875 529 
Q 447 1150 447 2328 
Q 447 3434 972 4092 
Q 1497 4750 2381 4750 
Q 2619 4750 2861 4703 
Q 3103 4656 3366 4563 
z
" transform="scale(0.015625)"/>
       </defs>
       <use xlink:href="#DejaVuSans-32"/>
       <use xlink:href="#DejaVuSans-30" transform="translate(63.623047 0)"/>
       <use xlink:href="#DejaVuSans-31" transform="translate(127.246094 0)"/>
       <use xlink:href="#DejaVuSans-36" transform="translate(190.869141 0)"/>
      </g>
     </g>
    </g>
    <g id="xtick_2">
     <g id="line2d_2">
      <g>
       <use xlink:href="#m5329c3f0c6" x="169.164973" y="177.32" style="stroke: #000000"/>
      </g>
     </g>
     <g id="text_2">
      <!-- 2017 -->
      <g transform="translate(153.894973 193.438125) scale(0.12 -0.12)">
       <defs>
        <path id="DejaVuSans-37" d="M 525 4666 
L 3525 4666 
L 3525 4397 
L 1831 0 
L 1172 0 
L 2766 4134 
L 525 4134 
L 525 4666 
z
" transform="scale(0.015625)"/>
       </defs>
       <use xlink:href="#DejaVuSans-32"/>
       <use xlink:href="#DejaVuSans-30" transform="translate(63.623047 0)"/>
       <use xlink:href="#DejaVuSans-31" transform="translate(127.246094 0)"/>
       <use xlink:href="#DejaVuSans-37" transform="translate(190.869141 0)"/>
      </g>
     </g>
    </g>
    <g id="xtick_3">
     <g id="line2d_3">
      <g>
       <use xlink:href="#m5329c3f0c6" x="260.833843" y="177.32" style="stroke: #000000"/>
      </g>
     </g>
     <g id="text_3">
      <!-- 2018 -->
      <g transform="translate(245.563843 193.438125) scale(0.12 -0.12)">
       <defs>
        <path id="DejaVuSans-38" d="M 2034 2216 
Q 1584 2216 1326 1975 
Q 1069 1734 1069 1313 
Q 1069 891 1326 650 
Q 1584 409 2034 409 
Q 2484 409 2743 651 
Q 3003 894 3003 1313 
Q 3003 1734 2745 1975 
Q 2488 2216 2034 2216 
z
M 1403 2484 
Q 997 2584 770 2862 
Q 544 3141 544 3541 
Q 544 4100 942 4425 
Q 1341 4750 2034 4750 
Q 2731 4750 3128 4425 
Q 3525 4100 3525 3541 
Q 3525 3141 3298 2862 
Q 3072 2584 2669 2484 
Q 3125 2378 3379 2068 
Q 3634 1759 3634 1313 
Q 3634 634 3220 271 
Q 2806 -91 2034 -91 
Q 1263 -91 848 271 
Q 434 634 434 1313 
Q 434 1759 690 2068 
Q 947 2378 1403 2484 
z
M 1172 3481 
Q 1172 3119 1398 2916 
Q 1625 2713 2034 2713 
Q 2441 2713 2670 2916 
Q 2900 3119 2900 3481 
Q 2900 3844 2670 4047 
Q 2441 4250 2034 4250 
Q 1625 4250 1398 4047 
Q 1172 3844 1172 3481 
z
" transform="scale(0.015625)"/>
       </defs>
       <use xlink:href="#DejaVuSans-32"/>
       <use xlink:href="#DejaVuSans-30" transform="translate(63.623047 0)"/>
       <use xlink:href="#DejaVuSans-31" transform="translate(127.246094 0)"/>
       <use xlink:href="#DejaVuSans-38" transform="translate(190.869141 0)"/>
      </g>
     </g>
    </g>
    <g id="xtick_4">
     <g id="line2d_4">
      <g>
       <use xlink:href="#m5329c3f0c6" x="352.502714" y="177.32" style="stroke: #000000"/>
      </g>
     </g>
     <g id="text_4">
      <!-- 2019 -->
      <g transform="translate(337.232714 193.438125) scale(0.12 -0.12)">
       <defs>
        <path id="DejaVuSans-39" d="M 703 97 
L 703 672 
Q 941 559 1184 500 
Q 1428 441 1663 441 
Q 2288 441 2617 861 
Q 2947 1281 2994 2138 
Q 2813 1869 2534 1725 
Q 2256 1581 1919 1581 
Q 1219 1581 811 2004 
Q 403 2428 403 3163 
Q 403 3881 828 4315 
Q 1253 4750 1959 4750 
Q 2769 4750 3195 4129 
Q 3622 3509 3622 2328 
Q 3622 1225 3098 567 
Q 2575 -91 1691 -91 
Q 1453 -91 1209 -44 
Q 966 3 703 97 
z
M 1959 2075 
Q 2384 2075 2632 2365 
Q 2881 2656 2881 3163 
Q 2881 3666 2632 3958 
Q 2384 4250 1959 4250 
Q 1534 4250 1286 3958 
Q 1038 3666 1038 3163 
Q 1038 2656 1286 2365 
Q 1534 2075 1959 2075 
z
" transform="scale(0.015625)"/>
       </defs>
       <use xlink:href="#DejaVuSans-32"/>
       <use xlink:href="#DejaVuSans-30" transform="translate(63.623047 0)"/>
       <use xlink:href="#DejaVuSans-31" transform="translate(127.246094 0)"/>
       <use xlink:href="#DejaVuSans-39" transform="translate(190.869141 0)"/>
      </g>
     </g>
    </g>
    <g id="xtick_5">
     <g id="line2d_5">
      <g>
       <use xlink:href="#m5329c3f0c6" x="444.171584" y="177.32" style="stroke: #000000"/>
      </g>
     </g>
     <g id="text_5">
      <!-- 2020 -->
      <g transform="translate(428.901584 193.438125) scale(0.12 -0.12)">
       <use xlink:href="#DejaVuSans-32"/>
       <use xlink:href="#DejaVuSans-30" transform="translate(63.623047 0)"/>
       <use xlink:href="#DejaVuSans-32" transform="translate(127.246094 0)"/>
       <use xlink:href="#DejaVuSans-30" transform="translate(190.869141 0)"/>
      </g>
     </g>
    </g>
    <g id="xtick_6">
     <g id="line2d_6">
      <g>
       <use xlink:href="#m5329c3f0c6" x="536.091602" y="177.32" style="stroke: #000000"/>
      </g>
     </g>
     <g id="text_6">
      <!-- 2021 -->
      <g transform="translate(520.821602 193.438125) scale(0.12 -0.12)">
       <use xlink:href="#DejaVuSans-32"/>
       <use xlink:href="#DejaVuSans-30" transform="translate(63.623047 0)"/>
       <use xlink:href="#DejaVuSans-32" transform="translate(127.246094 0)"/>
       <use xlink:href="#DejaVuSans-31" transform="translate(190.869141 0)"/>
      </g>
     </g>
    </g>
   </g>
   <g id="matplotlib.axis_2">
    <g id="ytick_1">
     <g id="line2d_7">
      <defs>
       <path id="m87931a7833" d="M 0 0 
L -3.5 0 
" style="stroke: #000000"/>
      </defs>
      <g>
       <use xlink:href="#m87931a7833" x="55.37" y="159.586894" style="stroke: #000000"/>
      </g>
     </g>
     <g id="text_7">
      <!-- 0 -->
      <g transform="translate(40.735 164.145957) scale(0.12 -0.12)">
       <use xlink:href="#DejaVuSans-30"/>
      </g>
     </g>
    </g>
    <g id="ytick_2">
     <g id="line2d_8">
      <g>
       <use xlink:href="#m87931a7833" x="55.37" y="117.845832" style="stroke: #000000"/>
      </g>
     </g>
     <g id="text_8">
      <!-- 100 -->
      <g transform="translate(25.465 122.404894) scale(0.12 -0.12)">
       <use xlink:href="#DejaVuSans-31"/>
       <use xlink:href="#DejaVuSans-30" transform="translate(63.623047 0)"/>
       <use xlink:href="#DejaVuSans-30" transform="translate(127.246094 0)"/>
      </g>
     </g>
    </g>
    <g id="ytick_3">
     <g id="line2d_9">
      <g>
       <use xlink:href="#m87931a7833" x="55.37" y="76.104769" style="stroke: #000000"/>
      </g>
     </g>
     <g id="text_9">
      <!-- 200 -->
      <g transform="translate(25.465 80.663832) scale(0.12 -0.12)">
       <use xlink:href="#DejaVuSans-32"/>
       <use xlink:href="#DejaVuSans-30" transform="translate(63.623047 0)"/>
       <use xlink:href="#DejaVuSans-30" transform="translate(127.246094 0)"/>
      </g>
     </g>
    </g>
    <g id="ytick_4">
     <g id="line2d_10">
      <g>
       <use xlink:href="#m87931a7833" x="55.37" y="34.363707" style="stroke: #000000"/>
      </g>
     </g>
     <g id="text_10">
      <!-- 300 -->
      <g transform="translate(25.465 38.922769) scale(0.12 -0.12)">
       <defs>
        <path id="DejaVuSans-33" d="M 2597 2516 
Q 3050 2419 3304 2112 
Q 3559 1806 3559 1356 
Q 3559 666 3084 287 
Q 2609 -91 1734 -91 
Q 1441 -91 1130 -33 
Q 819 25 488 141 
L 488 750 
Q 750 597 1062 519 
Q 1375 441 1716 441 
Q 2309 441 2620 675 
Q 2931 909 2931 1356 
Q 2931 1769 2642 2001 
Q 2353 2234 1838 2234 
L 1294 2234 
L 1294 2753 
L 1863 2753 
Q 2328 2753 2575 2939 
Q 2822 3125 2822 3475 
Q 2822 3834 2567 4026 
Q 2313 4219 1838 4219 
Q 1578 4219 1281 4162 
Q 984 4106 628 3988 
L 628 4550 
Q 988 4650 1302 4700 
Q 1616 4750 1894 4750 
Q 2613 4750 3031 4423 
Q 3450 4097 3450 3541 
Q 3450 3153 3228 2886 
Q 3006 2619 2597 2516 
z
" transform="scale(0.015625)"/>
       </defs>
       <use xlink:href="#DejaVuSans-33"/>
       <use xlink:href="#DejaVuSans-30" transform="translate(63.623047 0)"/>
       <use xlink:href="#DejaVuSans-30" transform="translate(127.246094 0)"/>
      </g>
     </g>
    </g>
    <g id="text_11">
     <!-- Price (USD) -->
     <g transform="translate(18.969375 126.30625) rotate(-90) scale(0.12 -0.12)">
      <defs>
       <path id="DejaVuSans-50" d="M 1259 4147 
L 1259 2394 
L 2053 2394 
Q 2494 2394 2734 2622 
Q 2975 2850 2975 3272 
Q 2975 3691 2734 3919 
Q 2494 4147 2053 4147 
L 1259 4147 
z
M 628 4666 
L 2053 4666 
Q 2838 4666 3239 4311 
Q 3641 3956 3641 3272 
Q 3641 2581 3239 2228 
Q 2838 1875 2053 1875 
L 1259 1875 
L 1259 0 
L 628 0 
L 628 4666 
z
" transform="scale(0.015625)"/>
       <path id="DejaVuSans-72" d="M 2631 2963 
Q 2534 3019 2420 3045 
Q 2306 3072 2169 3072 
Q 1681 3072 1420 2755 
Q 1159 2438 1159 1844 
L 1159 0 
L 581 0 
L 581 3500 
L 1159 3500 
L 1159 2956 
Q 1341 3275 1631 3429 
Q 1922 3584 2338 3584 
Q 2397 3584 2469 3576 
Q 2541 3569 2628 3553 
L 2631 2963 
z
" transform="scale(0.015625)"/>
       <path id="DejaVuSans-69" d="M 603 3500 
L 1178 3500 
L 1178 0 
L 603 0 
L 603 3500 
z
M 603 4863 
L 1178 4863 
L 1178 4134 
L 603 4134 
L 603 4863 
z
" transform="scale(0.015625)"/>
       <path id="DejaVuSans-63" d="M 3122 3366 
L 3122 2828 
Q 2878 2963 2633 3030 
Q 2388 3097 2138 3097 
Q 1578 3097 1268 2742 
Q 959 2388 959 1747 
Q 959 1106 1268 751 
Q 1578 397 2138 397 
Q 2388 397 2633 464 
Q 2878 531 3122 666 
L 3122 134 
Q 2881 22 2623 -34 
Q 2366 -91 2075 -91 
Q 1284 -91 818 406 
Q 353 903 353 1747 
Q 353 2603 823 3093 
Q 1294 3584 2113 3584 
Q 2378 3584 2631 3529 
Q 2884 3475 3122 3366 
z
" transform="scale(0.015625)"/>
       <path id="DejaVuSans-65" d="M 3597 1894 
L 3597 1613 
L 953 1613 
Q 991 1019 1311 708 
Q 1631 397 2203 397 
Q 2534 397 2845 478 
Q 3156 559 3463 722 
L 3463 178 
Q 3153 47 2828 -22 
Q 2503 -91 2169 -91 
Q 1331 -91 842 396 
Q 353 884 353 1716 
Q 353 2575 817 3079 
Q 1281 3584 2069 3584 
Q 2775 3584 3186 3129 
Q 3597 2675 3597 1894 
z
M 3022 2063 
Q 3016 2534 2758 2815 
Q 2500 3097 2075 3097 
Q 1594 3097 1305 2825 
Q 1016 2553 972 2059 
L 3022 2063 
z
" transform="scale(0.015625)"/>
       <path id="DejaVuSans-20" transform="scale(0.015625)"/>
       <path id="DejaVuSans-28" d="M 1984 4856 
Q 1566 4138 1362 3434 
Q 1159 2731 1159 2009 
Q 1159 1288 1364 580 
Q 1569 -128 1984 -844 
L 1484 -844 
Q 1016 -109 783 600 
Q 550 1309 550 2009 
Q 550 2706 781 3412 
Q 1013 4119 1484 4856 
L 1984 4856 
z
" transform="scale(0.015625)"/>
       <path id="DejaVuSans-55" d="M 556 4666 
L 1191 4666 
L 1191 1831 
Q 1191 1081 1462 751 
Q 1734 422 2344 422 
Q 2950 422 3222 751 
Q 3494 1081 3494 1831 
L 3494 4666 
L 4128 4666 
L 4128 1753 
Q 4128 841 3676 375 
Q 3225 -91 2344 -91 
Q 1459 -91 1007 375 
Q 556 841 556 1753 
L 556 4666 
z
" transform="scale(0.015625)"/>
       <path id="DejaVuSans-53" d="M 3425 4513 
L 3425 3897 
Q 3066 4069 2747 4153 
Q 2428 4238 2131 4238 
Q 1616 4238 1336 4038 
Q 1056 3838 1056 3469 
Q 1056 3159 1242 3001 
Q 1428 2844 1947 2747 
L 2328 2669 
Q 3034 2534 3370 2195 
Q 3706 1856 3706 1288 
Q 3706 609 3251 259 
Q 2797 -91 1919 -91 
Q 1588 -91 1214 -16 
Q 841 59 441 206 
L 441 856 
Q 825 641 1194 531 
Q 1563 422 1919 422 
Q 2459 422 2753 634 
Q 3047 847 3047 1241 
Q 3047 1584 2836 1778 
Q 2625 1972 2144 2069 
L 1759 2144 
Q 1053 2284 737 2584 
Q 422 2884 422 3419 
Q 422 4038 858 4394 
Q 1294 4750 2059 4750 
Q 2388 4750 2728 4690 
Q 3069 4631 3425 4513 
z
" transform="scale(0.015625)"/>
       <path id="DejaVuSans-44" d="M 1259 4147 
L 1259 519 
L 2022 519 
Q 2988 519 3436 956 
Q 3884 1394 3884 2338 
Q 3884 3275 3436 3711 
Q 2988 4147 2022 4147 
L 1259 4147 
z
M 628 4666 
L 1925 4666 
Q 3281 4666 3915 4102 
Q 4550 3538 4550 2338 
Q 4550 1131 3912 565 
Q 3275 0 1925 0 
L 628 0 
L 628 4666 
z
" transform="scale(0.015625)"/>
       <path id="DejaVuSans-29" d="M 513 4856 
L 1013 4856 
Q 1481 4119 1714 3412 
Q 1947 2706 1947 2009 
Q 1947 1309 1714 600 
Q 1481 -109 1013 -844 
L 513 -844 
Q 928 -128 1133 580 
Q 1338 1288 1338 2009 
Q 1338 2731 1133 3434 
Q 928 4138 513 4856 
z
" transform="scale(0.015625)"/>
      </defs>
      <use xlink:href="#DejaVuSans-50"/>
      <use xlink:href="#DejaVuSans-72" transform="translate(58.552734 0)"/>
      <use xlink:href="#DejaVuSans-69" transform="translate(99.666016 0)"/>
      <use xlink:href="#DejaVuSans-63" transform="translate(127.449219 0)"/>
      <use xlink:href="#DejaVuSans-65" transform="translate(182.429688 0)"/>
      <use xlink:href="#DejaVuSans-20" transform="translate(243.953125 0)"/>
      <use xlink:href="#DejaVuSans-28" transform="translate(275.740234 0)"/>
      <use xlink:href="#DejaVuSans-55" transform="translate(314.753906 0)"/>
      <use xlink:href="#DejaVuSans-53" transform="translate(387.947266 0)"/>
      <use xlink:href="#DejaVuSans-44" transform="translate(451.423828 0)"/>
      <use xlink:href="#DejaVuSans-29" transform="translate(528.425781 0)"/>
     </g>
    </g>
   </g>
   <g id="line2d_11">
    <path d="M 78.249545 159.783379 
L 78.500693 160.708767 
L 78.751841 162.27343 
L 79.002988 162.706044 
L 79.756431 161.977472 
L 80.007579 161.17025 
L 80.258726 162.153738 
L 80.509874 161.06804 
L 80.761021 164.867307 
L 81.765612 164.811211 
L 82.016759 165.105356 
L 82.267907 165.006603 
L 82.519054 164.626641 
L 83.272497 165.086859 
L 83.523645 164.607407 
L 83.774792 164.788641 
L 84.02594 164.564604 
L 84.277088 163.102198 
L 85.03053 163.371323 
L 85.281678 164.752768 
L 85.532826 165.035366 
L 85.783973 164.423621 
L 86.035121 165.447173 
L 87.039711 165.777874 
L 87.290859 166.618212 
L 87.542006 166.632988 
L 87.793154 166.011745 
L 88.797744 165.807717 
L 89.048892 164.806967 
L 89.300039 164.87779 
L 89.551187 165.885132 
L 90.30463 164.954644 
L 90.555777 165.736845 
L 91.30922 164.303063 
L 92.062663 164.597202 
L 92.31381 163.496895 
L 92.564958 163.263257 
L 93.067253 163.140317 
L 93.820696 162.717877 
L 94.071844 163.230541 
L 94.574139 162.293293 
L 94.825286 161.612081 
L 95.578729 162.045786 
L 95.829877 161.753614 
L 96.081024 161.700855 
L 96.332172 161.318878 
L 96.58332 160.405226 
L 97.58791 160.865311 
L 97.839057 161.278587 
L 98.090205 161.435119 
L 99.094795 161.408936 
L 99.597091 160.355446 
L 99.848238 160.814838 
L 100.099386 160.685811 
L 101.103976 161.395103 
L 101.355124 161.15957 
L 101.606271 161.849181 
L 101.857419 161.743336 
L 102.610862 161.690553 
L 103.113157 161.086397 
L 103.615452 161.961393 
L 104.368895 161.709305 
L 104.620042 161.775243 
L 104.87119 161.246877 
L 105.122338 161.286016 
L 105.373485 161.716863 
L 106.126928 162.046676 
L 106.378076 162.033385 
L 106.629223 161.568111 
L 107.131518 163.523138 
L 107.884961 163.068241 
L 108.387256 163.75584 
L 108.638404 163.685914 
L 108.889551 163.490472 
L 109.642994 163.823958 
L 109.894142 163.347725 
L 110.145289 163.458505 
L 110.396437 163.87509 
L 111.401027 162.994829 
L 111.652175 163.557972 
L 111.903323 163.544049 
L 112.15447 164.045107 
L 112.405618 163.312558 
L 113.15906 163.201805 
L 113.410208 162.055752 
L 113.661356 161.612271 
L 114.163651 161.373259 
L 115.419389 161.254324 
L 115.670536 161.122476 
L 115.921684 161.306485 
L 116.675127 161.227272 
L 116.926274 160.963752 
L 117.42857 160.885212 
L 117.679717 160.754526 
L 118.684307 160.624093 
L 118.935455 161.312408 
L 119.43775 161.114574 
L 120.442341 160.3811 
L 120.693488 160.41985 
L 120.944636 159.514952 
L 121.195783 161.33694 
L 121.949226 162.435047 
L 122.200374 161.79642 
L 122.702669 159.668766 
L 122.953816 159.732395 
L 123.958407 159.821619 
L 124.460702 159.160016 
L 124.71185 158.15421 
L 125.465292 157.6877 
L 125.71644 157.007792 
L 125.967588 156.924186 
L 126.218735 156.697644 
L 126.469883 156.851795 
L 127.223326 156.875602 
L 127.474473 156.756503 
L 127.725621 156.115262 
L 127.976768 157.776013 
L 128.227916 157.300982 
L 128.981359 157.264865 
L 129.232506 156.783552 
L 129.483654 157.092835 
L 129.734801 157.164747 
L 129.985949 157.056702 
L 130.739392 157.068673 
L 130.990539 157.416008 
L 131.241687 157.47686 
L 131.743982 156.591852 
L 132.497425 156.520248 
L 132.748572 156.663206 
L 132.99972 157.129383 
L 133.250868 156.948046 
L 133.502015 157.080452 
L 134.255458 156.669932 
L 134.506606 156.311223 
L 134.757753 156.536468 
L 135.008901 156.596066 
L 135.260048 156.27378 
L 136.264639 156.084413 
L 136.515786 156.379204 
L 136.766934 156.450465 
L 137.018082 156.248249 
L 138.022672 155.728804 
L 138.524967 155.355472 
L 138.776115 155.285927 
L 139.780705 154.719055 
L 140.283 154.867501 
L 140.534148 156.012976 
L 141.287591 155.25918 
L 141.538738 155.802925 
L 141.789886 155.79122 
L 142.292181 153.422381 
L 143.045624 153.987495 
L 143.296771 154.009955 
L 143.547919 153.661551 
L 143.799066 153.550099 
L 144.050214 153.950275 
L 144.803657 154.556348 
L 145.054804 153.952736 
L 145.305952 153.660853 
L 145.5571 153.794634 
L 145.808247 153.313672 
L 146.812838 153.546211 
L 147.063985 153.045848 
L 147.56628 152.925058 
L 148.319723 153.01271 
L 148.570871 153.836095 
L 149.073166 154.172768 
L 149.324313 153.63082 
L 150.077756 153.809158 
L 150.328904 153.294234 
L 150.580051 155.771065 
L 150.831199 155.865107 
L 151.082347 156.194978 
L 151.835789 156.064368 
L 152.84038 156.68325 
L 153.593822 156.527042 
L 153.84497 156.94602 
L 154.096118 156.849284 
L 154.598413 157.741299 
L 155.351856 156.400038 
L 155.854151 156.327852 
L 156.105298 156.628155 
L 156.356446 156.49506 
L 157.109889 156.65184 
L 157.361036 156.131292 
L 157.612184 156.215001 
L 157.863332 155.999344 
L 158.114479 156.082766 
L 158.867922 156.046941 
L 159.119069 155.450308 
L 159.370217 155.779713 
L 159.872512 155.495116 
L 160.625955 155.412666 
L 160.877103 155.647762 
L 161.12825 156.368864 
L 161.379398 157.499611 
L 161.630545 157.005048 
L 162.383988 156.723993 
L 162.635136 156.323457 
L 162.886283 155.385724 
L 163.137431 155.150572 
L 164.142021 154.835296 
L 164.393169 153.872125 
L 164.644316 154.155706 
L 164.895464 153.881605 
L 165.146612 154.426194 
L 166.151202 153.397374 
L 166.40235 153.655378 
L 166.904645 153.666609 
L 167.909235 153.553699 
L 168.160383 154.04913 
L 168.41153 154.014969 
L 168.662678 154.459011 
L 169.667268 154.079226 
L 169.918416 154.295911 
L 170.169563 154.364709 
L 170.420711 154.215417 
L 171.174154 154.066674 
L 171.425301 154.146484 
L 171.676449 153.678119 
L 171.927597 153.949246 
L 172.178744 153.858281 
L 173.434482 153.892307 
L 173.68563 154.108055 
L 173.936777 153.685728 
L 174.69022 153.877834 
L 174.941368 152.912922 
L 175.192515 152.713188 
L 175.443663 152.978212 
L 175.69481 152.511455 
L 176.448253 153.12693 
L 176.699401 153.796204 
L 176.950548 154.1363 
L 177.452844 153.838819 
L 178.206286 154.124546 
L 178.708581 153.998036 
L 178.959729 155.053619 
L 179.210877 155.194869 
L 180.466615 154.360563 
L 180.717762 153.943731 
L 180.96891 153.863483 
L 181.9735 153.817723 
L 182.224648 154.332046 
L 182.475795 154.204753 
L 182.726943 153.800976 
L 183.480386 153.823827 
L 183.982681 154.489556 
L 184.484976 154.524419 
L 185.238419 154.908109 
L 185.489566 154.638198 
L 185.740714 154.848088 
L 186.243009 154.508835 
L 186.996452 155.380617 
L 187.2476 155.356867 
L 187.498747 155.451789 
L 188.001042 155.249803 
L 188.754485 155.060455 
L 189.005633 155.519915 
L 189.25678 155.126813 
L 189.759075 155.375004 
L 190.512518 155.101959 
L 190.763666 154.85426 
L 191.014813 154.889442 
L 191.265961 154.678209 
L 191.517109 154.304582 
L 192.772847 154.130947 
L 193.023994 154.349898 
L 193.275142 154.349898 
L 194.53088 154.814785 
L 194.782027 155.259972 
L 195.786618 154.987616 
L 196.288913 154.483074 
L 196.791208 154.00771 
L 198.046946 153.3093 
L 198.298094 152.744162 
L 198.549241 154.171592 
L 199.302684 153.986837 
L 199.553831 153.228132 
L 199.804979 152.906221 
L 200.307274 153.086952 
L 201.311865 153.598574 
L 201.81416 154.382655 
L 202.065307 154.569789 
L 202.81875 154.452304 
L 203.069898 154.229719 
L 203.321045 155.138653 
L 203.82334 154.710898 
L 205.079078 153.866974 
L 205.330226 153.705173 
L 206.585964 153.797269 
L 207.088259 153.86648 
L 207.339407 153.635352 
L 208.09285 153.612356 
L 208.343997 153.853576 
L 208.846292 153.45013 
L 209.09744 154.33117 
L 209.850883 154.307794 
L 210.10203 154.132568 
L 210.604325 154.798186 
L 210.855473 154.916409 
L 211.608916 154.560758 
L 211.860063 155.324821 
L 212.362359 155.925635 
L 212.613506 156.132152 
L 213.366949 156.278669 
L 213.618096 156.79323 
L 213.869244 156.110991 
L 214.120392 156.916512 
L 214.371539 156.667603 
L 215.124982 157.014012 
L 215.627277 155.916215 
L 215.878425 156.779239 
L 216.129572 156.468957 
L 216.883015 156.752308 
L 217.38531 156.011305 
L 217.636458 156.023496 
L 217.887606 155.487087 
L 218.641048 155.739848 
L 219.143343 155.630931 
L 219.394491 155.401449 
L 219.645639 155.425482 
L 220.399081 155.701903 
L 221.152524 155.135651 
L 221.403672 154.72981 
L 222.157115 154.540676 
L 222.408262 153.505089 
L 222.65941 153.172075 
L 222.910557 153.030904 
L 223.161705 153.24825 
L 224.417443 152.915322 
L 224.919738 153.740519 
L 225.673181 153.193581 
L 226.677771 154.740314 
L 227.431214 154.847623 
L 227.682362 155.170358 
L 229.440395 155.073919 
L 229.94269 154.666258 
L 230.193837 154.642453 
L 231.198428 154.725729 
L 231.449575 153.843697 
L 231.951871 154.511568 
L 232.956461 153.450177 
L 233.458756 153.000268 
L 233.709904 152.40526 
L 234.463346 152.40526 
L 234.714494 152.145786 
L 234.965642 152.32517 
L 235.216789 152.178804 
L 236.22138 152.223689 
L 236.472527 151.875488 
L 236.723675 151.797491 
L 238.23056 149.783388 
L 238.481708 149.825767 
L 238.984003 149.518592 
L 239.737446 149.276328 
L 239.988593 149.496242 
L 240.239741 149.864699 
L 240.490889 149.981537 
L 240.742036 149.4703 
L 241.746627 149.34409 
L 241.997774 148.861541 
L 242.248922 149.02747 
L 242.500069 148.673466 
L 243.50466 148.137824 
L 243.755807 148.311098 
L 244.006955 147.727675 
L 244.258102 144.648837 
L 245.011545 144.677031 
L 245.51384 142.50394 
L 245.764988 142.155424 
L 246.016136 142.828941 
L 247.020726 142.183887 
L 247.271874 142.255263 
L 247.523021 142.612794 
L 247.774169 143.261885 
L 248.778759 143.005851 
L 249.029907 143.369931 
L 249.281054 143.195467 
L 249.532202 144.128121 
L 250.285645 144.137479 
L 250.536792 143.83813 
L 250.78794 144.107487 
L 251.290235 144.014002 
L 252.043678 144.256516 
L 252.294825 144.031343 
L 252.545973 144.759227 
L 252.797121 143.91396 
L 253.048268 144.062906 
L 253.801711 144.2404 
L 254.052858 145.22553 
L 254.304006 145.215929 
L 254.555154 145.571357 
L 254.806301 145.30976 
L 255.559744 145.011263 
L 255.810892 145.326755 
L 256.313187 145.39418 
L 256.564334 144.139814 
L 257.820072 141.382133 
L 258.07122 142.084253 
L 258.322368 142.137812 
L 259.326958 142.691978 
L 260.080401 142.619413 
L 261.084991 141.995473 
L 261.336139 143.412084 
L 261.587286 144.177556 
L 261.838434 143.886306 
L 262.591877 143.886306 
L 263.094172 146.002987 
L 263.345319 145.109235 
L 263.596467 145.272714 
L 264.601057 145.369248 
L 264.852205 144.159774 
L 265.103352 144.075154 
L 266.35909 142.607136 
L 266.610238 143.105568 
L 266.861386 143.298154 
L 267.112533 138.893707 
L 267.865976 138.97706 
L 268.368271 140.52698 
L 268.619419 140.951845 
L 268.870566 142.265837 
L 269.624009 143.74011 
L 269.875157 143.088798 
L 270.126304 142.819257 
L 270.377452 145.081781 
L 270.628599 143.910102 
L 271.382042 143.074316 
L 271.63319 143.418826 
L 272.135485 142.058387 
L 272.386633 142.385632 
L 273.391223 141.689341 
L 273.642371 142.031775 
L 273.893518 142.158972 
L 274.144666 140.400012 
L 274.898108 139.193169 
L 275.149256 138.513199 
L 275.400404 139.031724 
L 275.651551 140.259664 
L 275.902699 139.264992 
L 276.656142 138.608799 
L 277.158437 137.301229 
L 277.409584 137.772972 
L 277.660732 136.58013 
L 278.414175 137.115984 
L 278.665322 136.905353 
L 278.91647 136.84086 
L 279.167618 137.629636 
L 279.418765 137.391729 
L 280.172208 137.66907 
L 280.423355 137.077823 
L 280.674503 137.069714 
L 280.925651 137.660698 
L 281.176798 138.867839 
L 281.930241 136.229437 
L 282.432536 138.551978 
L 282.683684 136.464922 
L 283.688274 138.997596 
L 283.939422 138.289403 
L 284.441717 137.76239 
L 284.692864 139.079742 
L 285.446307 138.429543 
L 285.697455 136.980616 
L 285.948602 137.119018 
L 286.19975 135.79572 
L 286.450898 136.476629 
L 287.20434 136.041988 
L 287.455488 135.133882 
L 287.706636 135.079299 
L 287.957783 136.161568 
L 288.208931 136.713108 
L 288.962374 137.061424 
L 289.213521 136.775518 
L 289.464669 136.832318 
L 289.715816 135.47562 
L 290.720407 136.606068 
L 290.971554 135.223331 
L 291.222702 136.021678 
L 291.473849 136.045603 
L 291.724997 135.403195 
L 292.729587 134.733417 
L 293.231883 133.689199 
L 293.48303 133.924554 
L 294.236473 133.748948 
L 294.48762 134.494056 
L 294.738768 133.936684 
L 294.989916 133.806809 
L 295.241063 134.804454 
L 296.245654 134.064791 
L 296.496801 133.482178 
L 296.747949 133.829952 
L 296.999096 133.303917 
L 298.003687 133.394253 
L 298.254834 133.122621 
L 298.505982 133.482453 
L 298.75713 132.060845 
L 299.510572 132.243653 
L 299.76172 132.464009 
L 300.012867 132.094813 
L 300.515163 133.556497 
L 301.268605 133.958376 
L 302.022048 133.181943 
L 302.273196 133.505108 
L 303.026639 134.93662 
L 303.277786 135.164075 
L 303.528934 134.746111 
L 303.780081 135.737716 
L 304.031229 135.489783 
L 304.784672 136.912956 
L 305.286967 138.533745 
L 305.789262 137.724412 
L 306.542705 137.312974 
L 306.793852 137.91996 
L 307.547295 136.330004 
L 308.551886 135.690387 
L 308.803033 136.458617 
L 309.054181 135.521087 
L 309.305328 135.624731 
L 310.058771 135.792592 
L 310.309919 136.001262 
L 310.561066 136.025459 
L 310.812214 135.815622 
L 311.063361 135.871842 
L 311.816804 135.550197 
L 312.067952 135.653927 
L 312.319099 135.453941 
L 312.570247 135.6689 
L 312.821395 139.25402 
L 313.574837 139.245263 
L 313.825985 138.886406 
L 314.32828 137.697295 
L 314.579428 137.570767 
L 315.33287 137.596145 
L 315.835166 137.03912 
L 316.086313 136.888729 
L 316.337461 137.962636 
L 317.090904 138.304424 
L 317.342051 138.588734 
L 317.593199 139.161245 
L 317.844346 139.416301 
L 318.095494 139.478242 
L 318.848937 140.009969 
L 319.100084 139.004598 
L 319.351232 139.504227 
L 319.60238 139.566333 
L 319.853527 138.962155 
L 321.109265 138.013225 
L 321.360413 138.449897 
L 321.61156 138.285499 
L 322.867298 138.899464 
L 323.118446 139.301845 
L 323.369593 140.017244 
L 324.123036 140.152041 
L 324.374184 141.387147 
L 324.625331 141.387147 
L 324.876479 140.792568 
L 325.881069 140.930027 
L 326.132217 140.305115 
L 326.383364 140.259834 
L 326.634512 139.310148 
L 326.88566 139.787699 
L 327.639102 139.564054 
L 327.89025 140.45387 
L 328.141398 140.644792 
L 328.392545 140.480391 
L 328.643693 139.197602 
L 329.397136 139.939024 
L 329.648283 138.456296 
L 329.899431 137.883546 
L 330.150578 138.422853 
L 330.401726 139.376842 
L 331.155169 139.376842 
L 331.406316 139.802866 
L 331.657464 141.372072 
L 331.908611 141.903155 
L 332.159759 141.289737 
L 332.913202 141.61526 
L 333.164349 140.293569 
L 333.415497 140.338991 
L 333.917792 142.076162 
L 334.671235 141.118018 
L 334.922382 141.590987 
L 335.17353 143.542021 
L 335.675825 140.382279 
L 336.429268 140.64722 
L 336.680416 138.477416 
L 336.931563 139.246521 
L 337.182711 138.053403 
L 337.433858 139.014264 
L 338.187301 138.252276 
L 338.438449 138.620028 
L 338.689596 137.321429 
L 338.940744 137.0901 
L 339.191892 137.839889 
L 339.945334 139.106603 
L 340.196482 138.444481 
L 340.447629 138.708732 
L 340.949925 137.179892 
L 341.703367 137.889394 
L 342.205663 138.73695 
L 342.707958 139.171845 
L 343.461401 138.355683 
L 343.963696 137.124284 
L 344.214843 138.115272 
L 344.465991 136.706401 
L 345.219434 136.012274 
L 345.470581 137.993989 
L 345.972876 137.452016 
L 346.224024 139.290113 
L 347.73091 137.466298 
L 347.982057 137.83798 
L 348.7355 138.518248 
L 348.986648 137.93309 
L 349.237795 139.830421 
L 349.488943 139.857895 
L 349.74009 140.499506 
L 350.493533 141.663116 
L 350.995828 139.173405 
L 351.246976 139.019772 
L 351.498123 138.668631 
L 352.753861 138.374494 
L 353.005009 140.670783 
L 353.256157 138.109461 
L 354.009599 137.914994 
L 354.511895 137.414963 
L 355.01419 136.618741 
L 355.767632 137.113526 
L 356.01878 136.897697 
L 356.269928 137.30135 
L 356.521075 137.006492 
L 356.772223 136.386458 
L 358.027961 137.452492 
L 358.279108 135.867834 
L 358.530256 138.149499 
L 359.534846 138.594244 
L 359.785994 137.697353 
L 360.037142 138.066118 
L 360.288289 136.639921 
L 361.041732 136.220191 
L 361.292879 135.55024 
L 361.544027 135.378031 
L 362.046322 136.269166 
L 362.799765 136.328989 
L 363.050913 135.26772 
L 363.553208 134.602566 
L 363.804355 133.904274 
L 365.311241 134.106239 
L 365.562388 133.229355 
L 366.566979 132.642081 
L 366.818126 132.634241 
L 367.069274 132.853771 
L 367.320422 132.585798 
L 368.073864 132.08458 
L 368.325012 132.285787 
L 368.57616 132.853419 
L 368.827307 133.129342 
L 369.078455 133.224557 
L 370.083045 132.360456 
L 370.334193 131.737108 
L 370.58534 132.451092 
L 370.836488 131.755928 
L 372.092226 132.148317 
L 372.343373 131.512352 
L 372.594521 132.566578 
L 373.347964 132.94277 
L 373.599111 132.420802 
L 373.850259 132.639508 
L 374.101407 132.678768 
L 374.352554 132.215065 
L 375.105997 131.585447 
L 375.357144 131.700308 
L 375.608292 130.840305 
L 375.85944 130.509272 
L 376.110587 130.748135 
L 376.86403 130.688069 
L 377.115178 130.957949 
L 377.366325 130.633497 
L 377.617473 130.596054 
L 377.86862 130.132273 
L 378.622063 130.235852 
L 378.873211 129.916931 
L 379.124358 128.555242 
L 379.375506 128.605136 
L 380.631244 128.398024 
L 380.882391 128.440631 
L 381.133539 129.229677 
L 381.384687 132.982822 
L 382.138129 134.033708 
L 382.389277 134.090878 
L 382.891572 134.492552 
L 383.14272 133.50167 
L 383.896163 133.676143 
L 384.14731 134.279199 
L 384.398458 135.304528 
L 384.649605 137.525526 
L 385.654196 139.202585 
L 386.156491 138.404404 
L 386.407638 138.486754 
L 386.658786 139.073497 
L 387.412229 140.310192 
L 387.663376 139.447779 
L 387.914524 139.87965 
L 388.165672 139.376862 
L 388.416819 139.339363 
L 389.42141 140.275883 
L 389.923705 139.171738 
L 390.174852 139.81562 
L 390.928295 140.365349 
L 391.179443 139.087954 
L 391.43059 139.31161 
L 391.681738 138.796296 
L 391.932885 137.935557 
L 392.686328 137.237307 
L 392.937476 137.192717 
L 393.188623 137.66492 
L 393.439771 137.322474 
L 393.690919 137.778327 
L 394.444361 137.832542 
L 394.695509 136.710517 
L 394.946657 136.974868 
L 395.197804 136.868459 
L 395.448952 136.62964 
L 396.202394 136.48012 
L 396.453542 137.163688 
L 396.70469 135.969803 
L 396.955837 136.602121 
L 397.206985 136.241522 
L 398.211575 136.023758 
L 398.462723 135.676775 
L 398.965018 136.055309 
L 399.969608 136.342124 
L 400.471904 135.60235 
L 400.723051 134.468649 
L 401.476494 134.301408 
L 401.727641 135.092601 
L 401.978789 134.905818 
L 402.481084 134.165184 
L 403.485675 132.943275 
L 403.736822 131.999556 
L 404.239117 133.055154 
L 404.99256 132.310796 
L 405.494855 133.883147 
L 405.99715 135.441641 
L 406.750593 136.907896 
L 407.001741 136.635023 
L 407.252888 136.839469 
L 407.504036 136.446438 
L 407.755184 137.499475 
L 408.508626 137.844445 
L 408.759774 136.709378 
L 409.010922 137.573783 
L 409.262069 137.728478 
L 409.513217 136.997783 
L 410.26666 136.342492 
L 410.517807 136.899284 
L 410.768955 136.406625 
L 411.020102 136.734184 
L 411.27125 138.358137 
L 412.27584 137.590372 
L 412.526988 137.590372 
L 412.778135 136.605878 
L 413.029283 136.124964 
L 414.033873 136.503552 
L 414.536169 133.773043 
L 414.787316 133.089871 
L 415.791906 132.354539 
L 416.043054 131.573215 
L 416.294202 131.399251 
L 416.545349 131.769336 
L 417.54994 132.23937 
L 418.052235 132.545243 
L 418.303382 133.233242 
L 419.056825 133.085105 
L 419.307973 133.970781 
L 419.55912 132.96537 
L 420.061416 133.161944 
L 420.814858 132.545449 
L 421.066006 133.169177 
L 421.317153 134.295744 
L 421.819449 133.012333 
L 422.572891 133.258252 
L 422.824039 133.992143 
L 423.577482 132.041331 
L 424.330925 132.40193 
L 424.582072 131.585531 
L 424.83322 131.744103 
L 425.335515 132.616074 
L 426.088958 131.990278 
L 426.340105 132.086369 
L 426.591253 132.319107 
L 426.8424 131.907505 
L 427.093548 128.526981 
L 427.846991 128.305196 
L 428.098138 128.614059 
L 428.349286 128.42144 
L 428.851581 128.487818 
L 429.605024 127.675315 
L 429.856172 127.718784 
L 430.609614 126.968299 
L 431.363057 126.910997 
L 432.1165 127.29831 
L 433.12109 126.981147 
L 433.372238 126.909503 
L 433.623385 127.231399 
L 433.874533 127.000703 
L 434.125681 127.438053 
L 434.879123 126.568602 
L 435.130271 126.504718 
L 435.381419 126.781109 
L 435.883714 127.109263 
L 436.637156 127.389701 
L 436.888304 128.54073 
L 437.390599 128.533247 
L 437.641747 127.989891 
L 438.646337 128.151321 
L 439.39978 127.272123 
L 440.153223 127.337132 
L 440.40437 127.626498 
L 440.655518 127.7212 
L 441.157813 126.431434 
L 442.162403 126.106328 
L 442.915846 125.636832 
L 443.669289 125.956426 
L 443.920437 125.795399 
L 444.422732 125.104945 
L 444.673879 125.612643 
L 445.427322 125.730713 
L 445.67847 126.427213 
L 445.929617 126.398875 
L 446.180765 126.165297 
L 446.431912 126.418695 
L 447.185355 125.95837 
L 447.436503 126.070444 
L 447.68765 126.414598 
L 447.938798 125.904698 
L 448.189946 125.946676 
L 449.194536 125.281342 
L 449.445684 123.778524 
L 449.696831 123.385935 
L 449.947979 119.991012 
L 450.701422 121.68577 
L 450.952569 120.656386 
L 451.203717 121.264109 
L 451.454864 121.176005 
L 451.706012 122.771042 
L 452.459455 122.451124 
L 452.710602 121.777246 
L 452.96175 120.578464 
L 453.212897 120.528626 
L 453.464045 121.194337 
L 454.217488 120.960406 
L 454.468635 120.319094 
L 454.970931 120.300522 
L 455.222078 120.40574 
L 456.226668 121.106907 
L 456.477816 120.494732 
L 456.980111 122.235133 
L 457.733554 123.908929 
L 457.984702 125.28092 
L 458.235849 125.336824 
L 458.486997 128.009937 
L 458.738144 128.241701 
L 459.491587 126.241857 
L 459.742735 127.827414 
L 459.993882 125.806363 
L 461.24962 131.584282 
L 461.500768 129.014967 
L 461.751915 130.808953 
L 462.003063 135.753888 
L 462.254211 127.605491 
L 463.007653 135.136214 
L 463.258801 130.017998 
L 463.761096 133.540858 
L 464.012244 133.640792 
L 464.765687 130.225369 
L 465.016834 127.851231 
L 465.267982 128.759338 
L 465.519129 125.274137 
L 465.770277 127.656533 
L 466.52372 125.169773 
L 466.774867 126.200329 
L 467.026015 127.927967 
L 467.277162 125.940685 
L 467.52831 126.109642 
L 468.281753 122.793804 
L 468.5329 122.815223 
L 468.784048 122.40068 
L 469.035196 123.702877 
L 470.039786 122.563296 
L 470.290934 121.169546 
L 470.542081 122.401278 
L 470.793229 121.039927 
L 471.797819 122.151196 
L 472.048967 124.140196 
L 472.300114 121.370307 
L 472.551262 122.106501 
L 472.802409 121.950966 
L 473.555852 121.803046 
L 473.807 122.3084 
L 474.058147 120.141421 
L 474.560443 123.117439 
L 475.313885 122.739749 
L 475.816181 121.649696 
L 476.067328 121.656752 
L 476.318476 121.304019 
L 477.071918 120.982237 
L 477.323066 122.190112 
L 477.574214 122.654775 
L 477.825361 121.68607 
L 478.076509 122.251283 
L 479.081099 120.818939 
L 479.332247 118.873472 
L 479.583394 119.614362 
L 479.834542 119.425791 
L 480.839132 119.372154 
L 481.09028 118.555275 
L 481.341428 119.77677 
L 481.592575 118.944668 
L 482.346018 119.654388 
L 482.597165 119.478953 
L 482.848313 119.606618 
L 483.350608 117.99752 
L 484.104051 118.432182 
L 484.355199 118.845204 
L 484.606346 118.295631 
L 484.857494 121.020862 
L 485.108641 121.279549 
L 486.364379 120.467275 
L 486.866674 121.069789 
L 487.620117 120.740729 
L 487.871265 120.858814 
L 488.624708 122.56725 
L 489.37815 122.008285 
L 489.629298 120.89079 
L 489.880446 121.602412 
L 490.131593 121.375291 
L 491.136184 121.085855 
L 491.387331 121.948154 
L 491.638479 121.733406 
L 491.889626 121.868719 
L 492.140774 121.075631 
L 492.894217 121.741743 
L 493.145364 121.456725 
L 493.647659 121.343562 
L 493.898807 120.736569 
L 494.65225 119.936533 
L 494.903397 120.243695 
L 495.154545 120.003014 
L 495.405693 120.447437 
L 495.65684 127.226907 
L 496.66143 128.346361 
L 496.912578 129.33818 
L 497.163726 129.407659 
L 497.414873 129.633806 
L 498.168316 129.135327 
L 498.419464 128.41803 
L 498.670611 128.596446 
L 498.921759 128.613629 
L 499.172906 129.077706 
L 499.926349 128.043516 
L 500.177497 128.917017 
L 500.428644 128.050842 
L 500.679792 128.585431 
L 500.93094 128.301772 
L 501.684382 128.267624 
L 502.186677 128.781037 
L 502.437825 128.055556 
L 502.688973 127.962176 
L 503.442415 128.080761 
L 503.944711 127.733089 
L 504.195858 127.859449 
L 504.447006 126.989146 
L 505.200449 126.558738 
L 505.451596 126.689823 
L 505.702744 125.489933 
L 505.953891 126.975842 
L 507.209629 128.207811 
L 507.460777 127.601876 
L 507.711924 128.157079 
L 507.963072 127.88426 
L 508.716515 127.774146 
L 509.21881 126.966842 
L 509.469958 127.008274 
L 509.721105 127.364973 
L 510.474548 127.507207 
L 510.725696 127.314113 
L 510.976843 128.258401 
L 511.227991 127.967702 
L 511.479138 127.305412 
L 512.232581 126.060036 
L 512.483729 126.25482 
L 512.986024 125.402906 
L 513.237171 126.385712 
L 513.990614 125.82927 
L 514.241762 126.087677 
L 514.492909 125.031362 
L 514.744057 124.476609 
L 514.995205 124.90676 
L 515.748647 124.069097 
L 515.999795 124.10783 
L 516.250943 124.32495 
L 516.753238 123.850817 
L 517.50668 123.52712 
L 517.757828 124.406602 
L 518.008976 124.351923 
L 518.260123 124.039832 
L 518.511271 128.454006 
L 519.264714 129.735685 
L 519.767009 131.971842 
L 520.018156 132.103915 
L 520.269304 131.943039 
L 521.022747 131.773365 
L 521.273894 131.407206 
L 521.525042 130.616129 
L 521.77619 130.330933 
L 522.027337 130.595921 
L 522.78078 130.40281 
L 523.031927 130.549272 
L 523.283075 129.713341 
L 523.534223 130.974125 
L 523.78537 130.500539 
L 524.538813 129.830253 
L 525.041108 130.857571 
L 525.292256 130.338824 
L 525.543403 130.549262 
L 526.296846 129.933123 
L 526.547994 129.072216 
L 526.799141 129.036686 
L 527.301436 128.681832 
L 528.054879 127.890101 
L 528.306027 126.845505 
L 528.557174 126.559145 
L 529.05947 124.828751 
L 529.812912 126.265887 
L 530.06406 125.858453 
L 530.315208 126.368995 
L 530.566355 126.210597 
L 530.817503 126.650764 
L 532.073241 125.49353 
L 532.324388 125.877297 
L 532.575536 128.506206 
L 533.580126 129.644728 
L 534.082421 128.834942 
L 535.087012 128.834942 
L 535.338159 126.777599 
L 535.589307 127.318475 
L 535.840455 126.402315 
L 535.840455 126.402315 
" clip-path="url(#p2a797bc8de)" style="fill: none; stroke: #1f77b4; stroke-linecap: square"/>
   </g>
   <g id="line2d_12">
    <path d="M 78.249545 158.916357 
L 78.751841 162.297157 
L 79.002988 163.193185 
L 79.756431 163.122743 
L 80.007579 162.419571 
L 80.761021 166.804887 
L 81.765612 166.466141 
L 82.016759 166.237053 
L 82.267907 165.750987 
L 82.519054 164.775025 
L 83.272497 164.819056 
L 83.523645 164.407808 
L 84.02594 165.358564 
L 84.277088 163.513318 
L 85.03053 163.499072 
L 85.281678 165.265592 
L 85.532826 165.05733 
L 85.783973 165.042527 
L 86.035121 167.676321 
L 86.788564 169.587273 
L 87.039711 169.140405 
L 87.542006 169.452034 
L 87.793154 168.742606 
L 88.797744 166.698547 
L 89.048892 165.66236 
L 89.300039 162.07076 
L 90.30463 160.034 
L 90.555777 159.928052 
L 90.806925 159.637451 
L 91.058073 159.545618 
L 91.30922 159.820496 
L 92.062663 160.091582 
L 92.31381 158.241454 
L 92.564958 157.999293 
L 92.816106 158.366772 
L 93.820696 158.763918 
L 94.071844 159.525424 
L 94.574139 159.617496 
L 94.825286 158.906001 
L 95.578729 158.802366 
L 95.829877 159.009136 
L 96.081024 157.76235 
L 96.332172 158.115456 
L 96.58332 156.856345 
L 97.336762 156.732897 
L 97.58791 156.806754 
L 97.839057 156.091536 
L 98.090205 156.030919 
L 99.094795 155.607214 
L 99.597091 154.499699 
L 99.848238 154.651441 
L 100.099386 154.042263 
L 101.103976 154.504684 
L 101.355124 154.446302 
L 101.606271 154.877707 
L 101.857419 154.606735 
L 102.610862 154.34922 
L 102.862009 154.395749 
L 103.113157 153.347568 
L 103.364304 153.23396 
L 103.615452 152.905378 
L 104.368895 153.085243 
L 104.620042 153.830422 
L 104.87119 153.66949 
L 105.122338 153.715286 
L 105.373485 153.87579 
L 106.378076 153.63428 
L 106.629223 152.684576 
L 107.131518 154.698963 
L 107.884961 154.146799 
L 108.136109 154.645375 
L 108.387256 155.595906 
L 108.638404 155.343724 
L 108.889551 154.914021 
L 109.642994 154.97309 
L 109.894142 154.168567 
L 110.145289 154.052485 
L 110.396437 154.619682 
L 110.647585 148.2711 
L 111.401027 147.038633 
L 111.652175 146.949576 
L 111.903323 145.883334 
L 112.15447 145.700443 
L 112.405618 144.952836 
L 113.15906 144.886935 
L 113.410208 143.873672 
L 113.661356 144.048516 
L 114.163651 143.37637 
L 115.670536 142.256 
L 115.921684 142.84041 
L 116.675127 143.055939 
L 116.926274 142.974696 
L 117.177422 143.109824 
L 117.42857 142.025193 
L 117.679717 143.064743 
L 118.684307 142.451387 
L 118.935455 142.024018 
L 119.186603 141.856571 
L 119.43775 142.585168 
L 120.191193 141.834687 
L 120.442341 142.089201 
L 120.693488 142.124522 
L 120.944636 141.010969 
L 121.195783 143.386821 
L 121.949226 143.834071 
L 122.702669 142.220952 
L 122.953816 142.531727 
L 124.209554 141.650006 
L 124.460702 140.563775 
L 124.71185 138.890374 
L 125.465292 137.929965 
L 125.71644 137.304093 
L 125.967588 137.3199 
L 126.218735 136.892839 
L 126.469883 137.378193 
L 127.223326 137.16435 
L 127.725621 136.185004 
L 127.976768 136.954847 
L 128.227916 135.817594 
L 128.981359 135.046447 
L 129.232506 134.334274 
L 129.483654 134.754404 
L 129.734801 134.665068 
L 129.985949 133.981517 
L 130.739392 134.251999 
L 130.990539 134.75968 
L 131.241687 134.647947 
L 131.743982 133.167917 
L 132.748572 132.67403 
L 132.99972 132.943374 
L 133.250868 132.094428 
L 133.502015 129.759167 
L 134.255458 129.798904 
L 134.506606 130.050736 
L 134.757753 131.017596 
L 135.008901 130.369119 
L 135.260048 130.261569 
L 136.013491 130.087252 
L 136.264639 129.749483 
L 136.515786 130.393084 
L 136.766934 130.669371 
L 137.018082 130.330176 
L 137.771524 130.357101 
L 138.273819 130.795916 
L 138.524967 129.564239 
L 138.776115 129.974051 
L 139.780705 129.580198 
L 140.031853 130.195208 
L 140.283 129.893169 
L 140.534148 131.972228 
L 141.287591 131.109633 
L 141.538738 131.71427 
L 141.789886 131.344764 
L 142.041033 129.762196 
L 142.292181 129.662325 
L 143.045624 129.111008 
L 143.296771 129.491254 
L 143.547919 128.320191 
L 143.799066 128.217221 
L 144.050214 128.262151 
L 144.803657 128.654189 
L 145.054804 127.226921 
L 145.305952 127.076368 
L 145.5571 126.688836 
L 145.808247 125.995197 
L 147.063985 126.172105 
L 147.56628 127.02032 
L 148.319723 126.864207 
L 148.570871 127.467613 
L 148.822018 127.278258 
L 149.073166 127.956874 
L 149.324313 127.548087 
L 150.077756 127.788463 
L 150.328904 127.152252 
L 150.580051 127.239974 
L 150.831199 126.448741 
L 151.082347 126.565828 
L 152.086937 123.921953 
L 152.338085 123.753528 
L 152.589232 124.609625 
L 152.84038 124.680495 
L 153.593822 124.325548 
L 153.84497 125.563242 
L 154.096118 125.738545 
L 154.347265 126.22419 
L 154.598413 126.463727 
L 155.351856 124.178073 
L 155.603003 124.242486 
L 155.854151 124.946385 
L 156.105298 126.253032 
L 156.356446 113.811403 
L 157.109889 115.865954 
L 157.361036 114.593377 
L 157.612184 111.958806 
L 158.114479 111.174372 
L 158.867922 111.344263 
L 159.370217 110.838148 
L 159.872512 110.753751 
L 160.625955 110.77592 
L 161.12825 111.627361 
L 161.379398 113.691774 
L 161.630545 113.305991 
L 162.635136 111.001332 
L 162.886283 110.250455 
L 163.388578 111.689778 
L 164.142021 112.703523 
L 164.393169 111.967383 
L 164.644316 109.550006 
L 165.146612 107.853056 
L 165.900054 107.345896 
L 166.151202 105.891952 
L 166.40235 105.630013 
L 166.653497 105.125163 
L 166.904645 104.084664 
L 167.909235 101.217748 
L 168.160383 104.088958 
L 168.41153 103.256052 
L 168.662678 105.012912 
L 169.667268 106.862583 
L 169.918416 105.888727 
L 170.169563 106.94835 
L 171.174154 104.698061 
L 171.425301 105.013215 
L 171.927597 106.209521 
L 172.178744 106.213551 
L 173.183334 107.149836 
L 173.68563 105.494187 
L 173.936777 105.950667 
L 174.69022 105.517234 
L 174.941368 104.627522 
L 175.192515 104.44863 
L 175.69481 102.921317 
L 176.699401 103.893559 
L 176.950548 102.069914 
L 177.201696 101.542442 
L 177.452844 101.907795 
L 178.206286 100.838524 
L 178.457434 100.190933 
L 178.708581 100.373141 
L 179.964319 104.072869 
L 180.466615 103.834394 
L 180.717762 104.504545 
L 180.96891 104.512327 
L 181.9735 103.017548 
L 182.224648 103.081513 
L 182.475795 106.951867 
L 183.480386 105.335315 
L 183.731533 106.506673 
L 183.982681 105.967841 
L 184.233828 107.506879 
L 184.484976 107.747216 
L 185.238419 108.069497 
L 185.489566 107.612216 
L 185.991862 107.696785 
L 186.243009 107.451089 
L 186.996452 106.30145 
L 187.2476 106.330139 
L 187.498747 106.014354 
L 187.749895 105.501497 
L 188.001042 104.592766 
L 188.754485 103.262656 
L 189.005633 104.61272 
L 189.25678 103.761414 
L 189.507928 104.13993 
L 189.759075 103.991815 
L 190.512518 103.688882 
L 191.014813 104.040463 
L 191.265961 103.239407 
L 191.517109 103.418728 
L 192.270551 103.629481 
L 192.521699 106.556518 
L 192.772847 106.867141 
L 193.023994 106.562539 
L 193.275142 106.740674 
L 194.028584 107.805726 
L 194.279732 107.656292 
L 194.53088 108.000868 
L 194.782027 108.781569 
L 195.786618 107.14672 
L 196.037765 107.121478 
L 196.288913 106.957521 
L 196.54006 106.295904 
L 197.544651 105.601416 
L 197.795798 104.87565 
L 198.046946 105.162591 
L 198.298094 104.512527 
L 198.549241 105.041993 
L 199.302684 104.105512 
L 199.553831 105.342402 
L 199.804979 105.031812 
L 200.056127 105.191959 
L 200.307274 105.187953 
L 201.060717 105.626015 
L 201.311865 105.556967 
L 201.563012 98.116237 
L 201.81416 96.323251 
L 202.065307 95.864595 
L 203.069898 92.992273 
L 203.321045 95.765645 
L 203.572193 94.017189 
L 203.82334 93.053177 
L 204.576783 92.16311 
L 204.827931 92.725069 
L 205.079078 92.255965 
L 205.330226 92.349346 
L 205.581374 91.268536 
L 206.585964 90.376859 
L 206.837112 90.52668 
L 207.088259 90.523796 
L 207.339407 90.731978 
L 208.09285 89.462074 
L 208.343997 89.651027 
L 208.595145 89.146754 
L 208.846292 86.118067 
L 209.09744 88.816593 
L 209.850883 88.713361 
L 210.10203 88.315347 
L 210.604325 88.048294 
L 210.855473 88.253753 
L 211.608916 86.684529 
L 211.860063 86.745567 
L 212.111211 86.113167 
L 212.362359 86.401083 
L 212.613506 87.597684 
L 213.366949 88.053537 
L 213.618096 89.58163 
L 213.869244 88.109375 
L 214.120392 89.503952 
L 214.371539 90.107255 
L 215.124982 91.617403 
L 215.627277 90.502941 
L 215.878425 90.37747 
L 216.129572 89.423256 
L 217.134163 86.85736 
L 217.38531 85.082004 
L 217.636458 85.564894 
L 217.887606 84.442309 
L 218.641048 84.619445 
L 218.892196 84.184864 
L 219.143343 84.401168 
L 219.394491 83.794399 
L 219.645639 83.644871 
L 220.650229 84.33007 
L 220.901377 83.847897 
L 221.152524 85.22545 
L 221.403672 84.541553 
L 222.157115 85.018921 
L 222.408262 84.510376 
L 222.65941 84.535722 
L 222.910557 84.005051 
L 223.161705 83.822029 
L 223.915148 82.538916 
L 224.166295 83.035387 
L 224.417443 82.591758 
L 224.919738 86.603802 
L 225.673181 83.274374 
L 226.175476 84.083801 
L 226.426624 85.013909 
L 226.677771 85.006148 
L 227.431214 85.613527 
L 227.933509 83.849691 
L 228.184657 84.003267 
L 228.435804 84.351958 
L 229.189247 84.056375 
L 229.440395 84.1247 
L 229.691542 83.876345 
L 229.94269 82.929034 
L 230.193837 82.677773 
L 231.198428 83.791947 
L 231.449575 83.817112 
L 231.700723 83.623263 
L 231.951871 84.347423 
L 232.705313 82.993377 
L 233.207609 82.655681 
L 233.458756 82.893323 
L 233.709904 80.254343 
L 234.463346 78.530095 
L 234.714494 78.574589 
L 234.965642 78.911028 
L 235.216789 80.052024 
L 235.467937 80.458461 
L 236.22138 82.323967 
L 236.472527 82.089636 
L 236.723675 81.174519 
L 236.974822 81.186394 
L 237.22597 80.452217 
L 238.23056 80.312237 
L 238.481708 79.963165 
L 238.732856 79.986244 
L 238.984003 79.863876 
L 239.737446 78.922226 
L 240.239741 77.681094 
L 240.490889 77.661425 
L 240.742036 76.883546 
L 241.495479 76.167099 
L 243.253512 76.44375 
L 243.50466 76.006421 
L 243.755807 77.061078 
L 244.006955 76.623532 
L 244.258102 75.307455 
L 245.011545 74.898029 
L 245.262693 74.289849 
L 245.51384 74.211135 
L 245.764988 74.46497 
L 246.016136 73.907576 
L 246.769578 73.719564 
L 247.020726 73.241684 
L 247.523021 74.573021 
L 247.774169 72.373339 
L 248.527612 73.051189 
L 248.778759 72.746917 
L 249.029907 73.565447 
L 249.281054 73.241417 
L 249.532202 73.29074 
L 250.285645 72.753568 
L 250.536792 72.369458 
L 250.78794 72.557003 
L 251.290235 72.162758 
L 252.043678 72.705288 
L 252.294825 73.373893 
L 252.545973 76.204701 
L 252.797121 75.293025 
L 253.048268 75.923157 
L 253.801711 78.250088 
L 254.304006 77.670627 
L 254.555154 77.068539 
L 254.806301 77.177237 
L 255.559744 76.486239 
L 256.062039 78.324609 
L 256.313187 78.259605 
L 256.564334 77.12022 
L 257.317777 75.738711 
L 257.568925 76.116269 
L 257.820072 75.969393 
L 258.322368 76.294536 
L 259.326958 75.830662 
L 259.829253 75.839062 
L 260.080401 76.663712 
L 261.084991 75.401791 
L 261.336139 72.654644 
L 261.838434 72.080888 
L 262.591877 70.80191 
L 262.843024 70.8132 
L 263.094172 70.485955 
L 263.345319 70.4113 
L 263.596467 70.616207 
L 264.601057 71.15346 
L 264.852205 70.279237 
L 265.103352 70.331249 
L 265.3545 69.27676 
L 266.107943 68.627356 
L 266.35909 67.694957 
L 266.610238 68.238326 
L 266.861386 68.140963 
L 267.112533 66.908248 
L 267.865976 66.304432 
L 268.117124 67.002802 
L 268.368271 66.473112 
L 268.870566 68.58459 
L 269.624009 72.127354 
L 269.875157 69.806906 
L 270.126304 69.211059 
L 270.377452 71.268937 
L 270.628599 68.474935 
L 271.382042 69.203359 
L 271.63319 68.361317 
L 272.135485 65.905804 
L 272.386633 66.35624 
L 273.391223 65.45923 
L 273.642371 66.727834 
L 273.893518 66.591202 
L 274.144666 65.939619 
L 274.898108 65.829288 
L 275.149256 65.917323 
L 275.400404 66.606056 
L 275.651551 68.294663 
L 275.902699 67.516323 
L 276.656142 67.673367 
L 276.907289 66.520247 
L 277.409584 66.689322 
L 277.660732 65.971069 
L 278.414175 65.217341 
L 278.665322 65.559955 
L 279.418765 65.094858 
L 280.172208 66.674651 
L 280.423355 65.188601 
L 280.674503 65.359187 
L 281.176798 68.018621 
L 281.930241 65.956388 
L 282.181389 69.193502 
L 282.432536 69.965307 
L 282.683684 68.034304 
L 283.688274 69.93401 
L 283.939422 69.122025 
L 284.190569 68.957175 
L 284.441717 69.853846 
L 284.692864 71.198198 
L 285.446307 70.972203 
L 285.697455 68.550028 
L 285.948602 68.855872 
L 286.19975 67.313473 
L 286.450898 67.865033 
L 287.20434 67.866837 
L 287.455488 66.775924 
L 287.706636 66.981528 
L 287.957783 68.275947 
L 288.208931 68.336087 
L 288.962374 69.217598 
L 289.213521 69.71725 
L 289.464669 70.573978 
L 289.715816 68.924832 
L 289.966964 68.719106 
L 290.720407 68.982828 
L 290.971554 68.5671 
L 291.222702 68.71963 
L 291.724997 66.400085 
L 293.231883 62.824963 
L 293.48303 63.723564 
L 294.236473 63.587448 
L 294.48762 65.189348 
L 294.738768 65.112851 
L 294.989916 64.824409 
L 295.241063 65.122671 
L 295.994506 65.411195 
L 296.245654 65.674386 
L 296.496801 64.815647 
L 296.747949 64.79035 
L 296.999096 64.522398 
L 298.003687 64.637938 
L 298.254834 63.899126 
L 298.505982 64.031118 
L 298.75713 63.132387 
L 299.510572 61.960922 
L 300.012867 61.913664 
L 300.264015 62.267864 
L 301.268605 62.630495 
L 301.519753 62.31657 
L 301.770901 62.345197 
L 302.022048 61.62777 
L 302.273196 61.885805 
L 303.026639 61.912549 
L 303.277786 62.687252 
L 303.528934 62.343923 
L 304.784672 66.139152 
L 305.035819 65.638161 
L 305.286967 66.719679 
L 305.538114 65.809486 
L 305.789262 66.495755 
L 306.542705 65.554871 
L 306.793852 66.485358 
L 307.296148 65.447301 
L 307.547295 64.65626 
L 308.300738 64.33223 
L 308.551886 63.662363 
L 308.803033 64.605142 
L 309.054181 63.981209 
L 309.305328 64.298548 
L 310.058771 64.486065 
L 310.309919 63.562768 
L 310.561066 63.890205 
L 310.812214 63.835478 
L 311.063361 64.024287 
L 312.067952 64.38767 
L 312.570247 63.365115 
L 313.574837 65.133807 
L 313.825985 65.00899 
L 314.077133 64.734533 
L 314.32828 64.03171 
L 314.579428 63.785218 
L 315.33287 63.465658 
L 315.584018 62.98586 
L 315.835166 62.747054 
L 316.337461 63.335446 
L 317.090904 63.117571 
L 317.342051 62.252173 
L 317.844346 62.891611 
L 318.095494 64.937804 
L 318.848937 64.422893 
L 319.100084 63.499961 
L 319.351232 61.934585 
L 319.853527 60.454554 
L 320.60697 59.890277 
L 320.858117 60.120241 
L 321.109265 59.47182 
L 321.360413 59.573737 
L 321.61156 59.142519 
L 322.616151 58.693396 
L 323.118446 60.324804 
L 323.369593 60.456433 
L 324.123036 60.015775 
L 324.374184 60.309007 
L 324.625331 61.012857 
L 324.876479 60.52416 
L 325.127626 59.74115 
L 325.881069 60.118654 
L 326.132217 60.562074 
L 326.383364 60.414225 
L 326.634512 61.289003 
L 326.88566 61.732629 
L 327.639102 61.376136 
L 327.89025 60.950404 
L 328.141398 61.182113 
L 328.392545 61.107051 
L 328.643693 58.980975 
L 329.397136 57.742195 
L 329.648283 58.15765 
L 329.899431 58.121221 
L 330.401726 60.613663 
L 331.155169 61.246294 
L 331.406316 61.282403 
L 331.908611 66.196766 
L 332.159759 64.171227 
L 332.913202 66.060702 
L 333.164349 64.20755 
L 333.666645 65.2841 
L 333.917792 67.089451 
L 334.671235 66.716069 
L 334.922382 68.550206 
L 335.17353 72.638209 
L 335.424678 70.873619 
L 335.675825 72.791561 
L 336.429268 75.458666 
L 336.680416 71.550364 
L 337.182711 68.499019 
L 337.433858 69.109521 
L 338.438449 69.861239 
L 338.689596 69.321329 
L 338.940744 70.844235 
L 339.191892 70.909077 
L 339.945334 74.182685 
L 340.196482 72.031105 
L 340.447629 72.475091 
L 340.698777 71.374355 
L 340.949925 79.203247 
L 341.703367 84.211776 
L 341.954515 82.948297 
L 342.205663 84.171857 
L 342.707958 84.088207 
L 343.461401 81.770858 
L 343.712548 81.585402 
L 343.963696 79.863956 
L 344.214843 80.52957 
L 344.465991 78.919453 
L 345.219434 77.231237 
L 345.470581 80.405253 
L 345.972876 80.091753 
L 346.224024 82.908064 
L 346.977467 81.70626 
L 347.228614 82.715016 
L 347.479762 82.515025 
L 347.73091 82.51783 
L 347.982057 83.201877 
L 348.7355 84.019885 
L 348.986648 83.043077 
L 349.237795 85.437774 
L 349.488943 86.465405 
L 349.74009 88.173982 
L 350.493533 88.976125 
L 350.995828 86.998782 
L 351.246976 87.604046 
L 351.498123 86.81486 
L 352.251566 86.861704 
L 352.753861 86.011247 
L 353.005009 88.533123 
L 353.256157 85.85888 
L 354.009599 83.649068 
L 354.260747 84.688235 
L 355.01419 82.056833 
L 355.767632 81.605285 
L 356.269928 82.050308 
L 356.521075 81.24264 
L 356.772223 79.809267 
L 357.776813 81.979706 
L 358.027961 81.833807 
L 358.279108 79.443253 
L 358.530256 78.832363 
L 359.534846 86.541579 
L 360.037142 82.772838 
L 360.288289 82.488274 
L 361.544027 80.140403 
L 361.795175 81.662719 
L 362.046322 81.450362 
L 362.799765 81.934903 
L 363.050913 80.589613 
L 363.553208 79.666942 
L 363.804355 78.907919 
L 364.808946 79.093627 
L 365.060093 78.58466 
L 365.311241 79.316542 
L 365.562388 78.4001 
L 366.315831 78.531195 
L 367.069274 79.664626 
L 367.320422 79.072032 
L 368.325012 79.053214 
L 368.827307 81.011195 
L 369.078455 80.625276 
L 369.831898 77.715825 
L 370.083045 77.358367 
L 370.334193 75.791651 
L 370.58534 76.54914 
L 370.836488 75.477617 
L 371.589931 75.689024 
L 371.841078 74.018879 
L 372.092226 74.330064 
L 372.343373 72.046777 
L 372.594521 73.508186 
L 373.347964 74.382977 
L 373.599111 73.640773 
L 373.850259 73.728096 
L 374.101407 73.550714 
L 374.352554 73.006746 
L 375.357144 72.209575 
L 375.608292 70.927684 
L 375.85944 71.007348 
L 376.110587 70.410926 
L 376.86403 70.2273 
L 377.115178 70.777916 
L 377.366325 70.151572 
L 377.617473 70.27325 
L 378.622063 71.77316 
L 378.873211 70.979926 
L 379.375506 71.404597 
L 380.380096 70.918407 
L 380.631244 70.431178 
L 380.882391 70.321703 
L 381.133539 71.251869 
L 381.384687 73.221546 
L 382.138129 72.930912 
L 382.389277 72.542205 
L 382.640425 72.664435 
L 382.891572 72.035325 
L 383.14272 72.076344 
L 383.896163 72.797071 
L 384.14731 74.361349 
L 384.398458 74.166047 
L 384.649605 75.061256 
L 384.900753 75.397256 
L 385.654196 77.961254 
L 385.905343 77.015524 
L 386.156491 77.649223 
L 386.407638 77.489673 
L 386.658786 78.443359 
L 387.412229 79.718011 
L 387.663376 78.807552 
L 387.914524 79.57744 
L 388.165672 80.915785 
L 388.416819 81.530621 
L 389.42141 82.054011 
L 389.672557 82.924763 
L 389.923705 83.243381 
L 390.174852 84.338591 
L 390.928295 84.856272 
L 391.179443 81.979514 
L 391.43059 82.481576 
L 391.932885 81.24362 
L 392.686328 80.403056 
L 392.937476 79.750635 
L 393.188623 81.010478 
L 393.439771 80.422331 
L 393.690919 81.441511 
L 394.444361 81.328952 
L 394.695509 79.069652 
L 394.946657 79.004123 
L 395.197804 78.736971 
L 395.448952 79.370813 
L 396.202394 79.123267 
L 396.453542 79.445907 
L 396.70469 77.302091 
L 396.955837 76.26159 
L 397.206985 76.005869 
L 397.960428 75.512782 
L 398.211575 76.50249 
L 398.462723 76.368697 
L 398.965018 77.015011 
L 399.718461 77.80174 
L 399.969608 77.775192 
L 400.220756 77.045502 
L 400.471904 75.423423 
L 400.723051 75.089552 
L 401.727641 75.22163 
L 401.978789 74.564596 
L 402.229937 74.448994 
L 402.481084 74.875772 
L 403.234527 74.162076 
L 403.736822 72.391797 
L 403.98797 73.625391 
L 404.239117 73.218518 
L 404.99256 73.27812 
L 405.243708 73.127709 
L 405.746003 75.668939 
L 406.750593 79.306135 
L 407.252888 78.452376 
L 407.504036 77.26706 
L 407.755184 78.343155 
L 408.508626 79.082251 
L 408.759774 77.814446 
L 409.010922 79.414006 
L 409.262069 79.775595 
L 409.513217 76.748194 
L 410.26666 73.81304 
L 410.517807 74.524278 
L 410.768955 73.688823 
L 411.020102 73.627866 
L 411.27125 75.828359 
L 412.024693 75.054894 
L 412.27584 75.975743 
L 412.526988 76.084212 
L 412.778135 74.58772 
L 413.029283 74.460245 
L 414.033873 75.292527 
L 414.285021 74.125505 
L 414.536169 71.40971 
L 414.787316 71.662832 
L 415.540759 71.230586 
L 415.791906 70.610836 
L 416.043054 70.348782 
L 416.294202 70.362364 
L 416.545349 70.890169 
L 417.298792 71.287076 
L 417.54994 71.087858 
L 417.801087 71.339139 
L 418.303382 73.046772 
L 419.056825 72.527101 
L 419.307973 73.078582 
L 419.55912 71.699553 
L 419.810268 71.907982 
L 420.061416 73.221379 
L 420.814858 72.659994 
L 421.066006 72.676775 
L 421.317153 72.907073 
L 421.568301 70.912165 
L 422.572891 70.218876 
L 422.824039 71.826657 
L 423.326334 70.47117 
L 423.577482 69.796122 
L 424.330925 69.674925 
L 424.582072 67.472962 
L 424.83322 67.932106 
L 425.084367 67.914902 
L 425.335515 68.731301 
L 426.088958 67.521725 
L 426.591253 67.71787 
L 426.8424 67.339171 
L 427.093548 65.710746 
L 427.846991 65.251584 
L 428.098138 66.032759 
L 428.349286 66.01629 
L 428.600434 66.423426 
L 428.851581 66.097414 
L 429.605024 64.467664 
L 429.856172 64.644141 
L 430.107319 65.038434 
L 430.358467 64.895709 
L 430.609614 65.007901 
L 431.363057 64.927528 
L 431.614205 64.640815 
L 431.865352 64.84792 
L 432.1165 64.603766 
L 432.367647 65.717971 
L 433.12109 64.064187 
L 433.372238 64.907749 
L 433.623385 64.26755 
L 433.874533 64.465201 
L 434.125681 64.324192 
L 434.879123 62.28159 
L 435.130271 63.075987 
L 435.381419 62.806495 
L 435.883714 63.093388 
L 436.888304 64.853025 
L 437.139452 64.499255 
L 437.390599 64.634792 
L 437.641747 63.948909 
L 438.39519 63.948909 
L 438.646337 63.592813 
L 438.897485 62.937379 
L 439.148632 61.644858 
L 439.39978 61.659758 
L 440.153223 61.443594 
L 440.40437 60.861456 
L 440.655518 60.638392 
L 441.157813 58.863123 
L 442.162403 58.993986 
L 442.664699 58.89428 
L 442.915846 59.299133 
L 443.669289 60.100941 
L 444.422732 58.747735 
L 444.673879 59.415839 
L 445.427322 59.240784 
L 445.67847 58.735438 
L 445.929617 58.657149 
L 446.180765 58.19873 
L 446.431912 57.975442 
L 447.185355 56.666763 
L 447.436503 57.44533 
L 447.68765 57.733976 
L 447.938798 57.16286 
L 448.189946 57.104167 
L 449.194536 57.328547 
L 449.696831 56.504271 
L 449.947979 56.897159 
L 450.701422 58.610256 
L 450.952569 57.260015 
L 451.203717 57.669059 
L 451.454864 57.623156 
L 451.706012 59.215982 
L 452.459455 58.52745 
L 452.710602 57.346409 
L 453.212897 56.15235 
L 453.464045 56.589059 
L 454.719783 53.195522 
L 454.970931 53.465083 
L 455.222078 50.534662 
L 456.226668 49.558075 
L 456.477816 47.006351 
L 456.728964 47.802183 
L 456.980111 49.780383 
L 457.733554 52.731369 
L 457.984702 54.446649 
L 458.235849 53.554655 
L 458.486997 55.878187 
L 458.738144 52.991348 
L 459.491587 52.008371 
L 459.742735 53.599911 
L 459.993882 50.676834 
L 460.496178 53.430271 
L 461.24962 56.662358 
L 461.500768 54.002527 
L 461.751915 56.338353 
L 462.003063 61.446117 
L 462.254211 56.712592 
L 463.007653 64.414692 
L 463.258801 59.979168 
L 463.509949 62.75525 
L 463.761096 60.666343 
L 464.012244 62.081423 
L 464.765687 60.673493 
L 465.016834 53.51222 
L 465.267982 54.108561 
L 465.519129 52.13383 
L 465.770277 52.865653 
L 466.52372 50.741697 
L 466.774867 51.054455 
L 467.026015 54.305376 
L 467.277162 52.175994 
L 467.52831 54.064772 
L 468.281753 49.873723 
L 468.5329 51.330917 
L 468.784048 50.054668 
L 469.035196 50.68012 
L 470.039786 49.584798 
L 470.290934 47.403782 
L 470.542081 47.860951 
L 470.793229 45.800958 
L 471.044376 46.138051 
L 471.797819 46.890573 
L 472.048967 49.441128 
L 472.300114 46.86397 
L 472.551262 47.176132 
L 472.802409 46.356036 
L 473.555852 45.276442 
L 473.807 46.080121 
L 474.058147 45.062958 
L 474.309295 45.92726 
L 474.560443 47.283981 
L 475.816181 45.101227 
L 476.318476 43.064167 
L 477.071918 41.71243 
L 477.323066 43.073522 
L 477.574214 43.19389 
L 477.825361 41.849917 
L 478.076509 39.457621 
L 479.332247 37.138543 
L 479.583394 38.044797 
L 479.834542 36.850886 
L 480.839132 38.277512 
L 481.09028 39.199211 
L 481.341428 39.386492 
L 481.592575 37.475747 
L 482.346018 37.801435 
L 482.597165 37.711379 
L 482.848313 37.975058 
L 483.099461 37.970288 
L 483.350608 37.239416 
L 484.104051 37.777555 
L 484.606346 35.155029 
L 484.857494 37.697347 
L 485.108641 37.050792 
L 485.862084 35.923452 
L 486.113232 36.40235 
L 486.364379 35.631365 
L 486.615527 35.712708 
L 486.866674 35.516872 
L 487.620117 34.320238 
L 487.871265 34.65652 
L 488.122412 35.603968 
L 488.37356 34.453734 
L 488.624708 35.927197 
L 489.37815 35.722036 
L 489.629298 34.371118 
L 489.880446 34.22938 
L 490.131593 33.869128 
L 491.387331 32.745502 
L 491.889626 30.092761 
L 492.140774 30.210912 
L 492.894217 31.911742 
L 493.145364 30.563252 
L 493.647659 31.543141 
L 493.898807 31.268227 
L 494.65225 30.002878 
L 494.903397 30.726642 
L 495.154545 30.281089 
L 495.405693 31.516674 
L 496.410283 30.320419 
L 496.66143 31.145501 
L 497.163726 29.531708 
L 497.414873 29.528762 
L 498.168316 27.973516 
L 498.419464 27.148945 
L 498.921759 26.749317 
L 499.172906 27.250111 
L 499.926349 27.378692 
L 500.177497 28.556337 
L 500.428644 26.285586 
L 500.679792 26.275562 
L 500.93094 25.834179 
L 501.684382 23.043984 
L 502.437825 23.709567 
L 502.688973 21.844442 
L 503.944711 21.550572 
L 504.195858 22.023608 
L 504.447006 20.306462 
L 505.200449 19.586588 
L 505.702744 16.593097 
L 505.953891 20.465642 
L 506.205039 21.725998 
L 507.209629 24.072224 
L 507.460777 21.262162 
L 507.711924 22.585958 
L 507.963072 23.085185 
L 508.716515 20.656621 
L 508.967662 20.271553 
L 509.21881 21.802582 
L 509.469958 21.972694 
L 509.721105 22.891165 
L 510.725696 21.366134 
L 510.976843 23.063819 
L 511.227991 22.29175 
L 511.479138 20.514502 
L 512.232581 19.991672 
L 512.483729 19.380855 
L 512.734876 18.419045 
L 512.986024 18.15991 
L 513.237171 19.85307 
L 513.990614 17.998851 
L 514.241762 17.711241 
L 514.492909 17.019943 
L 514.995205 17.623575 
L 515.748647 16.218584 
L 515.999795 16.153299 
L 516.753238 17.446008 
L 517.50668 18.394222 
L 517.757828 17.937314 
L 518.260123 18.812061 
L 518.511271 18.095855 
L 519.264714 19.474918 
L 519.515861 18.66337 
L 519.767009 21.061723 
L 520.018156 19.749357 
L 520.269304 21.319775 
L 521.022747 21.164088 
L 521.273894 19.708376 
L 521.525042 17.224499 
L 522.027337 14.932727 
L 522.78078 17.602101 
L 523.031927 20.237948 
L 523.283075 18.119843 
L 523.534223 17.999294 
L 523.78537 18.494824 
L 524.538813 17.809714 
L 524.789961 18.096933 
L 525.292256 18.040967 
L 525.543403 19.135729 
L 526.296846 18.969078 
L 526.547994 19.548021 
L 526.799141 18.655724 
L 527.301436 18.572148 
L 528.054879 18.130692 
L 528.306027 18.166509 
L 528.557174 17.684876 
L 528.808322 18.130327 
L 529.05947 17.624766 
L 529.812912 17.475452 
L 530.06406 18.263073 
L 530.315208 19.57394 
L 530.817503 19.308045 
L 531.822093 18.197896 
L 532.073241 18.566554 
L 532.324388 18.255285 
L 532.575536 18.471949 
L 533.328979 18.282465 
L 533.580126 18.451528 
L 533.831274 19.29715 
L 535.338159 19.508097 
L 535.589307 18.855046 
L 535.840455 19.143211 
L 535.840455 19.143211 
" clip-path="url(#p2a797bc8de)" style="fill: none; stroke: #ff7f0e; stroke-linecap: square"/>
   </g>
   <g id="patch_3">
    <path d="M 55.37 177.32 
L 55.37 7.2 
" style="fill: none; stroke: #000000; stroke-linejoin: miter; stroke-linecap: square"/>
   </g>
   <g id="patch_4">
    <path d="M 55.37 177.32 
L 558.72 177.32 
" style="fill: none; stroke: #000000; stroke-linejoin: miter; stroke-linecap: square"/>
   </g>
   <g id="legend_1">
    <g id="patch_5">
     <path d="M 63.77 49.0275 
L 136.595 49.0275 
Q 138.995 49.0275 138.995 46.6275 
L 138.995 15.6 
Q 138.995 13.2 136.595 13.2 
L 63.77 13.2 
Q 61.37 13.2 61.37 15.6 
L 61.37 46.6275 
Q 61.37 49.0275 63.77 49.0275 
z
" style="fill: #eeeeee; opacity: 0.85"/>
    </g>
    <g id="line2d_13">
     <path d="M 66.17 22.918125 
L 78.17 22.918125 
L 90.17 22.918125 
" style="fill: none; stroke: #1f77b4; stroke-linecap: square"/>
    </g>
    <g id="text_12">
     <!-- INTC -->
     <g transform="translate(99.77 27.118125) scale(0.12 -0.12)">
      <defs>
       <path id="DejaVuSans-49" d="M 628 4666 
L 1259 4666 
L 1259 0 
L 628 0 
L 628 4666 
z
" transform="scale(0.015625)"/>
       <path id="DejaVuSans-4e" d="M 628 4666 
L 1478 4666 
L 3547 763 
L 3547 4666 
L 4159 4666 
L 4159 0 
L 3309 0 
L 1241 3903 
L 1241 0 
L 628 0 
L 628 4666 
z
" transform="scale(0.015625)"/>
       <path id="DejaVuSans-54" d="M -19 4666 
L 3928 4666 
L 3928 4134 
L 2272 4134 
L 2272 0 
L 1638 0 
L 1638 4134 
L -19 4134 
L -19 4666 
z
" transform="scale(0.015625)"/>
       <path id="DejaVuSans-43" d="M 4122 4306 
L 4122 3641 
Q 3803 3938 3442 4084 
Q 3081 4231 2675 4231 
Q 1875 4231 1450 3742 
Q 1025 3253 1025 2328 
Q 1025 1406 1450 917 
Q 1875 428 2675 428 
Q 3081 428 3442 575 
Q 3803 722 4122 1019 
L 4122 359 
Q 3791 134 3420 21 
Q 3050 -91 2638 -91 
Q 1578 -91 968 557 
Q 359 1206 359 2328 
Q 359 3453 968 4101 
Q 1578 4750 2638 4750 
Q 3056 4750 3426 4639 
Q 3797 4528 4122 4306 
z
" transform="scale(0.015625)"/>
      </defs>
      <use xlink:href="#DejaVuSans-49"/>
      <use xlink:href="#DejaVuSans-4e" transform="translate(29.492188 0)"/>
      <use xlink:href="#DejaVuSans-54" transform="translate(104.296875 0)"/>
      <use xlink:href="#DejaVuSans-43" transform="translate(159.505859 0)"/>
     </g>
    </g>
    <g id="line2d_14">
     <path d="M 66.17 37.531875 
L 78.17 37.531875 
L 90.17 37.531875 
" style="fill: none; stroke: #ff7f0e; stroke-linecap: square"/>
    </g>
    <g id="text_13">
     <!-- NVDA -->
     <g transform="translate(99.77 41.731875) scale(0.12 -0.12)">
      <defs>
       <path id="DejaVuSans-56" d="M 1831 0 
L 50 4666 
L 709 4666 
L 2188 738 
L 3669 4666 
L 4325 4666 
L 2547 0 
L 1831 0 
z
" transform="scale(0.015625)"/>
       <path id="DejaVuSans-41" d="M 2188 4044 
L 1331 1722 
L 3047 1722 
L 2188 4044 
z
M 1831 4666 
L 2547 4666 
L 4325 0 
L 3669 0 
L 3244 1197 
L 1141 1197 
L 716 0 
L 50 0 
L 1831 4666 
z
" transform="scale(0.015625)"/>
      </defs>
      <use xlink:href="#DejaVuSans-4e"/>
      <use xlink:href="#DejaVuSans-56" transform="translate(74.804688 0)"/>
      <use xlink:href="#DejaVuSans-44" transform="translate(143.212891 0)"/>
      <use xlink:href="#DejaVuSans-41" transform="translate(218.464844 0)"/>
     </g>
    </g>
   </g>
  </g>
  <g id="text_14">
   <!-- Figure 1: some caption -->
   <g transform="translate(7.2 221.04) scale(0.12 -0.12)">
    <defs>
     <path id="DejaVuSans-46" d="M 628 4666 
L 3309 4666 
L 3309 4134 
L 1259 4134 
L 1259 2759 
L 3109 2759 
L 3109 2228 
L 1259 2228 
L 1259 0 
L 628 0 
L 628 4666 
z
" transform="scale(0.015625)"/>
     <path id="DejaVuSans-67" d="M 2906 1791 
Q 2906 2416 2648 2759 
Q 2391 3103 1925 3103 
Q 1463 3103 1205 2759 
Q 947 2416 947 1791 
Q 947 1169 1205 825 
Q 1463 481 1925 481 
Q 2391 481 2648 825 
Q 2906 1169 2906 1791 
z
M 3481 434 
Q 3481 -459 3084 -895 
Q 2688 -1331 1869 -1331 
Q 1566 -1331 1297 -1286 
Q 1028 -1241 775 -1147 
L 775 -588 
Q 1028 -725 1275 -790 
Q 1522 -856 1778 -856 
Q 2344 -856 2625 -561 
Q 2906 -266 2906 331 
L 2906 616 
Q 2728 306 2450 153 
Q 2172 0 1784 0 
Q 1141 0 747 490 
Q 353 981 353 1791 
Q 353 2603 747 3093 
Q 1141 3584 1784 3584 
Q 2172 3584 2450 3431 
Q 2728 3278 2906 2969 
L 2906 3500 
L 3481 3500 
L 3481 434 
z
" transform="scale(0.015625)"/>
     <path id="DejaVuSans-75" d="M 544 1381 
L 544 3500 
L 1119 3500 
L 1119 1403 
Q 1119 906 1312 657 
Q 1506 409 1894 409 
Q 2359 409 2629 706 
Q 2900 1003 2900 1516 
L 2900 3500 
L 3475 3500 
L 3475 0 
L 2900 0 
L 2900 538 
Q 2691 219 2414 64 
Q 2138 -91 1772 -91 
Q 1169 -91 856 284 
Q 544 659 544 1381 
z
M 1991 3584 
L 1991 3584 
z
" transform="scale(0.015625)"/>
     <path id="DejaVuSans-3a" d="M 750 794 
L 1409 794 
L 1409 0 
L 750 0 
L 750 794 
z
M 750 3309 
L 1409 3309 
L 1409 2516 
L 750 2516 
L 750 3309 
z
" transform="scale(0.015625)"/>
     <path id="DejaVuSans-73" d="M 2834 3397 
L 2834 2853 
Q 2591 2978 2328 3040 
Q 2066 3103 1784 3103 
Q 1356 3103 1142 2972 
Q 928 2841 928 2578 
Q 928 2378 1081 2264 
Q 1234 2150 1697 2047 
L 1894 2003 
Q 2506 1872 2764 1633 
Q 3022 1394 3022 966 
Q 3022 478 2636 193 
Q 2250 -91 1575 -91 
Q 1294 -91 989 -36 
Q 684 19 347 128 
L 347 722 
Q 666 556 975 473 
Q 1284 391 1588 391 
Q 1994 391 2212 530 
Q 2431 669 2431 922 
Q 2431 1156 2273 1281 
Q 2116 1406 1581 1522 
L 1381 1569 
Q 847 1681 609 1914 
Q 372 2147 372 2553 
Q 372 3047 722 3315 
Q 1072 3584 1716 3584 
Q 2034 3584 2315 3537 
Q 2597 3491 2834 3397 
z
" transform="scale(0.015625)"/>
     <path id="DejaVuSans-6f" d="M 1959 3097 
Q 1497 3097 1228 2736 
Q 959 2375 959 1747 
Q 959 1119 1226 758 
Q 1494 397 1959 397 
Q 2419 397 2687 759 
Q 2956 1122 2956 1747 
Q 2956 2369 2687 2733 
Q 2419 3097 1959 3097 
z
M 1959 3584 
Q 2709 3584 3137 3096 
Q 3566 2609 3566 1747 
Q 3566 888 3137 398 
Q 2709 -91 1959 -91 
Q 1206 -91 779 398 
Q 353 888 353 1747 
Q 353 2609 779 3096 
Q 1206 3584 1959 3584 
z
" transform="scale(0.015625)"/>
     <path id="DejaVuSans-6d" d="M 3328 2828 
Q 3544 3216 3844 3400 
Q 4144 3584 4550 3584 
Q 5097 3584 5394 3201 
Q 5691 2819 5691 2113 
L 5691 0 
L 5113 0 
L 5113 2094 
Q 5113 2597 4934 2840 
Q 4756 3084 4391 3084 
Q 3944 3084 3684 2787 
Q 3425 2491 3425 1978 
L 3425 0 
L 2847 0 
L 2847 2094 
Q 2847 2600 2669 2842 
Q 2491 3084 2119 3084 
Q 1678 3084 1418 2786 
Q 1159 2488 1159 1978 
L 1159 0 
L 581 0 
L 581 3500 
L 1159 3500 
L 1159 2956 
Q 1356 3278 1631 3431 
Q 1906 3584 2284 3584 
Q 2666 3584 2933 3390 
Q 3200 3197 3328 2828 
z
" transform="scale(0.015625)"/>
     <path id="DejaVuSans-61" d="M 2194 1759 
Q 1497 1759 1228 1600 
Q 959 1441 959 1056 
Q 959 750 1161 570 
Q 1363 391 1709 391 
Q 2188 391 2477 730 
Q 2766 1069 2766 1631 
L 2766 1759 
L 2194 1759 
z
M 3341 1997 
L 3341 0 
L 2766 0 
L 2766 531 
Q 2569 213 2275 61 
Q 1981 -91 1556 -91 
Q 1019 -91 701 211 
Q 384 513 384 1019 
Q 384 1609 779 1909 
Q 1175 2209 1959 2209 
L 2766 2209 
L 2766 2266 
Q 2766 2663 2505 2880 
Q 2244 3097 1772 3097 
Q 1472 3097 1187 3025 
Q 903 2953 641 2809 
L 641 3341 
Q 956 3463 1253 3523 
Q 1550 3584 1831 3584 
Q 2591 3584 2966 3190 
Q 3341 2797 3341 1997 
z
" transform="scale(0.015625)"/>
     <path id="DejaVuSans-70" d="M 1159 525 
L 1159 -1331 
L 581 -1331 
L 581 3500 
L 1159 3500 
L 1159 2969 
Q 1341 3281 1617 3432 
Q 1894 3584 2278 3584 
Q 2916 3584 3314 3078 
Q 3713 2572 3713 1747 
Q 3713 922 3314 415 
Q 2916 -91 2278 -91 
Q 1894 -91 1617 61 
Q 1341 213 1159 525 
z
M 3116 1747 
Q 3116 2381 2855 2742 
Q 2594 3103 2138 3103 
Q 1681 3103 1420 2742 
Q 1159 2381 1159 1747 
Q 1159 1113 1420 752 
Q 1681 391 2138 391 
Q 2594 391 2855 752 
Q 3116 1113 3116 1747 
z
" transform="scale(0.015625)"/>
     <path id="DejaVuSans-74" d="M 1172 4494 
L 1172 3500 
L 2356 3500 
L 2356 3053 
L 1172 3053 
L 1172 1153 
Q 1172 725 1289 603 
Q 1406 481 1766 481 
L 2356 481 
L 2356 0 
L 1766 0 
Q 1100 0 847 248 
Q 594 497 594 1153 
L 594 3053 
L 172 3053 
L 172 3500 
L 594 3500 
L 594 4494 
L 1172 4494 
z
" transform="scale(0.015625)"/>
     <path id="DejaVuSans-6e" d="M 3513 2113 
L 3513 0 
L 2938 0 
L 2938 2094 
Q 2938 2591 2744 2837 
Q 2550 3084 2163 3084 
Q 1697 3084 1428 2787 
Q 1159 2491 1159 1978 
L 1159 0 
L 581 0 
L 581 3500 
L 1159 3500 
L 1159 2956 
Q 1366 3272 1645 3428 
Q 1925 3584 2291 3584 
Q 2894 3584 3203 3211 
Q 3513 2838 3513 2113 
z
" transform="scale(0.015625)"/>
    </defs>
    <use xlink:href="#DejaVuSans-46"/>
    <use xlink:href="#DejaVuSans-69" transform="translate(50.269531 0)"/>
    <use xlink:href="#DejaVuSans-67" transform="translate(78.052734 0)"/>
    <use xlink:href="#DejaVuSans-75" transform="translate(141.529297 0)"/>
    <use xlink:href="#DejaVuSans-72" transform="translate(204.908203 0)"/>
    <use xlink:href="#DejaVuSans-65" transform="translate(243.771484 0)"/>
    <use xlink:href="#DejaVuSans-20" transform="translate(305.294922 0)"/>
    <use xlink:href="#DejaVuSans-31" transform="translate(337.082031 0)"/>
    <use xlink:href="#DejaVuSans-3a" transform="translate(400.705078 0)"/>
    <use xlink:href="#DejaVuSans-20" transform="translate(434.396484 0)"/>
    <use xlink:href="#DejaVuSans-73" transform="translate(466.183594 0)"/>
    <use xlink:href="#DejaVuSans-6f" transform="translate(518.283203 0)"/>
    <use xlink:href="#DejaVuSans-6d" transform="translate(579.464844 0)"/>
    <use xlink:href="#DejaVuSans-65" transform="translate(676.876953 0)"/>
    <use xlink:href="#DejaVuSans-20" transform="translate(738.400391 0)"/>
    <use xlink:href="#DejaVuSans-63" transform="translate(770.1875 0)"/>
    <use xlink:href="#DejaVuSans-61" transform="translate(825.167969 0)"/>
    <use xlink:href="#DejaVuSans-70" transform="translate(886.447266 0)"/>
    <use xlink:href="#DejaVuSans-74" transform="translate(949.923828 0)"/>
    <use xlink:href="#DejaVuSans-69" transform="translate(989.132812 0)"/>
    <use xlink:href="#DejaVuSans-6f" transform="translate(1016.916016 0)"/>
    <use xlink:href="#DejaVuSans-6e" transform="translate(1078.097656 0)"/>
   </g>
  </g>
 </g>
 <defs>
  <clipPath id="p2a797bc8de">
   <rect x="55.37" y="7.2" width="503.35" height="170.12"/>
  </clipPath>
 </defs>
</svg>
