<?xml version="1.0" encoding="utf-8" standalone="no"?>
<!DOCTYPE svg PUBLIC "-//W3C//DTD SVG 1.1//EN"
  "http://www.w3.org/Graphics/SVG/1.1/DTD/svg11.dtd">
<svg xmlns:xlink="http://www.w3.org/1999/xlink" width="565.92pt" height="230.735625pt" viewBox="0 0 565.92 230.735625" xmlns="http://www.w3.org/2000/svg" version="1.1">
 <metadata>
  <rdf:RDF xmlns:dc="http://purl.org/dc/elements/1.1/" xmlns:cc="http://creativecommons.org/ns#" xmlns:rdf="http://www.w3.org/1999/02/22-rdf-syntax-ns#">
   <cc:Work>
    <dc:type rdf:resource="http://purl.org/dc/dcmitype/StillImage"/>
    <dc:date>2025-01-24T16:08:54.416916</dc:date>
    <dc:format>image/svg+xml</dc:format>
    <dc:creator>
     <cc:Agent>
      <dc:title>Matplotlib v3.10.0, https://matplotlib.org/</dc:title>
     </cc:Agent>
    </dc:creator>
   </cc:Work>
  </rdf:RDF>
 </metadata>
 <defs>
  <style type="text/css">*{stroke-linejoin: round; stroke-linecap: butt}</style>
 </defs>
 <g id="figure_1">
  <g id="patch_1">
   <path d="M 0 230.735625 
L 565.92 230.735625 
L 565.92 0 
L 0 0 
z
" style="fill: #ffffff"/>
  </g>
  <g id="axes_1">
   <g id="patch_2">
    <path d="M 47.81 177.32 
L 558.72 177.32 
L 558.72 7.2 
L 47.81 7.2 
z
" style="fill: #ffffff"/>
   </g>
   <g id="matplotlib.axis_1">
    <g id="xtick_1">
     <g id="line2d_1">
      <defs>
       <path id="mfb95adf954" d="M 0 0 
L 0 3.5 
" style="stroke: #000000"/>
      </defs>
      <g>
       <use xlink:href="#mfb95adf954" x="70.268842" y="177.32" style="stroke: #000000"/>
      </g>
     </g>
     <g id="text_1">
      <!-- 2016 -->
      <g transform="translate(54.998842 193.438125) scale(0.12 -0.12)">
       <defs>
        <path id="DejaVuSans-32" d="M 1228 531 
L 3431 531 
L 3431 0 
L 469 0 
L 469 531 
Q 828 903 1448 1529 
Q 2069 2156 2228 2338 
Q 2531 2678 2651 2914 
Q 2772 3150 2772 3378 
Q 2772 3750 2511 3984 
Q 2250 4219 1831 4219 
Q 1534 4219 1204 4116 
Q 875 4013 500 3803 
L 500 4441 
Q 881 4594 1212 4672 
Q 1544 4750 1819 4750 
Q 2544 4750 2975 4387 
Q 3406 4025 3406 3419 
Q 3406 3131 3298 2873 
Q 3191 2616 2906 2266 
Q 2828 2175 2409 1742 
Q 1991 1309 1228 531 
z
" transform="scale(0.015625)"/>
        <path id="DejaVuSans-30" d="M 2034 4250 
Q 1547 4250 1301 3770 
Q 1056 3291 1056 2328 
Q 1056 1369 1301 889 
Q 1547 409 2034 409 
Q 2525 409 2770 889 
Q 3016 1369 3016 2328 
Q 3016 3291 2770 3770 
Q 2525 4250 2034 4250 
z
M 2034 4750 
Q 2819 4750 3233 4129 
Q 3647 3509 3647 2328 
Q 3647 1150 3233 529 
Q 2819 -91 2034 -91 
Q 1250 -91 836 529 
Q 422 1150 422 2328 
Q 422 3509 836 4129 
Q 1250 4750 2034 4750 
z
" transform="scale(0.015625)"/>
        <path id="DejaVuSans-31" d="M 794 531 
L 1825 531 
L 1825 4091 
L 703 3866 
L 703 4441 
L 1819 4666 
L 2450 4666 
L 2450 531 
L 3481 531 
L 3481 0 
L 794 0 
L 794 531 
z
" transform="scale(0.015625)"/>
        <path id="DejaVuSans-36" d="M 2113 2584 
Q 1688 2584 1439 2293 
Q 1191 2003 1191 1497 
Q 1191 994 1439 701 
Q 1688 409 2113 409 
Q 2538 409 2786 701 
Q 3034 994 3034 1497 
Q 3034 2003 2786 2293 
Q 2538 2584 2113 2584 
z
M 3366 4563 
L 3366 3988 
Q 3128 4100 2886 4159 
Q 2644 4219 2406 4219 
Q 1781 4219 1451 3797 
Q 1122 3375 1075 2522 
Q 1259 2794 1537 2939 
Q 1816 3084 2150 3084 
Q 2853 3084 3261 2657 
Q 3669 2231 3669 1497 
Q 3669 778 3244 343 
Q 2819 -91 2113 -91 
Q 1303 -91 875 529 
Q 447 1150 447 2328 
Q 447 3434 972 4092 
Q 1497 4750 2381 4750 
Q 2619 4750 2861 4703 
Q 3103 4656 3366 4563 
z
" transform="scale(0.015625)"/>
       </defs>
       <use xlink:href="#DejaVuSans-32"/>
       <use xlink:href="#DejaVuSans-30" transform="translate(63.623047 0)"/>
       <use xlink:href="#DejaVuSans-31" transform="translate(127.246094 0)"/>
       <use xlink:href="#DejaVuSans-36" transform="translate(190.869141 0)"/>
      </g>
     </g>
    </g>
    <g id="xtick_2">
     <g id="line2d_2">
      <g>
       <use xlink:href="#mfb95adf954" x="163.518261" y="177.32" style="stroke: #000000"/>
      </g>
     </g>
     <g id="text_2">
      <!-- 2017 -->
      <g transform="translate(148.248261 193.438125) scale(0.12 -0.12)">
       <defs>
        <path id="DejaVuSans-37" d="M 525 4666 
L 3525 4666 
L 3525 4397 
L 1831 0 
L 1172 0 
L 2766 4134 
L 525 4134 
L 525 4666 
z
" transform="scale(0.015625)"/>
       </defs>
       <use xlink:href="#DejaVuSans-32"/>
       <use xlink:href="#DejaVuSans-30" transform="translate(63.623047 0)"/>
       <use xlink:href="#DejaVuSans-31" transform="translate(127.246094 0)"/>
       <use xlink:href="#DejaVuSans-37" transform="translate(190.869141 0)"/>
      </g>
     </g>
    </g>
    <g id="xtick_3">
     <g id="line2d_3">
      <g>
       <use xlink:href="#mfb95adf954" x="256.512901" y="177.32" style="stroke: #000000"/>
      </g>
     </g>
     <g id="text_3">
      <!-- 2018 -->
      <g transform="translate(241.242901 193.438125) scale(0.12 -0.12)">
       <defs>
        <path id="DejaVuSans-38" d="M 2034 2216 
Q 1584 2216 1326 1975 
Q 1069 1734 1069 1313 
Q 1069 891 1326 650 
Q 1584 409 2034 409 
Q 2484 409 2743 651 
Q 3003 894 3003 1313 
Q 3003 1734 2745 1975 
Q 2488 2216 2034 2216 
z
M 1403 2484 
Q 997 2584 770 2862 
Q 544 3141 544 3541 
Q 544 4100 942 4425 
Q 1341 4750 2034 4750 
Q 2731 4750 3128 4425 
Q 3525 4100 3525 3541 
Q 3525 3141 3298 2862 
Q 3072 2584 2669 2484 
Q 3125 2378 3379 2068 
Q 3634 1759 3634 1313 
Q 3634 634 3220 271 
Q 2806 -91 2034 -91 
Q 1263 -91 848 271 
Q 434 634 434 1313 
Q 434 1759 690 2068 
Q 947 2378 1403 2484 
z
M 1172 3481 
Q 1172 3119 1398 2916 
Q 1625 2713 2034 2713 
Q 2441 2713 2670 2916 
Q 2900 3119 2900 3481 
Q 2900 3844 2670 4047 
Q 2441 4250 2034 4250 
Q 1625 4250 1398 4047 
Q 1172 3844 1172 3481 
z
" transform="scale(0.015625)"/>
       </defs>
       <use xlink:href="#DejaVuSans-32"/>
       <use xlink:href="#DejaVuSans-30" transform="translate(63.623047 0)"/>
       <use xlink:href="#DejaVuSans-31" transform="translate(127.246094 0)"/>
       <use xlink:href="#DejaVuSans-38" transform="translate(190.869141 0)"/>
      </g>
     </g>
    </g>
    <g id="xtick_4">
     <g id="line2d_4">
      <g>
       <use xlink:href="#mfb95adf954" x="349.50754" y="177.32" style="stroke: #000000"/>
      </g>
     </g>
     <g id="text_4">
      <!-- 2019 -->
      <g transform="translate(334.23754 193.438125) scale(0.12 -0.12)">
       <defs>
        <path id="DejaVuSans-39" d="M 703 97 
L 703 672 
Q 941 559 1184 500 
Q 1428 441 1663 441 
Q 2288 441 2617 861 
Q 2947 1281 2994 2138 
Q 2813 1869 2534 1725 
Q 2256 1581 1919 1581 
Q 1219 1581 811 2004 
Q 403 2428 403 3163 
Q 403 3881 828 4315 
Q 1253 4750 1959 4750 
Q 2769 4750 3195 4129 
Q 3622 3509 3622 2328 
Q 3622 1225 3098 567 
Q 2575 -91 1691 -91 
Q 1453 -91 1209 -44 
Q 966 3 703 97 
z
M 1959 2075 
Q 2384 2075 2632 2365 
Q 2881 2656 2881 3163 
Q 2881 3666 2632 3958 
Q 2384 4250 1959 4250 
Q 1534 4250 1286 3958 
Q 1038 3666 1038 3163 
Q 1038 2656 1286 2365 
Q 1534 2075 1959 2075 
z
" transform="scale(0.015625)"/>
       </defs>
       <use xlink:href="#DejaVuSans-32"/>
       <use xlink:href="#DejaVuSans-30" transform="translate(63.623047 0)"/>
       <use xlink:href="#DejaVuSans-31" transform="translate(127.246094 0)"/>
       <use xlink:href="#DejaVuSans-39" transform="translate(190.869141 0)"/>
      </g>
     </g>
    </g>
    <g id="xtick_5">
     <g id="line2d_5">
      <g>
       <use xlink:href="#mfb95adf954" x="442.502179" y="177.32" style="stroke: #000000"/>
      </g>
     </g>
     <g id="text_5">
      <!-- 2020 -->
      <g transform="translate(427.232179 193.438125) scale(0.12 -0.12)">
       <use xlink:href="#DejaVuSans-32"/>
       <use xlink:href="#DejaVuSans-30" transform="translate(63.623047 0)"/>
       <use xlink:href="#DejaVuSans-32" transform="translate(127.246094 0)"/>
       <use xlink:href="#DejaVuSans-30" transform="translate(190.869141 0)"/>
      </g>
     </g>
    </g>
    <g id="xtick_6">
     <g id="line2d_6">
      <g>
       <use xlink:href="#mfb95adf954" x="535.751598" y="177.32" style="stroke: #000000"/>
      </g>
     </g>
     <g id="text_6">
      <!-- 2021 -->
      <g transform="translate(520.481598 193.438125) scale(0.12 -0.12)">
       <use xlink:href="#DejaVuSans-32"/>
       <use xlink:href="#DejaVuSans-30" transform="translate(63.623047 0)"/>
       <use xlink:href="#DejaVuSans-32" transform="translate(127.246094 0)"/>
       <use xlink:href="#DejaVuSans-31" transform="translate(190.869141 0)"/>
      </g>
     </g>
    </g>
   </g>
   <g id="matplotlib.axis_2">
    <g id="ytick_1">
     <g id="line2d_7">
      <defs>
       <path id="m377798e19f" d="M 0 0 
L -3.5 0 
" style="stroke: #000000"/>
      </defs>
      <g>
       <use xlink:href="#m377798e19f" x="47.81" y="171.179179" style="stroke: #000000"/>
      </g>
     </g>
     <g id="text_7">
      <!-- 0 -->
      <g transform="translate(33.175 175.738242) scale(0.12 -0.12)">
       <use xlink:href="#DejaVuSans-30"/>
      </g>
     </g>
    </g>
    <g id="ytick_2">
     <g id="line2d_8">
      <g>
       <use xlink:href="#m377798e19f" x="47.81" y="145.309203" style="stroke: #000000"/>
      </g>
     </g>
     <g id="text_8">
      <!-- 10 -->
      <g transform="translate(25.54 149.868265) scale(0.12 -0.12)">
       <use xlink:href="#DejaVuSans-31"/>
       <use xlink:href="#DejaVuSans-30" transform="translate(63.623047 0)"/>
      </g>
     </g>
    </g>
    <g id="ytick_3">
     <g id="line2d_9">
      <g>
       <use xlink:href="#m377798e19f" x="47.81" y="119.439226" style="stroke: #000000"/>
      </g>
     </g>
     <g id="text_9">
      <!-- 20 -->
      <g transform="translate(25.54 123.998289) scale(0.12 -0.12)">
       <use xlink:href="#DejaVuSans-32"/>
       <use xlink:href="#DejaVuSans-30" transform="translate(63.623047 0)"/>
      </g>
     </g>
    </g>
    <g id="ytick_4">
     <g id="line2d_10">
      <g>
       <use xlink:href="#m377798e19f" x="47.81" y="93.56925" style="stroke: #000000"/>
      </g>
     </g>
     <g id="text_10">
      <!-- 30 -->
      <g transform="translate(25.54 98.128312) scale(0.12 -0.12)">
       <defs>
        <path id="DejaVuSans-33" d="M 2597 2516 
Q 3050 2419 3304 2112 
Q 3559 1806 3559 1356 
Q 3559 666 3084 287 
Q 2609 -91 1734 -91 
Q 1441 -91 1130 -33 
Q 819 25 488 141 
L 488 750 
Q 750 597 1062 519 
Q 1375 441 1716 441 
Q 2309 441 2620 675 
Q 2931 909 2931 1356 
Q 2931 1769 2642 2001 
Q 2353 2234 1838 2234 
L 1294 2234 
L 1294 2753 
L 1863 2753 
Q 2328 2753 2575 2939 
Q 2822 3125 2822 3475 
Q 2822 3834 2567 4026 
Q 2313 4219 1838 4219 
Q 1578 4219 1281 4162 
Q 984 4106 628 3988 
L 628 4550 
Q 988 4650 1302 4700 
Q 1616 4750 1894 4750 
Q 2613 4750 3031 4423 
Q 3450 4097 3450 3541 
Q 3450 3153 3228 2886 
Q 3006 2619 2597 2516 
z
" transform="scale(0.015625)"/>
       </defs>
       <use xlink:href="#DejaVuSans-33"/>
       <use xlink:href="#DejaVuSans-30" transform="translate(63.623047 0)"/>
      </g>
     </g>
    </g>
    <g id="ytick_5">
     <g id="line2d_11">
      <g>
       <use xlink:href="#m377798e19f" x="47.81" y="67.699273" style="stroke: #000000"/>
      </g>
     </g>
     <g id="text_11">
      <!-- 40 -->
      <g transform="translate(25.54 72.258335) scale(0.12 -0.12)">
       <defs>
        <path id="DejaVuSans-34" d="M 2419 4116 
L 825 1625 
L 2419 1625 
L 2419 4116 
z
M 2253 4666 
L 3047 4666 
L 3047 1625 
L 3713 1625 
L 3713 1100 
L 3047 1100 
L 3047 0 
L 2419 0 
L 2419 1100 
L 313 1100 
L 313 1709 
L 2253 4666 
z
" transform="scale(0.015625)"/>
       </defs>
       <use xlink:href="#DejaVuSans-34"/>
       <use xlink:href="#DejaVuSans-30" transform="translate(63.623047 0)"/>
      </g>
     </g>
    </g>
    <g id="ytick_6">
     <g id="line2d_12">
      <g>
       <use xlink:href="#m377798e19f" x="47.81" y="41.829296" style="stroke: #000000"/>
      </g>
     </g>
     <g id="text_12">
      <!-- 50 -->
      <g transform="translate(25.54 46.388359) scale(0.12 -0.12)">
       <defs>
        <path id="DejaVuSans-35" d="M 691 4666 
L 3169 4666 
L 3169 4134 
L 1269 4134 
L 1269 2991 
Q 1406 3038 1543 3061 
Q 1681 3084 1819 3084 
Q 2600 3084 3056 2656 
Q 3513 2228 3513 1497 
Q 3513 744 3044 326 
Q 2575 -91 1722 -91 
Q 1428 -91 1123 -41 
Q 819 9 494 109 
L 494 744 
Q 775 591 1075 516 
Q 1375 441 1709 441 
Q 2250 441 2565 725 
Q 2881 1009 2881 1497 
Q 2881 1984 2565 2268 
Q 2250 2553 1709 2553 
Q 1456 2553 1204 2497 
Q 953 2441 691 2322 
L 691 4666 
z
" transform="scale(0.015625)"/>
       </defs>
       <use xlink:href="#DejaVuSans-35"/>
       <use xlink:href="#DejaVuSans-30" transform="translate(63.623047 0)"/>
      </g>
     </g>
    </g>
    <g id="ytick_7">
     <g id="line2d_13">
      <g>
       <use xlink:href="#m377798e19f" x="47.81" y="15.95932" style="stroke: #000000"/>
      </g>
     </g>
     <g id="text_13">
      <!-- 60 -->
      <g transform="translate(25.54 20.518382) scale(0.12 -0.12)">
       <use xlink:href="#DejaVuSans-36"/>
       <use xlink:href="#DejaVuSans-30" transform="translate(63.623047 0)"/>
      </g>
     </g>
    </g>
    <g id="text_14">
     <!-- Price (USD) -->
     <g transform="translate(19.044375 126.30625) rotate(-90) scale(0.12 -0.12)">
      <defs>
       <path id="DejaVuSans-50" d="M 1259 4147 
L 1259 2394 
L 2053 2394 
Q 2494 2394 2734 2622 
Q 2975 2850 2975 3272 
Q 2975 3691 2734 3919 
Q 2494 4147 2053 4147 
L 1259 4147 
z
M 628 4666 
L 2053 4666 
Q 2838 4666 3239 4311 
Q 3641 3956 3641 3272 
Q 3641 2581 3239 2228 
Q 2838 1875 2053 1875 
L 1259 1875 
L 1259 0 
L 628 0 
L 628 4666 
z
" transform="scale(0.015625)"/>
       <path id="DejaVuSans-72" d="M 2631 2963 
Q 2534 3019 2420 3045 
Q 2306 3072 2169 3072 
Q 1681 3072 1420 2755 
Q 1159 2438 1159 1844 
L 1159 0 
L 581 0 
L 581 3500 
L 1159 3500 
L 1159 2956 
Q 1341 3275 1631 3429 
Q 1922 3584 2338 3584 
Q 2397 3584 2469 3576 
Q 2541 3569 2628 3553 
L 2631 2963 
z
" transform="scale(0.015625)"/>
       <path id="DejaVuSans-69" d="M 603 3500 
L 1178 3500 
L 1178 0 
L 603 0 
L 603 3500 
z
M 603 4863 
L 1178 4863 
L 1178 4134 
L 603 4134 
L 603 4863 
z
" transform="scale(0.015625)"/>
       <path id="DejaVuSans-63" d="M 3122 3366 
L 3122 2828 
Q 2878 2963 2633 3030 
Q 2388 3097 2138 3097 
Q 1578 3097 1268 2742 
Q 959 2388 959 1747 
Q 959 1106 1268 751 
Q 1578 397 2138 397 
Q 2388 397 2633 464 
Q 2878 531 3122 666 
L 3122 134 
Q 2881 22 2623 -34 
Q 2366 -91 2075 -91 
Q 1284 -91 818 406 
Q 353 903 353 1747 
Q 353 2603 823 3093 
Q 1294 3584 2113 3584 
Q 2378 3584 2631 3529 
Q 2884 3475 3122 3366 
z
" transform="scale(0.015625)"/>
       <path id="DejaVuSans-65" d="M 3597 1894 
L 3597 1613 
L 953 1613 
Q 991 1019 1311 708 
Q 1631 397 2203 397 
Q 2534 397 2845 478 
Q 3156 559 3463 722 
L 3463 178 
Q 3153 47 2828 -22 
Q 2503 -91 2169 -91 
Q 1331 -91 842 396 
Q 353 884 353 1716 
Q 353 2575 817 3079 
Q 1281 3584 2069 3584 
Q 2775 3584 3186 3129 
Q 3597 2675 3597 1894 
z
M 3022 2063 
Q 3016 2534 2758 2815 
Q 2500 3097 2075 3097 
Q 1594 3097 1305 2825 
Q 1016 2553 972 2059 
L 3022 2063 
z
" transform="scale(0.015625)"/>
       <path id="DejaVuSans-20" transform="scale(0.015625)"/>
       <path id="DejaVuSans-28" d="M 1984 4856 
Q 1566 4138 1362 3434 
Q 1159 2731 1159 2009 
Q 1159 1288 1364 580 
Q 1569 -128 1984 -844 
L 1484 -844 
Q 1016 -109 783 600 
Q 550 1309 550 2009 
Q 550 2706 781 3412 
Q 1013 4119 1484 4856 
L 1984 4856 
z
" transform="scale(0.015625)"/>
       <path id="DejaVuSans-55" d="M 556 4666 
L 1191 4666 
L 1191 1831 
Q 1191 1081 1462 751 
Q 1734 422 2344 422 
Q 2950 422 3222 751 
Q 3494 1081 3494 1831 
L 3494 4666 
L 4128 4666 
L 4128 1753 
Q 4128 841 3676 375 
Q 3225 -91 2344 -91 
Q 1459 -91 1007 375 
Q 556 841 556 1753 
L 556 4666 
z
" transform="scale(0.015625)"/>
       <path id="DejaVuSans-53" d="M 3425 4513 
L 3425 3897 
Q 3066 4069 2747 4153 
Q 2428 4238 2131 4238 
Q 1616 4238 1336 4038 
Q 1056 3838 1056 3469 
Q 1056 3159 1242 3001 
Q 1428 2844 1947 2747 
L 2328 2669 
Q 3034 2534 3370 2195 
Q 3706 1856 3706 1288 
Q 3706 609 3251 259 
Q 2797 -91 1919 -91 
Q 1588 -91 1214 -16 
Q 841 59 441 206 
L 441 856 
Q 825 641 1194 531 
Q 1563 422 1919 422 
Q 2459 422 2753 634 
Q 3047 847 3047 1241 
Q 3047 1584 2836 1778 
Q 2625 1972 2144 2069 
L 1759 2144 
Q 1053 2284 737 2584 
Q 422 2884 422 3419 
Q 422 4038 858 4394 
Q 1294 4750 2059 4750 
Q 2388 4750 2728 4690 
Q 3069 4631 3425 4513 
z
" transform="scale(0.015625)"/>
       <path id="DejaVuSans-44" d="M 1259 4147 
L 1259 519 
L 2022 519 
Q 2988 519 3436 956 
Q 3884 1394 3884 2338 
Q 3884 3275 3436 3711 
Q 2988 4147 2022 4147 
L 1259 4147 
z
M 628 4666 
L 1925 4666 
Q 3281 4666 3915 4102 
Q 4550 3538 4550 2338 
Q 4550 1131 3912 565 
Q 3275 0 1925 0 
L 628 0 
L 628 4666 
z
" transform="scale(0.015625)"/>
       <path id="DejaVuSans-29" d="M 513 4856 
L 1013 4856 
Q 1481 4119 1714 3412 
Q 1947 2706 1947 2009 
Q 1947 1309 1714 600 
Q 1481 -109 1013 -844 
L 513 -844 
Q 928 -128 1133 580 
Q 1338 1288 1338 2009 
Q 1338 2731 1133 3434 
Q 928 4138 513 4856 
z
" transform="scale(0.015625)"/>
      </defs>
      <use xlink:href="#DejaVuSans-50"/>
      <use xlink:href="#DejaVuSans-72" transform="translate(58.552734 0)"/>
      <use xlink:href="#DejaVuSans-69" transform="translate(99.666016 0)"/>
      <use xlink:href="#DejaVuSans-63" transform="translate(127.449219 0)"/>
      <use xlink:href="#DejaVuSans-65" transform="translate(182.429688 0)"/>
      <use xlink:href="#DejaVuSans-20" transform="translate(243.953125 0)"/>
      <use xlink:href="#DejaVuSans-28" transform="translate(275.740234 0)"/>
      <use xlink:href="#DejaVuSans-55" transform="translate(314.753906 0)"/>
      <use xlink:href="#DejaVuSans-53" transform="translate(387.947266 0)"/>
      <use xlink:href="#DejaVuSans-44" transform="translate(451.423828 0)"/>
      <use xlink:href="#DejaVuSans-29" transform="translate(528.425781 0)"/>
     </g>
    </g>
   </g>
   <g id="line2d_14">
    <path d="M 71.033182 101.685221 
L 71.287962 102.012346 
L 71.542741 103.545756 
L 71.797521 106.080993 
L 72.052301 106.755685 
L 72.816641 105.631201 
L 73.07142 104.363583 
L 73.3262 105.937868 
L 73.58098 104.240921 
L 73.83576 110.333635 
L 74.854879 110.251863 
L 75.109659 110.681212 
L 75.364439 110.538083 
L 75.619219 109.986077 
L 76.383558 110.660764 
L 76.638338 109.965629 
L 76.893118 110.231411 
L 77.147898 109.904286 
L 77.402678 107.757507 
L 78.167017 108.166418 
L 78.421797 110.251863 
L 78.676577 110.664357 
L 78.931357 109.777469 
L 79.186136 111.283128 
L 79.950476 111.736877 
L 80.205256 111.757508 
L 80.460036 112.953796 
L 80.714815 112.974406 
L 80.969595 112.10813 
L 81.988715 111.819394 
L 82.243494 110.396231 
L 82.498274 110.499363 
L 82.753054 111.963757 
L 83.517394 110.643731 
L 83.772173 111.778128 
L 84.536513 109.715608 
L 85.300852 110.148726 
L 85.555632 108.539945 
L 85.810412 108.189333 
L 86.319972 108.003675 
L 87.084311 107.364307 
L 87.339091 108.148082 
L 87.848651 106.72492 
L 88.103431 105.673029 
L 88.86777 106.353663 
L 89.12255 105.899909 
L 89.37733 105.817397 
L 89.63211 105.219265 
L 89.886889 103.775497 
L 90.651229 104.476761 
L 90.906009 104.518012 
L 91.160789 105.17802 
L 91.415568 105.425529 
L 92.434688 105.384284 
L 92.944247 103.713616 
L 93.199027 104.456126 
L 93.453807 104.249877 
L 94.472926 105.384284 
L 94.727706 105.013021 
L 94.982486 106.106163 
L 95.237266 105.941155 
L 96.001605 105.858658 
L 96.511165 104.909894 
L 97.020725 106.291786 
L 97.785064 105.899909 
L 98.039844 106.003031 
L 98.294624 105.17802 
L 98.549404 105.239906 
L 98.804184 105.920524 
L 99.568523 106.436159 
L 99.823303 106.415544 
L 100.078083 105.693645 
L 100.587642 108.725574 
L 101.351982 108.04495 
L 101.861542 109.080676 
L 102.116321 108.976646 
L 102.371101 108.685399 
L 103.135441 109.184686 
L 103.390221 108.477378 
L 103.645 108.643788 
L 103.89978 109.267903 
L 104.9189 107.957273 
L 105.173679 108.810222 
L 105.428459 108.789419 
L 105.683239 109.538343 
L 105.938019 108.456555 
L 106.702358 108.290131 
L 106.957138 106.563435 
L 107.211918 105.87692 
L 107.721478 105.502465 
L 108.740597 105.460854 
L 109.250157 105.107193 
L 109.504937 105.39846 
L 110.269276 105.273627 
L 110.524056 104.857551 
L 111.033616 104.732728 
L 111.288396 104.524693 
L 112.052735 104.254258 
L 112.307515 104.316662 
L 112.562295 105.419233 
L 113.071854 105.107193 
L 114.090974 103.942198 
L 114.345754 104.004617 
L 114.600533 102.54835 
L 114.855313 105.544071 
L 115.619653 107.270772 
L 115.874433 106.29299 
L 116.383992 102.943623 
L 116.638772 103.047638 
L 117.657891 103.193274 
L 118.167451 102.111476 
L 118.422231 100.447199 
L 119.18657 99.656679 
L 119.44135 98.491669 
L 119.69613 98.346078 
L 119.95091 97.95079 
L 120.20569 98.221225 
L 120.970029 98.262836 
L 121.224809 98.054786 
L 121.479589 96.931422 
L 121.734369 99.885517 
L 121.989149 99.074164 
L 122.753488 99.011775 
L 123.008268 98.179619 
L 123.263048 98.720513 
L 123.517828 98.845346 
L 123.772607 98.658113 
L 124.536947 98.678911 
L 124.791727 99.282199 
L 125.046507 99.387014 
L 125.556066 97.856851 
L 126.320406 97.731071 
L 126.575186 97.982622 
L 126.829965 98.800103 
L 127.084745 98.485664 
L 127.339525 98.716254 
L 128.103865 98.003587 
L 128.358644 97.37474 
L 128.613424 97.773007 
L 128.868204 97.877817 
L 129.122984 97.311852 
L 130.142103 96.976452 
L 130.396883 97.5005 
L 130.651663 97.626286 
L 130.906443 97.269955 
L 131.925562 96.347629 
L 132.435122 95.676894 
L 132.689902 95.551099 
L 133.709021 94.524018 
L 133.963801 94.754608 
L 134.218581 94.796505 
L 134.47336 96.892628 
L 135.2377 95.551099 
L 135.49248 96.536278 
L 135.74726 96.515346 
L 136.256819 92.218291 
L 137.021159 93.287308 
L 137.275939 93.32922 
L 137.530718 92.679421 
L 137.785498 92.469822 
L 138.040278 93.224416 
L 138.804618 94.356306 
L 139.059397 93.245381 
L 139.314177 92.700412 
L 139.568957 92.951938 
L 139.823737 92.050564 
L 140.588076 92.239252 
L 140.842856 92.490788 
L 141.097636 91.547526 
L 141.607196 91.316956 
L 142.371535 91.484658 
L 142.626315 93.056713 
L 143.135875 93.685566 
L 143.390655 92.679421 
L 144.154994 93.014811 
L 144.409774 92.050564 
L 144.664554 96.745897 
L 144.919334 96.913594 
L 145.174113 97.5005 
L 145.938453 97.269955 
L 146.702792 98.213202 
L 146.957572 98.359923 
L 147.721912 98.087411 
L 147.976692 98.821074 
L 148.231471 98.653381 
L 148.741031 100.195105 
L 149.505371 97.914183 
L 150.01493 97.78745 
L 150.26971 98.31546 
L 150.52449 98.083128 
L 151.288829 98.357678 
L 151.543609 97.449529 
L 151.798389 97.59739 
L 152.053169 97.217227 
L 152.307949 97.365044 
L 153.072288 97.301692 
L 153.327068 96.245711 
L 153.581848 96.837058 
L 154.091408 96.330181 
L 154.855747 96.182335 
L 155.110527 96.604736 
L 155.365307 97.893054 
L 155.620087 99.878343 
L 155.874866 99.033545 
L 156.639206 98.547767 
L 156.893986 97.850816 
L 157.148766 96.203459 
L 157.403545 95.781077 
L 158.422665 95.210839 
L 158.677445 93.457877 
L 158.932224 93.985902 
L 159.187004 93.478996 
L 159.441784 94.49274 
L 160.206124 93.267793 
L 160.460903 92.591971 
L 160.715683 93.077724 
L 160.970463 93.183323 
L 161.225243 93.098852 
L 162.244362 92.887644 
L 162.499142 93.816897 
L 162.753922 93.753585 
L 163.008702 94.57724 
L 164.027821 93.880269 
L 164.282601 94.281541 
L 164.537381 94.408284 
L 164.792161 94.133705 
L 165.5565 93.859155 
L 165.81128 94.006992 
L 166.06606 93.141065 
L 166.32084 93.647957 
L 166.575619 93.478996 
L 167.849519 93.542358 
L 168.104298 93.94364 
L 168.359078 93.162189 
L 169.123418 93.521249 
L 169.378198 91.726059 
L 169.632977 91.345871 
L 169.887757 91.852752 
L 170.142537 90.965707 
L 170.906877 92.14846 
L 171.161656 93.415635 
L 171.416436 94.049234 
L 171.925996 93.498615 
L 172.690335 94.030356 
L 173.199895 93.79639 
L 173.454675 95.753312 
L 173.709455 96.008549 
L 174.983354 94.49832 
L 175.238134 93.732575 
L 175.492914 93.583682 
L 176.512033 93.498615 
L 176.766813 94.455777 
L 177.021593 94.221802 
L 177.276372 93.477363 
L 178.040712 93.519902 
L 178.550272 94.753572 
L 179.059831 94.817392 
L 179.824171 95.519322 
L 180.078951 95.030081 
L 180.33373 95.412988 
L 180.58851 94.987547 
L 180.84329 94.796125 
L 181.60763 96.391421 
L 181.862409 96.348868 
L 182.117189 96.519037 
L 182.371969 96.433965 
L 182.626749 96.157441 
L 183.391088 95.817122 
L 183.645868 96.646663 
L 183.900648 95.944743 
L 184.410208 96.391421 
L 185.174547 95.902204 
L 185.429327 95.455497 
L 185.684107 95.519322 
L 185.938887 95.13644 
L 186.193667 94.455777 
L 186.958006 94.264345 
L 187.212786 94.009099 
L 187.467566 94.136724 
L 187.722346 94.540849 
L 187.977125 94.540849 
L 189.251025 95.391681 
L 189.505804 96.19999 
L 190.524924 95.710758 
L 190.779704 95.093896 
L 191.034483 94.796125 
L 191.289263 94.221802 
L 192.563162 92.754142 
L 192.817942 92.626501 
L 193.072722 91.562965 
L 193.327502 94.285622 
L 194.091841 93.945273 
L 194.346621 92.541433 
L 194.601401 91.934973 
L 194.856181 92.213559 
L 195.110961 92.277858 
L 195.8753 92.877855 
L 196.13008 93.242164 
L 196.63964 94.699309 
L 196.89442 95.042184 
L 197.658759 94.827887 
L 197.913539 94.420743 
L 198.168319 96.0922 
L 198.677878 95.320751 
L 199.696998 94.335039 
L 200.206557 93.477866 
L 200.461337 93.477866 
L 201.990016 93.777897 
L 202.244796 93.349313 
L 203.009136 93.306434 
L 203.263915 93.756457 
L 203.518695 93.477866 
L 203.773475 93.006443 
L 204.028255 94.656455 
L 204.792594 94.6136 
L 205.047374 94.292185 
L 205.556934 95.513608 
L 205.811714 95.727915 
L 206.576053 95.085039 
L 206.830833 96.477929 
L 207.340393 97.54935 
L 207.595173 97.91364 
L 208.359512 98.170811 
L 208.614292 99.070819 
L 208.869072 97.89224 
L 209.123852 99.306535 
L 209.378631 98.877946 
L 210.142971 99.477973 
L 210.652531 97.592219 
L 210.90731 99.113678 
L 211.16209 98.57798 
L 211.92643 99.070819 
L 212.435989 97.785096 
L 212.690769 97.806531 
L 212.945549 96.863629 
L 213.709889 97.313643 
L 214.219448 97.120791 
L 214.474228 96.713636 
L 214.729008 96.756511 
L 215.493347 97.249359 
L 216.257687 96.242208 
L 216.512467 95.513608 
L 217.276806 95.170758 
L 217.531586 93.285004 
L 217.786366 92.663558 
L 218.041146 92.398013 
L 218.295926 92.808227 
L 219.060265 92.527543 
L 219.315045 92.570738 
L 219.569825 92.182117 
L 220.079384 93.736587 
L 220.843724 92.721847 
L 221.862843 95.593302 
L 222.627183 95.78762 
L 222.881963 96.370534 
L 223.646302 96.327354 
L 224.410642 96.370534 
L 224.665421 96.197838 
L 225.174981 95.463757 
L 225.429761 95.420577 
L 226.44888 95.571719 
L 226.70366 93.974055 
L 226.95844 94.449066 
L 227.21322 95.204686 
L 227.977559 93.952497 
L 228.487119 92.743454 
L 228.741899 92.419625 
L 228.996679 91.296927 
L 229.761018 91.296927 
L 230.015798 90.800359 
L 230.270578 91.14579 
L 230.525358 90.865151 
L 231.544477 90.951491 
L 231.799257 90.282237 
L 232.054037 90.131074 
L 233.582716 86.158582 
L 233.837495 86.244903 
L 234.347055 85.618829 
L 235.111395 85.12224 
L 235.366174 85.575634 
L 235.620954 86.331273 
L 235.875734 86.568771 
L 236.130514 85.532478 
L 237.149633 85.273368 
L 237.404413 84.28025 
L 237.659193 84.625691 
L 237.913973 83.891634 
L 238.933092 82.76898 
L 239.187872 83.135984 
L 239.442652 81.905388 
L 239.697432 75.320516 
L 240.461771 75.385264 
L 240.971331 70.333265 
L 241.226111 69.491255 
L 241.48089 71.13205 
L 242.24523 69.757323 
L 242.50001 69.583596 
L 242.75479 69.757323 
L 243.009569 70.626047 
L 243.264349 72.189689 
L 244.283469 71.581615 
L 244.538248 72.450339 
L 244.793028 72.037683 
L 245.047808 74.252881 
L 245.812148 74.274611 
L 246.066927 73.579654 
L 246.321707 74.209469 
L 246.831267 73.99229 
L 247.595606 74.556942 
L 247.850386 74.035712 
L 248.105166 75.729709 
L 248.359946 73.796832 
L 248.614726 74.144326 
L 249.379065 74.556942 
L 249.633845 76.837322 
L 249.888625 76.815621 
L 250.143405 77.619134 
L 250.398185 77.03278 
L 251.162524 76.359523 
L 251.417304 77.076202 
L 251.672084 77.054501 
L 251.926864 77.228248 
L 252.181643 74.404916 
L 253.455543 67.889599 
L 253.710322 69.627018 
L 253.965102 69.757323 
L 254.984222 71.103826 
L 255.239001 71.038673 
L 255.493781 70.799794 
L 255.748561 70.930089 
L 256.76768 69.43158 
L 257.02246 72.884696 
L 257.27724 74.687277 
L 257.53202 74.014001 
L 258.296359 74.014001 
L 258.805919 78.878773 
L 259.060699 76.902455 
L 259.315479 77.271689 
L 260.334598 77.488868 
L 260.589378 74.774131 
L 260.844158 74.578693 
L 262.118057 71.147277 
L 262.372837 72.341764 
L 262.627617 72.797783 
L 262.882396 62.416743 
L 263.646736 62.633931 
L 263.901516 65.218313 
L 264.411075 67.694141 
L 264.665855 70.95181 
L 265.430195 74.49179 
L 265.684975 72.983116 
L 265.939754 72.349018 
L 266.194534 77.705987 
L 266.449314 75.08218 
L 267.213654 73.158017 
L 267.468433 73.967036 
L 267.977993 70.774727 
L 268.232773 71.561887 
L 269.251892 69.900151 
L 269.506672 70.731019 
L 269.761452 71.037114 
L 270.016232 66.817147 
L 270.780571 63.799769 
L 271.035351 62.050538 
L 271.290131 63.40618 
L 271.544911 66.576649 
L 271.799691 64.084015 
L 272.56403 62.40042 
L 273.07359 58.967593 
L 273.32837 60.235769 
L 273.583149 57.065319 
L 274.347489 58.530266 
L 274.602269 57.961824 
L 274.857049 57.786893 
L 275.111828 59.929655 
L 275.366608 59.295577 
L 276.130948 60.038969 
L 276.385728 58.464708 
L 276.640507 58.44281 
L 276.895287 60.038969 
L 277.150067 63.253117 
L 277.914407 56.431241 
L 278.423966 62.728393 
L 278.678746 57.305847 
L 279.697865 64.215208 
L 279.952645 62.40042 
L 280.207425 61.875637 
L 280.462205 61.02291 
L 280.716985 64.499454 
L 281.481324 62.837708 
L 281.736104 59.076928 
L 281.990884 59.448629 
L 282.245664 55.906488 
L 282.500444 57.786893 
L 283.264783 56.606162 
L 283.519563 54.113548 
L 283.774343 53.960466 
L 284.029123 56.999733 
L 284.283902 58.508426 
L 285.048242 59.448629 
L 285.303022 58.683328 
L 285.557802 58.83641 
L 285.812581 55.184964 
L 286.067361 55.884629 
L 286.831701 58.311636 
L 287.086481 54.572725 
L 287.34126 56.802962 
L 287.59604 56.86852 
L 287.85082 55.109242 
L 288.61516 53.899725 
L 288.869939 53.239979 
L 289.379499 50.271154 
L 289.634279 50.952888 
L 290.398618 50.447092 
L 290.653398 52.602249 
L 290.908178 51.01888 
L 291.162958 50.645007 
L 291.417738 53.525872 
L 292.182077 51.722581 
L 292.436857 51.436707 
L 292.691637 49.765368 
L 292.946417 50.77695 
L 293.201197 49.259602 
L 294.220316 49.523459 
L 294.475096 48.731779 
L 294.729876 49.787346 
L 294.984655 45.653009 
L 295.748995 46.20276 
L 296.003775 46.862526 
L 296.258555 45.762955 
L 296.768114 50.117204 
L 297.532454 51.282776 
L 298.296793 49.03964 
L 298.551573 49.985261 
L 299.315913 54.141615 
L 299.570692 54.779374 
L 299.825472 53.613831 
L 300.080252 56.406728 
L 300.335032 55.725004 
L 301.099371 59.661446 
L 301.608931 63.949733 
L 302.118491 61.860557 
L 302.88283 60.783013 
L 303.13761 62.38836 
L 303.90195 58.210029 
L 304.666289 57.132456 
L 304.921069 56.472719 
L 305.175849 58.583852 
L 305.430629 56.054892 
L 305.685408 56.340746 
L 306.449748 56.802568 
L 306.704528 57.374355 
L 306.959308 57.440327 
L 307.214087 56.868549 
L 307.468867 57.022509 
L 308.233207 56.142851 
L 308.487987 56.428725 
L 308.742766 55.878944 
L 308.997546 56.472719 
L 309.252326 66.324802 
L 310.016666 66.302805 
L 310.271445 65.401159 
L 310.781005 62.366344 
L 311.035785 62.036505 
L 311.800124 62.102861 
L 312.309684 60.642632 
L 312.564464 60.244375 
L 312.819244 63.098486 
L 313.583583 63.983484 
L 313.838363 64.713623 
L 314.093143 66.173881 
L 314.347923 66.815509 
L 314.602703 66.970377 
L 315.367042 68.297863 
L 315.621822 65.819875 
L 315.876602 67.080994 
L 316.131382 67.235882 
L 316.386161 65.731363 
L 317.660061 63.31973 
L 317.91484 64.448098 
L 318.16962 64.027734 
L 319.18874 65.06761 
L 319.443519 65.59861 
L 319.698299 66.6164 
L 319.953079 68.4085 
L 320.717419 68.740382 
L 320.972198 71.771517 
L 321.226978 71.771517 
L 321.481758 70.355509 
L 322.500877 70.687361 
L 322.755657 69.182881 
L 323.010437 69.072234 
L 323.265217 66.749113 
L 323.519997 67.943876 
L 324.284336 67.39075 
L 324.539116 69.603264 
L 324.793896 70.067868 
L 325.048676 69.66963 
L 325.303456 66.550033 
L 326.067795 68.4085 
L 326.322575 64.757874 
L 326.577355 63.297615 
L 326.832135 64.691478 
L 327.086914 67.125245 
L 327.851254 67.125245 
L 328.106034 68.187256 
L 328.360814 72.059118 
L 328.615593 73.320247 
L 328.870373 71.882134 
L 329.634713 72.656514 
L 329.889493 69.536888 
L 330.144272 69.647495 
L 330.653832 73.829112 
L 331.418172 71.594493 
L 331.672951 72.72289 
L 331.927731 77.324871 
L 332.437291 70.089994 
L 333.20163 70.731631 
L 333.45641 65.510118 
L 333.71119 67.457137 
L 333.96597 64.492368 
L 334.22075 66.948252 
L 334.985089 65.045504 
L 335.239869 65.980575 
L 335.494649 62.707758 
L 335.749429 62.106612 
L 336.004209 64.065867 
L 336.768548 67.31643 
L 337.023328 65.668895 
L 337.278108 66.336852 
L 337.787667 62.462829 
L 338.552007 64.310756 
L 339.061567 66.470413 
L 339.571126 67.561359 
L 340.335466 65.535323 
L 340.845025 62.396048 
L 341.099805 64.978704 
L 341.354585 61.394157 
L 342.118925 59.568503 
L 342.373704 64.867376 
L 342.883264 63.487003 
L 343.138044 68.229306 
L 343.902383 66.069659 
L 344.157163 65.691138 
L 344.666723 63.665132 
L 344.921503 64.622486 
L 345.685842 66.359076 
L 345.940622 64.889629 
L 346.195402 69.720996 
L 346.450182 69.787777 
L 346.704962 71.346288 
L 347.469301 74.129316 
L 347.978861 68.340624 
L 348.233641 67.962114 
L 348.48842 67.093814 
L 349.76232 66.359076 
L 350.017099 72.125514 
L 350.271879 66.047366 
L 351.036219 65.557567 
L 351.545778 64.288512 
L 352.055338 62.240213 
L 352.819678 63.531541 
L 353.074457 62.974931 
L 353.329237 64.02131 
L 353.584017 63.264348 
L 353.838797 61.66135 
L 355.112696 64.444348 
L 355.367476 60.392266 
L 355.622256 66.44814 
L 356.641375 67.561359 
L 356.896155 65.334921 
L 357.150935 66.270012 
L 357.405715 62.685504 
L 358.170054 61.594539 
L 358.424834 59.835686 
L 358.679614 59.376322 
L 359.189173 61.751322 
L 359.953513 61.908154 
L 360.208293 59.129932 
L 360.717852 57.337456 
L 360.972632 55.432982 
L 362.246531 56.037947 
L 362.501311 55.993144 
L 362.756091 53.57335 
L 363.77521 51.915354 
L 364.02999 51.892952 
L 364.28477 52.52032 
L 364.53955 51.758542 
L 365.303889 50.324563 
L 365.558669 50.907127 
L 365.813449 52.542692 
L 366.068229 53.326921 
L 366.323009 53.595752 
L 367.342128 51.153566 
L 367.596908 49.36114 
L 367.851688 51.444848 
L 368.106468 49.450767 
L 368.870807 49.966096 
L 369.125587 49.809234 
L 369.380367 50.593434 
L 369.635147 48.756194 
L 369.889926 51.848149 
L 370.654266 52.92362 
L 370.909046 51.444848 
L 371.163826 52.072206 
L 371.418605 52.184234 
L 371.673385 50.862314 
L 372.437725 49.047466 
L 372.692505 49.383542 
L 372.947284 46.874151 
L 373.202064 45.888336 
L 373.456844 46.60531 
L 374.221184 46.426047 
L 374.475963 47.232648 
L 374.730743 46.269215 
L 374.985523 46.157167 
L 375.240303 44.768061 
L 376.004642 45.081744 
L 376.259422 44.118301 
L 376.514202 39.973286 
L 376.768982 40.130118 
L 377.788101 39.390742 
L 378.297661 39.614809 
L 378.552441 42.101818 
L 378.807221 53.7078 
L 379.57156 56.665295 
L 379.82634 56.822137 
L 380.3359 57.920001 
L 380.590679 55.231366 
L 381.355019 55.716014 
L 381.609799 57.384174 
L 381.864579 60.179439 
L 382.119358 66.085617 
L 383.138478 70.278524 
L 383.648037 68.339874 
L 383.902817 68.542763 
L 384.157597 69.985495 
L 384.921937 72.983639 
L 385.176716 70.95482 
L 385.431496 71.991784 
L 385.686276 70.79703 
L 385.941056 70.706851 
L 386.960175 72.961089 
L 387.469735 70.346183 
L 387.724515 71.901595 
L 388.488854 73.209077 
L 388.743634 70.210914 
L 388.998414 70.751921 
L 389.253194 69.512098 
L 389.507974 67.415629 
L 390.272313 65.679859 
L 390.527093 65.567159 
L 390.781873 66.761913 
L 391.036653 65.905268 
L 391.291432 67.054961 
L 392.055772 67.1902 
L 392.310552 64.394916 
L 392.565332 65.071192 
L 392.820111 64.800694 
L 393.074891 64.192057 
L 393.839231 63.808819 
L 394.094011 65.567159 
L 394.34879 62.546426 
L 394.60357 64.192057 
L 394.85835 63.267802 
L 395.877469 62.704235 
L 396.132249 61.80251 
L 396.641809 62.794404 
L 397.660928 63.538291 
L 398.170488 61.622191 
L 398.425268 58.646587 
L 399.189607 58.19571 
L 399.444387 60.337288 
L 399.699167 59.841291 
L 400.208727 57.857572 
L 401.227846 54.52128 
L 401.482626 51.883775 
L 401.992185 54.881938 
L 402.756525 52.808039 
L 403.266085 57.226365 
L 403.775644 61.441832 
L 404.539984 65.296621 
L 404.794764 64.604436 
L 405.049543 65.126437 
L 405.304323 64.127851 
L 405.559103 66.828526 
L 406.323443 67.690934 
L 406.578222 64.876771 
L 406.833002 67.078162 
L 407.087782 67.463966 
L 407.342562 65.648388 
L 408.106901 63.991665 
L 408.361681 65.421459 
L 408.616461 64.173227 
L 408.871241 65.012948 
L 409.126021 69.143386 
L 410.14514 67.259715 
L 410.39992 67.259715 
L 410.6547 64.808697 
L 410.90948 63.583163 
L 411.928599 64.559051 
L 412.438159 57.478252 
L 412.692938 55.617318 
L 413.712058 53.574742 
L 413.966838 51.37338 
L 414.221617 50.874067 
L 414.476397 51.940717 
L 415.240737 52.712373 
L 415.750296 53.756334 
L 416.005076 54.142118 
L 416.259856 56.071185 
L 417.024196 55.662674 
L 417.278975 58.113741 
L 417.533755 55.390349 
L 418.043315 55.935018 
L 418.807654 54.232919 
L 419.062434 55.980423 
L 419.317214 59.089569 
L 419.826774 55.617318 
L 420.591113 56.298153 
L 420.845893 58.317992 
L 421.610233 52.962009 
L 422.374572 53.983283 
L 422.629352 51.69109 
L 422.884132 52.145017 
L 423.393691 54.618732 
L 424.158031 52.871218 
L 424.412811 53.143572 
L 424.667591 53.80171 
L 424.92237 52.64427 
L 425.17715 43.044369 
L 425.94149 42.363543 
L 426.19627 43.316713 
L 426.451049 42.726679 
L 426.960609 42.93089 
L 427.724949 40.434496 
L 427.979728 40.570653 
L 428.744068 38.208818 
L 429.508407 38.026278 
L 429.763187 38.368561 
L 430.017967 39.075953 
L 430.272747 39.258523 
L 430.527527 38.9162 
L 431.546646 38.026278 
L 431.801426 39.053117 
L 432.056206 38.322879 
L 432.310986 39.714906 
L 433.075325 36.976554 
L 433.330105 36.771158 
L 433.584885 37.661149 
L 434.094444 38.710824 
L 434.858784 39.600815 
L 435.113564 43.229149 
L 435.368344 43.34325 
L 435.623123 43.206333 
L 435.877903 41.540472 
L 436.642243 42.179435 
L 436.897023 42.042517 
L 437.406582 39.851824 
L 437.661362 39.304145 
L 438.425702 39.509531 
L 438.680481 40.422318 
L 438.935261 40.718979 
L 439.444821 36.657067 
L 440.20916 36.018134 
L 440.9735 34.671779 
L 441.22828 34.078428 
L 441.992619 35.128153 
L 442.247399 34.6033 
L 442.756959 32.344148 
L 443.011739 34.032806 
L 443.776078 34.420741 
L 444.030858 36.70272 
L 444.285638 36.611425 
L 444.540418 35.858401 
L 444.795197 36.679893 
L 445.559537 35.196621 
L 445.814317 35.56173 
L 446.069097 36.679893 
L 446.323876 35.036878 
L 446.578656 35.173795 
L 447.597776 33.005927 
L 447.852555 28.031229 
L 448.107335 26.684874 
L 448.362115 14.932727 
L 449.126455 21.276597 
L 449.381234 17.579825 
L 449.636014 19.816131 
L 449.890794 19.496645 
L 450.145574 25.292837 
L 450.909913 24.174713 
L 451.164693 21.80144 
L 451.419473 17.511386 
L 451.674253 17.327909 
L 451.929033 19.781621 
L 452.693372 18.933137 
L 452.948152 16.594019 
L 453.202932 16.479415 
L 453.457712 16.525275 
L 453.712492 16.915114 
L 454.731611 19.506444 
L 454.986391 17.28201 
L 455.49595 23.634219 
L 456.26029 29.550699 
L 456.51507 34.205901 
L 456.76985 34.389349 
L 457.024629 43.149421 
L 457.279409 43.860296 
L 458.043749 37.760359 
L 458.298529 42.828345 
L 458.553308 36.613754 
L 459.062868 43.286999 
L 459.827208 54.569577 
L 460.081987 47.391829 
L 460.336767 52.712077 
L 460.591547 66.746508 
L 460.846327 46.359897 
L 461.610666 68.879194 
L 461.865446 56.335348 
L 462.375006 65.82925 
L 462.629786 66.081472 
L 463.394125 57.481953 
L 463.648905 51.01511 
L 463.903685 53.629364 
L 464.158465 43.814457 
L 464.413245 51.083874 
L 465.177584 43.92909 
L 465.432364 47.070803 
L 465.687144 52.207574 
L 465.941924 46.543365 
L 466.196703 47.047858 
L 466.961043 37.187081 
L 467.215823 37.255836 
L 467.470603 35.925803 
L 467.725382 40.145306 
L 468.744502 36.567924 
L 468.999282 32.073205 
L 469.254061 36.178065 
L 469.508841 31.775114 
L 470.527961 35.467179 
L 470.78274 41.933982 
L 471.03752 33.357418 
L 471.2923 35.788205 
L 471.54708 35.283712 
L 472.311419 34.802133 
L 472.566199 36.453231 
L 472.820979 29.45896 
L 473.330539 39.388551 
L 474.094878 38.196058 
L 474.604438 34.700575 
L 474.859218 34.723648 
L 475.113998 33.57053 
L 475.878337 32.509704 
L 476.133117 36.52243 
L 476.387897 38.021433 
L 476.642677 34.931175 
L 476.897456 36.776103 
L 477.916576 32.140707 
L 478.171356 25.660403 
L 478.426135 28.243315 
L 478.680915 27.597582 
L 479.700035 27.413078 
L 479.954814 24.599557 
L 480.209594 28.889008 
L 480.464374 26.052473 
L 481.228714 28.520051 
L 481.483493 27.920463 
L 481.738273 28.35862 
L 482.247833 22.800775 
L 483.012172 24.345884 
L 483.266952 25.798781 
L 483.521732 23.884664 
L 483.776512 33.501371 
L 484.031292 34.354621 
L 485.050411 31.887044 
L 485.305191 31.679497 
L 485.814751 33.685875 
L 486.57909 32.601966 
L 486.83387 32.993996 
L 487.598209 38.574914 
L 488.362549 36.799175 
L 488.617329 33.201543 
L 488.872109 35.553855 
L 489.126888 34.81589 
L 490.146008 33.870339 
L 490.400788 36.706904 
L 490.655567 36.015075 
L 490.910347 36.453241 
L 491.165127 33.893422 
L 491.929467 36.084254 
L 492.184246 35.161795 
L 492.439026 35.04647 
L 492.693806 34.792827 
L 492.948586 32.809512 
L 493.712925 30.157431 
L 493.967705 31.195175 
L 494.222485 30.388021 
L 494.477265 31.887044 
L 494.732045 54.510493 
L 495.751164 57.623774 
L 496.005944 60.321991 
L 496.260724 60.506515 
L 496.515504 61.106122 
L 497.279843 59.791613 
L 497.534623 57.877477 
L 497.789403 58.361769 
L 498.044183 58.408211 
L 498.298962 59.661998 
L 499.063302 56.899014 
L 499.318082 59.290514 
L 499.572862 56.968696 
L 499.827642 58.431422 
L 500.082421 57.665223 
L 500.846761 57.572359 
L 501.356321 58.965442 
L 501.6111 57.015108 
L 501.86588 56.759708 
L 502.63022 57.08477 
L 502.885 56.411445 
L 503.139779 56.132814 
L 503.394559 56.481088 
L 503.649339 54.089627 
L 504.413679 52.882271 
L 504.668458 53.253775 
L 504.923238 49.863887 
L 505.178018 54.1825 
L 506.451917 57.618791 
L 506.706697 55.970288 
L 506.961477 57.502696 
L 507.216257 56.759708 
L 507.980596 56.457867 
L 508.490156 54.228932 
L 508.744936 54.345017 
L 508.999716 55.343424 
L 509.764055 55.738139 
L 510.018835 55.204109 
L 510.273615 57.827759 
L 510.528395 57.038339 
L 510.783174 55.22731 
L 511.547514 51.767799 
L 511.802294 52.32503 
L 512.311853 49.887108 
L 512.566633 52.742966 
L 513.330973 51.164116 
L 513.585753 51.907094 
L 513.840532 48.888749 
L 514.095312 47.263468 
L 514.350092 48.540446 
L 515.114432 46.079323 
L 515.369211 46.195407 
L 515.623991 46.845522 
L 516.133551 45.429218 
L 516.89789 44.454041 
L 517.15267 47.124133 
L 517.40745 46.961626 
L 517.66223 46.032871 
L 517.91701 59.267264 
L 518.681349 62.703574 
L 519.190909 68.438471 
L 519.445689 68.763553 
L 519.700469 68.368829 
L 520.464808 67.950913 
L 520.719588 67.045379 
L 520.974368 65.071834 
L 521.229148 64.346856 
L 521.483927 65.025066 
L 522.248267 64.533955 
L 522.503047 64.908153 
L 522.757827 62.779908 
L 523.012606 66.054096 
L 523.267386 64.861366 
L 524.031726 63.154096 
L 524.541285 65.796841 
L 524.796065 64.487178 
L 525.050845 65.025066 
L 525.815185 63.458128 
L 526.069964 61.236387 
L 526.324744 61.142803 
L 526.834304 60.207348 
L 527.598643 58.102471 
L 527.853423 55.272656 
L 528.108203 54.477493 
L 528.617763 49.589579 
L 529.382102 53.775884 
L 529.636882 52.629911 
L 529.891662 54.079906 
L 530.146442 53.635542 
L 530.401222 54.87506 
L 531.420341 52.676688 
L 531.675121 51.62425 
L 531.929901 52.723436 
L 532.18468 60.183939 
L 532.94902 62.756509 
L 533.2038 63.200883 
L 533.713359 61.096036 
L 534.732479 61.096036 
L 534.987259 55.670233 
L 535.242038 57.166986 
L 535.496818 54.664572 
L 535.496818 54.664572 
" clip-path="url(#pb85a5513fc)" style="fill: none; stroke: #1f77b4; stroke-linecap: square"/>
   </g>
   <g id="line2d_15">
    <path d="M 71.033182 169.135959 
L 71.287962 169.103136 
L 72.052301 169.30891 
L 73.58098 169.369506 
L 73.83576 169.467975 
L 78.931357 169.398542 
L 79.186136 169.510897 
L 80.714815 169.582223 
L 86.065192 169.110776 
L 89.63211 169.100007 
L 89.886889 169.03729 
L 93.199027 168.921991 
L 93.453807 168.88905 
L 96.256385 168.908687 
L 97.020725 168.826965 
L 103.89978 168.925793 
L 104.15456 168.583065 
L 108.995377 168.206029 
L 109.504937 168.226989 
L 112.307515 168.201582 
L 113.071854 168.211746 
L 114.600533 168.099324 
L 114.855313 168.274626 
L 116.129212 168.216193 
L 123.772607 167.552457 
L 125.301286 167.5442 
L 125.556066 167.482591 
L 127.084745 167.387318 
L 127.339525 167.175177 
L 128.358644 167.203122 
L 128.613424 167.295221 
L 129.122984 167.224718 
L 131.925562 167.25752 
L 132.180342 167.275972 
L 132.435122 167.160798 
L 132.689902 167.200251 
L 134.218581 167.19325 
L 134.47336 167.391783 
L 138.040278 167.046259 
L 138.804618 167.085076 
L 139.314177 166.929813 
L 140.588076 166.823547 
L 144.664554 166.949538 
L 145.174113 166.881452 
L 146.448013 166.587472 
L 146.957572 166.689283 
L 147.721912 166.651102 
L 148.231471 166.803821 
L 148.741031 166.879543 
L 149.76015 166.651102 
L 150.26971 166.866816 
L 150.52449 165.581444 
L 151.288829 165.856972 
L 151.543609 165.694711 
L 151.798389 165.348548 
L 152.307949 165.238466 
L 153.581848 165.190697 
L 155.110527 165.236583 
L 155.365307 165.303495 
L 155.620087 165.594092 
L 156.893986 165.22766 
L 157.148766 165.120599 
L 157.658325 165.327712 
L 158.422665 165.469824 
L 158.677445 165.369135 
L 158.932224 165.032654 
L 159.441784 164.780291 
L 160.206124 164.702544 
L 160.460903 164.476947 
L 160.970463 164.353317 
L 161.225243 164.183166 
L 162.244362 163.702656 
L 162.499142 164.216938 
L 162.753922 164.078012 
L 163.008702 164.376897 
L 164.027821 164.678326 
L 164.282601 164.526656 
L 164.537381 164.695534 
L 165.5565 164.342483 
L 167.594739 164.735683 
L 168.104298 164.477586 
L 168.359078 164.550874 
L 169.123418 164.482047 
L 169.632977 164.309983 
L 170.142537 164.056346 
L 171.161656 164.221401 
L 171.416436 163.91742 
L 171.671216 163.825655 
L 171.925996 163.890019 
L 173.199895 163.62045 
L 174.473794 164.272383 
L 174.983354 164.232872 
L 175.492914 164.345669 
L 176.766813 164.111803 
L 177.021593 164.767111 
L 178.040712 164.516984 
L 178.295492 164.703942 
L 178.550272 164.620353 
L 178.805051 164.862184 
L 179.824171 164.947049 
L 180.33373 164.890262 
L 180.84329 164.854527 
L 183.391088 164.195391 
L 183.645868 164.421273 
L 183.900648 164.283446 
L 184.410208 164.321731 
L 186.958006 164.263666 
L 187.212786 164.748607 
L 187.722346 164.749884 
L 189.251025 164.97002 
L 189.505804 165.086152 
L 191.544043 164.691181 
L 194.091841 164.374691 
L 194.346621 164.576325 
L 194.856181 164.552716 
L 196.13008 164.610782 
L 196.38486 163.439904 
L 196.63964 163.107464 
L 196.89442 163.018771 
L 197.913539 162.449605 
L 198.168319 163.029618 
L 198.677878 162.492149 
L 199.442218 162.306911 
L 199.696998 162.426358 
L 200.461337 162.119119 
L 201.735236 161.958791 
L 202.244796 162.004143 
L 203.009136 161.725008 
L 203.263915 161.767805 
L 203.518695 161.654106 
L 203.773475 160.962977 
L 204.028255 161.623446 
L 205.302154 161.48803 
L 205.811714 161.494418 
L 206.576053 161.130327 
L 206.830833 161.145021 
L 207.085613 160.992998 
L 207.340393 161.063259 
L 207.595173 161.353254 
L 208.359512 161.460563 
L 208.614292 161.816351 
L 208.869072 161.486113 
L 209.123852 161.80996 
L 210.142971 162.279447 
L 212.18121 161.222309 
L 212.435989 160.798817 
L 212.690769 160.918905 
L 212.945549 160.642965 
L 213.709889 160.687677 
L 213.964668 160.578446 
L 214.219448 160.63338 
L 214.729008 160.441754 
L 215.748127 160.617414 
L 216.002907 160.495409 
L 216.257687 160.847999 
L 216.512467 160.67873 
L 217.276806 160.798817 
L 217.531586 160.67235 
L 217.786366 160.67873 
L 218.295926 160.498607 
L 219.060265 160.170288 
L 219.315045 160.301228 
L 219.569825 160.185616 
L 220.079384 161.2172 
L 220.843724 160.422594 
L 221.353284 160.630187 
L 221.608063 160.865248 
L 221.862843 160.863331 
L 222.627183 161.013438 
L 223.136742 160.579343 
L 223.646302 160.706564 
L 224.920201 160.587018 
L 225.174981 160.34663 
L 225.429761 160.281423 
L 226.70366 160.578706 
L 226.95844 160.529477 
L 227.21322 160.714237 
L 228.232339 160.335763 
L 228.741899 160.349188 
L 228.996679 159.664488 
L 229.761018 159.188837 
L 230.270578 159.298159 
L 230.525358 159.622928 
L 230.780137 159.735452 
L 231.544477 160.246899 
L 231.799257 160.185526 
L 232.054037 159.944505 
L 232.308816 159.947701 
L 232.563596 159.750153 
L 234.092275 159.622289 
L 234.347055 159.588408 
L 235.111395 159.326928 
L 235.620954 158.972105 
L 235.875734 158.966353 
L 236.130514 158.738757 
L 237.149633 158.536735 
L 238.678312 158.608979 
L 238.933092 158.477279 
L 239.187872 158.798214 
L 239.442652 158.668432 
L 239.697432 158.273973 
L 240.461771 158.14739 
L 240.716551 157.957513 
L 242.24523 157.777226 
L 242.50001 157.623791 
L 243.009569 158.052773 
L 243.264349 157.361034 
L 244.028689 157.585433 
L 244.283469 157.486341 
L 244.538248 157.754853 
L 244.793028 157.650642 
L 245.047808 157.666628 
L 246.831267 157.298975 
L 247.595606 157.479383 
L 247.850386 157.698826 
L 248.105166 158.61304 
L 248.359946 158.338581 
L 249.633845 159.168346 
L 250.398185 158.928438 
L 251.162524 158.725634 
L 251.672084 159.268149 
L 251.926864 159.249599 
L 252.181643 158.923963 
L 252.945983 158.518351 
L 253.200763 158.632871 
L 253.710322 158.646942 
L 253.965102 158.686613 
L 255.493781 158.550344 
L 255.748561 158.799843 
L 256.76768 158.42559 
L 257.02246 157.586225 
L 257.53202 157.398774 
L 258.296359 156.976532 
L 258.551139 156.980373 
L 259.060699 156.843462 
L 260.334598 157.097447 
L 260.589378 156.80252 
L 260.844158 156.820434 
L 261.098938 156.457695 
L 261.863277 156.228659 
L 262.118057 155.894699 
L 262.372837 156.093666 
L 262.627617 156.058478 
L 262.882396 155.611927 
L 263.646736 155.386735 
L 263.901516 155.650959 
L 264.156296 155.453907 
L 264.665855 156.239532 
L 265.430195 157.507531 
L 265.684975 156.747504 
L 265.939754 156.541494 
L 266.194534 157.263147 
L 266.449314 156.331656 
L 267.213654 156.590761 
L 267.468433 156.296469 
L 267.977993 155.409126 
L 268.232773 155.579304 
L 269.251892 155.244065 
L 269.506672 155.728368 
L 269.761452 155.677793 
L 270.016232 155.435815 
L 271.035351 155.427493 
L 271.290131 155.687398 
L 271.544911 156.314108 
L 271.799691 156.03692 
L 272.56403 156.093891 
L 272.81881 155.677151 
L 273.32837 155.739888 
L 273.583149 155.474218 
L 274.347489 155.19063 
L 274.602269 155.321865 
L 275.366608 155.14454 
L 276.130948 155.75141 
L 276.385728 155.202157 
L 276.640507 155.267451 
L 277.150067 156.265458 
L 277.914407 155.52864 
L 278.169186 156.742375 
L 278.423966 157.009316 
L 278.678746 156.353797 
L 279.697865 157.028525 
L 279.952645 156.753253 
L 280.207425 156.696281 
L 280.716985 157.463828 
L 281.481324 157.38957 
L 281.736104 156.589379 
L 281.990884 156.696281 
L 282.245664 156.161114 
L 282.500444 156.359561 
L 283.264783 156.360201 
L 283.519563 155.972904 
L 283.774343 156.047805 
L 284.029123 156.51704 
L 284.283902 156.538165 
L 285.303022 157.018918 
L 285.557802 157.309555 
L 285.812581 156.76158 
L 286.067361 156.690521 
L 286.831701 156.782061 
L 287.086481 156.63867 
L 287.34126 156.691804 
L 287.85082 155.875602 
L 289.379499 154.526791 
L 289.634279 154.885283 
L 290.398618 154.832149 
L 290.653398 155.4595 
L 291.417738 155.435174 
L 292.436857 155.642585 
L 292.691637 155.322951 
L 294.220316 155.255691 
L 294.475096 154.973848 
L 294.729876 155.025092 
L 294.984655 154.677276 
L 295.748995 154.214149 
L 296.258555 154.194938 
L 296.768114 154.378773 
L 297.532454 154.485109 
L 297.787234 154.359557 
L 298.042013 154.371092 
L 298.296793 154.082202 
L 298.551573 154.187893 
L 299.315913 154.198779 
L 299.570692 154.513931 
L 299.825472 154.376856 
L 301.099371 155.862293 
L 301.354151 155.678454 
L 301.608931 156.080081 
L 301.863711 155.750834 
L 302.118491 156.004493 
L 302.88283 155.662441 
L 303.13761 156.008338 
L 303.90195 155.336401 
L 304.666289 155.213416 
L 304.921069 154.957194 
L 305.175849 155.32359 
L 305.430629 155.086585 
L 305.685408 155.20893 
L 306.449748 155.280675 
L 306.704528 154.929006 
L 306.959308 155.05648 
L 307.468867 155.108365 
L 308.487987 155.248006 
L 308.997546 154.855344 
L 310.016666 155.541378 
L 310.526225 155.391487 
L 310.781005 155.125659 
L 311.035785 155.030859 
L 311.800124 154.907231 
L 312.309684 154.626027 
L 312.819244 154.858546 
L 313.583583 154.773358 
L 313.838363 154.433224 
L 314.347923 154.688805 
L 314.602703 155.497181 
L 315.367042 155.303731 
L 315.621822 154.95271 
L 315.876602 154.344184 
L 316.386161 153.742067 
L 317.150501 153.506343 
L 317.405281 153.603708 
L 317.660061 153.330684 
L 317.91484 153.374264 
L 318.16962 153.190325 
L 319.18874 152.99677 
L 319.698299 153.700483 
L 319.953079 153.755602 
L 320.717419 153.571662 
L 320.972198 153.695355 
L 321.226978 153.990173 
L 321.736538 153.462708 
L 322.500877 153.622934 
L 322.755657 153.809436 
L 323.010437 153.747912 
L 323.519997 154.294601 
L 324.284336 154.150397 
L 324.539116 153.976714 
L 324.793896 154.072207 
L 325.048676 154.041444 
L 325.303456 153.168535 
L 326.067795 152.63402 
L 326.322575 152.818603 
L 326.577355 152.802579 
L 327.086914 153.883783 
L 328.106034 154.160648 
L 328.360814 155.43284 
L 328.615593 156.109636 
L 328.870373 155.378367 
L 329.634713 156.093616 
L 329.889493 155.423871 
L 330.399052 155.82764 
L 330.653832 156.491613 
L 331.418172 156.36023 
L 331.672951 157.011387 
L 331.927731 158.398941 
L 332.182511 157.85866 
L 332.437291 158.470719 
L 333.20163 159.282744 
L 333.45641 158.168857 
L 333.96597 157.200451 
L 334.22075 157.404903 
L 335.239869 157.652288 
L 335.494649 157.477321 
L 335.749429 157.977228 
L 336.004209 157.997736 
L 336.768548 159.031512 
L 337.023328 158.405349 
L 337.278108 158.54122 
L 337.532888 158.20795 
L 337.787667 160.640815 
L 338.552007 161.905318 
L 338.806787 161.624603 
L 339.061567 161.904677 
L 339.571126 161.886091 
L 340.845025 160.920251 
L 341.099805 161.083843 
L 341.354585 160.694426 
L 342.118925 160.27037 
L 342.373704 161.099883 
L 342.883264 161.024181 
L 343.138044 161.709349 
L 343.902383 161.436695 
L 344.157163 161.672141 
L 344.666723 161.627233 
L 344.921503 161.783769 
L 345.685842 161.967893 
L 345.940622 161.752334 
L 346.195402 162.293155 
L 346.704962 162.866696 
L 347.469301 163.026438 
L 347.978861 162.64023 
L 348.233641 162.764048 
L 348.48842 162.604946 
L 349.25276 162.614568 
L 349.76232 162.440068 
L 350.017099 162.96806 
L 350.271879 162.441994 
L 351.036219 161.97944 
L 351.290999 162.208472 
L 352.055338 161.631082 
L 353.074457 161.56436 
L 353.329237 161.63044 
L 353.584017 161.445676 
L 353.838797 161.111431 
L 354.857916 161.634931 
L 355.112696 161.601571 
L 355.367476 161.053051 
L 355.622256 160.904853 
L 356.641375 162.736462 
L 357.150935 161.956986 
L 358.424834 161.559229 
L 358.679614 161.363559 
L 358.934394 161.721539 
L 359.189173 161.673424 
L 359.953513 161.783769 
L 360.208293 161.48096 
L 360.972632 161.085128 
L 361.991752 161.130037 
L 362.246531 161.007503 
L 362.501311 161.185852 
L 362.756091 160.966444 
L 363.77521 161.100524 
L 364.28477 161.272524 
L 364.53955 161.13188 
L 365.558669 161.127386 
L 366.068229 161.593626 
L 366.323009 161.505002 
L 367.596908 160.35032 
L 367.851688 160.546835 
L 368.106468 160.273895 
L 368.870807 160.329127 
L 369.125587 159.894994 
L 369.380367 159.979119 
L 369.635147 159.366462 
L 369.889926 159.780041 
L 370.654266 160.018939 
L 370.909046 159.820497 
L 371.418605 159.796091 
L 371.673385 159.647747 
L 372.692505 159.42683 
L 372.947284 159.065909 
L 373.202064 159.089027 
L 373.456844 158.916276 
L 374.221184 158.862329 
L 374.475963 159.024803 
L 374.730743 158.842422 
L 375.240303 158.976642 
L 376.004642 159.317651 
L 376.259422 159.092238 
L 376.768982 159.214897 
L 378.297661 158.902144 
L 378.552441 159.175728 
L 378.807221 159.742147 
L 380.08112 159.589304 
L 380.3359 159.414625 
L 380.590679 159.426186 
L 381.355019 159.62912 
L 381.609799 160.061967 
L 381.864579 160.009951 
L 382.374138 160.337474 
L 383.138478 161.00344 
L 383.393258 160.772887 
L 383.648037 160.930872 
L 383.902817 160.891699 
L 384.157597 161.126744 
L 384.921937 161.433717 
L 385.176716 161.221148 
L 385.941056 161.857571 
L 386.960175 161.974455 
L 387.724515 162.46994 
L 388.488854 162.577954 
L 388.743634 161.985165 
L 388.998414 162.095751 
L 389.507974 161.824432 
L 390.527093 161.486889 
L 390.781873 161.779425 
L 391.036653 161.646979 
L 391.291432 161.879724 
L 392.055772 161.854647 
L 392.310552 161.349942 
L 392.820111 161.271503 
L 393.074891 161.421952 
L 394.094011 161.439953 
L 394.34879 160.939748 
L 394.60357 160.684504 
L 395.62269 160.495477 
L 395.877469 160.748795 
L 396.132249 160.715362 
L 397.406148 161.071549 
L 397.660928 161.065121 
L 397.915708 160.888313 
L 398.170488 160.488405 
L 398.425268 160.402893 
L 399.444387 160.436967 
L 399.699167 160.267877 
L 399.953947 160.237658 
L 400.208727 160.349529 
L 400.973066 160.164362 
L 401.482626 159.692447 
L 401.737406 160.03192 
L 401.992185 159.923262 
L 403.011305 159.898832 
L 403.520864 160.575843 
L 404.539984 161.484315 
L 405.049543 161.285005 
L 405.304323 161.004041 
L 405.559103 161.266359 
L 406.323443 161.441882 
L 406.578222 161.14613 
L 406.833002 161.530607 
L 407.087782 161.614189 
L 407.342562 160.920458 
L 408.106901 160.199084 
L 408.361681 160.386177 
L 408.616461 160.170153 
L 408.871241 160.154076 
L 409.126021 160.735294 
L 409.89036 160.541768 
L 410.14514 160.77644 
L 410.39992 160.803473 
L 410.6547 160.431485 
L 410.90948 160.398662 
L 411.928599 160.613617 
L 412.183379 160.318218 
L 412.438159 159.611573 
L 412.692938 159.68172 
L 413.457278 159.562659 
L 413.966838 159.31617 
L 414.221617 159.32003 
L 414.476397 159.469986 
L 416.005076 159.791775 
L 416.259856 160.065291 
L 417.024196 159.926924 
L 417.278975 160.075589 
L 417.533755 159.708751 
L 417.788535 159.766027 
L 418.043315 160.125146 
L 419.062434 159.980982 
L 419.317214 160.042766 
L 419.571994 159.510529 
L 420.591113 159.31617 
L 420.845893 159.773109 
L 421.610233 159.209338 
L 422.374572 159.174583 
L 422.629352 158.541305 
L 422.884132 158.68032 
L 423.138912 158.675168 
L 423.393691 158.91973 
L 424.158031 158.564474 
L 424.667591 158.623684 
L 424.92237 158.509773 
L 425.17715 158.015507 
L 425.94149 157.870704 
L 426.19627 158.119769 
L 426.451049 158.114616 
L 426.705829 158.242046 
L 426.960609 158.141002 
L 427.724949 157.631936 
L 428.744068 157.806989 
L 430.272747 157.67763 
L 430.527527 158.038031 
L 431.291866 157.517378 
L 431.546646 157.793474 
L 431.801426 157.588173 
L 432.310986 157.606833 
L 433.075325 156.942669 
L 433.330105 157.213612 
L 433.584885 157.123446 
L 434.094444 157.220054 
L 435.113564 157.804849 
L 435.368344 157.691497 
L 435.623123 157.735293 
L 435.877903 157.514385 
L 436.642243 157.514385 
L 437.151802 157.181409 
L 437.406582 156.747965 
L 438.425702 156.678409 
L 439.444821 155.762571 
L 441.22828 155.923579 
L 441.992619 156.216625 
L 442.756959 155.727794 
L 443.011739 155.975107 
L 443.776078 155.911344 
L 444.030858 155.726501 
L 444.285638 155.697518 
L 445.559537 154.950423 
L 445.814317 155.253127 
L 446.069097 155.363258 
L 446.323876 155.146859 
L 446.578656 155.124316 
L 447.597776 155.210619 
L 448.107335 154.893745 
L 448.362115 155.047032 
L 449.126455 155.709112 
L 449.381234 155.208686 
L 449.636014 155.36519 
L 449.890794 155.347799 
L 450.145574 155.95192 
L 450.909913 155.700741 
L 451.419473 155.028996 
L 451.674253 154.804223 
L 451.929033 154.975544 
L 453.202932 153.626258 
L 453.457712 153.739613 
L 453.712492 152.515273 
L 454.731611 152.078606 
L 454.986391 150.910946 
L 455.241171 151.297378 
L 455.49595 152.23962 
L 456.26029 153.578598 
L 456.51507 154.301865 
L 456.76985 153.941202 
L 457.024629 154.900761 
L 457.279409 153.774934 
L 458.043749 153.365075 
L 458.298529 154.044307 
L 458.553308 152.844372 
L 459.062868 154.034641 
L 459.827208 155.362174 
L 460.081987 154.35428 
L 460.336767 155.2958 
L 460.591547 157.239415 
L 460.846327 155.658616 
L 461.610666 158.522485 
L 461.865446 157.177548 
L 462.120226 158.108758 
L 462.375006 157.454656 
L 462.629786 157.919937 
L 463.394125 157.472701 
L 463.648905 155.12116 
L 463.903685 155.350576 
L 464.158465 154.601739 
L 464.413245 154.892382 
L 465.177584 154.063643 
L 465.432364 154.191887 
L 465.687144 155.514909 
L 465.941924 154.71581 
L 466.196703 155.460776 
L 466.961043 153.882555 
L 467.215823 154.486386 
L 467.470603 153.975998 
L 467.725382 154.233772 
L 468.744502 153.789109 
L 468.999282 152.880459 
L 469.254061 153.080876 
L 469.508841 152.187694 
L 470.527961 152.680685 
L 470.78274 153.811021 
L 471.03752 152.738684 
L 471.2923 152.876592 
L 471.54708 152.516997 
L 472.311419 152.034317 
L 472.566199 152.402931 
L 472.820979 151.945384 
L 473.075759 152.343644 
L 473.330539 152.955861 
L 474.604438 151.988563 
L 475.113998 151.040597 
L 475.878337 150.388432 
L 476.133117 151.066376 
L 476.387897 151.124375 
L 476.642677 150.478654 
L 476.897456 149.292249 
L 478.171356 148.056859 
L 478.426135 148.558875 
L 478.680915 147.911872 
L 479.700035 148.707102 
L 479.954814 149.203316 
L 480.209594 149.301915 
L 480.464374 148.300458 
L 481.993053 148.57112 
L 482.247833 148.17526 
L 483.012172 148.471834 
L 483.521732 147.023129 
L 483.776512 148.494399 
L 484.031292 148.143019 
L 484.795631 147.52086 
L 485.050411 147.792294 
L 485.305191 147.360322 
L 485.559971 147.406739 
L 485.814751 147.295207 
L 486.57909 146.6105 
L 486.83387 146.808435 
L 487.08865 147.361608 
L 487.34343 146.705281 
L 487.598209 147.569211 
L 488.362549 147.453166 
L 488.617329 146.685292 
L 488.872109 146.602119 
L 489.126888 146.390003 
L 490.400788 145.720771 
L 490.910347 144.077368 
L 491.165127 144.154082 
L 491.929467 145.255278 
L 492.184246 144.417778 
L 492.693806 145.042521 
L 492.948586 144.87038 
L 493.712925 144.072848 
L 493.967705 144.542856 
L 494.222485 144.258534 
L 494.477265 145.055417 
L 495.496384 144.303019 
L 495.751164 144.834271 
L 496.260724 143.806576 
L 496.515504 143.804644 
L 497.279843 142.784686 
L 497.534623 142.223769 
L 498.044183 141.945893 
L 498.298962 142.296624 
L 499.063302 142.385594 
L 499.318082 143.197951 
L 499.572862 141.675747 
L 499.827642 141.668662 
L 500.082421 141.356609 
L 500.846761 139.363109 
L 501.6111 139.868577 
L 501.86588 138.469519 
L 503.139779 138.238702 
L 503.394559 138.612004 
L 503.649339 137.272254 
L 504.413679 136.687489 
L 504.923238 134.169705 
L 505.178018 137.603274 
L 505.432798 138.617087 
L 506.451917 140.447371 
L 506.706697 138.378466 
L 506.961477 139.418724 
L 507.216257 139.798582 
L 507.980596 137.972807 
L 508.235376 137.666473 
L 508.490156 138.895692 
L 508.744936 139.027261 
L 508.999716 139.734732 
L 510.018835 138.577748 
L 510.273615 139.903707 
L 510.528395 139.325216 
L 510.783174 137.968941 
L 511.547514 137.552964 
L 511.802294 137.060895 
L 512.057074 136.274732 
L 512.311853 136.058039 
L 512.566633 137.482672 
L 513.330973 135.985809 
L 513.585753 135.743315 
L 513.840532 135.15644 
L 514.350092 135.675604 
L 515.114432 134.480564 
L 515.369211 134.423166 
L 516.133551 135.549838 
L 516.89789 136.359215 
L 517.15267 135.978067 
L 517.66223 136.711988 
L 517.91701 136.120589 
L 518.681349 137.278873 
L 518.936129 136.619768 
L 519.190909 138.605479 
L 519.445689 137.581341 
L 519.700469 138.845387 
L 520.464808 138.724788 
L 520.719588 137.592947 
L 520.974368 135.594338 
L 521.483927 133.613784 
L 522.248267 136.01612 
L 522.503047 138.236583 
L 522.757827 136.564946 
L 523.012606 136.464979 
L 523.267386 136.87709 
L 524.031726 136.314078 
L 524.286506 136.553984 
L 524.796065 136.507545 
L 525.050845 137.416893 
L 525.815185 137.282098 
L 526.069964 137.752246 
L 526.324744 137.037679 
L 526.834304 136.969319 
L 527.598643 136.607514 
L 527.853423 136.637179 
L 528.108203 136.238613 
L 528.362983 136.611491 
L 528.617763 136.192813 
L 529.382102 136.067661 
L 529.636882 136.730188 
L 529.891662 137.81205 
L 530.401222 137.599159 
L 531.420341 136.703096 
L 531.675121 137.00759 
L 531.929901 136.752768 
L 532.18468 136.931463 
L 532.94902 136.775996 
L 533.2038 136.915338 
L 533.45858 137.609482 
L 534.987259 137.779789 
L 535.242038 137.257246 
L 535.496818 137.491431 
L 535.496818 137.491431 
" clip-path="url(#pb85a5513fc)" style="fill: none; stroke: #ff7f0e; stroke-linecap: square"/>
   </g>
   <g id="patch_3">
    <path d="M 47.81 177.32 
L 47.81 7.2 
" style="fill: none; stroke: #000000; stroke-linejoin: miter; stroke-linecap: square"/>
   </g>
   <g id="patch_4">
    <path d="M 47.81 177.32 
L 558.72 177.32 
" style="fill: none; stroke: #000000; stroke-linejoin: miter; stroke-linecap: square"/>
   </g>
   <g id="legend_1">
    <g id="patch_5">
     <path d="M 56.21 49.0275 
L 129.035 49.0275 
Q 131.435 49.0275 131.435 46.6275 
L 131.435 15.6 
Q 131.435 13.2 129.035 13.2 
L 56.21 13.2 
Q 53.81 13.2 53.81 15.6 
L 53.81 46.6275 
Q 53.81 49.0275 56.21 49.0275 
z
" style="fill: #eeeeee; opacity: 0.85"/>
    </g>
    <g id="line2d_16">
     <path d="M 58.61 22.918125 
L 70.61 22.918125 
L 82.61 22.918125 
" style="fill: none; stroke: #1f77b4; stroke-linecap: square"/>
    </g>
    <g id="text_15">
     <!-- INTC -->
     <g transform="translate(92.21 27.118125) scale(0.12 -0.12)">
      <defs>
       <path id="DejaVuSans-49" d="M 628 4666 
L 1259 4666 
L 1259 0 
L 628 0 
L 628 4666 
z
" transform="scale(0.015625)"/>
       <path id="DejaVuSans-4e" d="M 628 4666 
L 1478 4666 
L 3547 763 
L 3547 4666 
L 4159 4666 
L 4159 0 
L 3309 0 
L 1241 3903 
L 1241 0 
L 628 0 
L 628 4666 
z
" transform="scale(0.015625)"/>
       <path id="DejaVuSans-54" d="M -19 4666 
L 3928 4666 
L 3928 4134 
L 2272 4134 
L 2272 0 
L 1638 0 
L 1638 4134 
L -19 4134 
L -19 4666 
z
" transform="scale(0.015625)"/>
       <path id="DejaVuSans-43" d="M 4122 4306 
L 4122 3641 
Q 3803 3938 3442 4084 
Q 3081 4231 2675 4231 
Q 1875 4231 1450 3742 
Q 1025 3253 1025 2328 
Q 1025 1406 1450 917 
Q 1875 428 2675 428 
Q 3081 428 3442 575 
Q 3803 722 4122 1019 
L 4122 359 
Q 3791 134 3420 21 
Q 3050 -91 2638 -91 
Q 1578 -91 968 557 
Q 359 1206 359 2328 
Q 359 3453 968 4101 
Q 1578 4750 2638 4750 
Q 3056 4750 3426 4639 
Q 3797 4528 4122 4306 
z
" transform="scale(0.015625)"/>
      </defs>
      <use xlink:href="#DejaVuSans-49"/>
      <use xlink:href="#DejaVuSans-4e" transform="translate(29.492188 0)"/>
      <use xlink:href="#DejaVuSans-54" transform="translate(104.296875 0)"/>
      <use xlink:href="#DejaVuSans-43" transform="translate(159.505859 0)"/>
     </g>
    </g>
    <g id="line2d_17">
     <path d="M 58.61 37.531875 
L 70.61 37.531875 
L 82.61 37.531875 
" style="fill: none; stroke: #ff7f0e; stroke-linecap: square"/>
    </g>
    <g id="text_16">
     <!-- NVDA -->
     <g transform="translate(92.21 41.731875) scale(0.12 -0.12)">
      <defs>
       <path id="DejaVuSans-56" d="M 1831 0 
L 50 4666 
L 709 4666 
L 2188 738 
L 3669 4666 
L 4325 4666 
L 2547 0 
L 1831 0 
z
" transform="scale(0.015625)"/>
       <path id="DejaVuSans-41" d="M 2188 4044 
L 1331 1722 
L 3047 1722 
L 2188 4044 
z
M 1831 4666 
L 2547 4666 
L 4325 0 
L 3669 0 
L 3244 1197 
L 1141 1197 
L 716 0 
L 50 0 
L 1831 4666 
z
" transform="scale(0.015625)"/>
      </defs>
      <use xlink:href="#DejaVuSans-4e"/>
      <use xlink:href="#DejaVuSans-56" transform="translate(74.804688 0)"/>
      <use xlink:href="#DejaVuSans-44" transform="translate(143.212891 0)"/>
      <use xlink:href="#DejaVuSans-41" transform="translate(218.464844 0)"/>
     </g>
    </g>
   </g>
  </g>
  <g id="text_17">
   <!-- Figure 1: some caption -->
   <g transform="translate(7.2 221.04) scale(0.12 -0.12)">
    <defs>
     <path id="DejaVuSans-46" d="M 628 4666 
L 3309 4666 
L 3309 4134 
L 1259 4134 
L 1259 2759 
L 3109 2759 
L 3109 2228 
L 1259 2228 
L 1259 0 
L 628 0 
L 628 4666 
z
" transform="scale(0.015625)"/>
     <path id="DejaVuSans-67" d="M 2906 1791 
Q 2906 2416 2648 2759 
Q 2391 3103 1925 3103 
Q 1463 3103 1205 2759 
Q 947 2416 947 1791 
Q 947 1169 1205 825 
Q 1463 481 1925 481 
Q 2391 481 2648 825 
Q 2906 1169 2906 1791 
z
M 3481 434 
Q 3481 -459 3084 -895 
Q 2688 -1331 1869 -1331 
Q 1566 -1331 1297 -1286 
Q 1028 -1241 775 -1147 
L 775 -588 
Q 1028 -725 1275 -790 
Q 1522 -856 1778 -856 
Q 2344 -856 2625 -561 
Q 2906 -266 2906 331 
L 2906 616 
Q 2728 306 2450 153 
Q 2172 0 1784 0 
Q 1141 0 747 490 
Q 353 981 353 1791 
Q 353 2603 747 3093 
Q 1141 3584 1784 3584 
Q 2172 3584 2450 3431 
Q 2728 3278 2906 2969 
L 2906 3500 
L 3481 3500 
L 3481 434 
z
" transform="scale(0.015625)"/>
     <path id="DejaVuSans-75" d="M 544 1381 
L 544 3500 
L 1119 3500 
L 1119 1403 
Q 1119 906 1312 657 
Q 1506 409 1894 409 
Q 2359 409 2629 706 
Q 2900 1003 2900 1516 
L 2900 3500 
L 3475 3500 
L 3475 0 
L 2900 0 
L 2900 538 
Q 2691 219 2414 64 
Q 2138 -91 1772 -91 
Q 1169 -91 856 284 
Q 544 659 544 1381 
z
M 1991 3584 
L 1991 3584 
z
" transform="scale(0.015625)"/>
     <path id="DejaVuSans-3a" d="M 750 794 
L 1409 794 
L 1409 0 
L 750 0 
L 750 794 
z
M 750 3309 
L 1409 3309 
L 1409 2516 
L 750 2516 
L 750 3309 
z
" transform="scale(0.015625)"/>
     <path id="DejaVuSans-73" d="M 2834 3397 
L 2834 2853 
Q 2591 2978 2328 3040 
Q 2066 3103 1784 3103 
Q 1356 3103 1142 2972 
Q 928 2841 928 2578 
Q 928 2378 1081 2264 
Q 1234 2150 1697 2047 
L 1894 2003 
Q 2506 1872 2764 1633 
Q 3022 1394 3022 966 
Q 3022 478 2636 193 
Q 2250 -91 1575 -91 
Q 1294 -91 989 -36 
Q 684 19 347 128 
L 347 722 
Q 666 556 975 473 
Q 1284 391 1588 391 
Q 1994 391 2212 530 
Q 2431 669 2431 922 
Q 2431 1156 2273 1281 
Q 2116 1406 1581 1522 
L 1381 1569 
Q 847 1681 609 1914 
Q 372 2147 372 2553 
Q 372 3047 722 3315 
Q 1072 3584 1716 3584 
Q 2034 3584 2315 3537 
Q 2597 3491 2834 3397 
z
" transform="scale(0.015625)"/>
     <path id="DejaVuSans-6f" d="M 1959 3097 
Q 1497 3097 1228 2736 
Q 959 2375 959 1747 
Q 959 1119 1226 758 
Q 1494 397 1959 397 
Q 2419 397 2687 759 
Q 2956 1122 2956 1747 
Q 2956 2369 2687 2733 
Q 2419 3097 1959 3097 
z
M 1959 3584 
Q 2709 3584 3137 3096 
Q 3566 2609 3566 1747 
Q 3566 888 3137 398 
Q 2709 -91 1959 -91 
Q 1206 -91 779 398 
Q 353 888 353 1747 
Q 353 2609 779 3096 
Q 1206 3584 1959 3584 
z
" transform="scale(0.015625)"/>
     <path id="DejaVuSans-6d" d="M 3328 2828 
Q 3544 3216 3844 3400 
Q 4144 3584 4550 3584 
Q 5097 3584 5394 3201 
Q 5691 2819 5691 2113 
L 5691 0 
L 5113 0 
L 5113 2094 
Q 5113 2597 4934 2840 
Q 4756 3084 4391 3084 
Q 3944 3084 3684 2787 
Q 3425 2491 3425 1978 
L 3425 0 
L 2847 0 
L 2847 2094 
Q 2847 2600 2669 2842 
Q 2491 3084 2119 3084 
Q 1678 3084 1418 2786 
Q 1159 2488 1159 1978 
L 1159 0 
L 581 0 
L 581 3500 
L 1159 3500 
L 1159 2956 
Q 1356 3278 1631 3431 
Q 1906 3584 2284 3584 
Q 2666 3584 2933 3390 
Q 3200 3197 3328 2828 
z
" transform="scale(0.015625)"/>
     <path id="DejaVuSans-61" d="M 2194 1759 
Q 1497 1759 1228 1600 
Q 959 1441 959 1056 
Q 959 750 1161 570 
Q 1363 391 1709 391 
Q 2188 391 2477 730 
Q 2766 1069 2766 1631 
L 2766 1759 
L 2194 1759 
z
M 3341 1997 
L 3341 0 
L 2766 0 
L 2766 531 
Q 2569 213 2275 61 
Q 1981 -91 1556 -91 
Q 1019 -91 701 211 
Q 384 513 384 1019 
Q 384 1609 779 1909 
Q 1175 2209 1959 2209 
L 2766 2209 
L 2766 2266 
Q 2766 2663 2505 2880 
Q 2244 3097 1772 3097 
Q 1472 3097 1187 3025 
Q 903 2953 641 2809 
L 641 3341 
Q 956 3463 1253 3523 
Q 1550 3584 1831 3584 
Q 2591 3584 2966 3190 
Q 3341 2797 3341 1997 
z
" transform="scale(0.015625)"/>
     <path id="DejaVuSans-70" d="M 1159 525 
L 1159 -1331 
L 581 -1331 
L 581 3500 
L 1159 3500 
L 1159 2969 
Q 1341 3281 1617 3432 
Q 1894 3584 2278 3584 
Q 2916 3584 3314 3078 
Q 3713 2572 3713 1747 
Q 3713 922 3314 415 
Q 2916 -91 2278 -91 
Q 1894 -91 1617 61 
Q 1341 213 1159 525 
z
M 3116 1747 
Q 3116 2381 2855 2742 
Q 2594 3103 2138 3103 
Q 1681 3103 1420 2742 
Q 1159 2381 1159 1747 
Q 1159 1113 1420 752 
Q 1681 391 2138 391 
Q 2594 391 2855 752 
Q 3116 1113 3116 1747 
z
" transform="scale(0.015625)"/>
     <path id="DejaVuSans-74" d="M 1172 4494 
L 1172 3500 
L 2356 3500 
L 2356 3053 
L 1172 3053 
L 1172 1153 
Q 1172 725 1289 603 
Q 1406 481 1766 481 
L 2356 481 
L 2356 0 
L 1766 0 
Q 1100 0 847 248 
Q 594 497 594 1153 
L 594 3053 
L 172 3053 
L 172 3500 
L 594 3500 
L 594 4494 
L 1172 4494 
z
" transform="scale(0.015625)"/>
     <path id="DejaVuSans-6e" d="M 3513 2113 
L 3513 0 
L 2938 0 
L 2938 2094 
Q 2938 2591 2744 2837 
Q 2550 3084 2163 3084 
Q 1697 3084 1428 2787 
Q 1159 2491 1159 1978 
L 1159 0 
L 581 0 
L 581 3500 
L 1159 3500 
L 1159 2956 
Q 1366 3272 1645 3428 
Q 1925 3584 2291 3584 
Q 2894 3584 3203 3211 
Q 3513 2838 3513 2113 
z
" transform="scale(0.015625)"/>
    </defs>
    <use xlink:href="#DejaVuSans-46"/>
    <use xlink:href="#DejaVuSans-69" transform="translate(50.269531 0)"/>
    <use xlink:href="#DejaVuSans-67" transform="translate(78.052734 0)"/>
    <use xlink:href="#DejaVuSans-75" transform="translate(141.529297 0)"/>
    <use xlink:href="#DejaVuSans-72" transform="translate(204.908203 0)"/>
    <use xlink:href="#DejaVuSans-65" transform="translate(243.771484 0)"/>
    <use xlink:href="#DejaVuSans-20" transform="translate(305.294922 0)"/>
    <use xlink:href="#DejaVuSans-31" transform="translate(337.082031 0)"/>
    <use xlink:href="#DejaVuSans-3a" transform="translate(400.705078 0)"/>
    <use xlink:href="#DejaVuSans-20" transform="translate(434.396484 0)"/>
    <use xlink:href="#DejaVuSans-73" transform="translate(466.183594 0)"/>
    <use xlink:href="#DejaVuSans-6f" transform="translate(518.283203 0)"/>
    <use xlink:href="#DejaVuSans-6d" transform="translate(579.464844 0)"/>
    <use xlink:href="#DejaVuSans-65" transform="translate(676.876953 0)"/>
    <use xlink:href="#DejaVuSans-20" transform="translate(738.400391 0)"/>
    <use xlink:href="#DejaVuSans-63" transform="translate(770.1875 0)"/>
    <use xlink:href="#DejaVuSans-61" transform="translate(825.167969 0)"/>
    <use xlink:href="#DejaVuSans-70" transform="translate(886.447266 0)"/>
    <use xlink:href="#DejaVuSans-74" transform="translate(949.923828 0)"/>
    <use xlink:href="#DejaVuSans-69" transform="translate(989.132812 0)"/>
    <use xlink:href="#DejaVuSans-6f" transform="translate(1016.916016 0)"/>
    <use xlink:href="#DejaVuSans-6e" transform="translate(1078.097656 0)"/>
   </g>
  </g>
 </g>
 <defs>
  <clipPath id="pb85a5513fc">
   <rect x="47.81" y="7.2" width="510.91" height="170.12"/>
  </clipPath>
 </defs>
</svg>
