<?xml version="1.0" encoding="utf-8" standalone="no"?>
<!DOCTYPE svg PUBLIC "-//W3C//DTD SVG 1.1//EN"
  "http://www.w3.org/Graphics/SVG/1.1/DTD/svg11.dtd">
<svg xmlns:xlink="http://www.w3.org/1999/xlink" width="565.92pt" height="230.735625pt" viewBox="0 0 565.92 230.735625" xmlns="http://www.w3.org/2000/svg" version="1.1">
 <metadata>
  <rdf:RDF xmlns:dc="http://purl.org/dc/elements/1.1/" xmlns:cc="http://creativecommons.org/ns#" xmlns:rdf="http://www.w3.org/1999/02/22-rdf-syntax-ns#">
   <cc:Work>
    <dc:type rdf:resource="http://purl.org/dc/dcmitype/StillImage"/>
    <dc:date>2025-01-24T16:08:59.385727</dc:date>
    <dc:format>image/svg+xml</dc:format>
    <dc:creator>
     <cc:Agent>
      <dc:title>Matplotlib v3.10.0, https://matplotlib.org/</dc:title>
     </cc:Agent>
    </dc:creator>
   </cc:Work>
  </rdf:RDF>
 </metadata>
 <defs>
  <style type="text/css">*{stroke-linejoin: round; stroke-linecap: butt}</style>
 </defs>
 <g id="figure_1">
  <g id="patch_1">
   <path d="M 0 230.735625 
L 565.92 230.735625 
L 565.92 0 
L 0 0 
z
" style="fill: #ffffff"/>
  </g>
  <g id="axes_1">
   <g id="patch_2">
    <path d="M 47.81 177.32 
L 558.72 177.32 
L 558.72 7.2 
L 47.81 7.2 
z
" style="fill: #ffffff"/>
   </g>
   <g id="matplotlib.axis_1">
    <g id="xtick_1">
     <g id="line2d_1">
      <defs>
       <path id="mbfbef8487e" d="M 0 0 
L 0 3.5 
" style="stroke: #000000"/>
      </defs>
      <g>
       <use xlink:href="#mbfbef8487e" x="70.268842" y="177.32" style="stroke: #000000"/>
      </g>
     </g>
     <g id="text_1">
      <!-- 2016 -->
      <g transform="translate(54.998842 193.438125) scale(0.12 -0.12)">
       <defs>
        <path id="DejaVuSans-32" d="M 1228 531 
L 3431 531 
L 3431 0 
L 469 0 
L 469 531 
Q 828 903 1448 1529 
Q 2069 2156 2228 2338 
Q 2531 2678 2651 2914 
Q 2772 3150 2772 3378 
Q 2772 3750 2511 3984 
Q 2250 4219 1831 4219 
Q 1534 4219 1204 4116 
Q 875 4013 500 3803 
L 500 4441 
Q 881 4594 1212 4672 
Q 1544 4750 1819 4750 
Q 2544 4750 2975 4387 
Q 3406 4025 3406 3419 
Q 3406 3131 3298 2873 
Q 3191 2616 2906 2266 
Q 2828 2175 2409 1742 
Q 1991 1309 1228 531 
z
" transform="scale(0.015625)"/>
        <path id="DejaVuSans-30" d="M 2034 4250 
Q 1547 4250 1301 3770 
Q 1056 3291 1056 2328 
Q 1056 1369 1301 889 
Q 1547 409 2034 409 
Q 2525 409 2770 889 
Q 3016 1369 3016 2328 
Q 3016 3291 2770 3770 
Q 2525 4250 2034 4250 
z
M 2034 4750 
Q 2819 4750 3233 4129 
Q 3647 3509 3647 2328 
Q 3647 1150 3233 529 
Q 2819 -91 2034 -91 
Q 1250 -91 836 529 
Q 422 1150 422 2328 
Q 422 3509 836 4129 
Q 1250 4750 2034 4750 
z
" transform="scale(0.015625)"/>
        <path id="DejaVuSans-31" d="M 794 531 
L 1825 531 
L 1825 4091 
L 703 3866 
L 703 4441 
L 1819 4666 
L 2450 4666 
L 2450 531 
L 3481 531 
L 3481 0 
L 794 0 
L 794 531 
z
" transform="scale(0.015625)"/>
        <path id="DejaVuSans-36" d="M 2113 2584 
Q 1688 2584 1439 2293 
Q 1191 2003 1191 1497 
Q 1191 994 1439 701 
Q 1688 409 2113 409 
Q 2538 409 2786 701 
Q 3034 994 3034 1497 
Q 3034 2003 2786 2293 
Q 2538 2584 2113 2584 
z
M 3366 4563 
L 3366 3988 
Q 3128 4100 2886 4159 
Q 2644 4219 2406 4219 
Q 1781 4219 1451 3797 
Q 1122 3375 1075 2522 
Q 1259 2794 1537 2939 
Q 1816 3084 2150 3084 
Q 2853 3084 3261 2657 
Q 3669 2231 3669 1497 
Q 3669 778 3244 343 
Q 2819 -91 2113 -91 
Q 1303 -91 875 529 
Q 447 1150 447 2328 
Q 447 3434 972 4092 
Q 1497 4750 2381 4750 
Q 2619 4750 2861 4703 
Q 3103 4656 3366 4563 
z
" transform="scale(0.015625)"/>
       </defs>
       <use xlink:href="#DejaVuSans-32"/>
       <use xlink:href="#DejaVuSans-30" transform="translate(63.623047 0)"/>
       <use xlink:href="#DejaVuSans-31" transform="translate(127.246094 0)"/>
       <use xlink:href="#DejaVuSans-36" transform="translate(190.869141 0)"/>
      </g>
     </g>
    </g>
    <g id="xtick_2">
     <g id="line2d_2">
      <g>
       <use xlink:href="#mbfbef8487e" x="163.518261" y="177.32" style="stroke: #000000"/>
      </g>
     </g>
     <g id="text_2">
      <!-- 2017 -->
      <g transform="translate(148.248261 193.438125) scale(0.12 -0.12)">
       <defs>
        <path id="DejaVuSans-37" d="M 525 4666 
L 3525 4666 
L 3525 4397 
L 1831 0 
L 1172 0 
L 2766 4134 
L 525 4134 
L 525 4666 
z
" transform="scale(0.015625)"/>
       </defs>
       <use xlink:href="#DejaVuSans-32"/>
       <use xlink:href="#DejaVuSans-30" transform="translate(63.623047 0)"/>
       <use xlink:href="#DejaVuSans-31" transform="translate(127.246094 0)"/>
       <use xlink:href="#DejaVuSans-37" transform="translate(190.869141 0)"/>
      </g>
     </g>
    </g>
    <g id="xtick_3">
     <g id="line2d_3">
      <g>
       <use xlink:href="#mbfbef8487e" x="256.512901" y="177.32" style="stroke: #000000"/>
      </g>
     </g>
     <g id="text_3">
      <!-- 2018 -->
      <g transform="translate(241.242901 193.438125) scale(0.12 -0.12)">
       <defs>
        <path id="DejaVuSans-38" d="M 2034 2216 
Q 1584 2216 1326 1975 
Q 1069 1734 1069 1313 
Q 1069 891 1326 650 
Q 1584 409 2034 409 
Q 2484 409 2743 651 
Q 3003 894 3003 1313 
Q 3003 1734 2745 1975 
Q 2488 2216 2034 2216 
z
M 1403 2484 
Q 997 2584 770 2862 
Q 544 3141 544 3541 
Q 544 4100 942 4425 
Q 1341 4750 2034 4750 
Q 2731 4750 3128 4425 
Q 3525 4100 3525 3541 
Q 3525 3141 3298 2862 
Q 3072 2584 2669 2484 
Q 3125 2378 3379 2068 
Q 3634 1759 3634 1313 
Q 3634 634 3220 271 
Q 2806 -91 2034 -91 
Q 1263 -91 848 271 
Q 434 634 434 1313 
Q 434 1759 690 2068 
Q 947 2378 1403 2484 
z
M 1172 3481 
Q 1172 3119 1398 2916 
Q 1625 2713 2034 2713 
Q 2441 2713 2670 2916 
Q 2900 3119 2900 3481 
Q 2900 3844 2670 4047 
Q 2441 4250 2034 4250 
Q 1625 4250 1398 4047 
Q 1172 3844 1172 3481 
z
" transform="scale(0.015625)"/>
       </defs>
       <use xlink:href="#DejaVuSans-32"/>
       <use xlink:href="#DejaVuSans-30" transform="translate(63.623047 0)"/>
       <use xlink:href="#DejaVuSans-31" transform="translate(127.246094 0)"/>
       <use xlink:href="#DejaVuSans-38" transform="translate(190.869141 0)"/>
      </g>
     </g>
    </g>
    <g id="xtick_4">
     <g id="line2d_4">
      <g>
       <use xlink:href="#mbfbef8487e" x="349.50754" y="177.32" style="stroke: #000000"/>
      </g>
     </g>
     <g id="text_4">
      <!-- 2019 -->
      <g transform="translate(334.23754 193.438125) scale(0.12 -0.12)">
       <defs>
        <path id="DejaVuSans-39" d="M 703 97 
L 703 672 
Q 941 559 1184 500 
Q 1428 441 1663 441 
Q 2288 441 2617 861 
Q 2947 1281 2994 2138 
Q 2813 1869 2534 1725 
Q 2256 1581 1919 1581 
Q 1219 1581 811 2004 
Q 403 2428 403 3163 
Q 403 3881 828 4315 
Q 1253 4750 1959 4750 
Q 2769 4750 3195 4129 
Q 3622 3509 3622 2328 
Q 3622 1225 3098 567 
Q 2575 -91 1691 -91 
Q 1453 -91 1209 -44 
Q 966 3 703 97 
z
M 1959 2075 
Q 2384 2075 2632 2365 
Q 2881 2656 2881 3163 
Q 2881 3666 2632 3958 
Q 2384 4250 1959 4250 
Q 1534 4250 1286 3958 
Q 1038 3666 1038 3163 
Q 1038 2656 1286 2365 
Q 1534 2075 1959 2075 
z
" transform="scale(0.015625)"/>
       </defs>
       <use xlink:href="#DejaVuSans-32"/>
       <use xlink:href="#DejaVuSans-30" transform="translate(63.623047 0)"/>
       <use xlink:href="#DejaVuSans-31" transform="translate(127.246094 0)"/>
       <use xlink:href="#DejaVuSans-39" transform="translate(190.869141 0)"/>
      </g>
     </g>
    </g>
    <g id="xtick_5">
     <g id="line2d_5">
      <g>
       <use xlink:href="#mbfbef8487e" x="442.502179" y="177.32" style="stroke: #000000"/>
      </g>
     </g>
     <g id="text_5">
      <!-- 2020 -->
      <g transform="translate(427.232179 193.438125) scale(0.12 -0.12)">
       <use xlink:href="#DejaVuSans-32"/>
       <use xlink:href="#DejaVuSans-30" transform="translate(63.623047 0)"/>
       <use xlink:href="#DejaVuSans-32" transform="translate(127.246094 0)"/>
       <use xlink:href="#DejaVuSans-30" transform="translate(190.869141 0)"/>
      </g>
     </g>
    </g>
    <g id="xtick_6">
     <g id="line2d_6">
      <g>
       <use xlink:href="#mbfbef8487e" x="535.751598" y="177.32" style="stroke: #000000"/>
      </g>
     </g>
     <g id="text_6">
      <!-- 2021 -->
      <g transform="translate(520.481598 193.438125) scale(0.12 -0.12)">
       <use xlink:href="#DejaVuSans-32"/>
       <use xlink:href="#DejaVuSans-30" transform="translate(63.623047 0)"/>
       <use xlink:href="#DejaVuSans-32" transform="translate(127.246094 0)"/>
       <use xlink:href="#DejaVuSans-31" transform="translate(190.869141 0)"/>
      </g>
     </g>
    </g>
   </g>
   <g id="matplotlib.axis_2">
    <g id="ytick_1">
     <g id="line2d_7">
      <defs>
       <path id="m12e24fa9d4" d="M 0 0 
L -3.5 0 
" style="stroke: #000000"/>
      </defs>
      <g>
       <use xlink:href="#m12e24fa9d4" x="47.81" y="138.976866" style="stroke: #000000"/>
      </g>
     </g>
     <g id="text_7">
      <!-- 30 -->
      <g transform="translate(25.54 143.535928) scale(0.12 -0.12)">
       <defs>
        <path id="DejaVuSans-33" d="M 2597 2516 
Q 3050 2419 3304 2112 
Q 3559 1806 3559 1356 
Q 3559 666 3084 287 
Q 2609 -91 1734 -91 
Q 1441 -91 1130 -33 
Q 819 25 488 141 
L 488 750 
Q 750 597 1062 519 
Q 1375 441 1716 441 
Q 2309 441 2620 675 
Q 2931 909 2931 1356 
Q 2931 1769 2642 2001 
Q 2353 2234 1838 2234 
L 1294 2234 
L 1294 2753 
L 1863 2753 
Q 2328 2753 2575 2939 
Q 2822 3125 2822 3475 
Q 2822 3834 2567 4026 
Q 2313 4219 1838 4219 
Q 1578 4219 1281 4162 
Q 984 4106 628 3988 
L 628 4550 
Q 988 4650 1302 4700 
Q 1616 4750 1894 4750 
Q 2613 4750 3031 4423 
Q 3450 4097 3450 3541 
Q 3450 3153 3228 2886 
Q 3006 2619 2597 2516 
z
" transform="scale(0.015625)"/>
       </defs>
       <use xlink:href="#DejaVuSans-33"/>
       <use xlink:href="#DejaVuSans-30" transform="translate(63.623047 0)"/>
      </g>
     </g>
    </g>
    <g id="ytick_2">
     <g id="line2d_8">
      <g>
       <use xlink:href="#m12e24fa9d4" x="47.81" y="98.168614" style="stroke: #000000"/>
      </g>
     </g>
     <g id="text_8">
      <!-- 40 -->
      <g transform="translate(25.54 102.727677) scale(0.12 -0.12)">
       <defs>
        <path id="DejaVuSans-34" d="M 2419 4116 
L 825 1625 
L 2419 1625 
L 2419 4116 
z
M 2253 4666 
L 3047 4666 
L 3047 1625 
L 3713 1625 
L 3713 1100 
L 3047 1100 
L 3047 0 
L 2419 0 
L 2419 1100 
L 313 1100 
L 313 1709 
L 2253 4666 
z
" transform="scale(0.015625)"/>
       </defs>
       <use xlink:href="#DejaVuSans-34"/>
       <use xlink:href="#DejaVuSans-30" transform="translate(63.623047 0)"/>
      </g>
     </g>
    </g>
    <g id="ytick_3">
     <g id="line2d_9">
      <g>
       <use xlink:href="#m12e24fa9d4" x="47.81" y="57.360363" style="stroke: #000000"/>
      </g>
     </g>
     <g id="text_9">
      <!-- 50 -->
      <g transform="translate(25.54 61.919426) scale(0.12 -0.12)">
       <defs>
        <path id="DejaVuSans-35" d="M 691 4666 
L 3169 4666 
L 3169 4134 
L 1269 4134 
L 1269 2991 
Q 1406 3038 1543 3061 
Q 1681 3084 1819 3084 
Q 2600 3084 3056 2656 
Q 3513 2228 3513 1497 
Q 3513 744 3044 326 
Q 2575 -91 1722 -91 
Q 1428 -91 1123 -41 
Q 819 9 494 109 
L 494 744 
Q 775 591 1075 516 
Q 1375 441 1709 441 
Q 2250 441 2565 725 
Q 2881 1009 2881 1497 
Q 2881 1984 2565 2268 
Q 2250 2553 1709 2553 
Q 1456 2553 1204 2497 
Q 953 2441 691 2322 
L 691 4666 
z
" transform="scale(0.015625)"/>
       </defs>
       <use xlink:href="#DejaVuSans-35"/>
       <use xlink:href="#DejaVuSans-30" transform="translate(63.623047 0)"/>
      </g>
     </g>
    </g>
    <g id="ytick_4">
     <g id="line2d_10">
      <g>
       <use xlink:href="#m12e24fa9d4" x="47.81" y="16.552112" style="stroke: #000000"/>
      </g>
     </g>
     <g id="text_10">
      <!-- 60 -->
      <g transform="translate(25.54 21.111174) scale(0.12 -0.12)">
       <use xlink:href="#DejaVuSans-36"/>
       <use xlink:href="#DejaVuSans-30" transform="translate(63.623047 0)"/>
      </g>
     </g>
    </g>
    <g id="text_11">
     <!-- Price (USD) -->
     <g transform="translate(19.044375 126.30625) rotate(-90) scale(0.12 -0.12)">
      <defs>
       <path id="DejaVuSans-50" d="M 1259 4147 
L 1259 2394 
L 2053 2394 
Q 2494 2394 2734 2622 
Q 2975 2850 2975 3272 
Q 2975 3691 2734 3919 
Q 2494 4147 2053 4147 
L 1259 4147 
z
M 628 4666 
L 2053 4666 
Q 2838 4666 3239 4311 
Q 3641 3956 3641 3272 
Q 3641 2581 3239 2228 
Q 2838 1875 2053 1875 
L 1259 1875 
L 1259 0 
L 628 0 
L 628 4666 
z
" transform="scale(0.015625)"/>
       <path id="DejaVuSans-72" d="M 2631 2963 
Q 2534 3019 2420 3045 
Q 2306 3072 2169 3072 
Q 1681 3072 1420 2755 
Q 1159 2438 1159 1844 
L 1159 0 
L 581 0 
L 581 3500 
L 1159 3500 
L 1159 2956 
Q 1341 3275 1631 3429 
Q 1922 3584 2338 3584 
Q 2397 3584 2469 3576 
Q 2541 3569 2628 3553 
L 2631 2963 
z
" transform="scale(0.015625)"/>
       <path id="DejaVuSans-69" d="M 603 3500 
L 1178 3500 
L 1178 0 
L 603 0 
L 603 3500 
z
M 603 4863 
L 1178 4863 
L 1178 4134 
L 603 4134 
L 603 4863 
z
" transform="scale(0.015625)"/>
       <path id="DejaVuSans-63" d="M 3122 3366 
L 3122 2828 
Q 2878 2963 2633 3030 
Q 2388 3097 2138 3097 
Q 1578 3097 1268 2742 
Q 959 2388 959 1747 
Q 959 1106 1268 751 
Q 1578 397 2138 397 
Q 2388 397 2633 464 
Q 2878 531 3122 666 
L 3122 134 
Q 2881 22 2623 -34 
Q 2366 -91 2075 -91 
Q 1284 -91 818 406 
Q 353 903 353 1747 
Q 353 2603 823 3093 
Q 1294 3584 2113 3584 
Q 2378 3584 2631 3529 
Q 2884 3475 3122 3366 
z
" transform="scale(0.015625)"/>
       <path id="DejaVuSans-65" d="M 3597 1894 
L 3597 1613 
L 953 1613 
Q 991 1019 1311 708 
Q 1631 397 2203 397 
Q 2534 397 2845 478 
Q 3156 559 3463 722 
L 3463 178 
Q 3153 47 2828 -22 
Q 2503 -91 2169 -91 
Q 1331 -91 842 396 
Q 353 884 353 1716 
Q 353 2575 817 3079 
Q 1281 3584 2069 3584 
Q 2775 3584 3186 3129 
Q 3597 2675 3597 1894 
z
M 3022 2063 
Q 3016 2534 2758 2815 
Q 2500 3097 2075 3097 
Q 1594 3097 1305 2825 
Q 1016 2553 972 2059 
L 3022 2063 
z
" transform="scale(0.015625)"/>
       <path id="DejaVuSans-20" transform="scale(0.015625)"/>
       <path id="DejaVuSans-28" d="M 1984 4856 
Q 1566 4138 1362 3434 
Q 1159 2731 1159 2009 
Q 1159 1288 1364 580 
Q 1569 -128 1984 -844 
L 1484 -844 
Q 1016 -109 783 600 
Q 550 1309 550 2009 
Q 550 2706 781 3412 
Q 1013 4119 1484 4856 
L 1984 4856 
z
" transform="scale(0.015625)"/>
       <path id="DejaVuSans-55" d="M 556 4666 
L 1191 4666 
L 1191 1831 
Q 1191 1081 1462 751 
Q 1734 422 2344 422 
Q 2950 422 3222 751 
Q 3494 1081 3494 1831 
L 3494 4666 
L 4128 4666 
L 4128 1753 
Q 4128 841 3676 375 
Q 3225 -91 2344 -91 
Q 1459 -91 1007 375 
Q 556 841 556 1753 
L 556 4666 
z
" transform="scale(0.015625)"/>
       <path id="DejaVuSans-53" d="M 3425 4513 
L 3425 3897 
Q 3066 4069 2747 4153 
Q 2428 4238 2131 4238 
Q 1616 4238 1336 4038 
Q 1056 3838 1056 3469 
Q 1056 3159 1242 3001 
Q 1428 2844 1947 2747 
L 2328 2669 
Q 3034 2534 3370 2195 
Q 3706 1856 3706 1288 
Q 3706 609 3251 259 
Q 2797 -91 1919 -91 
Q 1588 -91 1214 -16 
Q 841 59 441 206 
L 441 856 
Q 825 641 1194 531 
Q 1563 422 1919 422 
Q 2459 422 2753 634 
Q 3047 847 3047 1241 
Q 3047 1584 2836 1778 
Q 2625 1972 2144 2069 
L 1759 2144 
Q 1053 2284 737 2584 
Q 422 2884 422 3419 
Q 422 4038 858 4394 
Q 1294 4750 2059 4750 
Q 2388 4750 2728 4690 
Q 3069 4631 3425 4513 
z
" transform="scale(0.015625)"/>
       <path id="DejaVuSans-44" d="M 1259 4147 
L 1259 519 
L 2022 519 
Q 2988 519 3436 956 
Q 3884 1394 3884 2338 
Q 3884 3275 3436 3711 
Q 2988 4147 2022 4147 
L 1259 4147 
z
M 628 4666 
L 1925 4666 
Q 3281 4666 3915 4102 
Q 4550 3538 4550 2338 
Q 4550 1131 3912 565 
Q 3275 0 1925 0 
L 628 0 
L 628 4666 
z
" transform="scale(0.015625)"/>
       <path id="DejaVuSans-29" d="M 513 4856 
L 1013 4856 
Q 1481 4119 1714 3412 
Q 1947 2706 1947 2009 
Q 1947 1309 1714 600 
Q 1481 -109 1013 -844 
L 513 -844 
Q 928 -128 1133 580 
Q 1338 1288 1338 2009 
Q 1338 2731 1133 3434 
Q 928 4138 513 4856 
z
" transform="scale(0.015625)"/>
      </defs>
      <use xlink:href="#DejaVuSans-50"/>
      <use xlink:href="#DejaVuSans-72" transform="translate(58.552734 0)"/>
      <use xlink:href="#DejaVuSans-69" transform="translate(99.666016 0)"/>
      <use xlink:href="#DejaVuSans-63" transform="translate(127.449219 0)"/>
      <use xlink:href="#DejaVuSans-65" transform="translate(182.429688 0)"/>
      <use xlink:href="#DejaVuSans-20" transform="translate(243.953125 0)"/>
      <use xlink:href="#DejaVuSans-28" transform="translate(275.740234 0)"/>
      <use xlink:href="#DejaVuSans-55" transform="translate(314.753906 0)"/>
      <use xlink:href="#DejaVuSans-53" transform="translate(387.947266 0)"/>
      <use xlink:href="#DejaVuSans-44" transform="translate(451.423828 0)"/>
      <use xlink:href="#DejaVuSans-29" transform="translate(528.425781 0)"/>
     </g>
    </g>
   </g>
   <g id="line2d_11">
    <path d="M 71.033182 151.779298 
L 71.287962 152.295316 
L 71.542741 154.714173 
L 71.797521 158.713349 
L 72.052301 159.777633 
L 72.816641 158.003831 
L 73.07142 156.004243 
L 73.3262 158.487579 
L 73.58098 155.810752 
L 73.83576 165.421622 
L 74.854879 165.292633 
L 75.109659 165.969904 
L 75.364439 165.744126 
L 75.619219 164.873372 
L 76.383558 165.937649 
L 76.638338 164.841117 
L 76.893118 165.26037 
L 77.147898 164.744352 
L 77.402678 161.357944 
L 78.167017 162.002976 
L 78.421797 165.292633 
L 78.676577 165.943315 
L 78.931357 164.544307 
L 79.186136 166.919389 
L 79.950476 167.635149 
L 80.205256 167.667692 
L 80.460036 169.554761 
L 80.714815 169.587273 
L 80.969595 168.220776 
L 81.988715 167.765313 
L 82.243494 165.520365 
L 82.498274 165.683049 
L 82.753054 167.993037 
L 83.517394 165.91078 
L 83.772173 167.70022 
L 84.536513 164.446724 
L 85.300852 165.129941 
L 85.555632 162.592191 
L 85.810412 162.039122 
L 86.319972 161.746258 
L 87.084311 160.737696 
L 87.339091 161.974052 
L 87.848651 159.729103 
L 88.103431 158.069812 
L 88.86777 159.143468 
L 89.12255 158.4277 
L 89.37733 158.297544 
L 89.63211 157.354029 
L 89.886889 155.076576 
L 90.651229 156.182775 
L 90.906009 156.247845 
L 91.160789 157.288966 
L 91.415568 157.679397 
L 92.434688 157.614334 
L 92.944247 154.978962 
L 93.199027 156.150224 
L 93.453807 155.824879 
L 94.472926 157.614334 
L 94.727706 157.028692 
L 94.982486 158.753053 
L 95.237266 158.492763 
L 96.001605 158.36263 
L 96.511165 156.866015 
L 97.020725 159.045862 
L 97.785064 158.4277 
L 98.039844 158.590369 
L 98.294624 157.288966 
L 98.549404 157.386587 
L 98.804184 158.46022 
L 99.568523 159.273601 
L 99.823303 159.241082 
L 100.078083 158.102332 
L 100.587642 162.885008 
L 101.351982 161.811368 
L 101.861542 163.44516 
L 102.116321 163.281059 
L 102.371101 162.821634 
L 103.135441 163.609229 
L 103.390221 162.493495 
L 103.645 162.755996 
L 103.89978 163.740499 
L 104.9189 161.673062 
L 105.173679 163.018535 
L 105.428459 162.98572 
L 105.683239 164.1671 
L 105.938019 162.460649 
L 106.702358 162.198125 
L 106.957138 159.474371 
L 107.211918 158.391437 
L 107.721478 157.800758 
L 108.740597 157.735119 
L 109.250157 157.177241 
L 109.504937 157.636696 
L 110.269276 157.43978 
L 110.524056 156.783447 
L 110.778836 156.750624 
L 111.033616 156.586547 
L 111.288396 156.258384 
L 112.052735 155.831791 
L 112.307515 155.930229 
L 112.562295 157.669465 
L 113.071854 157.177241 
L 114.090974 155.339535 
L 114.345754 155.437997 
L 114.600533 153.140829 
L 114.855313 157.866389 
L 115.619653 160.590151 
L 115.874433 159.047762 
L 116.383992 153.764346 
L 116.638772 153.928423 
L 117.657891 154.158155 
L 118.167451 152.451688 
L 118.422231 149.826396 
L 119.18657 148.5794 
L 119.44135 146.741671 
L 119.69613 146.51201 
L 119.95091 145.888469 
L 120.20569 146.315062 
L 120.970029 146.380701 
L 121.224809 146.052515 
L 121.479589 144.28048 
L 121.734369 148.940378 
L 121.989149 147.66052 
L 122.753488 147.562105 
L 123.008268 146.249431 
L 123.263048 147.102657 
L 123.517828 147.299573 
L 123.772607 147.004226 
L 124.536947 147.037034 
L 124.791727 147.988683 
L 125.046507 148.154021 
L 125.556066 145.740286 
L 126.320406 145.541875 
L 126.575186 145.938681 
L 126.829965 147.228206 
L 127.084745 146.732199 
L 127.339525 147.09594 
L 128.103865 145.971753 
L 128.358644 144.979785 
L 128.613424 145.608027 
L 128.868204 145.773358 
L 129.122984 144.880584 
L 130.142103 144.351512 
L 130.396883 145.178165 
L 130.651663 145.376583 
L 130.906443 144.814494 
L 131.925562 143.359584 
L 132.435122 142.301542 
L 132.689902 142.103108 
L 133.709021 140.482953 
L 133.963801 140.846694 
L 134.218581 140.912784 
L 134.47336 144.219285 
L 135.2377 142.103108 
L 135.49248 143.657165 
L 135.74726 143.624147 
L 136.256819 136.845813 
L 137.021159 138.532121 
L 137.275939 138.598234 
L 137.530718 137.573218 
L 137.785498 137.242588 
L 138.040278 138.432912 
L 138.804618 140.218397 
L 139.059397 138.465984 
L 139.314177 137.606329 
L 139.568957 138.003096 
L 139.823737 136.581235 
L 140.588076 136.878878 
L 140.842856 137.27566 
L 141.097636 135.787725 
L 141.352416 135.523239 
L 141.607196 135.424015 
L 142.371535 135.688554 
L 142.626315 138.168372 
L 143.135875 139.160347 
L 143.390655 137.573218 
L 144.154994 138.102274 
L 144.409774 136.581235 
L 144.664554 143.987826 
L 144.919334 144.252358 
L 145.174113 145.178165 
L 145.938453 144.814494 
L 146.702792 146.302406 
L 146.957572 146.53385 
L 147.721912 146.10398 
L 147.976692 147.261286 
L 148.231471 146.996762 
L 148.741031 149.428734 
L 149.505371 145.830723 
L 149.76015 145.664131 
L 150.01493 145.63081 
L 150.26971 146.463713 
L 150.52449 146.097224 
L 151.288829 146.530309 
L 151.543609 145.097761 
L 151.798389 145.331003 
L 152.053169 144.731319 
L 152.307949 144.964491 
L 153.072288 144.864558 
L 153.327068 143.198814 
L 153.581848 144.131627 
L 154.091408 143.332061 
L 154.855747 143.098842 
L 155.110527 143.765154 
L 155.365307 145.797394 
L 155.620087 148.929061 
L 155.874866 147.596446 
L 156.639206 146.830162 
L 156.893986 145.730766 
L 157.148766 143.132164 
L 157.403545 142.465884 
L 158.422665 141.566369 
L 158.677445 138.801183 
L 158.932224 139.634109 
L 159.187004 138.834497 
L 159.441784 140.433613 
L 160.206124 138.501337 
L 160.460903 137.43527 
L 160.715683 138.201514 
L 160.970463 138.36809 
L 161.225243 138.234844 
L 162.244362 137.901676 
L 162.499142 139.367514 
L 162.753922 139.267644 
L 163.008702 140.566906 
L 164.027821 139.467479 
L 164.282601 140.100461 
L 164.537381 140.300389 
L 164.792161 139.867258 
L 165.5565 139.434173 
L 165.81128 139.667376 
L 166.06606 138.301432 
L 166.32084 139.101021 
L 166.575619 138.834497 
L 167.594739 138.801183 
L 167.849519 138.934445 
L 168.104298 139.567443 
L 168.359078 138.334753 
L 169.123418 138.901147 
L 169.378198 136.069349 
L 169.632977 135.469626 
L 169.887757 136.2692 
L 170.142537 134.869942 
L 170.906877 136.735661 
L 171.161656 138.734548 
L 171.416436 139.734011 
L 171.925996 138.865444 
L 172.690335 139.704231 
L 172.945115 139.435831 
L 173.199895 139.335166 
L 173.454675 142.422086 
L 173.709455 142.824706 
L 174.983354 140.442416 
L 175.238134 139.234501 
L 175.492914 138.999632 
L 176.512033 138.865444 
L 176.766813 140.375306 
L 177.021593 140.006225 
L 177.276372 138.83192 
L 178.040712 138.899022 
L 178.550272 140.845059 
L 179.059831 140.945732 
L 179.824171 142.052981 
L 180.078951 141.281234 
L 180.33373 141.885246 
L 180.58851 141.21414 
L 180.84329 140.912185 
L 181.60763 143.428663 
L 181.862409 143.361537 
L 182.117189 143.629969 
L 182.371969 143.495773 
L 182.626749 143.059574 
L 183.391088 142.522742 
L 183.645868 143.831291 
L 183.900648 142.724056 
L 184.410208 143.428663 
L 185.174547 142.656954 
L 185.429327 141.952301 
L 185.684107 142.052981 
L 185.938887 141.449009 
L 186.193667 140.375306 
L 186.958006 140.073335 
L 187.212786 139.6707 
L 187.467566 139.872021 
L 187.722346 140.509502 
L 187.977125 140.509502 
L 189.251025 141.851636 
L 189.505804 143.126692 
L 190.524924 142.35496 
L 190.779704 141.381899 
L 191.034483 140.912185 
L 191.289263 140.006225 
L 192.563162 137.691084 
L 192.817942 137.489739 
L 193.072722 135.812079 
L 193.327502 140.106898 
L 194.091841 139.570019 
L 194.346621 137.355551 
L 194.601401 136.398897 
L 194.856181 136.838349 
L 195.110961 136.939777 
L 195.8753 137.886234 
L 196.13008 138.460909 
L 196.63964 140.759463 
L 196.89442 141.300327 
L 197.658759 140.962287 
L 197.913539 140.320043 
L 198.168319 142.95666 
L 198.677878 141.739748 
L 199.696998 140.18485 
L 199.951778 139.305993 
L 200.206557 138.832714 
L 200.461337 138.832714 
L 201.480457 139.103146 
L 201.735236 139.339766 
L 201.990016 139.305993 
L 202.244796 138.629929 
L 203.009136 138.56229 
L 203.263915 139.272174 
L 203.518695 138.832714 
L 203.773475 138.089073 
L 204.028255 140.691863 
L 204.792594 140.624263 
L 205.047374 140.11725 
L 205.556934 142.043968 
L 205.811714 142.382024 
L 206.576053 141.367927 
L 206.830833 143.565124 
L 207.340393 145.255222 
L 207.595173 145.829867 
L 208.359512 146.235538 
L 208.614292 147.655243 
L 208.869072 145.796109 
L 209.123852 148.027071 
L 209.378631 147.350999 
L 210.142971 148.297503 
L 210.652531 145.322846 
L 210.90731 147.722851 
L 211.16209 146.877821 
L 211.92643 147.655243 
L 212.435989 145.627097 
L 212.690769 145.660909 
L 212.945549 144.173541 
L 213.709889 144.883409 
L 214.219448 144.579197 
L 214.474228 143.936937 
L 214.729008 144.004568 
L 215.493347 144.782005 
L 215.748127 144.207369 
L 216.002907 143.936937 
L 216.257687 143.193288 
L 216.512467 142.043968 
L 217.276806 141.503143 
L 217.531586 138.528486 
L 217.786366 137.548194 
L 218.041146 137.129314 
L 218.295926 137.7764 
L 219.060265 137.33364 
L 219.315045 137.401777 
L 219.569825 136.788752 
L 220.079384 139.240829 
L 220.843724 137.640141 
L 221.862843 142.16968 
L 222.627183 142.476205 
L 222.881963 143.395715 
L 223.136742 143.361654 
L 223.391522 143.191389 
L 223.646302 143.327601 
L 224.410642 143.395715 
L 224.665421 143.123298 
L 225.174981 141.965331 
L 225.429761 141.897217 
L 226.44888 142.135635 
L 226.70366 139.615421 
L 226.95844 140.36472 
L 227.21322 141.556663 
L 227.977559 139.581414 
L 228.487119 137.674225 
L 228.741899 137.163406 
L 228.996679 135.392421 
L 229.761018 135.392421 
L 230.015798 134.609115 
L 230.270578 135.154011 
L 230.525358 134.711321 
L 230.780137 134.779412 
L 231.544477 134.847518 
L 231.799257 133.791811 
L 232.054037 133.553361 
L 233.582716 127.287007 
L 233.837495 127.423173 
L 234.092275 126.776126 
L 234.347055 126.435579 
L 235.111395 125.652242 
L 235.366174 126.367442 
L 235.620954 127.559416 
L 235.875734 127.934054 
L 236.130514 126.299367 
L 237.149633 125.890637 
L 237.404413 124.324056 
L 237.659193 124.868968 
L 237.913973 123.711039 
L 238.933092 121.940124 
L 239.187872 122.51905 
L 239.442652 120.577862 
L 239.697432 110.190644 
L 240.461771 110.29278 
L 240.971331 102.32357 
L 241.226111 100.995353 
L 241.48089 103.583603 
L 242.24523 101.415058 
L 242.50001 101.141014 
L 242.75479 101.415058 
L 243.009569 102.785415 
L 243.264349 105.251962 
L 244.028689 104.669612 
L 244.283469 104.292763 
L 244.538248 105.66312 
L 244.793028 105.012182 
L 245.047808 108.506516 
L 245.812148 108.540795 
L 246.066927 107.444543 
L 246.321707 108.438036 
L 246.831267 108.095451 
L 247.595606 108.986154 
L 247.850386 108.163946 
L 248.105166 110.836119 
L 248.359946 107.787128 
L 248.614726 108.335277 
L 249.379065 108.986154 
L 249.633845 112.583309 
L 249.888625 112.549077 
L 250.143405 113.816567 
L 250.398185 112.891631 
L 251.162524 111.829612 
L 251.417304 112.960127 
L 251.672084 112.925894 
L 251.926864 113.199969 
L 252.181643 108.746343 
L 253.455543 98.468842 
L 253.710322 101.20951 
L 253.965102 101.415058 
L 254.984222 103.539081 
L 255.239001 103.436307 
L 255.493781 103.05949 
L 255.748561 103.265022 
L 256.76768 100.901219 
L 257.02246 106.348291 
L 257.27724 109.191749 
L 257.53202 108.129698 
L 258.296359 108.129698 
L 258.805919 115.803569 
L 259.060699 112.686052 
L 259.315479 113.268495 
L 260.334598 113.611081 
L 260.589378 109.328755 
L 260.844158 109.020464 
L 262.118057 103.607623 
L 262.372837 105.491851 
L 262.627617 106.211192 
L 262.882396 89.835757 
L 263.646736 90.178358 
L 263.901516 94.255058 
L 264.411075 98.160519 
L 264.665855 103.299285 
L 265.430195 108.88338 
L 265.684975 106.503542 
L 265.939754 105.503293 
L 266.194534 113.953573 
L 266.449314 109.814682 
L 267.213654 106.779438 
L 267.468433 108.055614 
L 267.977993 103.019949 
L 268.232773 104.261644 
L 269.251892 101.640361 
L 269.506672 102.951002 
L 269.761452 103.433848 
L 270.016232 96.777117 
L 270.780571 92.017394 
L 271.035351 89.258093 
L 271.290131 91.396531 
L 271.544911 96.397746 
L 271.799691 92.465774 
L 272.56403 89.810009 
L 273.07359 84.394942 
L 273.32837 86.39541 
L 273.583149 81.394226 
L 274.347489 83.705086 
L 274.602269 82.808404 
L 274.857049 82.532462 
L 275.111828 85.912533 
L 275.366608 84.912315 
L 276.130948 86.08497 
L 276.385728 83.601673 
L 276.640507 83.56713 
L 276.895287 86.08497 
L 277.150067 91.155085 
L 277.914407 80.394007 
L 278.423966 90.327366 
L 278.678746 81.773643 
L 279.697865 92.672723 
L 279.952645 89.810009 
L 280.207425 88.982197 
L 280.462205 87.637074 
L 280.716985 93.121103 
L 281.481324 90.499803 
L 281.736104 84.56741 
L 281.990884 85.153745 
L 282.245664 79.566242 
L 282.500444 82.532462 
L 283.264783 80.669935 
L 283.519563 76.737993 
L 283.774343 76.496516 
L 284.029123 81.290767 
L 284.283902 83.670636 
L 285.048242 85.153745 
L 285.303022 83.946531 
L 285.557802 84.188009 
L 285.812581 78.428084 
L 286.067361 79.531761 
L 286.831701 83.360212 
L 287.086481 77.462315 
L 287.34126 80.980374 
L 287.59604 81.083786 
L 287.85082 78.308637 
L 288.61516 76.400701 
L 288.869939 75.359992 
L 289.379499 70.67686 
L 289.634279 71.752252 
L 290.398618 70.954391 
L 290.653398 74.354015 
L 290.908178 71.856349 
L 291.162958 71.266589 
L 291.417738 75.810972 
L 292.182077 72.966393 
L 292.436857 72.515445 
L 292.691637 69.879015 
L 292.946417 71.474721 
L 293.201197 69.0812 
L 294.220316 69.497418 
L 294.475096 68.248593 
L 294.729876 69.913682 
L 294.984655 63.392028 
L 295.748995 64.259225 
L 296.003775 65.299964 
L 296.258555 63.565461 
L 296.768114 70.434013 
L 297.532454 72.272629 
L 298.296793 68.734225 
L 298.551573 70.225881 
L 299.315913 76.782266 
L 299.570692 77.788291 
L 299.825472 75.949721 
L 300.080252 80.355339 
L 300.335032 79.279963 
L 301.099371 85.48945 
L 301.608931 92.253952 
L 302.118491 88.95841 
L 302.88283 87.258653 
L 303.13761 89.790986 
L 303.90195 83.199933 
L 304.666289 81.500129 
L 304.921069 80.459436 
L 305.175849 83.789615 
L 305.430629 79.80034 
L 305.685408 80.251257 
L 306.449748 80.979751 
L 306.704528 81.88171 
L 306.959308 81.985776 
L 307.214087 81.083833 
L 307.468867 81.326695 
L 308.233207 79.93909 
L 308.487987 80.390038 
L 308.742766 79.522794 
L 308.997546 80.459436 
L 309.252326 96.000474 
L 310.016666 95.965774 
L 310.271445 94.543485 
L 310.781005 89.756256 
L 311.035785 89.235956 
L 311.800124 89.340629 
L 312.309684 87.03721 
L 312.564464 86.408984 
L 312.819244 90.911164 
L 313.583583 92.307192 
L 313.838363 93.45894 
L 314.093143 95.762406 
L 314.347923 96.774533 
L 314.602703 97.018827 
L 315.367042 99.112853 
L 315.621822 95.203982 
L 315.876602 97.193319 
L 316.131382 97.437645 
L 316.386161 95.064361 
L 317.660061 91.260163 
L 317.91484 93.040091 
L 318.16962 92.376995 
L 319.18874 94.017332 
L 319.443519 94.854952 
L 319.698299 96.460451 
L 319.953079 99.287376 
L 320.717419 99.810898 
L 320.972198 104.592321 
L 321.226978 104.592321 
L 321.481758 102.358658 
L 322.500877 102.882134 
L 322.755657 100.508912 
L 323.010437 100.334373 
L 323.265217 96.669797 
L 323.519997 98.554461 
L 324.284336 97.68194 
L 324.539116 101.17204 
L 324.793896 101.904924 
L 325.048676 101.276728 
L 325.303456 96.355762 
L 326.067795 99.287376 
L 326.322575 93.528743 
L 326.577355 91.225277 
L 326.832135 93.424007 
L 327.086914 97.263122 
L 327.851254 97.263122 
L 328.106034 98.938377 
L 328.360814 105.045993 
L 328.615593 107.035346 
L 328.870373 104.766813 
L 329.634713 105.988348 
L 329.889493 101.067335 
L 330.144272 101.241811 
L 330.653832 107.838048 
L 331.418172 104.313078 
L 331.672951 106.093053 
L 331.927731 113.352387 
L 332.437291 101.939825 
L 333.20163 102.951968 
L 333.45641 94.715362 
L 333.71119 97.78666 
L 333.96597 93.109925 
L 334.22075 96.983926 
L 334.985089 93.982462 
L 335.239869 95.457477 
L 335.494649 90.294816 
L 335.749429 89.346545 
L 336.004209 92.437146 
L 336.768548 97.564704 
L 337.023328 94.965821 
L 337.278108 96.019481 
L 337.787667 89.908455 
L 338.552007 92.823444 
L 339.061567 96.230166 
L 339.571126 97.951064 
L 340.335466 94.75512 
L 340.845025 89.803113 
L 341.099805 93.877088 
L 341.354585 88.222693 
L 342.118925 85.342839 
L 342.373704 93.701476 
L 342.883264 91.524026 
L 343.138044 99.004708 
L 343.902383 95.598001 
L 344.157163 95.000909 
L 344.666723 91.805012 
L 344.921503 93.315178 
L 345.685842 96.054538 
L 345.940622 93.73658 
L 346.195402 101.357755 
L 346.450182 101.463098 
L 346.704962 103.92155 
L 347.469301 108.3116 
L 347.978861 99.180305 
L 348.233641 98.583229 
L 348.48842 97.213541 
L 349.76232 96.054538 
L 350.017099 105.150729 
L 350.271879 95.562835 
L 351.036219 94.790208 
L 351.545778 92.788356 
L 352.055338 89.557292 
L 352.819678 91.59428 
L 353.074457 90.716264 
L 353.329237 92.36686 
L 353.584017 91.172801 
L 353.838797 88.644172 
L 355.112696 93.034176 
L 355.367476 86.642273 
L 355.622256 96.195031 
L 356.386595 97.353987 
L 356.641375 97.951064 
L 356.896155 94.438999 
L 357.150935 95.914045 
L 357.405715 90.259712 
L 358.170054 88.538783 
L 358.424834 85.764303 
L 358.679614 85.039685 
L 359.189173 88.786098 
L 359.953513 89.03349 
L 360.208293 84.651021 
L 360.717852 81.823504 
L 360.972632 78.819316 
L 361.991752 79.73829 
L 362.501311 79.702937 
L 362.756091 75.885865 
L 363.77521 73.270481 
L 364.02999 73.235144 
L 364.28477 74.224776 
L 364.53955 73.02312 
L 365.303889 70.761109 
L 365.558669 71.680067 
L 365.813449 74.260067 
L 366.068229 75.497139 
L 366.323009 75.921202 
L 367.342128 72.068809 
L 367.596908 69.24137 
L 367.851688 72.528288 
L 368.106468 69.382751 
L 368.870807 70.19565 
L 369.125587 69.94821 
L 369.380367 71.185235 
L 369.635147 68.287106 
L 369.889926 73.164469 
L 370.654266 74.860958 
L 370.909046 72.528288 
L 371.163826 73.517905 
L 371.418605 73.694623 
L 371.673385 71.609377 
L 372.437725 68.746569 
L 372.692505 69.276707 
L 372.947284 65.318302 
L 373.202064 63.763241 
L 373.456844 64.894223 
L 374.221184 64.611446 
L 374.475963 65.883809 
L 374.730743 64.364054 
L 374.985523 64.187305 
L 375.240303 61.996078 
L 376.004642 62.490894 
L 376.259422 60.971124 
L 376.514202 54.432625 
L 376.768982 54.680018 
L 377.788101 53.513698 
L 378.297661 53.86715 
L 378.552441 57.790249 
L 378.807221 76.097951 
L 379.57156 80.763213 
L 379.82634 81.010621 
L 380.3359 82.742431 
L 380.590679 78.50128 
L 381.355019 79.265781 
L 381.609799 81.897199 
L 381.864579 86.306552 
L 382.119358 95.623173 
L 383.138478 102.237219 
L 383.648037 99.179122 
L 383.902817 99.499167 
L 384.157597 101.774985 
L 384.921937 106.504367 
L 385.176716 103.304033 
L 385.431496 104.939779 
L 385.686276 103.055131 
L 385.941056 102.912879 
L 386.960175 106.468796 
L 387.469735 102.343947 
L 387.724515 104.797511 
L 388.488854 106.859982 
L 388.743634 102.130569 
L 388.998414 102.983974 
L 389.253194 101.028231 
L 389.507974 97.721184 
L 390.272313 94.983116 
L 390.527093 94.80534 
L 390.781873 96.689988 
L 391.036653 95.338684 
L 391.291432 97.152253 
L 392.055772 97.365585 
L 392.310552 92.9562 
L 392.565332 94.022983 
L 392.820111 93.596289 
L 393.074891 92.636203 
L 393.839231 92.031669 
L 394.094011 94.80534 
L 394.34879 90.040324 
L 394.60357 92.636203 
L 394.85835 91.178249 
L 395.877469 90.289258 
L 396.132249 88.866844 
L 396.641809 90.431495 
L 397.660928 91.604928 
L 398.170488 88.582402 
L 398.425268 83.888575 
L 399.189607 83.177345 
L 399.444387 86.555548 
L 399.699167 85.773145 
L 400.208727 82.643953 
L 401.227846 77.381164 
L 401.482626 73.220666 
L 401.992185 77.95008 
L 402.756525 74.678636 
L 403.266085 81.648265 
L 403.775644 88.297897 
L 404.539984 94.378583 
L 404.794764 93.286706 
L 405.049543 94.110128 
L 405.304323 92.534923 
L 405.559103 96.795066 
L 406.323443 98.15546 
L 406.578222 93.716296 
L 406.833002 97.188851 
L 407.087782 97.797432 
L 407.342562 94.933473 
L 408.106901 92.320097 
L 408.361681 94.575507 
L 408.616461 92.606501 
L 408.871241 93.931106 
L 409.126021 100.446612 
L 410.14514 97.47524 
L 410.39992 97.47524 
L 410.6547 93.608914 
L 410.90948 91.675712 
L 411.928599 93.215112 
L 412.438159 82.0456 
L 412.692938 79.110094 
L 413.712058 75.88806 
L 413.966838 72.415551 
L 414.221617 71.627917 
L 414.476397 73.310489 
L 415.240737 74.527728 
L 415.750296 76.17451 
L 416.005076 76.78306 
L 416.259856 79.826041 
L 417.024196 79.181641 
L 417.278975 83.048044 
L 417.533755 78.752066 
L 418.043315 79.611246 
L 418.807654 76.926293 
L 419.062434 79.682871 
L 419.317214 84.587352 
L 419.826774 79.110094 
L 420.591113 80.184069 
L 420.845893 83.370237 
L 421.610233 74.921514 
L 422.374572 76.532507 
L 422.629352 72.916719 
L 422.884132 73.632759 
L 423.393691 77.534889 
L 424.158031 74.778296 
L 424.412811 75.207917 
L 424.667591 76.246088 
L 424.92237 74.420299 
L 425.17715 59.277064 
L 425.94149 58.203104 
L 426.19627 59.706669 
L 426.451049 58.775927 
L 426.705829 59.026495 
L 426.960609 59.098057 
L 427.724949 55.160154 
L 427.979728 55.374933 
L 428.744068 51.649288 
L 429.508407 51.361343 
L 429.763187 51.901272 
L 430.017967 53.017139 
L 430.272747 53.30513 
L 430.527527 52.765138 
L 431.546646 51.361343 
L 431.801426 52.981116 
L 432.056206 51.829212 
L 432.310986 54.025047 
L 433.075325 49.705469 
L 433.330105 49.381471 
L 433.584885 50.785375 
L 434.094444 52.441171 
L 434.858784 53.845076 
L 435.113564 59.568542 
L 435.368344 59.748529 
L 435.623123 59.532551 
L 435.877903 56.90476 
L 436.642243 57.912684 
L 436.897023 57.696706 
L 437.406582 54.241025 
L 437.661362 53.377097 
L 438.425702 53.70108 
L 438.680481 55.140944 
L 438.935261 55.608907 
L 439.444821 49.201499 
L 440.20916 48.193622 
L 440.9735 46.069832 
L 441.22828 45.133859 
L 441.992619 46.789733 
L 442.247399 45.961812 
L 442.756959 42.398142 
L 443.011739 45.061893 
L 443.776078 45.673836 
L 444.030858 49.273513 
L 444.285638 49.129501 
L 444.540418 47.941653 
L 444.795197 49.237506 
L 445.559537 46.897738 
L 445.814317 47.473674 
L 446.069097 49.237506 
L 446.323876 46.645753 
L 446.578656 46.861731 
L 447.597776 43.442057 
L 447.852555 35.594784 
L 448.107335 33.470994 
L 448.362115 14.932727 
L 449.126455 24.939781 
L 449.381234 19.108356 
L 449.636014 22.635988 
L 449.890794 22.132019 
L 450.145574 31.275144 
L 450.909913 29.511375 
L 451.164693 25.767687 
L 451.419473 19.000398 
L 451.674253 18.710974 
L 451.929033 22.58155 
L 452.693372 21.243121 
L 452.948152 17.553311 
L 453.202932 17.37253 
L 453.457712 17.44487 
L 453.712492 18.059818 
L 454.731611 22.147477 
L 454.986391 18.638572 
L 455.49595 28.65878 
L 456.26029 37.991653 
L 456.51507 45.33494 
L 456.76985 45.624317 
L 457.024629 59.442776 
L 457.279409 60.564137 
L 458.043749 50.941871 
L 458.298529 58.9363 
L 458.553308 49.133175 
L 459.062868 59.659797 
L 459.827208 77.45735 
L 460.081987 66.134906 
L 460.336767 74.527261 
L 460.591547 96.665687 
L 460.846327 64.5071 
L 461.610666 100.029865 
L 461.865446 80.242742 
L 462.375006 95.218771 
L 462.629786 95.616635 
L 463.394125 82.051438 
L 463.648905 71.850403 
L 463.903685 75.974224 
L 464.158465 60.491828 
L 464.413245 71.958874 
L 465.177584 60.672655 
L 465.432364 65.628508 
L 465.687144 73.731439 
L 465.941924 64.796508 
L 466.196703 65.592314 
L 466.961043 50.037562 
L 467.215823 50.146018 
L 467.470603 48.047976 
L 467.725382 54.703975 
L 468.744502 49.060882 
L 468.999282 41.970747 
L 469.254061 48.445903 
L 469.508841 41.500527 
L 470.527961 47.324526 
L 470.78274 57.525499 
L 471.03752 43.996511 
L 471.2923 47.830924 
L 471.54708 47.035118 
L 472.311419 46.275458 
L 472.566199 48.879961 
L 472.820979 37.846941 
L 473.330539 53.510242 
L 474.094878 51.629159 
L 474.604438 46.115257 
L 474.859218 46.151653 
L 475.113998 44.332682 
L 475.878337 42.659296 
L 476.133117 48.989117 
L 476.387897 51.353699 
L 476.642677 46.479014 
L 476.897456 49.38927 
L 477.916576 42.077226 
L 478.171356 31.854957 
L 478.426135 35.929337 
L 478.680915 34.910734 
L 479.700035 34.619692 
L 479.954814 30.181539 
L 480.209594 36.947878 
L 480.464374 32.473423 
L 481.228714 36.36587 
L 481.483493 35.420059 
L 481.738273 36.111223 
L 482.247833 27.344075 
L 483.012172 29.781386 
L 483.266952 32.073239 
L 483.521732 29.053842 
L 483.776512 44.223588 
L 484.031292 45.569536 
L 485.050411 41.677089 
L 485.305191 41.349697 
L 485.814751 44.514631 
L 486.57909 42.804833 
L 486.83387 43.423236 
L 487.598209 52.226781 
L 488.362549 49.425666 
L 488.617329 43.750628 
L 488.872109 47.461252 
L 489.126888 46.297159 
L 490.146008 44.805611 
L 490.400788 49.280113 
L 490.655567 48.188796 
L 490.910347 48.879976 
L 491.165127 44.842023 
L 491.929467 48.297922 
L 492.184246 46.842802 
L 492.439026 46.660884 
L 492.693806 46.260778 
L 492.948586 43.132225 
L 493.712925 38.948734 
L 493.967705 40.58571 
L 494.222485 39.312475 
L 494.477265 41.677089 
L 494.732045 77.364149 
L 495.751164 82.275153 
L 496.005944 86.531419 
L 496.260724 86.822493 
L 496.515504 87.768335 
L 497.279843 85.69478 
L 497.534623 82.675352 
L 497.789403 83.439293 
L 498.044183 83.512552 
L 498.298962 85.490322 
L 499.063302 81.131889 
L 499.318082 84.904329 
L 499.572862 81.241808 
L 499.827642 83.549165 
L 500.082421 82.340535 
L 500.846761 82.194048 
L 501.356321 84.391549 
L 501.6111 81.31502 
L 501.86588 80.912143 
L 502.63022 81.424908 
L 502.885 80.36278 
L 503.139779 79.923258 
L 503.394559 80.472637 
L 503.649339 76.700259 
L 504.413679 74.795731 
L 504.668458 75.381755 
L 504.923238 70.034421 
L 505.178018 76.846761 
L 506.451917 82.267291 
L 506.706697 79.666883 
L 506.961477 82.08416 
L 507.216257 80.912143 
L 507.980596 80.436008 
L 508.490156 76.920004 
L 508.744936 77.10312 
L 508.999716 78.678045 
L 509.764055 79.300682 
L 510.018835 78.458284 
L 510.273615 82.596925 
L 510.528395 81.351665 
L 510.783174 78.494882 
L 511.547514 73.037722 
L 511.802294 73.916719 
L 512.311853 70.07105 
L 512.566633 74.575986 
L 513.330973 72.08545 
L 513.585753 73.257452 
L 513.840532 68.496203 
L 514.095312 65.932425 
L 514.350092 67.946778 
L 515.114432 64.064511 
L 515.369211 64.247627 
L 515.623991 65.273142 
L 516.133551 63.039012 
L 516.89789 61.500732 
L 517.15267 65.712633 
L 517.40745 65.456289 
L 517.66223 63.991237 
L 517.91701 84.867653 
L 518.681349 90.288215 
L 519.190909 99.334653 
L 519.445689 99.84745 
L 519.700469 99.224796 
L 520.464808 98.56556 
L 520.719588 97.137137 
L 520.974368 94.023995 
L 521.229148 92.880388 
L 521.483927 93.950223 
L 522.248267 93.175525 
L 522.503047 93.765799 
L 522.757827 90.408627 
L 523.012606 95.573452 
L 523.267386 93.691995 
L 524.031726 90.998885 
L 524.541285 95.167649 
L 524.796065 93.101737 
L 525.050845 93.950223 
L 525.815185 91.478476 
L 526.069964 87.973821 
L 526.324744 87.826198 
L 526.834304 86.350576 
L 527.598643 83.030267 
L 527.853423 78.566413 
L 528.108203 77.312093 
L 528.617763 69.601718 
L 529.382102 76.205349 
L 529.636882 74.397649 
L 529.891662 76.684925 
L 530.146442 75.983969 
L 530.401222 77.939229 
L 531.420341 74.471437 
L 531.675121 72.811283 
L 531.929901 74.545179 
L 532.18468 86.313651 
L 532.94902 90.371717 
L 533.2038 91.072689 
L 533.713359 87.752426 
L 534.732479 87.752426 
L 534.987259 79.193565 
L 535.242038 81.554598 
L 535.496818 77.607199 
L 535.496818 77.607199 
" clip-path="url(#pf4e69cebfe)" style="fill: none; stroke: #1f77b4; stroke-linecap: square"/>
   </g>
   <g id="patch_3">
    <path d="M 47.81 177.32 
L 47.81 7.2 
" style="fill: none; stroke: #000000; stroke-linejoin: miter; stroke-linecap: square"/>
   </g>
   <g id="patch_4">
    <path d="M 47.81 177.32 
L 558.72 177.32 
" style="fill: none; stroke: #000000; stroke-linejoin: miter; stroke-linecap: square"/>
   </g>
   <g id="legend_1">
    <g id="patch_5">
     <path d="M 56.21 34.41375 
L 129.035 34.41375 
Q 131.435 34.41375 131.435 32.01375 
L 131.435 15.6 
Q 131.435 13.2 129.035 13.2 
L 56.21 13.2 
Q 53.81 13.2 53.81 15.6 
L 53.81 32.01375 
Q 53.81 34.41375 56.21 34.41375 
z
" style="fill: #eeeeee; opacity: 0.85"/>
    </g>
    <g id="line2d_12">
     <path d="M 58.61 22.918125 
L 70.61 22.918125 
L 82.61 22.918125 
" style="fill: none; stroke: #1f77b4; stroke-linecap: square"/>
    </g>
    <g id="text_12">
     <!-- NVDA -->
     <g transform="translate(92.21 27.118125) scale(0.12 -0.12)">
      <defs>
       <path id="DejaVuSans-4e" d="M 628 4666 
L 1478 4666 
L 3547 763 
L 3547 4666 
L 4159 4666 
L 4159 0 
L 3309 0 
L 1241 3903 
L 1241 0 
L 628 0 
L 628 4666 
z
" transform="scale(0.015625)"/>
       <path id="DejaVuSans-56" d="M 1831 0 
L 50 4666 
L 709 4666 
L 2188 738 
L 3669 4666 
L 4325 4666 
L 2547 0 
L 1831 0 
z
" transform="scale(0.015625)"/>
       <path id="DejaVuSans-41" d="M 2188 4044 
L 1331 1722 
L 3047 1722 
L 2188 4044 
z
M 1831 4666 
L 2547 4666 
L 4325 0 
L 3669 0 
L 3244 1197 
L 1141 1197 
L 716 0 
L 50 0 
L 1831 4666 
z
" transform="scale(0.015625)"/>
      </defs>
      <use xlink:href="#DejaVuSans-4e"/>
      <use xlink:href="#DejaVuSans-56" transform="translate(74.804688 0)"/>
      <use xlink:href="#DejaVuSans-44" transform="translate(143.212891 0)"/>
      <use xlink:href="#DejaVuSans-41" transform="translate(218.464844 0)"/>
     </g>
    </g>
   </g>
  </g>
  <g id="text_13">
   <!-- Figure 1: some caption -->
   <g transform="translate(7.2 221.04) scale(0.12 -0.12)">
    <defs>
     <path id="DejaVuSans-46" d="M 628 4666 
L 3309 4666 
L 3309 4134 
L 1259 4134 
L 1259 2759 
L 3109 2759 
L 3109 2228 
L 1259 2228 
L 1259 0 
L 628 0 
L 628 4666 
z
" transform="scale(0.015625)"/>
     <path id="DejaVuSans-67" d="M 2906 1791 
Q 2906 2416 2648 2759 
Q 2391 3103 1925 3103 
Q 1463 3103 1205 2759 
Q 947 2416 947 1791 
Q 947 1169 1205 825 
Q 1463 481 1925 481 
Q 2391 481 2648 825 
Q 2906 1169 2906 1791 
z
M 3481 434 
Q 3481 -459 3084 -895 
Q 2688 -1331 1869 -1331 
Q 1566 -1331 1297 -1286 
Q 1028 -1241 775 -1147 
L 775 -588 
Q 1028 -725 1275 -790 
Q 1522 -856 1778 -856 
Q 2344 -856 2625 -561 
Q 2906 -266 2906 331 
L 2906 616 
Q 2728 306 2450 153 
Q 2172 0 1784 0 
Q 1141 0 747 490 
Q 353 981 353 1791 
Q 353 2603 747 3093 
Q 1141 3584 1784 3584 
Q 2172 3584 2450 3431 
Q 2728 3278 2906 2969 
L 2906 3500 
L 3481 3500 
L 3481 434 
z
" transform="scale(0.015625)"/>
     <path id="DejaVuSans-75" d="M 544 1381 
L 544 3500 
L 1119 3500 
L 1119 1403 
Q 1119 906 1312 657 
Q 1506 409 1894 409 
Q 2359 409 2629 706 
Q 2900 1003 2900 1516 
L 2900 3500 
L 3475 3500 
L 3475 0 
L 2900 0 
L 2900 538 
Q 2691 219 2414 64 
Q 2138 -91 1772 -91 
Q 1169 -91 856 284 
Q 544 659 544 1381 
z
M 1991 3584 
L 1991 3584 
z
" transform="scale(0.015625)"/>
     <path id="DejaVuSans-3a" d="M 750 794 
L 1409 794 
L 1409 0 
L 750 0 
L 750 794 
z
M 750 3309 
L 1409 3309 
L 1409 2516 
L 750 2516 
L 750 3309 
z
" transform="scale(0.015625)"/>
     <path id="DejaVuSans-73" d="M 2834 3397 
L 2834 2853 
Q 2591 2978 2328 3040 
Q 2066 3103 1784 3103 
Q 1356 3103 1142 2972 
Q 928 2841 928 2578 
Q 928 2378 1081 2264 
Q 1234 2150 1697 2047 
L 1894 2003 
Q 2506 1872 2764 1633 
Q 3022 1394 3022 966 
Q 3022 478 2636 193 
Q 2250 -91 1575 -91 
Q 1294 -91 989 -36 
Q 684 19 347 128 
L 347 722 
Q 666 556 975 473 
Q 1284 391 1588 391 
Q 1994 391 2212 530 
Q 2431 669 2431 922 
Q 2431 1156 2273 1281 
Q 2116 1406 1581 1522 
L 1381 1569 
Q 847 1681 609 1914 
Q 372 2147 372 2553 
Q 372 3047 722 3315 
Q 1072 3584 1716 3584 
Q 2034 3584 2315 3537 
Q 2597 3491 2834 3397 
z
" transform="scale(0.015625)"/>
     <path id="DejaVuSans-6f" d="M 1959 3097 
Q 1497 3097 1228 2736 
Q 959 2375 959 1747 
Q 959 1119 1226 758 
Q 1494 397 1959 397 
Q 2419 397 2687 759 
Q 2956 1122 2956 1747 
Q 2956 2369 2687 2733 
Q 2419 3097 1959 3097 
z
M 1959 3584 
Q 2709 3584 3137 3096 
Q 3566 2609 3566 1747 
Q 3566 888 3137 398 
Q 2709 -91 1959 -91 
Q 1206 -91 779 398 
Q 353 888 353 1747 
Q 353 2609 779 3096 
Q 1206 3584 1959 3584 
z
" transform="scale(0.015625)"/>
     <path id="DejaVuSans-6d" d="M 3328 2828 
Q 3544 3216 3844 3400 
Q 4144 3584 4550 3584 
Q 5097 3584 5394 3201 
Q 5691 2819 5691 2113 
L 5691 0 
L 5113 0 
L 5113 2094 
Q 5113 2597 4934 2840 
Q 4756 3084 4391 3084 
Q 3944 3084 3684 2787 
Q 3425 2491 3425 1978 
L 3425 0 
L 2847 0 
L 2847 2094 
Q 2847 2600 2669 2842 
Q 2491 3084 2119 3084 
Q 1678 3084 1418 2786 
Q 1159 2488 1159 1978 
L 1159 0 
L 581 0 
L 581 3500 
L 1159 3500 
L 1159 2956 
Q 1356 3278 1631 3431 
Q 1906 3584 2284 3584 
Q 2666 3584 2933 3390 
Q 3200 3197 3328 2828 
z
" transform="scale(0.015625)"/>
     <path id="DejaVuSans-61" d="M 2194 1759 
Q 1497 1759 1228 1600 
Q 959 1441 959 1056 
Q 959 750 1161 570 
Q 1363 391 1709 391 
Q 2188 391 2477 730 
Q 2766 1069 2766 1631 
L 2766 1759 
L 2194 1759 
z
M 3341 1997 
L 3341 0 
L 2766 0 
L 2766 531 
Q 2569 213 2275 61 
Q 1981 -91 1556 -91 
Q 1019 -91 701 211 
Q 384 513 384 1019 
Q 384 1609 779 1909 
Q 1175 2209 1959 2209 
L 2766 2209 
L 2766 2266 
Q 2766 2663 2505 2880 
Q 2244 3097 1772 3097 
Q 1472 3097 1187 3025 
Q 903 2953 641 2809 
L 641 3341 
Q 956 3463 1253 3523 
Q 1550 3584 1831 3584 
Q 2591 3584 2966 3190 
Q 3341 2797 3341 1997 
z
" transform="scale(0.015625)"/>
     <path id="DejaVuSans-70" d="M 1159 525 
L 1159 -1331 
L 581 -1331 
L 581 3500 
L 1159 3500 
L 1159 2969 
Q 1341 3281 1617 3432 
Q 1894 3584 2278 3584 
Q 2916 3584 3314 3078 
Q 3713 2572 3713 1747 
Q 3713 922 3314 415 
Q 2916 -91 2278 -91 
Q 1894 -91 1617 61 
Q 1341 213 1159 525 
z
M 3116 1747 
Q 3116 2381 2855 2742 
Q 2594 3103 2138 3103 
Q 1681 3103 1420 2742 
Q 1159 2381 1159 1747 
Q 1159 1113 1420 752 
Q 1681 391 2138 391 
Q 2594 391 2855 752 
Q 3116 1113 3116 1747 
z
" transform="scale(0.015625)"/>
     <path id="DejaVuSans-74" d="M 1172 4494 
L 1172 3500 
L 2356 3500 
L 2356 3053 
L 1172 3053 
L 1172 1153 
Q 1172 725 1289 603 
Q 1406 481 1766 481 
L 2356 481 
L 2356 0 
L 1766 0 
Q 1100 0 847 248 
Q 594 497 594 1153 
L 594 3053 
L 172 3053 
L 172 3500 
L 594 3500 
L 594 4494 
L 1172 4494 
z
" transform="scale(0.015625)"/>
     <path id="DejaVuSans-6e" d="M 3513 2113 
L 3513 0 
L 2938 0 
L 2938 2094 
Q 2938 2591 2744 2837 
Q 2550 3084 2163 3084 
Q 1697 3084 1428 2787 
Q 1159 2491 1159 1978 
L 1159 0 
L 581 0 
L 581 3500 
L 1159 3500 
L 1159 2956 
Q 1366 3272 1645 3428 
Q 1925 3584 2291 3584 
Q 2894 3584 3203 3211 
Q 3513 2838 3513 2113 
z
" transform="scale(0.015625)"/>
    </defs>
    <use xlink:href="#DejaVuSans-46"/>
    <use xlink:href="#DejaVuSans-69" transform="translate(50.269531 0)"/>
    <use xlink:href="#DejaVuSans-67" transform="translate(78.052734 0)"/>
    <use xlink:href="#DejaVuSans-75" transform="translate(141.529297 0)"/>
    <use xlink:href="#DejaVuSans-72" transform="translate(204.908203 0)"/>
    <use xlink:href="#DejaVuSans-65" transform="translate(243.771484 0)"/>
    <use xlink:href="#DejaVuSans-20" transform="translate(305.294922 0)"/>
    <use xlink:href="#DejaVuSans-31" transform="translate(337.082031 0)"/>
    <use xlink:href="#DejaVuSans-3a" transform="translate(400.705078 0)"/>
    <use xlink:href="#DejaVuSans-20" transform="translate(434.396484 0)"/>
    <use xlink:href="#DejaVuSans-73" transform="translate(466.183594 0)"/>
    <use xlink:href="#DejaVuSans-6f" transform="translate(518.283203 0)"/>
    <use xlink:href="#DejaVuSans-6d" transform="translate(579.464844 0)"/>
    <use xlink:href="#DejaVuSans-65" transform="translate(676.876953 0)"/>
    <use xlink:href="#DejaVuSans-20" transform="translate(738.400391 0)"/>
    <use xlink:href="#DejaVuSans-63" transform="translate(770.1875 0)"/>
    <use xlink:href="#DejaVuSans-61" transform="translate(825.167969 0)"/>
    <use xlink:href="#DejaVuSans-70" transform="translate(886.447266 0)"/>
    <use xlink:href="#DejaVuSans-74" transform="translate(949.923828 0)"/>
    <use xlink:href="#DejaVuSans-69" transform="translate(989.132812 0)"/>
    <use xlink:href="#DejaVuSans-6f" transform="translate(1016.916016 0)"/>
    <use xlink:href="#DejaVuSans-6e" transform="translate(1078.097656 0)"/>
   </g>
  </g>
 </g>
 <defs>
  <clipPath id="pf4e69cebfe">
   <rect x="47.81" y="7.2" width="510.91" height="170.12"/>
  </clipPath>
 </defs>
</svg>
