<?xml version="1.0" encoding="utf-8" standalone="no"?>
<!DOCTYPE svg PUBLIC "-//W3C//DTD SVG 1.1//EN"
  "http://www.w3.org/Graphics/SVG/1.1/DTD/svg11.dtd">
<svg xmlns:xlink="http://www.w3.org/1999/xlink" width="565.92pt" height="381.935625pt" viewBox="0 0 565.92 381.935625" xmlns="http://www.w3.org/2000/svg" version="1.1">
 <metadata>
  <rdf:RDF xmlns:dc="http://purl.org/dc/elements/1.1/" xmlns:cc="http://creativecommons.org/ns#" xmlns:rdf="http://www.w3.org/1999/02/22-rdf-syntax-ns#">
   <cc:Work>
    <dc:type rdf:resource="http://purl.org/dc/dcmitype/StillImage"/>
    <dc:date>2025-01-24T16:08:50.386958</dc:date>
    <dc:format>image/svg+xml</dc:format>
    <dc:creator>
     <cc:Agent>
      <dc:title>Matplotlib v3.10.0, https://matplotlib.org/</dc:title>
     </cc:Agent>
    </dc:creator>
   </cc:Work>
  </rdf:RDF>
 </metadata>
 <defs>
  <style type="text/css">*{stroke-linejoin: round; stroke-linecap: butt}</style>
 </defs>
 <g id="figure_1">
  <g id="patch_1">
   <path d="M 0 381.935625 
L 565.92 381.935625 
L 565.92 0 
L 0 0 
z
" style="fill: #ffffff"/>
  </g>
  <g id="axes_1">
   <g id="patch_2">
    <path d="M 57.8 147.413746 
L 558.72 147.413746 
L 558.72 7.2 
L 57.8 7.2 
z
" style="fill: #ffffff"/>
   </g>
   <g id="matplotlib.axis_1">
    <g id="xtick_1">
     <g id="line2d_1">
      <defs>
       <path id="m7f107f9647" d="M 0 0 
L 0 3.5 
" style="stroke: #000000"/>
      </defs>
      <g>
       <use xlink:href="#m7f107f9647" x="79.819697" y="147.413746" style="stroke: #000000"/>
      </g>
     </g>
     <g id="text_1">
      <!-- 2016 -->
      <g transform="translate(64.549697 163.531871) scale(0.12 -0.12)">
       <defs>
        <path id="DejaVuSans-32" d="M 1228 531 
L 3431 531 
L 3431 0 
L 469 0 
L 469 531 
Q 828 903 1448 1529 
Q 2069 2156 2228 2338 
Q 2531 2678 2651 2914 
Q 2772 3150 2772 3378 
Q 2772 3750 2511 3984 
Q 2250 4219 1831 4219 
Q 1534 4219 1204 4116 
Q 875 4013 500 3803 
L 500 4441 
Q 881 4594 1212 4672 
Q 1544 4750 1819 4750 
Q 2544 4750 2975 4387 
Q 3406 4025 3406 3419 
Q 3406 3131 3298 2873 
Q 3191 2616 2906 2266 
Q 2828 2175 2409 1742 
Q 1991 1309 1228 531 
z
" transform="scale(0.015625)"/>
        <path id="DejaVuSans-30" d="M 2034 4250 
Q 1547 4250 1301 3770 
Q 1056 3291 1056 2328 
Q 1056 1369 1301 889 
Q 1547 409 2034 409 
Q 2525 409 2770 889 
Q 3016 1369 3016 2328 
Q 3016 3291 2770 3770 
Q 2525 4250 2034 4250 
z
M 2034 4750 
Q 2819 4750 3233 4129 
Q 3647 3509 3647 2328 
Q 3647 1150 3233 529 
Q 2819 -91 2034 -91 
Q 1250 -91 836 529 
Q 422 1150 422 2328 
Q 422 3509 836 4129 
Q 1250 4750 2034 4750 
z
" transform="scale(0.015625)"/>
        <path id="DejaVuSans-31" d="M 794 531 
L 1825 531 
L 1825 4091 
L 703 3866 
L 703 4441 
L 1819 4666 
L 2450 4666 
L 2450 531 
L 3481 531 
L 3481 0 
L 794 0 
L 794 531 
z
" transform="scale(0.015625)"/>
        <path id="DejaVuSans-36" d="M 2113 2584 
Q 1688 2584 1439 2293 
Q 1191 2003 1191 1497 
Q 1191 994 1439 701 
Q 1688 409 2113 409 
Q 2538 409 2786 701 
Q 3034 994 3034 1497 
Q 3034 2003 2786 2293 
Q 2538 2584 2113 2584 
z
M 3366 4563 
L 3366 3988 
Q 3128 4100 2886 4159 
Q 2644 4219 2406 4219 
Q 1781 4219 1451 3797 
Q 1122 3375 1075 2522 
Q 1259 2794 1537 2939 
Q 1816 3084 2150 3084 
Q 2853 3084 3261 2657 
Q 3669 2231 3669 1497 
Q 3669 778 3244 343 
Q 2819 -91 2113 -91 
Q 1303 -91 875 529 
Q 447 1150 447 2328 
Q 447 3434 972 4092 
Q 1497 4750 2381 4750 
Q 2619 4750 2861 4703 
Q 3103 4656 3366 4563 
z
" transform="scale(0.015625)"/>
       </defs>
       <use xlink:href="#DejaVuSans-32"/>
       <use xlink:href="#DejaVuSans-30" transform="translate(63.623047 0)"/>
       <use xlink:href="#DejaVuSans-31" transform="translate(127.246094 0)"/>
       <use xlink:href="#DejaVuSans-36" transform="translate(190.869141 0)"/>
      </g>
     </g>
    </g>
    <g id="xtick_2">
     <g id="line2d_2">
      <g>
       <use xlink:href="#m7f107f9647" x="171.245778" y="147.413746" style="stroke: #000000"/>
      </g>
     </g>
     <g id="text_2">
      <!-- 2017 -->
      <g transform="translate(155.975778 163.531871) scale(0.12 -0.12)">
       <defs>
        <path id="DejaVuSans-37" d="M 525 4666 
L 3525 4666 
L 3525 4397 
L 1831 0 
L 1172 0 
L 2766 4134 
L 525 4134 
L 525 4666 
z
" transform="scale(0.015625)"/>
       </defs>
       <use xlink:href="#DejaVuSans-32"/>
       <use xlink:href="#DejaVuSans-30" transform="translate(63.623047 0)"/>
       <use xlink:href="#DejaVuSans-31" transform="translate(127.246094 0)"/>
       <use xlink:href="#DejaVuSans-37" transform="translate(190.869141 0)"/>
      </g>
     </g>
    </g>
    <g id="xtick_3">
     <g id="line2d_3">
      <g>
       <use xlink:href="#m7f107f9647" x="262.422061" y="147.413746" style="stroke: #000000"/>
      </g>
     </g>
     <g id="text_3">
      <!-- 2018 -->
      <g transform="translate(247.152061 163.531871) scale(0.12 -0.12)">
       <defs>
        <path id="DejaVuSans-38" d="M 2034 2216 
Q 1584 2216 1326 1975 
Q 1069 1734 1069 1313 
Q 1069 891 1326 650 
Q 1584 409 2034 409 
Q 2484 409 2743 651 
Q 3003 894 3003 1313 
Q 3003 1734 2745 1975 
Q 2488 2216 2034 2216 
z
M 1403 2484 
Q 997 2584 770 2862 
Q 544 3141 544 3541 
Q 544 4100 942 4425 
Q 1341 4750 2034 4750 
Q 2731 4750 3128 4425 
Q 3525 4100 3525 3541 
Q 3525 3141 3298 2862 
Q 3072 2584 2669 2484 
Q 3125 2378 3379 2068 
Q 3634 1759 3634 1313 
Q 3634 634 3220 271 
Q 2806 -91 2034 -91 
Q 1263 -91 848 271 
Q 434 634 434 1313 
Q 434 1759 690 2068 
Q 947 2378 1403 2484 
z
M 1172 3481 
Q 1172 3119 1398 2916 
Q 1625 2713 2034 2713 
Q 2441 2713 2670 2916 
Q 2900 3119 2900 3481 
Q 2900 3844 2670 4047 
Q 2441 4250 2034 4250 
Q 1625 4250 1398 4047 
Q 1172 3844 1172 3481 
z
" transform="scale(0.015625)"/>
       </defs>
       <use xlink:href="#DejaVuSans-32"/>
       <use xlink:href="#DejaVuSans-30" transform="translate(63.623047 0)"/>
       <use xlink:href="#DejaVuSans-31" transform="translate(127.246094 0)"/>
       <use xlink:href="#DejaVuSans-38" transform="translate(190.869141 0)"/>
      </g>
     </g>
    </g>
    <g id="xtick_4">
     <g id="line2d_4">
      <g>
       <use xlink:href="#m7f107f9647" x="353.598343" y="147.413746" style="stroke: #000000"/>
      </g>
     </g>
     <g id="text_4">
      <!-- 2019 -->
      <g transform="translate(338.328343 163.531871) scale(0.12 -0.12)">
       <defs>
        <path id="DejaVuSans-39" d="M 703 97 
L 703 672 
Q 941 559 1184 500 
Q 1428 441 1663 441 
Q 2288 441 2617 861 
Q 2947 1281 2994 2138 
Q 2813 1869 2534 1725 
Q 2256 1581 1919 1581 
Q 1219 1581 811 2004 
Q 403 2428 403 3163 
Q 403 3881 828 4315 
Q 1253 4750 1959 4750 
Q 2769 4750 3195 4129 
Q 3622 3509 3622 2328 
Q 3622 1225 3098 567 
Q 2575 -91 1691 -91 
Q 1453 -91 1209 -44 
Q 966 3 703 97 
z
M 1959 2075 
Q 2384 2075 2632 2365 
Q 2881 2656 2881 3163 
Q 2881 3666 2632 3958 
Q 2384 4250 1959 4250 
Q 1534 4250 1286 3958 
Q 1038 3666 1038 3163 
Q 1038 2656 1286 2365 
Q 1534 2075 1959 2075 
z
" transform="scale(0.015625)"/>
       </defs>
       <use xlink:href="#DejaVuSans-32"/>
       <use xlink:href="#DejaVuSans-30" transform="translate(63.623047 0)"/>
       <use xlink:href="#DejaVuSans-31" transform="translate(127.246094 0)"/>
       <use xlink:href="#DejaVuSans-39" transform="translate(190.869141 0)"/>
      </g>
     </g>
    </g>
    <g id="xtick_5">
     <g id="line2d_5">
      <g>
       <use xlink:href="#m7f107f9647" x="444.774626" y="147.413746" style="stroke: #000000"/>
      </g>
     </g>
     <g id="text_5">
      <!-- 2020 -->
      <g transform="translate(429.504626 163.531871) scale(0.12 -0.12)">
       <use xlink:href="#DejaVuSans-32"/>
       <use xlink:href="#DejaVuSans-30" transform="translate(63.623047 0)"/>
       <use xlink:href="#DejaVuSans-32" transform="translate(127.246094 0)"/>
       <use xlink:href="#DejaVuSans-30" transform="translate(190.869141 0)"/>
      </g>
     </g>
    </g>
    <g id="xtick_6">
     <g id="line2d_6">
      <g>
       <use xlink:href="#m7f107f9647" x="536.200707" y="147.413746" style="stroke: #000000"/>
      </g>
     </g>
     <g id="text_6">
      <!-- 2021 -->
      <g transform="translate(520.930707 163.531871) scale(0.12 -0.12)">
       <use xlink:href="#DejaVuSans-32"/>
       <use xlink:href="#DejaVuSans-30" transform="translate(63.623047 0)"/>
       <use xlink:href="#DejaVuSans-32" transform="translate(127.246094 0)"/>
       <use xlink:href="#DejaVuSans-31" transform="translate(190.869141 0)"/>
      </g>
     </g>
    </g>
   </g>
   <g id="matplotlib.axis_2">
    <g id="ytick_1">
     <g id="line2d_7">
      <defs>
       <path id="m1118d136e6" d="M 0 0 
L -3.5 0 
" style="stroke: #000000"/>
      </defs>
      <g>
       <use xlink:href="#m1118d136e6" x="57.8" y="115.811145" style="stroke: #000000"/>
      </g>
     </g>
     <g id="text_7">
      <!-- 30 -->
      <g transform="translate(35.53 120.370208) scale(0.12 -0.12)">
       <defs>
        <path id="DejaVuSans-33" d="M 2597 2516 
Q 3050 2419 3304 2112 
Q 3559 1806 3559 1356 
Q 3559 666 3084 287 
Q 2609 -91 1734 -91 
Q 1441 -91 1130 -33 
Q 819 25 488 141 
L 488 750 
Q 750 597 1062 519 
Q 1375 441 1716 441 
Q 2309 441 2620 675 
Q 2931 909 2931 1356 
Q 2931 1769 2642 2001 
Q 2353 2234 1838 2234 
L 1294 2234 
L 1294 2753 
L 1863 2753 
Q 2328 2753 2575 2939 
Q 2822 3125 2822 3475 
Q 2822 3834 2567 4026 
Q 2313 4219 1838 4219 
Q 1578 4219 1281 4162 
Q 984 4106 628 3988 
L 628 4550 
Q 988 4650 1302 4700 
Q 1616 4750 1894 4750 
Q 2613 4750 3031 4423 
Q 3450 4097 3450 3541 
Q 3450 3153 3228 2886 
Q 3006 2619 2597 2516 
z
" transform="scale(0.015625)"/>
       </defs>
       <use xlink:href="#DejaVuSans-33"/>
       <use xlink:href="#DejaVuSans-30" transform="translate(63.623047 0)"/>
      </g>
     </g>
    </g>
    <g id="ytick_2">
     <g id="line2d_8">
      <g>
       <use xlink:href="#m1118d136e6" x="57.8" y="82.176782" style="stroke: #000000"/>
      </g>
     </g>
     <g id="text_8">
      <!-- 40 -->
      <g transform="translate(35.53 86.735845) scale(0.12 -0.12)">
       <defs>
        <path id="DejaVuSans-34" d="M 2419 4116 
L 825 1625 
L 2419 1625 
L 2419 4116 
z
M 2253 4666 
L 3047 4666 
L 3047 1625 
L 3713 1625 
L 3713 1100 
L 3047 1100 
L 3047 0 
L 2419 0 
L 2419 1100 
L 313 1100 
L 313 1709 
L 2253 4666 
z
" transform="scale(0.015625)"/>
       </defs>
       <use xlink:href="#DejaVuSans-34"/>
       <use xlink:href="#DejaVuSans-30" transform="translate(63.623047 0)"/>
      </g>
     </g>
    </g>
    <g id="ytick_3">
     <g id="line2d_9">
      <g>
       <use xlink:href="#m1118d136e6" x="57.8" y="48.54242" style="stroke: #000000"/>
      </g>
     </g>
     <g id="text_9">
      <!-- 50 -->
      <g transform="translate(35.53 53.101482) scale(0.12 -0.12)">
       <defs>
        <path id="DejaVuSans-35" d="M 691 4666 
L 3169 4666 
L 3169 4134 
L 1269 4134 
L 1269 2991 
Q 1406 3038 1543 3061 
Q 1681 3084 1819 3084 
Q 2600 3084 3056 2656 
Q 3513 2228 3513 1497 
Q 3513 744 3044 326 
Q 2575 -91 1722 -91 
Q 1428 -91 1123 -41 
Q 819 9 494 109 
L 494 744 
Q 775 591 1075 516 
Q 1375 441 1709 441 
Q 2250 441 2565 725 
Q 2881 1009 2881 1497 
Q 2881 1984 2565 2268 
Q 2250 2553 1709 2553 
Q 1456 2553 1204 2497 
Q 953 2441 691 2322 
L 691 4666 
z
" transform="scale(0.015625)"/>
       </defs>
       <use xlink:href="#DejaVuSans-35"/>
       <use xlink:href="#DejaVuSans-30" transform="translate(63.623047 0)"/>
      </g>
     </g>
    </g>
    <g id="ytick_4">
     <g id="line2d_10">
      <g>
       <use xlink:href="#m1118d136e6" x="57.8" y="14.908057" style="stroke: #000000"/>
      </g>
     </g>
     <g id="text_10">
      <!-- 60 -->
      <g transform="translate(35.53 19.467119) scale(0.12 -0.12)">
       <use xlink:href="#DejaVuSans-36"/>
       <use xlink:href="#DejaVuSans-30" transform="translate(63.623047 0)"/>
      </g>
     </g>
    </g>
    <g id="text_11">
     <!-- Price (USD) -->
     <g transform="translate(29.034375 111.353123) rotate(-90) scale(0.12 -0.12)">
      <defs>
       <path id="DejaVuSans-50" d="M 1259 4147 
L 1259 2394 
L 2053 2394 
Q 2494 2394 2734 2622 
Q 2975 2850 2975 3272 
Q 2975 3691 2734 3919 
Q 2494 4147 2053 4147 
L 1259 4147 
z
M 628 4666 
L 2053 4666 
Q 2838 4666 3239 4311 
Q 3641 3956 3641 3272 
Q 3641 2581 3239 2228 
Q 2838 1875 2053 1875 
L 1259 1875 
L 1259 0 
L 628 0 
L 628 4666 
z
" transform="scale(0.015625)"/>
       <path id="DejaVuSans-72" d="M 2631 2963 
Q 2534 3019 2420 3045 
Q 2306 3072 2169 3072 
Q 1681 3072 1420 2755 
Q 1159 2438 1159 1844 
L 1159 0 
L 581 0 
L 581 3500 
L 1159 3500 
L 1159 2956 
Q 1341 3275 1631 3429 
Q 1922 3584 2338 3584 
Q 2397 3584 2469 3576 
Q 2541 3569 2628 3553 
L 2631 2963 
z
" transform="scale(0.015625)"/>
       <path id="DejaVuSans-69" d="M 603 3500 
L 1178 3500 
L 1178 0 
L 603 0 
L 603 3500 
z
M 603 4863 
L 1178 4863 
L 1178 4134 
L 603 4134 
L 603 4863 
z
" transform="scale(0.015625)"/>
       <path id="DejaVuSans-63" d="M 3122 3366 
L 3122 2828 
Q 2878 2963 2633 3030 
Q 2388 3097 2138 3097 
Q 1578 3097 1268 2742 
Q 959 2388 959 1747 
Q 959 1106 1268 751 
Q 1578 397 2138 397 
Q 2388 397 2633 464 
Q 2878 531 3122 666 
L 3122 134 
Q 2881 22 2623 -34 
Q 2366 -91 2075 -91 
Q 1284 -91 818 406 
Q 353 903 353 1747 
Q 353 2603 823 3093 
Q 1294 3584 2113 3584 
Q 2378 3584 2631 3529 
Q 2884 3475 3122 3366 
z
" transform="scale(0.015625)"/>
       <path id="DejaVuSans-65" d="M 3597 1894 
L 3597 1613 
L 953 1613 
Q 991 1019 1311 708 
Q 1631 397 2203 397 
Q 2534 397 2845 478 
Q 3156 559 3463 722 
L 3463 178 
Q 3153 47 2828 -22 
Q 2503 -91 2169 -91 
Q 1331 -91 842 396 
Q 353 884 353 1716 
Q 353 2575 817 3079 
Q 1281 3584 2069 3584 
Q 2775 3584 3186 3129 
Q 3597 2675 3597 1894 
z
M 3022 2063 
Q 3016 2534 2758 2815 
Q 2500 3097 2075 3097 
Q 1594 3097 1305 2825 
Q 1016 2553 972 2059 
L 3022 2063 
z
" transform="scale(0.015625)"/>
       <path id="DejaVuSans-20" transform="scale(0.015625)"/>
       <path id="DejaVuSans-28" d="M 1984 4856 
Q 1566 4138 1362 3434 
Q 1159 2731 1159 2009 
Q 1159 1288 1364 580 
Q 1569 -128 1984 -844 
L 1484 -844 
Q 1016 -109 783 600 
Q 550 1309 550 2009 
Q 550 2706 781 3412 
Q 1013 4119 1484 4856 
L 1984 4856 
z
" transform="scale(0.015625)"/>
       <path id="DejaVuSans-55" d="M 556 4666 
L 1191 4666 
L 1191 1831 
Q 1191 1081 1462 751 
Q 1734 422 2344 422 
Q 2950 422 3222 751 
Q 3494 1081 3494 1831 
L 3494 4666 
L 4128 4666 
L 4128 1753 
Q 4128 841 3676 375 
Q 3225 -91 2344 -91 
Q 1459 -91 1007 375 
Q 556 841 556 1753 
L 556 4666 
z
" transform="scale(0.015625)"/>
       <path id="DejaVuSans-53" d="M 3425 4513 
L 3425 3897 
Q 3066 4069 2747 4153 
Q 2428 4238 2131 4238 
Q 1616 4238 1336 4038 
Q 1056 3838 1056 3469 
Q 1056 3159 1242 3001 
Q 1428 2844 1947 2747 
L 2328 2669 
Q 3034 2534 3370 2195 
Q 3706 1856 3706 1288 
Q 3706 609 3251 259 
Q 2797 -91 1919 -91 
Q 1588 -91 1214 -16 
Q 841 59 441 206 
L 441 856 
Q 825 641 1194 531 
Q 1563 422 1919 422 
Q 2459 422 2753 634 
Q 3047 847 3047 1241 
Q 3047 1584 2836 1778 
Q 2625 1972 2144 2069 
L 1759 2144 
Q 1053 2284 737 2584 
Q 422 2884 422 3419 
Q 422 4038 858 4394 
Q 1294 4750 2059 4750 
Q 2388 4750 2728 4690 
Q 3069 4631 3425 4513 
z
" transform="scale(0.015625)"/>
       <path id="DejaVuSans-44" d="M 1259 4147 
L 1259 519 
L 2022 519 
Q 2988 519 3436 956 
Q 3884 1394 3884 2338 
Q 3884 3275 3436 3711 
Q 2988 4147 2022 4147 
L 1259 4147 
z
M 628 4666 
L 1925 4666 
Q 3281 4666 3915 4102 
Q 4550 3538 4550 2338 
Q 4550 1131 3912 565 
Q 3275 0 1925 0 
L 628 0 
L 628 4666 
z
" transform="scale(0.015625)"/>
       <path id="DejaVuSans-29" d="M 513 4856 
L 1013 4856 
Q 1481 4119 1714 3412 
Q 1947 2706 1947 2009 
Q 1947 1309 1714 600 
Q 1481 -109 1013 -844 
L 513 -844 
Q 928 -128 1133 580 
Q 1338 1288 1338 2009 
Q 1338 2731 1133 3434 
Q 928 4138 513 4856 
z
" transform="scale(0.015625)"/>
      </defs>
      <use xlink:href="#DejaVuSans-50"/>
      <use xlink:href="#DejaVuSans-72" transform="translate(58.552734 0)"/>
      <use xlink:href="#DejaVuSans-69" transform="translate(99.666016 0)"/>
      <use xlink:href="#DejaVuSans-63" transform="translate(127.449219 0)"/>
      <use xlink:href="#DejaVuSans-65" transform="translate(182.429688 0)"/>
      <use xlink:href="#DejaVuSans-20" transform="translate(243.953125 0)"/>
      <use xlink:href="#DejaVuSans-28" transform="translate(275.740234 0)"/>
      <use xlink:href="#DejaVuSans-55" transform="translate(314.753906 0)"/>
      <use xlink:href="#DejaVuSans-53" transform="translate(387.947266 0)"/>
      <use xlink:href="#DejaVuSans-44" transform="translate(451.423828 0)"/>
      <use xlink:href="#DejaVuSans-29" transform="translate(528.425781 0)"/>
     </g>
    </g>
   </g>
   <g id="line2d_11">
    <path d="M 80.569091 126.362973 
L 80.818889 126.788278 
L 81.068687 128.781912 
L 81.318485 132.078052 
L 81.568283 132.955241 
L 82.317677 131.493264 
L 82.567475 129.845194 
L 82.817273 131.891972 
L 83.067071 129.685717 
L 83.316869 137.607045 
L 84.316061 137.500731 
L 84.565859 138.058941 
L 84.815658 137.872854 
L 85.065456 137.155174 
L 85.81485 138.032356 
L 86.064648 137.128589 
L 86.314446 137.47414 
L 86.564244 137.048835 
L 86.814042 134.257741 
L 87.563436 134.789379 
L 87.813234 137.500731 
L 88.063032 138.037026 
L 88.31283 136.883957 
L 88.562628 138.841511 
L 89.312022 139.431444 
L 89.56182 139.458266 
L 89.811618 141.013598 
L 90.061416 141.040394 
L 90.311214 139.914121 
L 91.310406 139.538726 
L 91.560204 137.688428 
L 91.810002 137.822513 
L 92.059801 139.726417 
L 92.809195 138.010211 
L 93.058993 139.485076 
L 93.808387 136.803529 
L 94.557781 137.36664 
L 94.807579 135.275013 
L 95.057377 134.819171 
L 95.556973 134.577791 
L 96.306367 133.746529 
L 96.556165 134.76554 
L 97.055761 132.915242 
L 97.305559 131.547646 
L 98.054953 132.432559 
L 98.304751 131.842619 
L 98.554549 131.735343 
L 98.804347 130.957694 
L 99.054146 129.080606 
L 99.80354 129.99234 
L 100.053338 130.045972 
L 100.303136 130.904069 
L 100.552934 131.225864 
L 101.552126 131.172239 
L 102.051722 129.000152 
L 102.30152 129.965512 
L 102.551318 129.697361 
L 103.55051 131.172239 
L 103.800308 130.689549 
L 104.050106 132.110776 
L 104.299904 131.896244 
L 105.049298 131.788988 
L 105.548894 130.555471 
L 106.048491 132.352112 
L 106.797885 131.842619 
L 107.047683 131.976691 
L 107.297481 130.904069 
L 107.547279 130.984529 
L 107.797077 131.869422 
L 108.546471 132.539815 
L 108.796269 132.513012 
L 109.046067 131.574449 
L 109.545663 135.516354 
L 110.295057 134.631455 
L 110.794653 135.978034 
L 111.044451 135.842781 
L 111.294249 135.464122 
L 112.043643 136.113261 
L 112.293441 135.193668 
L 112.543239 135.410022 
L 112.793037 136.221454 
L 113.79223 134.517462 
L 114.042028 135.626408 
L 114.291826 135.599361 
L 114.541624 136.573061 
L 114.791422 135.166595 
L 115.540816 134.950222 
L 115.790614 132.70529 
L 116.040412 131.812731 
L 116.540008 131.32589 
L 117.5392 131.271791 
L 118.038796 130.811984 
L 118.288594 131.19067 
L 119.037988 131.028371 
L 119.287786 130.487418 
L 119.787382 130.325131 
L 120.03718 130.054658 
L 120.786575 129.703058 
L 121.036373 129.784191 
L 121.286171 131.217678 
L 121.785767 130.811984 
L 122.784959 129.297338 
L 123.034757 129.378491 
L 123.284555 127.485153 
L 123.534353 131.379984 
L 124.283747 133.624922 
L 124.533545 132.353677 
L 125.033141 127.99906 
L 125.282939 128.134293 
L 126.282131 128.323639 
L 126.781727 126.91716 
L 127.031525 124.753381 
L 127.78092 123.725601 
L 128.030718 122.210936 
L 128.280516 122.021648 
L 128.530314 121.507723 
L 128.780112 121.859323 
L 129.529506 121.913423 
L 129.779304 121.64293 
L 130.029102 120.18241 
L 130.2789 124.023121 
L 130.528698 122.968256 
L 131.278092 122.887142 
L 131.52789 121.80523 
L 131.777688 122.508463 
L 132.027486 122.670762 
L 132.277284 122.427335 
L 133.026678 122.454376 
L 133.276476 123.238729 
L 133.526274 123.375002 
L 134.02587 121.385589 
L 134.775265 121.222058 
L 135.025063 121.549107 
L 135.274861 122.61194 
L 135.524659 122.203129 
L 135.774457 122.502926 
L 136.523851 121.576366 
L 136.773649 120.758781 
L 137.023447 121.276581 
L 137.273245 121.412848 
L 137.523043 120.677019 
L 138.522235 120.240955 
L 138.772033 120.922287 
L 139.021831 121.085824 
L 139.271629 120.622547 
L 140.270821 119.423403 
L 140.770417 118.551359 
L 141.020215 118.387809 
L 142.019408 117.052469 
L 142.269206 117.352267 
L 142.519004 117.406738 
L 142.768802 120.131973 
L 143.518196 118.387809 
L 143.767994 119.668671 
L 144.017792 119.641457 
L 144.517388 114.054721 
L 145.266782 115.444584 
L 145.51658 115.499075 
L 145.766378 114.654252 
L 146.016176 114.381745 
L 146.265974 115.362816 
L 147.015368 116.834422 
L 147.265166 115.390074 
L 147.514964 114.681542 
L 147.764762 115.008559 
L 148.01456 113.836654 
L 148.763955 114.081973 
L 149.013753 114.409003 
L 149.263551 113.182639 
L 149.763147 112.882868 
L 150.512541 113.100903 
L 150.762339 115.144781 
L 151.261935 115.962372 
L 151.511733 114.654252 
L 152.261127 115.090302 
L 152.510925 113.836654 
L 152.760723 119.941203 
L 153.010521 120.159232 
L 153.260319 120.922287 
L 154.009713 120.622547 
L 154.759107 121.848892 
L 155.008905 122.039649 
L 155.7583 121.685348 
L 156.008098 122.639205 
L 156.257896 122.421183 
L 156.757492 124.425627 
L 157.506886 121.460128 
L 158.006482 121.295359 
L 158.25628 121.981841 
L 158.506078 121.67978 
L 159.255472 122.03673 
L 159.50527 120.856017 
L 159.755068 121.048256 
L 160.004866 120.553994 
L 160.254664 120.746175 
L 161.004058 120.66381 
L 161.253856 119.290896 
L 161.503654 120.059725 
L 162.00325 119.400719 
L 162.752644 119.208499 
L 163.002443 119.757676 
L 163.252241 121.432658 
L 163.502039 124.013793 
L 163.751837 122.915446 
L 164.501231 122.283871 
L 164.751029 121.377743 
L 165.000827 119.235962 
L 165.250625 118.686811 
L 166.249817 117.945427 
L 166.499615 115.666347 
L 166.749413 116.352848 
L 166.999211 115.693804 
L 167.249009 117.011803 
L 167.998403 115.419212 
L 168.248201 114.540554 
L 168.497999 115.172097 
L 168.747797 115.309389 
L 168.997595 115.199567 
L 169.996788 114.924969 
L 170.246586 116.13312 
L 170.496384 116.050806 
L 170.746182 117.121664 
L 171.745374 116.215511 
L 171.995172 116.737218 
L 172.24497 116.902 
L 172.494768 116.545011 
L 173.244162 116.18806 
L 173.49396 116.380267 
L 173.743758 115.254449 
L 173.993556 115.913475 
L 174.243354 115.693804 
L 175.242546 115.666347 
L 175.492344 115.776182 
L 175.742142 116.297902 
L 175.99194 115.281913 
L 176.741334 115.748738 
L 176.991132 113.414756 
L 177.240931 112.920461 
L 177.490729 113.579474 
L 177.740527 112.426198 
L 178.489921 113.963933 
L 178.739719 115.611426 
L 178.989517 116.435188 
L 179.489113 115.719311 
L 180.238507 116.410643 
L 180.738103 116.106458 
L 180.987901 118.650712 
L 181.237699 118.982554 
L 182.486689 117.019059 
L 182.736487 116.02349 
L 182.986285 115.82991 
L 183.985477 115.719311 
L 184.235276 116.963747 
L 184.485074 116.659548 
L 184.734872 115.69168 
L 185.484266 115.746986 
L 185.983862 117.350919 
L 186.483458 117.433894 
L 187.232852 118.346495 
L 187.48265 117.710417 
L 187.732448 118.208246 
L 187.982246 117.655118 
L 188.232044 117.406245 
L 188.981438 119.480338 
L 189.231236 119.425013 
L 189.481034 119.646256 
L 189.730832 119.535651 
L 189.98063 119.176134 
L 190.730024 118.733674 
L 190.979822 119.812186 
L 191.229621 118.899598 
L 191.729217 119.480338 
L 192.478611 118.844292 
L 192.728409 118.263514 
L 192.978207 118.346495 
L 193.228005 117.848698 
L 193.477803 116.963747 
L 194.227197 116.714861 
L 194.476995 116.383006 
L 194.726793 116.548937 
L 194.976591 117.074352 
L 195.226389 117.074352 
L 196.475379 118.180545 
L 196.725177 119.231452 
L 197.724369 118.595387 
L 197.974167 117.793385 
L 198.223965 117.406245 
L 198.473764 116.659548 
L 199.722754 114.751398 
L 199.972552 114.585448 
L 200.22235 113.202713 
L 200.472148 116.742523 
L 201.221542 116.300025 
L 201.47134 114.474849 
L 201.721138 113.686371 
L 201.970936 114.048569 
L 202.220734 114.132166 
L 202.970128 114.912241 
L 203.219926 115.385891 
L 203.719522 117.280371 
L 203.96932 117.726154 
L 204.718714 117.447539 
L 204.968512 116.918198 
L 205.21831 119.091311 
L 205.717907 118.088326 
L 206.717099 116.806772 
L 207.216695 115.692335 
L 207.466493 115.692335 
L 208.465685 115.915226 
L 208.715483 116.110249 
L 208.965281 116.082414 
L 209.215079 115.525198 
L 209.964473 115.46945 
L 210.214271 116.054539 
L 210.464069 115.692335 
L 210.713867 115.079422 
L 210.963665 117.224655 
L 211.713059 117.168938 
L 211.962857 116.751055 
L 212.462453 118.339066 
L 212.712252 118.617693 
L 213.461646 117.78187 
L 213.711444 119.59281 
L 214.21104 120.985798 
L 214.460838 121.459422 
L 215.210232 121.793779 
L 215.46003 122.963906 
L 215.709828 121.431599 
L 215.959626 123.270369 
L 216.209424 122.713147 
L 216.958818 123.49326 
L 217.458414 121.041533 
L 217.708212 123.019629 
L 217.95801 122.323152 
L 218.707404 122.963906 
L 219.207 121.292299 
L 219.456798 121.320167 
L 219.706597 120.094271 
L 220.455991 120.679348 
L 220.955587 120.428614 
L 221.205385 119.89926 
L 221.455183 119.955002 
L 222.204577 120.59577 
L 222.454375 120.122152 
L 222.704173 119.89926 
L 222.953971 119.286341 
L 223.203769 118.339066 
L 223.953163 117.893316 
L 224.202961 115.441588 
L 224.452759 114.633627 
L 224.702557 114.288384 
L 224.952355 114.821715 
L 225.701749 114.45679 
L 225.951547 114.51295 
L 226.201345 114.007691 
L 226.700942 116.028705 
L 227.450336 114.70941 
L 228.449528 118.442679 
L 229.198922 118.695318 
L 229.44872 119.453183 
L 229.698518 119.425109 
L 229.948316 119.284776 
L 230.198114 119.397043 
L 230.947508 119.453183 
L 231.197306 119.228655 
L 231.696902 118.274253 
L 231.9467 118.218113 
L 232.945892 118.414618 
L 233.19569 116.337445 
L 233.445488 116.955022 
L 233.695286 117.937427 
L 234.444681 116.309417 
L 234.944277 114.737502 
L 235.194075 114.316483 
L 235.443873 112.856828 
L 236.193267 112.856828 
L 236.443065 112.211224 
L 236.692863 112.660329 
L 236.942661 112.295462 
L 237.941853 112.407716 
L 238.191651 111.537597 
L 238.441449 111.341066 
L 239.940237 106.176306 
L 240.190035 106.288534 
L 240.689631 105.474555 
L 241.439026 104.828925 
L 241.688824 105.418396 
L 241.938622 106.400827 
L 242.18842 106.709605 
L 242.438218 105.362288 
L 243.43741 105.025411 
L 243.687208 103.734227 
L 243.937006 104.183346 
L 244.186804 103.228975 
L 245.185996 101.769379 
L 245.435794 102.246532 
L 245.685592 100.646595 
L 245.93539 92.085399 
L 246.684784 92.169579 
L 247.18438 85.601317 
L 247.434178 84.506594 
L 247.683976 86.639843 
L 248.433371 84.852517 
L 248.683169 84.626649 
L 248.932967 84.852517 
L 249.182765 85.981972 
L 249.432563 88.014912 
L 250.181957 87.534937 
L 250.431755 87.224336 
L 250.681553 88.353791 
L 250.931351 87.817284 
L 251.181149 90.697332 
L 251.930543 90.725585 
L 252.180341 89.822049 
L 252.430139 90.64089 
L 252.929735 90.35853 
L 253.679129 91.092652 
L 253.928927 90.414984 
L 254.178725 92.617402 
L 254.428523 90.104409 
L 254.678321 90.556196 
L 255.427716 91.092652 
L 255.677514 94.057445 
L 255.927312 94.029231 
L 256.17711 95.073902 
L 256.426908 94.311566 
L 257.176302 93.436244 
L 257.4261 94.36802 
L 257.675898 94.339806 
L 257.925696 94.565699 
L 258.175494 90.894998 
L 259.424484 82.424231 
L 259.674282 84.683103 
L 259.92408 84.852517 
L 260.923272 86.603148 
L 261.17307 86.518441 
L 261.422868 86.207866 
L 261.672666 86.377267 
L 262.671859 84.429008 
L 262.921657 88.918513 
L 263.171455 91.262104 
L 263.421253 90.386757 
L 264.170647 90.386757 
L 264.670243 96.711599 
L 264.920041 94.142126 
L 265.169839 94.622179 
L 266.169031 94.90454 
L 266.418829 91.375026 
L 266.668627 91.12093 
L 267.917617 86.65964 
L 268.167415 88.21263 
L 268.417213 88.805514 
L 268.667011 75.3088 
L 269.416406 75.591173 
L 269.666204 78.95121 
L 270.1658 82.17011 
L 270.415598 86.405507 
L 271.164992 91.007945 
L 271.41479 89.046471 
L 271.664588 88.222061 
L 271.914386 95.186823 
L 272.164184 91.775529 
L 272.913578 89.273866 
L 273.163376 90.325697 
L 273.662972 86.175277 
L 273.91277 87.198688 
L 274.911962 85.038213 
L 275.16176 86.11845 
L 275.411558 86.516414 
L 275.661356 81.029903 
L 276.410751 77.106916 
L 276.660549 74.832686 
L 276.910347 76.595198 
L 277.160145 80.717224 
L 277.409943 77.476473 
L 278.159337 75.287578 
L 278.658933 70.824454 
L 278.908731 72.473249 
L 279.158529 68.351248 
L 279.907923 70.25587 
L 280.157721 69.516821 
L 280.407519 69.289388 
L 280.657317 72.07526 
L 280.907115 71.250875 
L 281.656509 72.217383 
L 281.906307 70.170637 
L 282.156105 70.142166 
L 282.405903 72.217383 
L 282.655701 76.396197 
L 283.405095 67.526863 
L 283.904692 75.713987 
L 284.15449 68.663966 
L 285.153682 77.647042 
L 285.40348 75.287578 
L 285.653278 74.605291 
L 285.903076 73.496634 
L 286.152874 78.016598 
L 286.902268 75.85611 
L 287.152066 70.966603 
L 287.401864 71.449863 
L 287.651662 66.844615 
L 287.90146 69.289388 
L 288.650854 67.754284 
L 288.900652 64.513558 
L 289.15045 64.314532 
L 289.400248 68.265977 
L 289.650046 70.227476 
L 290.39944 71.449863 
L 290.649239 70.454871 
L 290.899037 70.653898 
L 291.148835 65.906539 
L 291.398633 66.816195 
L 292.148027 69.971624 
L 292.397825 65.110548 
L 292.647623 68.010149 
L 292.897421 68.095382 
L 293.147219 65.808091 
L 293.896613 64.23556 
L 294.146411 63.377803 
L 294.646007 59.517942 
L 294.895805 60.404286 
L 295.645199 59.746684 
L 295.894997 62.548671 
L 296.144795 60.490083 
L 296.394593 60.004 
L 296.644391 63.749503 
L 297.393785 61.404987 
L 297.643584 61.033313 
L 297.893382 58.860354 
L 298.14318 60.175544 
L 298.392978 58.202791 
L 299.39217 58.54584 
L 299.641968 57.516553 
L 299.891766 58.888928 
L 300.141564 53.513747 
L 300.890958 54.228495 
L 301.140756 55.086278 
L 301.390554 53.656692 
L 301.89015 59.317787 
L 302.639544 60.833183 
L 303.388938 57.916813 
L 303.638736 59.146243 
L 304.38813 64.550048 
L 304.637928 65.379219 
L 304.887727 63.863861 
L 305.137525 67.494992 
L 305.387323 66.608662 
L 306.136717 71.726553 
L 306.636313 77.301888 
L 307.135909 74.585686 
L 307.885303 73.184738 
L 308.135101 75.271899 
L 308.884495 69.839521 
L 309.633889 68.438534 
L 309.883687 67.58079 
L 310.133485 70.32554 
L 310.383283 67.03756 
L 310.633081 67.409208 
L 311.382475 68.009636 
L 311.632273 68.753035 
L 311.882072 68.838807 
L 312.13187 68.095421 
L 312.381668 68.295589 
L 313.131062 67.151918 
L 313.38086 67.523592 
L 313.630658 66.808805 
L 313.880456 67.58079 
L 314.130254 80.38979 
L 314.879648 80.361191 
L 315.129446 79.188933 
L 315.629042 75.243275 
L 315.87884 74.814441 
L 316.628234 74.900713 
L 317.12783 73.002224 
L 317.377628 72.484437 
L 317.627426 76.195156 
L 318.37682 77.345769 
L 318.626618 78.295045 
L 318.876416 80.193573 
L 319.126215 81.027773 
L 319.376013 81.229122 
L 320.125407 82.955029 
L 320.375205 79.733318 
L 320.625003 81.372939 
L 320.874801 81.574314 
L 321.124599 79.618241 
L 322.373589 76.482803 
L 322.623387 77.949828 
L 322.873185 77.403301 
L 323.872377 78.755275 
L 324.122175 79.445645 
L 324.371973 80.768905 
L 324.621771 83.098871 
L 325.371165 83.530361 
L 325.620963 87.471233 
L 325.870761 87.471233 
L 326.12056 85.630237 
L 327.119752 86.061688 
L 327.36955 84.105667 
L 327.619348 83.961812 
L 327.869146 80.94145 
L 328.118944 82.494799 
L 328.868338 81.775663 
L 329.118136 84.65222 
L 329.367934 85.256267 
L 329.617732 84.738505 
L 329.86753 80.68262 
L 330.616924 83.098871 
L 330.866722 78.352577 
L 331.11652 76.45405 
L 331.366318 78.266254 
L 331.616116 81.430471 
L 332.36551 81.430471 
L 332.615308 82.811224 
L 332.865106 87.845152 
L 333.114905 89.484786 
L 333.364703 87.61505 
L 334.114097 88.621846 
L 334.363895 84.565922 
L 334.613693 84.709727 
L 335.113289 90.146378 
L 335.862683 87.24108 
L 336.112481 88.708144 
L 336.362279 94.691323 
L 336.861875 85.285033 
L 337.611269 86.119246 
L 337.861067 79.330594 
L 338.110865 81.861973 
L 338.360663 78.007386 
L 338.610461 81.200356 
L 339.359855 78.726535 
L 339.609653 79.94225 
L 339.859451 75.687158 
L 340.109249 74.905589 
L 340.359048 77.452878 
L 341.108442 81.679036 
L 341.35824 79.537024 
L 341.608038 80.405456 
L 342.107634 75.368718 
L 342.857028 77.771266 
L 343.356624 80.579104 
L 343.85622 81.997476 
L 344.605614 79.363363 
L 345.10521 75.281894 
L 345.355008 78.639685 
L 345.604806 73.979304 
L 346.3542 71.605715 
L 346.603998 78.494945 
L 347.103594 76.70028 
L 347.353393 82.865895 
L 348.102787 80.05807 
L 348.352585 79.565944 
L 348.852181 76.93187 
L 349.101979 78.176556 
L 349.851373 80.43435 
L 350.101171 78.523877 
L 350.350969 84.805288 
L 350.600767 84.892112 
L 350.850565 86.91838 
L 351.599959 90.536681 
L 352.099555 83.010623 
L 352.349353 82.51851 
L 352.599151 81.389606 
L 353.848141 80.43435 
L 354.097939 87.931476 
L 354.347737 80.029086 
L 355.097132 79.392283 
L 355.596728 77.742346 
L 356.096324 75.079288 
L 356.845718 76.758184 
L 357.095516 76.034518 
L 357.345314 77.394948 
L 357.595112 76.410798 
L 357.84491 74.32669 
L 359.0939 77.944953 
L 359.343698 72.676715 
L 359.593496 80.550145 
L 360.592688 81.997476 
L 360.842486 79.102815 
L 361.092284 80.318555 
L 361.342082 75.658226 
L 362.091477 74.239828 
L 362.341275 71.953088 
L 362.591073 71.355854 
L 363.090669 74.443666 
L 363.840063 74.647568 
L 364.089861 71.035515 
L 364.589457 68.705062 
L 364.839255 66.228995 
L 365.838447 66.986417 
L 366.338043 66.957279 
L 366.587841 63.81123 
L 367.587033 61.655618 
L 367.836831 61.626493 
L 368.086629 62.442152 
L 368.336427 61.451741 
L 369.085822 59.587381 
L 369.33562 60.344791 
L 369.585418 62.471239 
L 369.835216 63.49084 
L 370.085014 63.840355 
L 371.084206 60.665194 
L 371.334004 58.334804 
L 371.583802 61.043898 
L 371.8336 58.451331 
L 372.582994 59.121326 
L 372.832792 58.917386 
L 373.08259 59.936948 
L 373.332388 57.548295 
L 373.582186 61.568242 
L 374.33158 62.966496 
L 374.581378 61.043898 
L 374.831176 61.859546 
L 375.080974 62.005197 
L 375.330772 60.286527 
L 376.080167 57.926987 
L 376.329965 58.36393 
L 376.579763 55.101392 
L 376.829561 53.819703 
L 377.079359 54.751864 
L 377.828753 54.518798 
L 378.078551 55.567486 
L 378.328349 54.314896 
L 378.578147 54.169219 
L 378.827945 52.363199 
L 379.577339 52.771029 
L 379.827137 51.518426 
L 380.076935 46.129363 
L 380.326733 46.333266 
L 381.325925 45.371979 
L 381.825521 45.663296 
L 382.075319 48.896734 
L 382.325117 63.986033 
L 383.074512 67.831164 
L 383.32431 68.035079 
L 383.823906 69.462446 
L 384.073704 65.966868 
L 384.823098 66.596973 
L 385.072896 68.765801 
L 385.322694 72.400012 
L 385.572492 80.078817 
L 386.571684 85.530147 
L 387.07128 83.009648 
L 387.321078 83.27343 
L 387.570876 85.149171 
L 388.32027 89.047151 
L 388.570068 86.40942 
L 388.819866 87.75761 
L 389.069664 86.204273 
L 389.319462 86.087028 
L 390.318655 89.017833 
L 390.818251 85.618112 
L 391.068049 87.640352 
L 391.817443 89.340251 
L 392.067241 85.442245 
L 392.317039 86.145625 
L 392.566837 84.533692 
L 392.816635 81.808008 
L 393.566029 79.551279 
L 393.815827 79.404755 
L 394.065625 80.958091 
L 394.315423 79.84434 
L 394.565221 81.339092 
L 395.314615 81.514921 
L 395.564413 77.880685 
L 395.814211 78.759933 
L 396.064009 78.408249 
L 396.313807 77.616941 
L 397.063202 77.118682 
L 397.313 79.404755 
L 397.562798 75.477405 
L 397.812596 77.616941 
L 398.062394 76.415289 
L 399.061586 75.682578 
L 399.311384 74.510217 
L 399.81098 75.79981 
L 400.810172 76.76696 
L 401.309768 74.275779 
L 401.559566 70.407103 
L 402.30896 69.820904 
L 402.558758 72.605236 
L 402.808556 71.960375 
L 403.308152 69.38128 
L 404.307345 65.043663 
L 404.557143 61.61456 
L 405.056739 65.512566 
L 405.806133 62.816225 
L 406.305729 68.560629 
L 406.805325 74.041289 
L 407.554719 79.05302 
L 407.804517 78.153089 
L 408.054315 78.831758 
L 408.304113 77.533466 
L 408.553911 81.044697 
L 409.303305 82.165941 
L 409.553103 78.507159 
L 409.802901 81.369257 
L 410.052699 81.870852 
L 410.302497 79.510362 
L 411.051891 77.356405 
L 411.30169 79.215325 
L 411.551488 77.592461 
L 411.801286 78.684207 
L 412.051084 84.054319 
L 413.050276 81.605299 
L 413.300074 81.605299 
L 413.549872 78.418654 
L 413.79967 76.8253 
L 414.798862 78.094081 
L 415.298458 68.888114 
L 415.548256 66.468656 
L 416.547448 63.813039 
L 416.797246 60.95098 
L 417.047044 60.301808 
L 417.296842 61.688592 
L 418.046236 62.691847 
L 418.545833 64.049133 
L 418.795631 64.550703 
L 419.045429 67.058743 
L 419.794823 66.527625 
L 420.044621 69.714334 
L 420.294419 66.173567 
L 420.794015 66.881708 
L 421.543409 64.668756 
L 421.793207 66.940741 
L 422.043005 70.983038 
L 422.542601 66.468656 
L 423.291995 67.353831 
L 423.541793 69.979886 
L 424.291187 63.016407 
L 425.040581 64.344196 
L 425.290379 61.364045 
L 425.540178 61.954209 
L 426.039774 65.170364 
L 426.789168 62.898366 
L 427.038966 63.252462 
L 427.288764 64.108128 
L 427.538562 62.603303 
L 427.78836 50.122174 
L 428.537754 49.237011 
L 428.787552 50.476257 
L 429.03735 49.709135 
L 429.287148 49.915654 
L 429.536946 49.974636 
L 430.28634 46.728996 
L 430.536138 46.906019 
L 431.285532 43.835323 
L 432.034926 43.597997 
L 432.284724 44.04301 
L 432.534523 44.962712 
L 432.784321 45.200077 
L 433.034119 44.755012 
L 434.033311 43.597997 
L 434.283109 44.933023 
L 434.532907 43.983618 
L 434.782705 45.793435 
L 435.532099 42.233218 
L 435.781897 41.966177 
L 436.031695 43.123282 
L 436.531291 44.487997 
L 437.280685 45.645102 
L 437.530483 50.362412 
L 437.780281 50.510758 
L 438.030079 50.332748 
L 438.279877 48.16691 
L 439.029271 48.997645 
L 439.279069 48.819635 
L 439.778666 45.971446 
L 440.028464 45.259392 
L 440.777858 45.52642 
L 441.027656 46.713164 
L 441.277454 47.098861 
L 441.77705 41.817844 
L 442.526444 40.987146 
L 443.275838 39.236708 
L 443.525636 38.465275 
L 444.27503 39.830054 
L 444.524828 39.147677 
L 445.024424 36.210483 
L 445.274222 38.405959 
L 446.023616 38.910326 
L 446.273414 41.877197 
L 446.523212 41.758503 
L 446.773011 40.779472 
L 447.022809 41.847521 
L 447.772203 39.919072 
L 448.022001 40.393762 
L 448.271799 41.847521 
L 448.521597 39.711385 
L 448.771395 39.889395 
L 449.770587 37.070883 
L 450.020385 30.603122 
L 450.270183 28.852684 
L 450.519981 13.573352 
L 451.269375 21.821215 
L 451.519173 17.014926 
L 451.768971 19.922418 
L 452.018769 19.507044 
L 452.268567 27.042853 
L 453.017961 25.589146 
L 453.267759 22.503579 
L 453.517557 16.925947 
L 453.767356 16.687402 
L 454.017154 19.87755 
L 454.766548 18.77441 
L 455.016346 15.73325 
L 455.266144 15.584249 
L 455.515942 15.643873 
L 455.76574 16.150716 
L 456.764932 19.519784 
L 457.01473 16.627728 
L 457.514326 24.886432 
L 458.26372 32.578633 
L 458.513518 38.631006 
L 458.763316 38.869512 
L 459.013114 50.258754 
L 459.262912 51.182986 
L 460.012306 43.252267 
L 460.262104 49.841314 
L 460.511902 41.761531 
L 461.011499 50.437624 
L 461.760893 65.106455 
L 462.010691 55.774441 
L 462.260489 62.691462 
L 462.510287 80.938062 
L 462.760085 54.432795 
L 463.509479 83.710834 
L 463.759277 67.402189 
L 464.258873 79.745507 
L 464.508671 80.073429 
L 465.258065 68.892926 
L 465.507863 60.485182 
L 465.757661 63.884056 
L 466.007459 51.123388 
L 466.257257 60.574585 
L 467.006651 51.272427 
L 467.256449 55.357065 
L 467.506247 62.035541 
L 467.756045 54.671327 
L 468.005844 55.327235 
L 468.755238 42.506931 
L 469.005036 42.596321 
L 469.254834 40.867104 
L 469.504632 46.353012 
L 470.503824 41.701946 
L 470.753622 35.858222 
L 471.00342 41.195077 
L 471.253218 35.470664 
L 472.25241 40.270833 
L 472.502208 48.678525 
L 472.752006 37.527866 
L 473.001804 40.688209 
L 473.251602 40.032301 
L 474.000996 39.406186 
L 474.250794 41.55283 
L 474.500592 32.45936 
L 475.000189 45.369131 
L 475.749583 43.818733 
L 476.249179 39.274147 
L 476.498977 39.304145 
L 476.748775 37.804941 
L 477.498169 36.425727 
L 477.747967 41.642797 
L 477.997765 43.591698 
L 478.247563 39.573958 
L 478.497361 41.972605 
L 479.496553 35.945982 
L 479.746351 27.520738 
L 479.996149 30.878862 
L 480.245947 30.039324 
L 481.245139 29.799446 
L 481.494937 26.141498 
L 481.744735 31.718348 
L 481.994533 28.03048 
L 482.743928 31.238655 
L 482.993726 30.459112 
L 483.243524 31.028773 
L 483.74312 23.802846 
L 484.492514 25.81169 
L 484.742312 27.700647 
L 484.99211 25.212045 
L 485.241908 37.715025 
L 485.491706 38.824362 
L 486.490898 35.616187 
L 486.740696 35.346349 
L 487.240292 37.954904 
L 487.989686 36.545679 
L 488.239484 37.055371 
L 488.988878 44.311296 
L 489.738273 42.002603 
L 489.988071 37.325209 
L 490.237869 40.383523 
L 490.487667 39.424072 
L 491.486859 38.194731 
L 491.736657 41.882638 
L 491.986455 40.983169 
L 492.236253 41.552843 
L 492.486051 38.224742 
L 493.235445 41.073111 
L 493.485243 39.873793 
L 493.735041 39.723856 
L 493.984839 39.394087 
L 494.234637 36.815517 
L 494.984031 33.367464 
L 495.233829 34.716667 
L 495.483627 33.667261 
L 495.733425 35.616187 
L 495.983223 65.029639 
L 496.982416 69.077313 
L 497.232214 72.585349 
L 497.482012 72.825253 
L 497.73181 73.604821 
L 498.481204 71.895787 
L 498.731002 69.407159 
L 498.9808 70.036802 
L 499.230598 70.097183 
L 499.480396 71.727271 
L 500.22979 68.135029 
L 500.479588 71.244293 
L 500.729386 68.225625 
L 500.979184 70.12736 
L 501.228982 69.131201 
L 501.978376 69.010466 
L 502.477972 70.821656 
L 502.72777 68.285966 
L 502.977568 67.953913 
L 503.726963 68.376537 
L 503.976761 67.501125 
L 504.226559 67.138869 
L 504.476357 67.59167 
L 504.726155 64.482457 
L 505.475549 62.912736 
L 505.725347 63.39574 
L 505.975145 58.988441 
L 506.224943 64.603205 
L 507.473933 69.070833 
L 507.723731 66.927564 
L 507.973529 68.919895 
L 508.223327 67.953913 
L 508.972721 67.56148 
L 509.472317 64.663572 
L 509.722115 64.814497 
L 509.971913 66.112558 
L 510.721308 66.625739 
L 510.971106 65.93143 
L 511.220904 69.342519 
L 511.470702 68.316169 
L 511.7205 65.961595 
L 512.469894 61.463776 
L 512.719692 62.18825 
L 513.219288 59.018631 
L 513.469086 62.731621 
L 514.21848 60.678909 
L 514.468278 61.644879 
L 514.718076 57.720634 
L 514.967874 55.607555 
L 515.217672 57.267795 
L 515.967066 54.068012 
L 516.216864 54.218937 
L 516.466662 55.064171 
L 516.966258 53.22279 
L 517.715653 51.954932 
L 517.965451 55.426401 
L 518.215249 55.215122 
L 518.465047 54.007619 
L 518.714845 71.214064 
L 519.464239 75.681718 
L 519.963835 83.137837 
L 520.213633 83.560487 
L 520.463431 83.047293 
L 521.212825 82.503947 
L 521.462623 81.326634 
L 521.712421 78.760767 
L 521.962219 77.8182 
L 522.212017 78.699963 
L 522.961411 78.061454 
L 523.211209 78.54796 
L 523.461007 75.780962 
L 523.710805 80.037837 
L 523.960603 78.487131 
L 524.709998 76.267456 
L 525.209594 79.703372 
L 525.459392 78.000637 
L 525.70919 78.699963 
L 526.458584 76.662738 
L 526.708382 73.774183 
L 526.95818 73.652512 
L 527.457776 72.436297 
L 528.20717 69.699681 
L 528.456968 66.020551 
L 528.706766 64.986734 
L 529.206362 58.631805 
L 529.955756 64.07455 
L 530.205554 62.584635 
L 530.455352 64.469819 
L 530.70515 63.892088 
L 530.954948 65.503623 
L 531.954141 62.645452 
L 532.203939 61.277144 
L 532.453737 62.70623 
L 532.703535 72.405863 
L 533.452929 75.750541 
L 533.702727 76.328285 
L 534.202323 73.591708 
L 535.201515 73.591708 
L 535.451313 66.537453 
L 535.701111 68.483428 
L 535.950909 65.229962 
L 535.950909 65.229962 
" clip-path="url(#pa25d3c5c23)" style="fill: none; stroke: #000000; stroke-linecap: square"/>
   </g>
   <g id="patch_3">
    <path d="M 57.8 147.413746 
L 57.8 7.2 
" style="fill: none; stroke: #000000; stroke-linejoin: miter; stroke-linecap: square"/>
   </g>
   <g id="patch_4">
    <path d="M 57.8 147.413746 
L 558.72 147.413746 
" style="fill: none; stroke: #000000; stroke-linejoin: miter; stroke-linecap: square"/>
   </g>
  </g>
  <g id="axes_2">
   <g id="patch_5">
    <path d="M 57.8 321.32 
L 558.72 321.32 
L 558.72 181.106254 
L 57.8 181.106254 
z
" style="fill: #ffffff"/>
   </g>
   <g id="matplotlib.axis_3">
    <g id="xtick_7">
     <g id="line2d_12">
      <g>
       <use xlink:href="#m7f107f9647" x="79.56935" y="321.32" style="stroke: #000000"/>
      </g>
     </g>
     <g id="text_12">
      <!-- 2016 -->
      <g transform="translate(64.29935 337.438125) scale(0.12 -0.12)">
       <use xlink:href="#DejaVuSans-32"/>
       <use xlink:href="#DejaVuSans-30" transform="translate(63.623047 0)"/>
       <use xlink:href="#DejaVuSans-31" transform="translate(127.246094 0)"/>
       <use xlink:href="#DejaVuSans-36" transform="translate(190.869141 0)"/>
      </g>
     </g>
    </g>
    <g id="xtick_8">
     <g id="line2d_13">
      <g>
       <use xlink:href="#m7f107f9647" x="171.04561" y="321.32" style="stroke: #000000"/>
      </g>
     </g>
     <g id="text_13">
      <!-- 2017 -->
      <g transform="translate(155.77561 337.438125) scale(0.12 -0.12)">
       <use xlink:href="#DejaVuSans-32"/>
       <use xlink:href="#DejaVuSans-30" transform="translate(63.623047 0)"/>
       <use xlink:href="#DejaVuSans-31" transform="translate(127.246094 0)"/>
       <use xlink:href="#DejaVuSans-37" transform="translate(190.869141 0)"/>
      </g>
     </g>
    </g>
    <g id="xtick_9">
     <g id="line2d_14">
      <g>
       <use xlink:href="#m7f107f9647" x="262.271935" y="321.32" style="stroke: #000000"/>
      </g>
     </g>
     <g id="text_14">
      <!-- 2018 -->
      <g transform="translate(247.001935 337.438125) scale(0.12 -0.12)">
       <use xlink:href="#DejaVuSans-32"/>
       <use xlink:href="#DejaVuSans-30" transform="translate(63.623047 0)"/>
       <use xlink:href="#DejaVuSans-31" transform="translate(127.246094 0)"/>
       <use xlink:href="#DejaVuSans-38" transform="translate(190.869141 0)"/>
      </g>
     </g>
    </g>
    <g id="xtick_10">
     <g id="line2d_15">
      <g>
       <use xlink:href="#m7f107f9647" x="353.49826" y="321.32" style="stroke: #000000"/>
      </g>
     </g>
     <g id="text_15">
      <!-- 2019 -->
      <g transform="translate(338.22826 337.438125) scale(0.12 -0.12)">
       <use xlink:href="#DejaVuSans-32"/>
       <use xlink:href="#DejaVuSans-30" transform="translate(63.623047 0)"/>
       <use xlink:href="#DejaVuSans-31" transform="translate(127.246094 0)"/>
       <use xlink:href="#DejaVuSans-39" transform="translate(190.869141 0)"/>
      </g>
     </g>
    </g>
    <g id="xtick_11">
     <g id="line2d_16">
      <g>
       <use xlink:href="#m7f107f9647" x="444.724584" y="321.32" style="stroke: #000000"/>
      </g>
     </g>
     <g id="text_16">
      <!-- 2020 -->
      <g transform="translate(429.454584 337.438125) scale(0.12 -0.12)">
       <use xlink:href="#DejaVuSans-32"/>
       <use xlink:href="#DejaVuSans-30" transform="translate(63.623047 0)"/>
       <use xlink:href="#DejaVuSans-32" transform="translate(127.246094 0)"/>
       <use xlink:href="#DejaVuSans-30" transform="translate(190.869141 0)"/>
      </g>
     </g>
    </g>
    <g id="xtick_12">
     <g id="line2d_17">
      <g>
       <use xlink:href="#m7f107f9647" x="536.200844" y="321.32" style="stroke: #000000"/>
      </g>
     </g>
     <g id="text_17">
      <!-- 2021 -->
      <g transform="translate(520.930844 337.438125) scale(0.12 -0.12)">
       <use xlink:href="#DejaVuSans-32"/>
       <use xlink:href="#DejaVuSans-30" transform="translate(63.623047 0)"/>
       <use xlink:href="#DejaVuSans-32" transform="translate(127.246094 0)"/>
       <use xlink:href="#DejaVuSans-31" transform="translate(190.869141 0)"/>
      </g>
     </g>
    </g>
   </g>
   <g id="matplotlib.axis_4">
    <g id="ytick_5">
     <g id="line2d_18">
      <g>
       <use xlink:href="#m1118d136e6" x="57.8" y="287.658256" style="stroke: #000000"/>
      </g>
     </g>
     <g id="text_18">
      <!-- −10 -->
      <g transform="translate(25.474375 292.217319) scale(0.12 -0.12)">
       <defs>
        <path id="DejaVuSans-2212" d="M 678 2272 
L 4684 2272 
L 4684 1741 
L 678 1741 
L 678 2272 
z
" transform="scale(0.015625)"/>
       </defs>
       <use xlink:href="#DejaVuSans-2212"/>
       <use xlink:href="#DejaVuSans-31" transform="translate(83.789062 0)"/>
       <use xlink:href="#DejaVuSans-30" transform="translate(147.412109 0)"/>
      </g>
     </g>
    </g>
    <g id="ytick_6">
     <g id="line2d_19">
      <g>
       <use xlink:href="#m1118d136e6" x="57.8" y="253.723888" style="stroke: #000000"/>
      </g>
     </g>
     <g id="text_19">
      <!-- 0 -->
      <g transform="translate(43.165 258.28295) scale(0.12 -0.12)">
       <use xlink:href="#DejaVuSans-30"/>
      </g>
     </g>
    </g>
    <g id="ytick_7">
     <g id="line2d_20">
      <g>
       <use xlink:href="#m1118d136e6" x="57.8" y="219.78952" style="stroke: #000000"/>
      </g>
     </g>
     <g id="text_20">
      <!-- 10 -->
      <g transform="translate(35.53 224.348582) scale(0.12 -0.12)">
       <use xlink:href="#DejaVuSans-31"/>
       <use xlink:href="#DejaVuSans-30" transform="translate(63.623047 0)"/>
      </g>
     </g>
    </g>
    <g id="ytick_8">
     <g id="line2d_21">
      <g>
       <use xlink:href="#m1118d136e6" x="57.8" y="185.855151" style="stroke: #000000"/>
      </g>
     </g>
     <g id="text_21">
      <!-- 20 -->
      <g transform="translate(35.53 190.414214) scale(0.12 -0.12)">
       <use xlink:href="#DejaVuSans-32"/>
       <use xlink:href="#DejaVuSans-30" transform="translate(63.623047 0)"/>
      </g>
     </g>
    </g>
    <g id="text_22">
     <!-- Return (%) -->
     <g transform="translate(18.97875 283.412502) rotate(-90) scale(0.12 -0.12)">
      <defs>
       <path id="DejaVuSans-52" d="M 2841 2188 
Q 3044 2119 3236 1894 
Q 3428 1669 3622 1275 
L 4263 0 
L 3584 0 
L 2988 1197 
Q 2756 1666 2539 1819 
Q 2322 1972 1947 1972 
L 1259 1972 
L 1259 0 
L 628 0 
L 628 4666 
L 2053 4666 
Q 2853 4666 3247 4331 
Q 3641 3997 3641 3322 
Q 3641 2881 3436 2590 
Q 3231 2300 2841 2188 
z
M 1259 4147 
L 1259 2491 
L 2053 2491 
Q 2509 2491 2742 2702 
Q 2975 2913 2975 3322 
Q 2975 3731 2742 3939 
Q 2509 4147 2053 4147 
L 1259 4147 
z
" transform="scale(0.015625)"/>
       <path id="DejaVuSans-74" d="M 1172 4494 
L 1172 3500 
L 2356 3500 
L 2356 3053 
L 1172 3053 
L 1172 1153 
Q 1172 725 1289 603 
Q 1406 481 1766 481 
L 2356 481 
L 2356 0 
L 1766 0 
Q 1100 0 847 248 
Q 594 497 594 1153 
L 594 3053 
L 172 3053 
L 172 3500 
L 594 3500 
L 594 4494 
L 1172 4494 
z
" transform="scale(0.015625)"/>
       <path id="DejaVuSans-75" d="M 544 1381 
L 544 3500 
L 1119 3500 
L 1119 1403 
Q 1119 906 1312 657 
Q 1506 409 1894 409 
Q 2359 409 2629 706 
Q 2900 1003 2900 1516 
L 2900 3500 
L 3475 3500 
L 3475 0 
L 2900 0 
L 2900 538 
Q 2691 219 2414 64 
Q 2138 -91 1772 -91 
Q 1169 -91 856 284 
Q 544 659 544 1381 
z
M 1991 3584 
L 1991 3584 
z
" transform="scale(0.015625)"/>
       <path id="DejaVuSans-6e" d="M 3513 2113 
L 3513 0 
L 2938 0 
L 2938 2094 
Q 2938 2591 2744 2837 
Q 2550 3084 2163 3084 
Q 1697 3084 1428 2787 
Q 1159 2491 1159 1978 
L 1159 0 
L 581 0 
L 581 3500 
L 1159 3500 
L 1159 2956 
Q 1366 3272 1645 3428 
Q 1925 3584 2291 3584 
Q 2894 3584 3203 3211 
Q 3513 2838 3513 2113 
z
" transform="scale(0.015625)"/>
       <path id="DejaVuSans-25" d="M 4653 2053 
Q 4381 2053 4226 1822 
Q 4072 1591 4072 1178 
Q 4072 772 4226 539 
Q 4381 306 4653 306 
Q 4919 306 5073 539 
Q 5228 772 5228 1178 
Q 5228 1588 5073 1820 
Q 4919 2053 4653 2053 
z
M 4653 2450 
Q 5147 2450 5437 2106 
Q 5728 1763 5728 1178 
Q 5728 594 5436 251 
Q 5144 -91 4653 -91 
Q 4153 -91 3862 251 
Q 3572 594 3572 1178 
Q 3572 1766 3864 2108 
Q 4156 2450 4653 2450 
z
M 1428 4353 
Q 1159 4353 1004 4120 
Q 850 3888 850 3481 
Q 850 3069 1003 2837 
Q 1156 2606 1428 2606 
Q 1700 2606 1854 2837 
Q 2009 3069 2009 3481 
Q 2009 3884 1853 4118 
Q 1697 4353 1428 4353 
z
M 4250 4750 
L 4750 4750 
L 1831 -91 
L 1331 -91 
L 4250 4750 
z
M 1428 4750 
Q 1922 4750 2215 4408 
Q 2509 4066 2509 3481 
Q 2509 2891 2217 2550 
Q 1925 2209 1428 2209 
Q 931 2209 642 2551 
Q 353 2894 353 3481 
Q 353 4063 643 4406 
Q 934 4750 1428 4750 
z
" transform="scale(0.015625)"/>
      </defs>
      <use xlink:href="#DejaVuSans-52"/>
      <use xlink:href="#DejaVuSans-65" transform="translate(64.982422 0)"/>
      <use xlink:href="#DejaVuSans-74" transform="translate(126.505859 0)"/>
      <use xlink:href="#DejaVuSans-75" transform="translate(165.714844 0)"/>
      <use xlink:href="#DejaVuSans-72" transform="translate(229.09375 0)"/>
      <use xlink:href="#DejaVuSans-6e" transform="translate(268.457031 0)"/>
      <use xlink:href="#DejaVuSans-20" transform="translate(331.835938 0)"/>
      <use xlink:href="#DejaVuSans-28" transform="translate(363.623047 0)"/>
      <use xlink:href="#DejaVuSans-25" transform="translate(402.636719 0)"/>
      <use xlink:href="#DejaVuSans-29" transform="translate(497.65625 0)"/>
     </g>
    </g>
   </g>
   <g id="line2d_22">
    <path d="M 80.569091 255.32126 
L 81.068961 266.444175 
L 81.318896 257.240923 
L 82.068702 247.800792 
L 82.318637 247.161393 
L 82.568572 261.719384 
L 82.818507 244.89745 
L 83.068442 284.610917 
L 84.068183 253.267838 
L 84.318118 256.115209 
L 84.817988 250.634899 
L 85.567794 257.465338 
L 85.817729 249.82607 
L 86.067664 255.197275 
L 86.317599 251.90253 
L 86.567534 241.834912 
L 87.31734 255.911805 
L 87.567275 264.954671 
L 88.067145 248.750567 
L 88.31708 262.045088 
L 89.316821 253.841662 
L 89.566756 260.555617 
L 90.066626 248.673348 
L 91.066367 252.065196 
L 91.316302 245.588056 
L 91.816172 261.913311 
L 92.565977 246.159265 
L 92.815913 260.08298 
L 93.065848 249.128685 
L 93.315783 248.725037 
L 93.565718 251.661673 
L 94.315523 256.115159 
L 94.565459 244.778685 
L 94.815394 251.824471 
L 95.065329 253.279323 
L 95.315264 253.168988 
L 96.065069 250.28956 
L 96.315004 257.891711 
L 96.56494 250.281479 
L 96.814875 249.546719 
L 97.06481 248.185815 
L 97.814615 257.249795 
L 98.06455 251.348612 
L 98.314486 253.294965 
L 98.564421 250.618523 
L 98.814356 246.29614 
L 99.564161 257.254398 
L 99.814096 253.933748 
L 100.064032 257.083708 
L 100.313967 254.996454 
L 101.313707 253.511025 
L 101.563642 248.617715 
L 101.813577 250.265468 
L 102.063513 257.458621 
L 102.313448 252.674935 
L 103.063253 258.429741 
L 103.563123 251.809067 
L 103.813059 259.330237 
L 104.062994 252.863401 
L 104.812799 253.294771 
L 105.062734 251.687985 
L 105.312669 250.848165 
L 105.562605 257.209167 
L 105.81254 257.352097 
L 106.562345 251.674473 
L 106.81228 254.259951 
L 107.062215 249.428416 
L 107.562086 257.226559 
L 108.311891 256.40518 
L 108.811761 249.941336 
L 109.061696 260.564188 
L 109.311632 262.777431 
L 110.061437 250.025698 
L 110.311372 256.495297 
L 110.561307 256.542478 
L 110.811242 253.155405 
L 111.061178 252.134998 
L 111.810983 256.435039 
L 112.060918 249.852245 
L 112.310853 254.6245 
L 112.560788 257.110606 
L 112.810723 252.013445 
L 113.560529 248.278044 
L 113.810464 258.302094 
L 114.060399 253.6107 
L 114.310334 257.797355 
L 114.560269 247.768457 
L 115.310075 252.823495 
L 115.56001 244.406788 
L 115.809945 250.118505 
L 116.05988 252.642985 
L 116.309815 252.861681 
L 117.309556 253.508889 
L 117.809426 252.651999 
L 118.059361 255.219827 
L 118.809167 253.07991 
L 119.059102 251.58154 
L 119.309037 253.617421 
L 119.808907 252.661446 
L 120.558713 252.347083 
L 120.808648 254.040309 
L 121.058583 259.319705 
L 121.308518 252.865082 
L 121.558453 252.974355 
L 122.308259 249.343243 
L 122.808129 254.038915 
L 123.058064 246.367309 
L 123.307999 268.536167 
L 124.057805 262.651201 
L 124.30774 248.532017 
L 124.557675 245.672753 
L 124.80761 244.477771 
L 125.057545 254.241168 
L 126.057286 254.449259 
L 126.307221 250.712523 
L 126.557156 251.356595 
L 126.807091 245.546954 
L 127.556897 249.931288 
L 127.806832 248.196416 
L 128.056767 253.044189 
L 128.306702 251.882167 
L 128.556637 254.977094 
L 129.306442 253.91743 
L 129.556378 252.755648 
L 129.806313 248.510765 
L 130.056248 267.225354 
L 130.306183 249.862009 
L 131.055988 253.430268 
L 131.305924 249.810946 
L 131.555859 256.238271 
L 132.055729 252.845515 
L 132.805534 253.821207 
L 133.05547 256.547629 
L 133.305405 254.218598 
L 133.55534 250.454227 
L 133.805275 249.79867 
L 134.55508 253.141763 
L 134.805015 254.886099 
L 135.054951 257.513781 
L 135.304886 252.249667 
L 135.554821 254.800315 
L 136.304626 250.386471 
L 136.554561 250.807676 
L 136.804497 255.555073 
L 137.054432 254.208404 
L 137.304367 251.103792 
L 138.054172 252.568363 
L 138.304107 253.339907 
L 138.554043 256.120463 
L 139.053913 252.079919 
L 139.803718 250.932885 
L 140.053653 252.291942 
L 140.303588 251.917949 
L 140.803459 253.158504 
L 141.803199 249.11537 
L 142.053134 254.744684 
L 142.30307 253.909922 
L 142.553005 263.036289 
L 143.30281 247.595733 
L 143.552745 258.144391 
L 143.80268 253.628729 
L 144.052616 244.768615 
L 144.302551 243.421131 
L 145.052356 258.318116 
L 145.552226 250.891451 
L 145.802161 252.817818 
L 146.052097 256.977206 
L 146.801902 258.651103 
L 147.051837 248.816688 
L 147.551707 254.811492 
L 147.801643 249.813796 
L 148.551448 254.533077 
L 148.801383 254.805181 
L 149.051318 249.656072 
L 149.301253 253.009386 
L 149.551189 253.456397 
L 150.300994 254.436474 
L 150.550929 260.417786 
L 150.800864 254.998636 
L 151.050799 255.186205 
L 151.300734 249.317992 
L 152.05054 255.173732 
L 152.300475 249.537693 
L 152.55041 273.85986 
L 152.800345 254.488425 
L 153.05028 256.405653 
L 153.800086 252.662058 
L 154.050021 255.263646 
L 154.299956 255.464134 
L 154.799826 254.406248 
L 155.549632 252.45396 
L 155.799567 257.130067 
L 156.049502 252.937447 
L 156.299437 257.775411 
L 156.549372 256.924205 
L 157.299178 242.819799 
L 157.549113 253.234736 
L 157.799048 253.626189 
L 158.048983 256.165266 
L 158.298918 252.641863 
L 159.048724 254.998467 
L 159.298659 249.491969 
L 159.548594 254.404426 
L 159.798529 251.970653 
L 160.048464 254.402085 
L 160.79827 253.432643 
L 161.048205 248.873418 
L 161.29814 256.401862 
L 161.79801 251.410188 
L 162.547816 253.053594 
L 162.797751 255.635158 
L 163.297621 262.916558 
L 163.547556 249.703223 
L 164.297362 251.438988 
L 164.547297 250.467639 
L 164.797232 246.100365 
L 165.047167 251.812169 
L 165.297102 253.153547 
L 166.046907 251.731112 
L 166.296843 245.893567 
L 166.546778 256.02933 
L 166.796713 251.495515 
L 167.046648 258.151257 
L 167.796453 248.303401 
L 168.046389 250.780338 
L 168.296324 255.821394 
L 168.546259 254.182706 
L 168.796194 253.356375 
L 169.795935 252.80596 
L 170.04587 257.751606 
L 170.295805 253.446174 
L 170.54574 257.333829 
L 171.54548 250.636334 
L 171.795416 255.485482 
L 172.045351 254.283194 
L 172.295286 252.510189 
L 173.045091 252.514645 
L 173.295026 254.372717 
L 173.544962 249.916212 
L 173.794897 255.928072 
L 174.044832 252.98437 
L 175.044572 253.631655 
L 175.294508 254.092742 
L 175.544443 255.477858 
L 175.794378 250.290488 
L 176.544183 255.285658 
L 176.794118 245.879406 
L 177.293989 255.878465 
L 177.543924 249.929274 
L 178.293729 258.727534 
L 178.543664 259.164906 
L 178.793599 256.488782 
L 179.043535 252.237202 
L 179.29347 252.792132 
L 180.043275 256.04677 
L 180.29321 252.975474 
L 180.543145 253.44381 
L 180.793081 262.305497 
L 181.043016 254.872208 
L 181.792821 249.306778 
L 182.042756 252.491681 
L 182.292691 252.590524 
L 182.542626 250.335157 
L 182.792562 253.071493 
L 183.792302 253.351868 
L 184.042237 257.905201 
L 184.292172 252.689029 
L 184.542108 250.441284 
L 185.291913 253.909665 
L 185.541848 256.605108 
L 185.791783 256.254862 
L 186.041718 253.912833 
L 186.291654 253.818369 
L 187.041459 256.843189 
L 187.291394 251.52958 
L 187.541329 255.430239 
L 187.791264 251.818412 
L 188.041199 252.871331 
L 188.791005 260.811239 
L 189.04094 253.530805 
L 189.290875 254.495579 
L 189.790745 252.46847 
L 190.540551 252.184532 
L 190.790486 257.459182 
L 191.040421 250.528074 
L 191.290356 254.68326 
L 191.540291 254.782242 
L 192.290097 251.504105 
L 192.540032 251.710159 
L 192.789967 254.009911 
L 193.289837 250.686403 
L 194.039643 252.877197 
L 194.289578 252.597754 
L 194.789448 255.503908 
L 195.039383 253.723888 
L 195.789189 255.890136 
L 196.039124 254.292694 
L 196.289059 254.768236 
L 196.538994 257.343144 
L 197.538735 251.509705 
L 197.78867 250.950167 
L 198.038605 252.395818 
L 198.28854 251.172365 
L 198.538475 252.410824 
L 199.288281 249.706315 
L 199.538216 252.615877 
L 199.788151 253.171589 
L 200.038086 249.129467 
L 200.288021 265.328513 
L 201.287762 247.555818 
L 201.787632 254.916863 
L 202.037567 254.000204 
L 202.787373 256.304391 
L 203.037308 255.30274 
L 203.287243 257.08275 
L 203.537178 256.739394 
L 203.787113 255.245236 
L 204.786854 251.914333 
L 205.036789 261.113282 
L 205.286724 251.980711 
L 205.536659 251.989531 
L 206.286464 250.177281 
L 206.5364 252.869956 
L 206.786335 251.263547 
L 207.286205 253.723888 
L 208.285946 254.472604 
L 208.535881 254.380442 
L 208.785816 253.629996 
L 209.035751 251.844885 
L 209.785556 253.536932 
L 210.035491 255.684942 
L 210.285427 252.502824 
L 210.535362 251.665047 
L 210.785297 260.886503 
L 211.535102 253.533848 
L 211.785037 252.299352 
L 212.034973 257.03404 
L 213.284648 250.832539 
L 213.534583 259.935517 
L 213.784519 256.44957 
L 214.284389 255.40282 
L 215.034194 254.915026 
L 215.284129 257.907133 
L 215.534064 248.177467 
L 215.784 260.272562 
L 216.033935 251.700323 
L 216.78374 256.540094 
L 217.28361 244.799092 
L 217.533546 260.740042 
L 217.783481 251.201381 
L 218.533286 256.027454 
L 218.783221 251.00109 
L 219.033156 250.422534 
L 219.283092 253.822993 
L 219.533027 249.36303 
L 220.282832 255.778765 
L 220.532767 253.133236 
L 220.782702 253.429075 
L 221.032637 251.858262 
L 221.282573 253.919268 
L 222.032378 255.97112 
L 222.282313 252.051791 
L 222.532248 252.940835 
L 223.032119 250.424506 
L 223.781924 252.186278 
L 224.031859 245.304839 
L 224.281794 251.016575 
L 224.531729 252.576207 
L 224.781665 255.490851 
L 225.53147 252.508539 
L 225.781405 253.910253 
L 226.03134 252.046255 
L 226.281275 257.897221 
L 226.53121 256.25919 
L 227.281016 249.277425 
L 227.530951 256.898938 
L 227.780886 255.514707 
L 228.030821 259.788766 
L 228.280756 255.267672 
L 229.030562 254.59628 
L 229.280497 256.347634 
L 229.530432 253.625941 
L 229.780367 253.234406 
L 230.030302 254.11491 
L 230.780108 253.919647 
L 231.279978 252.160478 
L 231.529913 251.973124 
L 231.779848 253.530362 
L 232.779589 254.400898 
L 233.029524 246.553203 
L 233.279459 255.811728 
L 233.529394 257.065664 
L 234.2792 248.130927 
L 234.529135 250.688023 
L 235.029005 252.322878 
L 235.27894 248.886628 
L 236.028746 253.723888 
L 236.278681 251.614439 
L 236.528616 255.18223 
L 236.778551 252.533972 
L 237.028486 253.90627 
L 237.778292 253.90641 
L 238.028227 250.893102 
L 238.278162 253.089797 
L 238.528097 251.102343 
L 238.778032 251.481438 
L 239.527838 245.169004 
L 240.027708 254.068421 
L 240.277643 252.085032 
L 240.527578 252.86549 
L 241.277383 251.754352 
L 241.527319 255.511731 
L 241.777254 256.719343 
L 242.027189 254.673746 
L 242.277124 249.567667 
L 243.026929 252.953955 
L 243.276865 253.467772 
L 243.5268 249.80089 
L 243.776735 255.072848 
L 244.02667 250.845926 
L 244.776475 250.36654 
L 245.276346 255.132554 
L 245.526281 248.980817 
L 245.776216 228.693759 
L 246.526021 253.953098 
L 246.775956 245.158079 
L 247.025892 244.623044 
L 247.525762 259.1994 
L 248.275567 249.061035 
L 248.525502 253.142621 
L 248.775438 254.304161 
L 249.275308 259.000821 
L 250.025113 252.458327 
L 250.275048 252.907965 
L 250.524984 256.68376 
L 250.774919 252.305536 
L 251.024854 261.306115 
L 252.024594 251.290262 
L 252.274529 255.91369 
L 252.7744 252.963876 
L 253.524205 255.695463 
L 253.77414 251.893292 
L 254.024075 259.641394 
L 254.274011 246.852091 
L 254.523946 254.934782 
L 255.273751 255.166862 
L 255.523686 261.732733 
L 255.773621 253.64583 
L 256.023557 256.613423 
L 256.273492 251.597175 
L 257.023297 251.297185 
L 257.273232 256.28876 
L 257.523167 253.645632 
L 257.773102 254.35029 
L 258.023038 243.526228 
L 258.772843 240.777654 
L 259.022778 248.002196 
L 259.272713 249.9726 
L 259.522648 259.431937 
L 259.772584 254.159312 
L 260.772324 258.229104 
L 261.022259 253.502963 
L 261.272194 252.914402 
L 261.52213 254.164366 
L 262.52187 248.651426 
L 262.771805 265.240555 
L 263.02174 259.946969 
L 263.271675 251.356103 
L 264.021481 253.723888 
L 264.271416 262.218922 
L 264.521351 262.436904 
L 264.771286 246.457928 
L 265.021221 255.052925 
L 266.020962 254.508683 
L 266.270897 243.891187 
L 266.520832 253.03595 
L 266.770767 251.129928 
L 267.520573 246.682585 
L 268.020443 257.776011 
L 268.270378 255.289561 
L 268.520313 217.916909 
L 269.520054 261.803411 
L 269.769989 258.2448 
L 270.019924 257.177924 
L 270.269859 264.406294 
L 271.019665 265.709335 
L 271.2696 248.428895 
L 271.519535 251.532587 
L 271.76947 272.117601 
L 272.019405 244.198456 
L 272.769211 246.929166 
L 273.019146 256.524666 
L 273.269081 246.701893 
L 273.519016 249.685876 
L 273.768951 256.384306 
L 274.768692 248.063227 
L 275.018627 256.50778 
L 275.268562 254.757967 
L 275.518497 239.424012 
L 276.268303 243.91258 
L 276.518238 248.195914 
L 277.018108 263.706711 
L 277.268043 245.637472 
L 278.017849 248.389217 
L 278.267784 247.175728 
L 278.517719 249.641851 
L 278.767654 257.559031 
L 279.017589 244.026402 
L 279.767394 258.080241 
L 280.01733 252.011513 
L 280.267265 253.199571 
L 280.5172 260.13643 
L 280.767135 251.789764 
L 281.51694 255.978603 
L 281.766876 248.917207 
L 282.516681 263.537625 
L 283.266486 232.274384 
L 283.516422 262.065319 
L 283.766357 264.264092 
L 284.016292 236.756682 
L 285.016032 274.313854 
L 285.265967 247.966463 
L 285.515903 252.086786 
L 285.765838 251.076512 
L 286.015773 264.433614 
L 287.015513 241.944492 
L 287.265449 254.849061 
L 287.515384 242.965834 
L 287.765319 259.259488 
L 288.765059 246.341234 
L 289.26493 262.522447 
L 289.514865 258.207757 
L 290.26467 256.555606 
L 290.514605 251.399545 
L 290.76454 254.185659 
L 291.014476 242.694294 
L 291.264411 255.770773 
L 292.014216 260.867241 
L 292.264151 242.482605 
L 292.514086 260.21424 
L 293.013957 248.50128 
L 293.763762 250.187727 
L 294.013697 251.814937 
L 294.263632 249.231416 
L 294.513568 249.727144 
L 294.763503 255.63726 
L 295.513308 252.296258 
L 295.763243 259.781424 
L 296.013178 249.192598 
L 296.263113 252.668038 
L 296.513049 261.834479 
L 297.262854 248.522711 
L 297.512789 252.911798 
L 297.762724 248.987405 
L 298.012659 256.551194 
L 298.262595 249.447367 
L 299.262335 254.458292 
L 299.51227 251.515594 
L 299.762205 256.649224 
L 300.012141 242.166594 
L 300.761946 255.210068 
L 301.011881 255.515326 
L 301.261816 250.722421 
L 301.511751 260.566704 
L 301.761686 258.764174 
L 302.511492 256.991053 
L 302.761427 251.856659 
L 303.011362 252.423888 
L 303.261297 250.578925 
L 303.511232 256.351131 
L 304.261038 265.361703 
L 304.510973 255.573034 
L 304.760908 250.325949 
L 305.010843 261.785377 
L 305.260778 251.708259 
L 306.010584 265.293903 
L 306.260519 260.683466 
L 306.510454 259.940888 
L 306.760389 250.313776 
L 307.010324 250.554342 
L 307.76013 250.379007 
L 308.010065 258.658519 
L 308.509935 244.943647 
L 308.75987 249.578215 
L 309.509676 250.487006 
L 309.759611 251.760855 
L 310.009546 259.969392 
L 310.259481 246.10202 
L 310.509416 254.56648 
L 311.259222 255.088555 
L 311.509157 255.420323 
L 312.009027 252.01797 
L 312.258962 254.180936 
L 313.008768 251.109003 
L 313.258703 254.567183 
L 313.508638 252.09806 
L 313.758573 255.471445 
L 314.008508 282.869954 
L 314.758314 253.652698 
L 315.258184 248.71489 
L 315.508119 249.065732 
L 315.758054 252.695253 
L 316.507859 253.930202 
L 316.757795 250.970602 
L 317.257665 252.501249 
L 317.5076 262.454463 
L 318.257405 256.502537 
L 318.507341 256.03525 
L 318.757276 258.378253 
L 319.257146 254.227449 
L 320.006951 258.046691 
L 320.256887 245.55049 
L 320.506822 257.785732 
L 320.756757 254.228798 
L 321.006692 248.812083 
L 321.756497 248.811058 
L 322.006432 252.179824 
L 322.256368 252.466228 
L 322.506303 257.273918 
L 322.756238 252.387373 
L 323.755978 257.017126 
L 324.005914 255.422022 
L 324.255849 256.995138 
L 324.505784 259.539896 
L 325.255589 254.819744 
L 325.505524 263.76497 
L 325.75546 253.723888 
L 326.005395 248.890123 
L 326.25533 253.947225 
L 327.005135 254.618058 
L 327.25507 248.643517 
L 327.505005 253.355763 
L 327.754941 246.003195 
L 328.004876 257.606251 
L 328.754681 251.905714 
L 329.004616 260.957858 
L 329.254551 255.276033 
L 329.504487 252.387345 
L 329.754422 243.29516 
L 330.504227 259.751454 
L 330.754162 241.669699 
L 331.503968 261.47956 
L 332.253773 253.723888 
L 332.503708 257.187348 
L 332.753643 266.481119 
L 333.253514 248.736967 
L 334.003319 256.370301 
L 334.253254 242.978893 
L 334.753124 260.526993 
L 335.00306 261.043512 
L 335.752865 245.934434 
L 336.252735 269.585273 
L 336.50267 238.604616 
L 337.502411 255.877784 
L 337.752346 236.083962 
L 338.002281 259.976506 
L 338.252216 244.024162 
L 338.502151 261.53543 
L 339.251957 247.52913 
L 339.501892 256.713612 
L 339.751827 243.166621 
L 340.251697 259.819471 
L 341.001503 264.021936 
L 341.251438 248.341008 
L 341.501373 255.872181 
L 341.751308 246.37338 
L 342.001243 248.645334 
L 342.751049 259.491948 
L 343.250919 256.301744 
L 343.750789 257.259461 
L 344.500595 247.088711 
L 344.75053 249.289865 
L 345.000465 248.146967 
L 345.2504 261.780356 
L 345.500335 242.270142 
L 346.250141 248.080822 
L 346.500076 269.834703 
L 346.999946 249.317786 
L 347.249881 268.667132 
L 347.999687 246.605252 
L 348.249622 252.501843 
L 348.499557 250.500943 
L 348.749492 250.460383 
L 348.999427 256.745559 
L 349.749233 259.254284 
L 349.999168 248.966715 
L 350.249103 269.148677 
L 350.499038 253.947248 
L 350.748973 258.940018 
L 351.498779 263.183725 
L 351.998649 233.483201 
L 352.248584 252.474889 
L 352.498519 250.869204 
L 353.248325 252.417298 
L 353.748195 252.639229 
L 353.99813 272.392103 
L 354.248065 232.901024 
L 354.99787 252.142918 
L 355.247806 251.577923 
L 355.497741 251.804741 
L 355.747676 249.836406 
L 355.997611 251.138294 
L 356.747416 257.74636 
L 356.997352 251.969257 
L 357.247287 257.005479 
L 357.497222 251.326768 
L 357.747157 248.683178 
L 358.746898 260.070564 
L 358.996833 256.043788 
L 359.246768 240.841041 
L 359.496703 272.273215 
L 360.246508 256.104449 
L 360.496443 254.958981 
L 360.746379 246.432404 
L 360.996314 256.72185 
L 361.246249 242.129288 
L 361.996054 250.311595 
L 362.245989 248.27736 
L 362.495925 252.323875 
L 362.74586 258.280306 
L 362.995795 256.412158 
L 363.7456 254.210235 
L 363.995535 245.096056 
L 364.245471 250.602427 
L 364.495406 251.437825 
L 364.745341 248.046959 
L 365.745081 255.431873 
L 365.995016 253.789868 
L 366.244952 253.591843 
L 366.494887 246.595057 
L 367.244692 249.780384 
L 367.494627 252.893012 
L 367.744562 253.660148 
L 367.994498 255.508613 
L 368.244433 251.545335 
L 368.994238 249.649118 
L 369.244173 255.35965 
L 369.494108 258.33858 
L 369.993979 254.497959 
L 370.743784 248.098363 
L 370.993719 252.324507 
L 371.243654 248.656232 
L 371.493589 259.528391 
L 371.743525 248.072385 
L 372.49333 255.160477 
L 372.743265 253.284744 
L 372.9932 255.916466 
L 373.243135 248.553661 
L 373.493071 262.294463 
L 374.242876 256.782225 
L 374.492811 249.480434 
L 374.742746 255.501906 
L 374.992681 254.043064 
L 375.242617 249.954103 
L 375.992422 248.605261 
L 376.242357 254.657676 
L 376.492292 246.732291 
L 376.992162 255.665776 
L 377.741968 253.235568 
L 377.991903 255.917941 
L 378.241838 251.086178 
L 378.491773 253.419486 
L 378.741708 249.953477 
L 379.491514 254.565955 
L 379.741449 251.131144 
L 379.991384 242.653725 
L 380.241319 254.129509 
L 381.24106 251.809317 
L 381.490995 253.954694 
L 381.74093 254.07027 
L 381.990865 260.138624 
L 382.2408 284.235952 
L 383.240541 254.188664 
L 383.490476 255.585453 
L 383.740411 255.12783 
L 383.990346 245.668284 
L 385.240022 262.059539 
L 385.489957 271.780002 
L 385.739892 256.78093 
L 386.489698 264.300891 
L 386.739633 250.61555 
L 386.989568 250.34323 
L 387.489438 258.493949 
L 388.239244 263.777886 
L 388.489179 246.712705 
L 388.739114 257.234883 
L 388.989049 249.636352 
L 389.238984 253.419035 
L 390.238725 261.33754 
L 390.48866 248.583563 
L 390.738595 249.887815 
L 390.98853 258.958476 
L 391.738335 258.193033 
L 391.988271 243.339007 
L 392.238206 255.542156 
L 392.488141 249.534525 
L 392.738076 246.72631 
L 393.487881 248.047301 
L 393.987752 257.56277 
L 394.237687 250.939894 
L 394.487622 257.429851 
L 395.237427 254.164637 
L 395.487363 244.602131 
L 395.737298 255.872988 
L 395.987233 252.858807 
L 396.237168 251.782357 
L 396.986973 252.508328 
L 397.236908 259.281116 
L 397.486844 244.017922 
L 397.736779 258.864459 
L 397.986714 250.79232 
L 398.986454 253.229524 
L 399.23639 250.90301 
L 399.73626 256.801263 
L 400.486065 255.558939 
L 400.736 254.220568 
L 400.985936 250.454896 
L 401.235871 250.978718 
L 401.485806 244.507202 
L 402.235611 252.364261 
L 402.485546 260.156076 
L 402.735481 252.205389 
L 402.985417 249.945184 
L 403.235352 251.481438 
L 403.985157 246.433502 
L 404.235092 251.080476 
L 404.485027 246.051705 
L 404.734963 258.597398 
L 404.984898 257.432108 
L 405.734703 247.672459 
L 405.984638 258.958423 
L 406.234573 261.272144 
L 406.484509 260.772583 
L 406.734444 259.34533 
L 407.484249 265.644152 
L 407.734184 251.505501 
L 407.984119 255.385984 
L 408.234054 250.528651 
L 408.48399 262.284797 
L 409.233795 256.528401 
L 409.48373 244.496091 
L 409.733665 260.751276 
L 410.233536 247.783535 
L 410.983341 248.396547 
L 411.233276 258.250457 
L 411.483211 249.718701 
L 411.733146 256.386859 
L 411.983082 266.926187 
L 412.732887 249.195302 
L 413.232757 253.723888 
L 413.482692 245.720214 
L 413.732627 249.814184 
L 414.732368 256.801708 
L 414.982303 239.710994 
L 415.232238 245.53848 
L 415.482173 248.169876 
L 416.231979 249.258767 
L 416.481914 252.210958 
L 416.731849 247.371932 
L 417.231719 256.732576 
L 417.981525 255.919964 
L 418.23146 255.349059 
L 418.73133 254.838776 
L 418.981265 259.317131 
L 419.731071 252.519578 
L 419.981006 260.924194 
L 420.230941 245.550163 
L 420.480876 254.389066 
L 420.730811 254.656804 
L 421.480617 248.711951 
L 421.730552 258.794632 
L 421.980487 262.882572 
L 422.230422 249.326746 
L 422.480357 247.687245 
L 423.230163 255.72314 
L 423.480098 259.69023 
L 423.730033 248.606068 
L 423.979968 249.488748 
L 424.229903 247.21726 
L 424.979709 256.655464 
L 425.229644 247.086786 
L 425.479579 255.01303 
L 425.729514 257.541017 
L 425.979449 256.995653 
L 426.729255 248.636331 
L 426.97919 254.505083 
L 427.229125 255.615986 
L 427.47906 250.377675 
L 427.728995 226.241136 
L 428.478801 251.920834 
L 428.728736 256.234858 
L 428.978671 252.157952 
L 429.228606 254.143522 
L 429.478541 253.843883 
L 430.228346 247.118455 
L 430.478282 254.07728 
L 430.728217 251.559815 
L 430.978152 251.072709 
L 431.228087 252.4379 
L 431.977892 253.258042 
L 432.477763 255.531341 
L 432.977633 252.843321 
L 433.727438 252.026003 
L 433.977374 253.141437 
L 434.227309 256.340814 
L 434.477244 251.848394 
L 434.727179 257.279426 
L 435.476984 246.655483 
L 435.726919 253.204527 
L 435.976855 255.970873 
L 436.476725 256.391697 
L 437.22653 256.003774 
L 437.476465 263.081445 
L 437.726401 254.026501 
L 437.976336 253.360438 
L 438.226271 249.306548 
L 438.976076 255.396445 
L 439.475947 250.845523 
L 439.725882 250.869784 
L 439.975817 252.308713 
L 440.725622 254.25239 
L 440.975557 256.076356 
L 441.225492 254.493789 
L 441.475428 249.03463 
L 441.725363 247.92769 
L 442.475168 252.112123 
L 442.725103 252.69263 
L 443.224974 251.38202 
L 443.474909 252.248879 
L 444.224714 256.322104 
L 444.474649 252.414781 
L 444.97452 248.110678 
L 445.224455 257.851343 
L 445.97426 254.683763 
L 446.224195 259.386244 
L 446.47413 253.493511 
L 446.724065 251.824963 
L 446.974001 255.783944 
L 447.723806 249.98157 
L 447.973741 254.635015 
L 448.223676 256.52177 
L 448.473611 249.578536 
L 448.723547 254.065163 
L 449.723287 248.314894 
L 449.973222 241.506382 
L 450.223157 250.532245 
L 450.473093 226.12407 
L 451.222898 267.501815 
L 451.472833 245.355277 
L 451.722768 258.664511 
L 451.972703 253.007625 
L 452.222638 266.691109 
L 452.972444 251.12304 
L 453.222379 248.245447 
L 453.472314 243.978107 
L 453.972184 259.135944 
L 454.971925 248.51019 
L 455.22186 253.47231 
L 455.471795 253.824483 
L 455.72173 254.57928 
L 456.721471 259.424188 
L 456.971406 248.747068 
L 457.221341 262.117778 
L 457.471276 259.478992 
L 458.221082 267.331402 
L 458.471017 264.877813 
L 458.720952 254.178369 
L 458.970887 275.455583 
L 459.220822 255.608068 
L 459.970628 237.465692 
L 460.220563 266.614043 
L 460.470498 237.29328 
L 460.720433 263.670641 
L 460.970368 260.81336 
L 461.720174 283.660601 
L 461.970109 232.836041 
L 462.469979 293.924883 
L 462.719914 187.479606 
L 463.46972 314.946648 
L 463.719655 212.114157 
L 463.96959 270.460676 
L 464.219525 265.627014 
L 465.219266 225.957416 
L 465.469201 234.422782 
L 465.719136 261.106551 
L 465.969071 225.390139 
L 466.219006 273.092131 
L 466.968811 233.507188 
L 467.218747 262.102037 
L 467.468682 267.769118 
L 467.718617 237.567819 
L 467.968552 255.097463 
L 468.718357 226.767013 
L 468.968293 253.898013 
L 469.218228 250.353765 
L 469.468163 264.310402 
L 470.467903 244.459398 
L 470.717839 242.393078 
L 470.967774 263.737535 
L 471.217709 242.656472 
L 471.467644 256.124108 
L 472.217449 260.357983 
L 472.467384 269.893931 
L 472.71732 231.205426 
L 472.967255 259.708954 
L 473.21719 252.459427 
L 473.966995 252.521341 
L 474.21693 257.832275 
L 474.466866 236.106928 
L 474.716801 263.717448 
L 474.966736 267.924561 
L 475.716541 250.653372 
L 475.966476 249.276578 
L 476.216412 249.309351 
L 476.466347 253.781257 
L 476.716282 250.856263 
L 477.466087 251.107884 
L 477.716022 263.543592 
L 477.965957 257.501472 
L 478.215893 245.848572 
L 478.465828 258.318923 
L 479.215633 244.174747 
L 479.465568 251.62845 
L 479.715503 237.907761 
L 479.965439 259.74713 
L 480.215374 252.190855 
L 481.215114 253.287828 
L 481.465049 247.082887 
L 481.714985 263.654316 
L 481.96492 246.959117 
L 482.714725 259.493721 
L 482.96466 252.297648 
L 483.214595 254.76177 
L 483.46453 248.025188 
L 483.714466 246.341051 
L 484.464271 257.257576 
L 484.714206 257.08165 
L 484.964141 249.256001 
L 485.214076 275.879286 
L 485.464012 255.82695 
L 486.213817 249.319837 
L 486.463752 252.029991 
L 486.713687 253.218262 
L 486.963622 256.023942 
L 487.213558 256.322112 
L 487.963363 251.048719 
L 488.463233 258.424367 
L 488.713168 257.054773 
L 488.963103 259.581657 
L 489.962844 244.638951 
L 490.212779 259.50919 
L 490.462714 251.87745 
L 491.462455 251.370858 
L 491.71239 260.734146 
L 491.962325 251.978042 
L 492.21226 254.823951 
L 492.462195 247.276291 
L 493.212001 259.139198 
L 493.461936 251.406772 
L 493.711871 253.43617 
L 493.961806 253.091621 
L 494.211741 248.78919 
L 494.961547 247.219811 
L 495.211482 256.221033 
L 495.461417 251.767217 
L 495.711352 257.336926 
L 495.961287 308.839165 
L 496.711093 260.565703 
L 496.961028 255.982939 
L 497.210963 261.787114 
L 497.460898 254.28873 
L 497.710833 255.562398 
L 498.710574 247.892448 
L 498.960509 255.174365 
L 499.210444 253.86358 
L 499.460379 257.496711 
L 500.210185 245.316202 
L 500.46012 260.825213 
L 500.710055 246.682117 
L 500.95999 258.069958 
L 501.209925 251.417813 
L 501.959731 253.446277 
L 502.209666 255.665751 
L 502.459601 255.955937 
L 502.709536 247.825916 
L 502.959471 252.964732 
L 503.709277 254.687953 
L 503.959212 251.721259 
L 504.209147 252.900037 
L 504.459082 254.751163 
L 504.709017 246.648555 
L 505.458822 250.224784 
L 505.708758 254.789575 
L 505.958693 243.969101 
L 506.208628 265.803933 
L 506.458563 255.811512 
L 507.458304 261.651844 
L 507.708239 248.797796 
L 507.958174 258.237541 
L 508.208109 251.505942 
L 508.957914 252.828691 
L 509.20785 249.671859 
L 509.457785 251.212751 
L 509.957655 256.623753 
L 510.70746 254.880215 
L 510.957395 252.154084 
L 511.207331 261.400701 
L 511.457266 251.360577 
L 511.707201 248.339653 
L 512.457006 243.599314 
L 512.706941 255.30743 
L 512.956877 249.812729 
L 513.206812 250.709215 
L 513.456747 261.713836 
L 514.206552 249.200164 
L 514.456487 255.824666 
L 514.706423 245.136327 
L 514.956358 249.213894 
L 515.206293 257.220899 
L 515.956098 246.913913 
L 516.206033 254.038777 
L 516.455968 255.489015 
L 516.705904 251.822832 
L 516.955839 251.770372 
L 517.705644 251.092316 
L 517.955579 260.87384 
L 518.205514 253.279363 
L 518.45545 251.186669 
L 518.705385 289.609943 
L 519.45519 264.143602 
L 519.705125 261.568353 
L 519.95506 264.058781 
L 520.204996 254.797606 
L 520.454931 252.416008 
L 521.204736 252.344482 
L 521.454671 250.747113 
L 521.704606 247.292643 
L 522.204477 255.878165 
L 522.954282 252.153948 
L 523.204217 254.914581 
L 523.454152 246.927994 
L 523.704087 263.973728 
L 523.954023 249.873755 
L 524.703828 248.274648 
L 524.953763 258.572736 
L 525.203698 257.22686 
L 525.453633 249.506615 
L 525.703569 255.434692 
L 526.703309 246.724944 
L 526.953244 253.435036 
L 528.452855 245.231601 
L 528.70279 251.395859 
L 528.952725 246.311354 
L 529.20266 247.06878 
L 529.952466 265.407421 
L 530.202401 250.411556 
L 530.452336 257.874455 
L 530.702271 252.436159 
L 530.952206 257.302324 
L 531.702012 248.674356 
L 531.951947 252.379181 
L 532.201882 250.710126 
L 532.451817 256.843807 
L 532.701752 275.096214 
L 534.201363 250.080528 
L 535.201104 253.723888 
L 535.451039 236.99824 
L 535.700974 258.121068 
L 535.950909 246.275752 
L 535.950909 246.275752 
" clip-path="url(#p0708f3e5da)" style="fill: none; stroke: #000000; stroke-linecap: square"/>
   </g>
   <g id="patch_6">
    <path d="M 57.8 321.32 
L 57.8 181.106254 
" style="fill: none; stroke: #000000; stroke-linejoin: miter; stroke-linecap: square"/>
   </g>
   <g id="patch_7">
    <path d="M 57.8 321.32 
L 558.72 321.32 
" style="fill: none; stroke: #000000; stroke-linejoin: miter; stroke-linecap: square"/>
   </g>
  </g>
  <g id="text_23">
   <!-- Figure 1: Intel closing prices (top) and corresponding returns (bottom). -->
   <g transform="translate(7.2 372.24) scale(0.12 -0.12)">
    <defs>
     <path id="DejaVuSans-46" d="M 628 4666 
L 3309 4666 
L 3309 4134 
L 1259 4134 
L 1259 2759 
L 3109 2759 
L 3109 2228 
L 1259 2228 
L 1259 0 
L 628 0 
L 628 4666 
z
" transform="scale(0.015625)"/>
     <path id="DejaVuSans-67" d="M 2906 1791 
Q 2906 2416 2648 2759 
Q 2391 3103 1925 3103 
Q 1463 3103 1205 2759 
Q 947 2416 947 1791 
Q 947 1169 1205 825 
Q 1463 481 1925 481 
Q 2391 481 2648 825 
Q 2906 1169 2906 1791 
z
M 3481 434 
Q 3481 -459 3084 -895 
Q 2688 -1331 1869 -1331 
Q 1566 -1331 1297 -1286 
Q 1028 -1241 775 -1147 
L 775 -588 
Q 1028 -725 1275 -790 
Q 1522 -856 1778 -856 
Q 2344 -856 2625 -561 
Q 2906 -266 2906 331 
L 2906 616 
Q 2728 306 2450 153 
Q 2172 0 1784 0 
Q 1141 0 747 490 
Q 353 981 353 1791 
Q 353 2603 747 3093 
Q 1141 3584 1784 3584 
Q 2172 3584 2450 3431 
Q 2728 3278 2906 2969 
L 2906 3500 
L 3481 3500 
L 3481 434 
z
" transform="scale(0.015625)"/>
     <path id="DejaVuSans-3a" d="M 750 794 
L 1409 794 
L 1409 0 
L 750 0 
L 750 794 
z
M 750 3309 
L 1409 3309 
L 1409 2516 
L 750 2516 
L 750 3309 
z
" transform="scale(0.015625)"/>
     <path id="DejaVuSans-49" d="M 628 4666 
L 1259 4666 
L 1259 0 
L 628 0 
L 628 4666 
z
" transform="scale(0.015625)"/>
     <path id="DejaVuSans-6c" d="M 603 4863 
L 1178 4863 
L 1178 0 
L 603 0 
L 603 4863 
z
" transform="scale(0.015625)"/>
     <path id="DejaVuSans-6f" d="M 1959 3097 
Q 1497 3097 1228 2736 
Q 959 2375 959 1747 
Q 959 1119 1226 758 
Q 1494 397 1959 397 
Q 2419 397 2687 759 
Q 2956 1122 2956 1747 
Q 2956 2369 2687 2733 
Q 2419 3097 1959 3097 
z
M 1959 3584 
Q 2709 3584 3137 3096 
Q 3566 2609 3566 1747 
Q 3566 888 3137 398 
Q 2709 -91 1959 -91 
Q 1206 -91 779 398 
Q 353 888 353 1747 
Q 353 2609 779 3096 
Q 1206 3584 1959 3584 
z
" transform="scale(0.015625)"/>
     <path id="DejaVuSans-73" d="M 2834 3397 
L 2834 2853 
Q 2591 2978 2328 3040 
Q 2066 3103 1784 3103 
Q 1356 3103 1142 2972 
Q 928 2841 928 2578 
Q 928 2378 1081 2264 
Q 1234 2150 1697 2047 
L 1894 2003 
Q 2506 1872 2764 1633 
Q 3022 1394 3022 966 
Q 3022 478 2636 193 
Q 2250 -91 1575 -91 
Q 1294 -91 989 -36 
Q 684 19 347 128 
L 347 722 
Q 666 556 975 473 
Q 1284 391 1588 391 
Q 1994 391 2212 530 
Q 2431 669 2431 922 
Q 2431 1156 2273 1281 
Q 2116 1406 1581 1522 
L 1381 1569 
Q 847 1681 609 1914 
Q 372 2147 372 2553 
Q 372 3047 722 3315 
Q 1072 3584 1716 3584 
Q 2034 3584 2315 3537 
Q 2597 3491 2834 3397 
z
" transform="scale(0.015625)"/>
     <path id="DejaVuSans-70" d="M 1159 525 
L 1159 -1331 
L 581 -1331 
L 581 3500 
L 1159 3500 
L 1159 2969 
Q 1341 3281 1617 3432 
Q 1894 3584 2278 3584 
Q 2916 3584 3314 3078 
Q 3713 2572 3713 1747 
Q 3713 922 3314 415 
Q 2916 -91 2278 -91 
Q 1894 -91 1617 61 
Q 1341 213 1159 525 
z
M 3116 1747 
Q 3116 2381 2855 2742 
Q 2594 3103 2138 3103 
Q 1681 3103 1420 2742 
Q 1159 2381 1159 1747 
Q 1159 1113 1420 752 
Q 1681 391 2138 391 
Q 2594 391 2855 752 
Q 3116 1113 3116 1747 
z
" transform="scale(0.015625)"/>
     <path id="DejaVuSans-61" d="M 2194 1759 
Q 1497 1759 1228 1600 
Q 959 1441 959 1056 
Q 959 750 1161 570 
Q 1363 391 1709 391 
Q 2188 391 2477 730 
Q 2766 1069 2766 1631 
L 2766 1759 
L 2194 1759 
z
M 3341 1997 
L 3341 0 
L 2766 0 
L 2766 531 
Q 2569 213 2275 61 
Q 1981 -91 1556 -91 
Q 1019 -91 701 211 
Q 384 513 384 1019 
Q 384 1609 779 1909 
Q 1175 2209 1959 2209 
L 2766 2209 
L 2766 2266 
Q 2766 2663 2505 2880 
Q 2244 3097 1772 3097 
Q 1472 3097 1187 3025 
Q 903 2953 641 2809 
L 641 3341 
Q 956 3463 1253 3523 
Q 1550 3584 1831 3584 
Q 2591 3584 2966 3190 
Q 3341 2797 3341 1997 
z
" transform="scale(0.015625)"/>
     <path id="DejaVuSans-64" d="M 2906 2969 
L 2906 4863 
L 3481 4863 
L 3481 0 
L 2906 0 
L 2906 525 
Q 2725 213 2448 61 
Q 2172 -91 1784 -91 
Q 1150 -91 751 415 
Q 353 922 353 1747 
Q 353 2572 751 3078 
Q 1150 3584 1784 3584 
Q 2172 3584 2448 3432 
Q 2725 3281 2906 2969 
z
M 947 1747 
Q 947 1113 1208 752 
Q 1469 391 1925 391 
Q 2381 391 2643 752 
Q 2906 1113 2906 1747 
Q 2906 2381 2643 2742 
Q 2381 3103 1925 3103 
Q 1469 3103 1208 2742 
Q 947 2381 947 1747 
z
" transform="scale(0.015625)"/>
     <path id="DejaVuSans-62" d="M 3116 1747 
Q 3116 2381 2855 2742 
Q 2594 3103 2138 3103 
Q 1681 3103 1420 2742 
Q 1159 2381 1159 1747 
Q 1159 1113 1420 752 
Q 1681 391 2138 391 
Q 2594 391 2855 752 
Q 3116 1113 3116 1747 
z
M 1159 2969 
Q 1341 3281 1617 3432 
Q 1894 3584 2278 3584 
Q 2916 3584 3314 3078 
Q 3713 2572 3713 1747 
Q 3713 922 3314 415 
Q 2916 -91 2278 -91 
Q 1894 -91 1617 61 
Q 1341 213 1159 525 
L 1159 0 
L 581 0 
L 581 4863 
L 1159 4863 
L 1159 2969 
z
" transform="scale(0.015625)"/>
     <path id="DejaVuSans-6d" d="M 3328 2828 
Q 3544 3216 3844 3400 
Q 4144 3584 4550 3584 
Q 5097 3584 5394 3201 
Q 5691 2819 5691 2113 
L 5691 0 
L 5113 0 
L 5113 2094 
Q 5113 2597 4934 2840 
Q 4756 3084 4391 3084 
Q 3944 3084 3684 2787 
Q 3425 2491 3425 1978 
L 3425 0 
L 2847 0 
L 2847 2094 
Q 2847 2600 2669 2842 
Q 2491 3084 2119 3084 
Q 1678 3084 1418 2786 
Q 1159 2488 1159 1978 
L 1159 0 
L 581 0 
L 581 3500 
L 1159 3500 
L 1159 2956 
Q 1356 3278 1631 3431 
Q 1906 3584 2284 3584 
Q 2666 3584 2933 3390 
Q 3200 3197 3328 2828 
z
" transform="scale(0.015625)"/>
     <path id="DejaVuSans-2e" d="M 684 794 
L 1344 794 
L 1344 0 
L 684 0 
L 684 794 
z
" transform="scale(0.015625)"/>
    </defs>
    <use xlink:href="#DejaVuSans-46"/>
    <use xlink:href="#DejaVuSans-69" transform="translate(50.269531 0)"/>
    <use xlink:href="#DejaVuSans-67" transform="translate(78.052734 0)"/>
    <use xlink:href="#DejaVuSans-75" transform="translate(141.529297 0)"/>
    <use xlink:href="#DejaVuSans-72" transform="translate(204.908203 0)"/>
    <use xlink:href="#DejaVuSans-65" transform="translate(243.771484 0)"/>
    <use xlink:href="#DejaVuSans-20" transform="translate(305.294922 0)"/>
    <use xlink:href="#DejaVuSans-31" transform="translate(337.082031 0)"/>
    <use xlink:href="#DejaVuSans-3a" transform="translate(400.705078 0)"/>
    <use xlink:href="#DejaVuSans-20" transform="translate(434.396484 0)"/>
    <use xlink:href="#DejaVuSans-49" transform="translate(466.183594 0)"/>
    <use xlink:href="#DejaVuSans-6e" transform="translate(495.675781 0)"/>
    <use xlink:href="#DejaVuSans-74" transform="translate(559.054688 0)"/>
    <use xlink:href="#DejaVuSans-65" transform="translate(598.263672 0)"/>
    <use xlink:href="#DejaVuSans-6c" transform="translate(659.787109 0)"/>
    <use xlink:href="#DejaVuSans-20" transform="translate(687.570312 0)"/>
    <use xlink:href="#DejaVuSans-63" transform="translate(719.357422 0)"/>
    <use xlink:href="#DejaVuSans-6c" transform="translate(774.337891 0)"/>
    <use xlink:href="#DejaVuSans-6f" transform="translate(802.121094 0)"/>
    <use xlink:href="#DejaVuSans-73" transform="translate(863.302734 0)"/>
    <use xlink:href="#DejaVuSans-69" transform="translate(915.402344 0)"/>
    <use xlink:href="#DejaVuSans-6e" transform="translate(943.185547 0)"/>
    <use xlink:href="#DejaVuSans-67" transform="translate(1006.564453 0)"/>
    <use xlink:href="#DejaVuSans-20" transform="translate(1070.041016 0)"/>
    <use xlink:href="#DejaVuSans-70" transform="translate(1101.828125 0)"/>
    <use xlink:href="#DejaVuSans-72" transform="translate(1165.304688 0)"/>
    <use xlink:href="#DejaVuSans-69" transform="translate(1206.417969 0)"/>
    <use xlink:href="#DejaVuSans-63" transform="translate(1234.201172 0)"/>
    <use xlink:href="#DejaVuSans-65" transform="translate(1289.181641 0)"/>
    <use xlink:href="#DejaVuSans-73" transform="translate(1350.705078 0)"/>
    <use xlink:href="#DejaVuSans-20" transform="translate(1402.804688 0)"/>
    <use xlink:href="#DejaVuSans-28" transform="translate(1434.591797 0)"/>
    <use xlink:href="#DejaVuSans-74" transform="translate(1473.605469 0)"/>
    <use xlink:href="#DejaVuSans-6f" transform="translate(1512.814453 0)"/>
    <use xlink:href="#DejaVuSans-70" transform="translate(1573.996094 0)"/>
    <use xlink:href="#DejaVuSans-29" transform="translate(1637.472656 0)"/>
    <use xlink:href="#DejaVuSans-20" transform="translate(1676.486328 0)"/>
    <use xlink:href="#DejaVuSans-61" transform="translate(1708.273438 0)"/>
    <use xlink:href="#DejaVuSans-6e" transform="translate(1769.552734 0)"/>
    <use xlink:href="#DejaVuSans-64" transform="translate(1832.931641 0)"/>
    <use xlink:href="#DejaVuSans-20" transform="translate(1896.408203 0)"/>
    <use xlink:href="#DejaVuSans-63" transform="translate(1928.195312 0)"/>
    <use xlink:href="#DejaVuSans-6f" transform="translate(1983.175781 0)"/>
    <use xlink:href="#DejaVuSans-72" transform="translate(2044.357422 0)"/>
    <use xlink:href="#DejaVuSans-72" transform="translate(2083.720703 0)"/>
    <use xlink:href="#DejaVuSans-65" transform="translate(2122.583984 0)"/>
    <use xlink:href="#DejaVuSans-73" transform="translate(2184.107422 0)"/>
    <use xlink:href="#DejaVuSans-70" transform="translate(2236.207031 0)"/>
    <use xlink:href="#DejaVuSans-6f" transform="translate(2299.683594 0)"/>
    <use xlink:href="#DejaVuSans-6e" transform="translate(2360.865234 0)"/>
    <use xlink:href="#DejaVuSans-64" transform="translate(2424.244141 0)"/>
    <use xlink:href="#DejaVuSans-69" transform="translate(2487.720703 0)"/>
    <use xlink:href="#DejaVuSans-6e" transform="translate(2515.503906 0)"/>
    <use xlink:href="#DejaVuSans-67" transform="translate(2578.882812 0)"/>
    <use xlink:href="#DejaVuSans-20" transform="translate(2642.359375 0)"/>
    <use xlink:href="#DejaVuSans-72" transform="translate(2674.146484 0)"/>
    <use xlink:href="#DejaVuSans-65" transform="translate(2713.009766 0)"/>
    <use xlink:href="#DejaVuSans-74" transform="translate(2774.533203 0)"/>
    <use xlink:href="#DejaVuSans-75" transform="translate(2813.742188 0)"/>
    <use xlink:href="#DejaVuSans-72" transform="translate(2877.121094 0)"/>
    <use xlink:href="#DejaVuSans-6e" transform="translate(2916.484375 0)"/>
    <use xlink:href="#DejaVuSans-73" transform="translate(2979.863281 0)"/>
    <use xlink:href="#DejaVuSans-20" transform="translate(3031.962891 0)"/>
    <use xlink:href="#DejaVuSans-28" transform="translate(3063.75 0)"/>
    <use xlink:href="#DejaVuSans-62" transform="translate(3102.763672 0)"/>
    <use xlink:href="#DejaVuSans-6f" transform="translate(3166.240234 0)"/>
    <use xlink:href="#DejaVuSans-74" transform="translate(3227.421875 0)"/>
    <use xlink:href="#DejaVuSans-74" transform="translate(3266.630859 0)"/>
    <use xlink:href="#DejaVuSans-6f" transform="translate(3305.839844 0)"/>
    <use xlink:href="#DejaVuSans-6d" transform="translate(3367.021484 0)"/>
    <use xlink:href="#DejaVuSans-29" transform="translate(3464.433594 0)"/>
    <use xlink:href="#DejaVuSans-2e" transform="translate(3503.447266 0)"/>
   </g>
  </g>
 </g>
 <defs>
  <clipPath id="pa25d3c5c23">
   <rect x="57.8" y="7.2" width="500.92" height="140.213746"/>
  </clipPath>
  <clipPath id="p0708f3e5da">
   <rect x="57.8" y="181.106254" width="500.92" height="140.213746"/>
  </clipPath>
 </defs>
</svg>
