<?xml version="1.0" encoding="utf-8" standalone="no"?>
<!DOCTYPE svg PUBLIC "-//W3C//DTD SVG 1.1//EN"
  "http://www.w3.org/Graphics/SVG/1.1/DTD/svg11.dtd">
<svg xmlns:xlink="http://www.w3.org/1999/xlink" width="449.28pt" height="334.08pt" viewBox="0 0 449.28 334.08" xmlns="http://www.w3.org/2000/svg" version="1.1">
 <metadata>
  <rdf:RDF xmlns:dc="http://purl.org/dc/elements/1.1/" xmlns:cc="http://creativecommons.org/ns#" xmlns:rdf="http://www.w3.org/1999/02/22-rdf-syntax-ns#">
   <cc:Work>
    <dc:type rdf:resource="http://purl.org/dc/dcmitype/StillImage"/>
    <dc:date>2025-01-24T16:09:06.136874</dc:date>
    <dc:format>image/svg+xml</dc:format>
    <dc:creator>
     <cc:Agent>
      <dc:title>Matplotlib v3.10.0, https://matplotlib.org/</dc:title>
     </cc:Agent>
    </dc:creator>
   </cc:Work>
  </rdf:RDF>
 </metadata>
 <defs>
  <style type="text/css">*{stroke-linejoin: round; stroke-linecap: butt}</style>
 </defs>
 <g id="figure_1">
  <g id="patch_1">
   <path d="M 0 334.08 
L 449.28 334.08 
L 449.28 0 
L 0 0 
z
" style="fill: #ffffff"/>
  </g>
  <g id="axes_1">
   <g id="patch_2">
    <path d="M 40.91875 308.26625 
L 400.72625 308.26625 
L 400.72625 7.2 
L 40.91875 7.2 
z
" style="fill: #ffffff"/>
   </g>
   <g id="patch_3">
    <path d="M 57.273636 308.26625 
L 57.273636 24.832232 
L 63.815591 24.832232 
L 63.815591 173.14073 
L 70.357545 173.14073 
L 70.357545 222.576896 
L 76.8995 222.576896 
L 76.8995 120.40882 
L 83.441455 120.40882 
L 83.441455 281.900295 
L 89.983409 281.900295 
L 89.983409 268.717317 
L 96.525364 268.717317 
L 96.525364 127.000309 
L 103.067318 127.000309 
L 103.067318 146.774775 
L 109.609273 146.774775 
L 109.609273 285.196039 
L 116.151227 285.196039 
L 116.151227 239.055618 
L 122.693182 239.055618 
L 122.693182 150.070519 
L 129.235136 150.070519 
L 129.235136 31.423721 
L 135.777091 31.423721 
L 135.777091 21.536488 
L 142.319045 21.536488 
L 142.319045 120.40882 
L 148.861 120.40882 
L 148.861 136.887542 
L 155.402955 136.887542 
L 155.402955 166.549241 
L 161.944909 166.549241 
L 161.944909 110.521587 
L 168.486864 110.521587 
L 168.486864 183.027963 
L 175.028818 183.027963 
L 175.028818 183.027963 
L 181.570773 183.027963 
L 181.570773 21.536488 
L 188.112727 21.536488 
L 188.112727 146.774775 
L 194.654682 146.774775 
L 194.654682 173.14073 
L 201.196636 173.14073 
L 201.196636 235.759873 
L 207.738591 235.759873 
L 207.738591 255.53434 
L 214.280545 255.53434 
L 214.280545 285.196039 
L 220.8225 285.196039 
L 220.8225 288.491784 
L 227.364455 288.491784 
L 227.364455 301.674761 
L 233.906409 301.674761 
L 233.906409 308.26625 
L 240.448364 308.26625 
L 240.448364 298.379017 
L 246.990318 298.379017 
L 246.990318 262.125829 
L 253.532273 262.125829 
L 253.532273 275.308806 
L 260.074227 275.308806 
L 260.074227 288.491784 
L 266.616182 288.491784 
L 266.616182 304.970506 
L 273.158136 304.970506 
L 273.158136 298.379017 
L 279.700091 298.379017 
L 279.700091 278.60455 
L 286.242045 278.60455 
L 286.242045 281.900295 
L 292.784 281.900295 
L 292.784 304.970506 
L 299.325955 304.970506 
L 299.325955 298.379017 
L 305.867909 298.379017 
L 305.867909 291.787528 
L 312.409864 291.787528 
L 312.409864 304.970506 
L 318.951818 304.970506 
L 318.951818 304.970506 
L 325.493773 304.970506 
L 325.493773 285.196039 
L 332.035727 285.196039 
L 332.035727 285.196039 
L 338.577682 285.196039 
L 338.577682 268.717317 
L 345.119636 268.717317 
L 345.119636 242.351362 
L 351.661591 242.351362 
L 351.661591 235.759873 
L 358.203545 235.759873 
L 358.203545 265.421573 
L 364.7455 265.421573 
L 364.7455 281.900295 
L 371.287455 281.900295 
L 371.287455 295.083272 
L 377.829409 295.083272 
L 377.829409 301.674761 
L 384.371364 301.674761 
L 384.371364 308.26625 
L 377.829409 308.26625 
L 377.829409 308.26625 
L 371.287455 308.26625 
L 371.287455 308.26625 
L 364.7455 308.26625 
L 364.7455 308.26625 
L 358.203545 308.26625 
L 358.203545 308.26625 
L 351.661591 308.26625 
L 351.661591 308.26625 
L 345.119636 308.26625 
L 345.119636 308.26625 
L 338.577682 308.26625 
L 338.577682 308.26625 
L 332.035727 308.26625 
L 332.035727 308.26625 
L 325.493773 308.26625 
L 325.493773 308.26625 
L 318.951818 308.26625 
L 318.951818 308.26625 
L 312.409864 308.26625 
L 312.409864 308.26625 
L 305.867909 308.26625 
L 305.867909 308.26625 
L 299.325955 308.26625 
L 299.325955 308.26625 
L 292.784 308.26625 
L 292.784 308.26625 
L 286.242045 308.26625 
L 286.242045 308.26625 
L 279.700091 308.26625 
L 279.700091 308.26625 
L 273.158136 308.26625 
L 273.158136 308.26625 
L 266.616182 308.26625 
L 266.616182 308.26625 
L 260.074227 308.26625 
L 260.074227 308.26625 
L 253.532273 308.26625 
L 253.532273 308.26625 
L 246.990318 308.26625 
L 246.990318 308.26625 
L 240.448364 308.26625 
L 240.448364 308.26625 
L 233.906409 308.26625 
L 233.906409 308.26625 
L 227.364455 308.26625 
L 227.364455 308.26625 
L 220.8225 308.26625 
L 220.8225 308.26625 
L 214.280545 308.26625 
L 214.280545 308.26625 
L 207.738591 308.26625 
L 207.738591 308.26625 
L 201.196636 308.26625 
L 201.196636 308.26625 
L 194.654682 308.26625 
L 194.654682 308.26625 
L 188.112727 308.26625 
L 188.112727 308.26625 
L 181.570773 308.26625 
L 181.570773 308.26625 
L 175.028818 308.26625 
L 175.028818 308.26625 
L 168.486864 308.26625 
L 168.486864 308.26625 
L 161.944909 308.26625 
L 161.944909 308.26625 
L 155.402955 308.26625 
L 155.402955 308.26625 
L 148.861 308.26625 
L 148.861 308.26625 
L 142.319045 308.26625 
L 142.319045 308.26625 
L 135.777091 308.26625 
L 135.777091 308.26625 
L 129.235136 308.26625 
L 129.235136 308.26625 
L 122.693182 308.26625 
L 122.693182 308.26625 
L 116.151227 308.26625 
L 116.151227 308.26625 
L 109.609273 308.26625 
L 109.609273 308.26625 
L 103.067318 308.26625 
L 103.067318 308.26625 
L 96.525364 308.26625 
L 96.525364 308.26625 
L 89.983409 308.26625 
L 89.983409 308.26625 
L 83.441455 308.26625 
L 83.441455 308.26625 
L 76.8995 308.26625 
L 76.8995 308.26625 
L 70.357545 308.26625 
L 70.357545 308.26625 
L 63.815591 308.26625 
L 63.815591 308.26625 
z
" clip-path="url(#pe3a67d85a2)" style="fill: #1f77b4; opacity: 0.3; stroke: #000000; stroke-linejoin: miter"/>
   </g>
   <g id="matplotlib.axis_1">
    <g id="xtick_1">
     <g id="line2d_1">
      <defs>
       <path id="m6e1526c017" d="M 0 0 
L 0 3.5 
" style="stroke: #000000; stroke-width: 0.8"/>
      </defs>
      <g>
       <use xlink:href="#m6e1526c017" x="42.798836" y="308.26625" style="stroke: #000000; stroke-width: 0.8"/>
      </g>
     </g>
     <g id="text_1">
      <!-- 0 -->
      <g transform="translate(38.981336 324.384375) scale(0.12 -0.12)">
       <defs>
        <path id="DejaVuSans-30" d="M 2034 4250 
Q 1547 4250 1301 3770 
Q 1056 3291 1056 2328 
Q 1056 1369 1301 889 
Q 1547 409 2034 409 
Q 2525 409 2770 889 
Q 3016 1369 3016 2328 
Q 3016 3291 2770 3770 
Q 2525 4250 2034 4250 
z
M 2034 4750 
Q 2819 4750 3233 4129 
Q 3647 3509 3647 2328 
Q 3647 1150 3233 529 
Q 2819 -91 2034 -91 
Q 1250 -91 836 529 
Q 422 1150 422 2328 
Q 422 3509 836 4129 
Q 1250 4750 2034 4750 
z
" transform="scale(0.015625)"/>
       </defs>
       <use xlink:href="#DejaVuSans-30"/>
      </g>
     </g>
    </g>
    <g id="xtick_2">
     <g id="line2d_2">
      <g>
       <use xlink:href="#m6e1526c017" x="89.844651" y="308.26625" style="stroke: #000000; stroke-width: 0.8"/>
      </g>
     </g>
     <g id="text_2">
      <!-- 2 -->
      <g transform="translate(86.027151 324.384375) scale(0.12 -0.12)">
       <defs>
        <path id="DejaVuSans-32" d="M 1228 531 
L 3431 531 
L 3431 0 
L 469 0 
L 469 531 
Q 828 903 1448 1529 
Q 2069 2156 2228 2338 
Q 2531 2678 2651 2914 
Q 2772 3150 2772 3378 
Q 2772 3750 2511 3984 
Q 2250 4219 1831 4219 
Q 1534 4219 1204 4116 
Q 875 4013 500 3803 
L 500 4441 
Q 881 4594 1212 4672 
Q 1544 4750 1819 4750 
Q 2544 4750 2975 4387 
Q 3406 4025 3406 3419 
Q 3406 3131 3298 2873 
Q 3191 2616 2906 2266 
Q 2828 2175 2409 1742 
Q 1991 1309 1228 531 
z
" transform="scale(0.015625)"/>
       </defs>
       <use xlink:href="#DejaVuSans-32"/>
      </g>
     </g>
    </g>
    <g id="xtick_3">
     <g id="line2d_3">
      <g>
       <use xlink:href="#m6e1526c017" x="136.890466" y="308.26625" style="stroke: #000000; stroke-width: 0.8"/>
      </g>
     </g>
     <g id="text_3">
      <!-- 4 -->
      <g transform="translate(133.072966 324.384375) scale(0.12 -0.12)">
       <defs>
        <path id="DejaVuSans-34" d="M 2419 4116 
L 825 1625 
L 2419 1625 
L 2419 4116 
z
M 2253 4666 
L 3047 4666 
L 3047 1625 
L 3713 1625 
L 3713 1100 
L 3047 1100 
L 3047 0 
L 2419 0 
L 2419 1100 
L 313 1100 
L 313 1709 
L 2253 4666 
z
" transform="scale(0.015625)"/>
       </defs>
       <use xlink:href="#DejaVuSans-34"/>
      </g>
     </g>
    </g>
    <g id="xtick_4">
     <g id="line2d_4">
      <g>
       <use xlink:href="#m6e1526c017" x="183.936282" y="308.26625" style="stroke: #000000; stroke-width: 0.8"/>
      </g>
     </g>
     <g id="text_4">
      <!-- 6 -->
      <g transform="translate(180.118782 324.384375) scale(0.12 -0.12)">
       <defs>
        <path id="DejaVuSans-36" d="M 2113 2584 
Q 1688 2584 1439 2293 
Q 1191 2003 1191 1497 
Q 1191 994 1439 701 
Q 1688 409 2113 409 
Q 2538 409 2786 701 
Q 3034 994 3034 1497 
Q 3034 2003 2786 2293 
Q 2538 2584 2113 2584 
z
M 3366 4563 
L 3366 3988 
Q 3128 4100 2886 4159 
Q 2644 4219 2406 4219 
Q 1781 4219 1451 3797 
Q 1122 3375 1075 2522 
Q 1259 2794 1537 2939 
Q 1816 3084 2150 3084 
Q 2853 3084 3261 2657 
Q 3669 2231 3669 1497 
Q 3669 778 3244 343 
Q 2819 -91 2113 -91 
Q 1303 -91 875 529 
Q 447 1150 447 2328 
Q 447 3434 972 4092 
Q 1497 4750 2381 4750 
Q 2619 4750 2861 4703 
Q 3103 4656 3366 4563 
z
" transform="scale(0.015625)"/>
       </defs>
       <use xlink:href="#DejaVuSans-36"/>
      </g>
     </g>
    </g>
    <g id="xtick_5">
     <g id="line2d_5">
      <g>
       <use xlink:href="#m6e1526c017" x="230.982097" y="308.26625" style="stroke: #000000; stroke-width: 0.8"/>
      </g>
     </g>
     <g id="text_5">
      <!-- 8 -->
      <g transform="translate(227.164597 324.384375) scale(0.12 -0.12)">
       <defs>
        <path id="DejaVuSans-38" d="M 2034 2216 
Q 1584 2216 1326 1975 
Q 1069 1734 1069 1313 
Q 1069 891 1326 650 
Q 1584 409 2034 409 
Q 2484 409 2743 651 
Q 3003 894 3003 1313 
Q 3003 1734 2745 1975 
Q 2488 2216 2034 2216 
z
M 1403 2484 
Q 997 2584 770 2862 
Q 544 3141 544 3541 
Q 544 4100 942 4425 
Q 1341 4750 2034 4750 
Q 2731 4750 3128 4425 
Q 3525 4100 3525 3541 
Q 3525 3141 3298 2862 
Q 3072 2584 2669 2484 
Q 3125 2378 3379 2068 
Q 3634 1759 3634 1313 
Q 3634 634 3220 271 
Q 2806 -91 2034 -91 
Q 1263 -91 848 271 
Q 434 634 434 1313 
Q 434 1759 690 2068 
Q 947 2378 1403 2484 
z
M 1172 3481 
Q 1172 3119 1398 2916 
Q 1625 2713 2034 2713 
Q 2441 2713 2670 2916 
Q 2900 3119 2900 3481 
Q 2900 3844 2670 4047 
Q 2441 4250 2034 4250 
Q 1625 4250 1398 4047 
Q 1172 3844 1172 3481 
z
" transform="scale(0.015625)"/>
       </defs>
       <use xlink:href="#DejaVuSans-38"/>
      </g>
     </g>
    </g>
    <g id="xtick_6">
     <g id="line2d_6">
      <g>
       <use xlink:href="#m6e1526c017" x="278.027912" y="308.26625" style="stroke: #000000; stroke-width: 0.8"/>
      </g>
     </g>
     <g id="text_6">
      <!-- 10 -->
      <g transform="translate(270.392912 324.384375) scale(0.12 -0.12)">
       <defs>
        <path id="DejaVuSans-31" d="M 794 531 
L 1825 531 
L 1825 4091 
L 703 3866 
L 703 4441 
L 1819 4666 
L 2450 4666 
L 2450 531 
L 3481 531 
L 3481 0 
L 794 0 
L 794 531 
z
" transform="scale(0.015625)"/>
       </defs>
       <use xlink:href="#DejaVuSans-31"/>
       <use xlink:href="#DejaVuSans-30" transform="translate(63.623047 0)"/>
      </g>
     </g>
    </g>
    <g id="xtick_7">
     <g id="line2d_7">
      <g>
       <use xlink:href="#m6e1526c017" x="325.073727" y="308.26625" style="stroke: #000000; stroke-width: 0.8"/>
      </g>
     </g>
     <g id="text_7">
      <!-- 12 -->
      <g transform="translate(317.438727 324.384375) scale(0.12 -0.12)">
       <use xlink:href="#DejaVuSans-31"/>
       <use xlink:href="#DejaVuSans-32" transform="translate(63.623047 0)"/>
      </g>
     </g>
    </g>
    <g id="xtick_8">
     <g id="line2d_8">
      <g>
       <use xlink:href="#m6e1526c017" x="372.119543" y="308.26625" style="stroke: #000000; stroke-width: 0.8"/>
      </g>
     </g>
     <g id="text_8">
      <!-- 14 -->
      <g transform="translate(364.484543 324.384375) scale(0.12 -0.12)">
       <use xlink:href="#DejaVuSans-31"/>
       <use xlink:href="#DejaVuSans-34" transform="translate(63.623047 0)"/>
      </g>
     </g>
    </g>
   </g>
   <g id="matplotlib.axis_2">
    <g id="ytick_1">
     <g id="line2d_9">
      <defs>
       <path id="m23e2150008" d="M 0 0 
L -3.5 0 
" style="stroke: #000000; stroke-width: 0.8"/>
      </defs>
      <g>
       <use xlink:href="#m23e2150008" x="40.91875" y="308.26625" style="stroke: #000000; stroke-width: 0.8"/>
      </g>
     </g>
     <g id="text_9">
      <!-- 0.00 -->
      <g transform="translate(7.2 312.825312) scale(0.12 -0.12)">
       <defs>
        <path id="DejaVuSans-2e" d="M 684 794 
L 1344 794 
L 1344 0 
L 684 0 
L 684 794 
z
" transform="scale(0.015625)"/>
       </defs>
       <use xlink:href="#DejaVuSans-30"/>
       <use xlink:href="#DejaVuSans-2e" transform="translate(63.623047 0)"/>
       <use xlink:href="#DejaVuSans-30" transform="translate(95.410156 0)"/>
       <use xlink:href="#DejaVuSans-30" transform="translate(159.033203 0)"/>
      </g>
     </g>
    </g>
    <g id="ytick_2">
     <g id="line2d_10">
      <g>
       <use xlink:href="#m23e2150008" x="40.91875" y="250.567584" style="stroke: #000000; stroke-width: 0.8"/>
      </g>
     </g>
     <g id="text_10">
      <!-- 0.05 -->
      <g transform="translate(7.2 255.126646) scale(0.12 -0.12)">
       <defs>
        <path id="DejaVuSans-35" d="M 691 4666 
L 3169 4666 
L 3169 4134 
L 1269 4134 
L 1269 2991 
Q 1406 3038 1543 3061 
Q 1681 3084 1819 3084 
Q 2600 3084 3056 2656 
Q 3513 2228 3513 1497 
Q 3513 744 3044 326 
Q 2575 -91 1722 -91 
Q 1428 -91 1123 -41 
Q 819 9 494 109 
L 494 744 
Q 775 591 1075 516 
Q 1375 441 1709 441 
Q 2250 441 2565 725 
Q 2881 1009 2881 1497 
Q 2881 1984 2565 2268 
Q 2250 2553 1709 2553 
Q 1456 2553 1204 2497 
Q 953 2441 691 2322 
L 691 4666 
z
" transform="scale(0.015625)"/>
       </defs>
       <use xlink:href="#DejaVuSans-30"/>
       <use xlink:href="#DejaVuSans-2e" transform="translate(63.623047 0)"/>
       <use xlink:href="#DejaVuSans-30" transform="translate(95.410156 0)"/>
       <use xlink:href="#DejaVuSans-35" transform="translate(159.033203 0)"/>
      </g>
     </g>
    </g>
    <g id="ytick_3">
     <g id="line2d_11">
      <g>
       <use xlink:href="#m23e2150008" x="40.91875" y="192.868917" style="stroke: #000000; stroke-width: 0.8"/>
      </g>
     </g>
     <g id="text_11">
      <!-- 0.10 -->
      <g transform="translate(7.2 197.42798) scale(0.12 -0.12)">
       <use xlink:href="#DejaVuSans-30"/>
       <use xlink:href="#DejaVuSans-2e" transform="translate(63.623047 0)"/>
       <use xlink:href="#DejaVuSans-31" transform="translate(95.410156 0)"/>
       <use xlink:href="#DejaVuSans-30" transform="translate(159.033203 0)"/>
      </g>
     </g>
    </g>
    <g id="ytick_4">
     <g id="line2d_12">
      <g>
       <use xlink:href="#m23e2150008" x="40.91875" y="135.170251" style="stroke: #000000; stroke-width: 0.8"/>
      </g>
     </g>
     <g id="text_12">
      <!-- 0.15 -->
      <g transform="translate(7.2 139.729313) scale(0.12 -0.12)">
       <use xlink:href="#DejaVuSans-30"/>
       <use xlink:href="#DejaVuSans-2e" transform="translate(63.623047 0)"/>
       <use xlink:href="#DejaVuSans-31" transform="translate(95.410156 0)"/>
       <use xlink:href="#DejaVuSans-35" transform="translate(159.033203 0)"/>
      </g>
     </g>
    </g>
    <g id="ytick_5">
     <g id="line2d_13">
      <g>
       <use xlink:href="#m23e2150008" x="40.91875" y="77.471584" style="stroke: #000000; stroke-width: 0.8"/>
      </g>
     </g>
     <g id="text_13">
      <!-- 0.20 -->
      <g transform="translate(7.2 82.030647) scale(0.12 -0.12)">
       <use xlink:href="#DejaVuSans-30"/>
       <use xlink:href="#DejaVuSans-2e" transform="translate(63.623047 0)"/>
       <use xlink:href="#DejaVuSans-32" transform="translate(95.410156 0)"/>
       <use xlink:href="#DejaVuSans-30" transform="translate(159.033203 0)"/>
      </g>
     </g>
    </g>
    <g id="ytick_6">
     <g id="line2d_14">
      <g>
       <use xlink:href="#m23e2150008" x="40.91875" y="19.772918" style="stroke: #000000; stroke-width: 0.8"/>
      </g>
     </g>
     <g id="text_14">
      <!-- 0.25 -->
      <g transform="translate(7.2 24.331981) scale(0.12 -0.12)">
       <use xlink:href="#DejaVuSans-30"/>
       <use xlink:href="#DejaVuSans-2e" transform="translate(63.623047 0)"/>
       <use xlink:href="#DejaVuSans-32" transform="translate(95.410156 0)"/>
       <use xlink:href="#DejaVuSans-35" transform="translate(159.033203 0)"/>
      </g>
     </g>
    </g>
   </g>
   <g id="patch_4">
    <path d="M 40.91875 308.26625 
L 40.91875 7.2 
" style="fill: none; stroke: #000000; stroke-width: 0.8; stroke-linejoin: miter; stroke-linecap: square"/>
   </g>
   <g id="patch_5">
    <path d="M 400.72625 308.26625 
L 400.72625 7.2 
" style="fill: none; stroke: #000000; stroke-width: 0.8; stroke-linejoin: miter; stroke-linecap: square"/>
   </g>
   <g id="patch_6">
    <path d="M 40.91875 308.26625 
L 400.72625 308.26625 
" style="fill: none; stroke: #000000; stroke-width: 0.8; stroke-linejoin: miter; stroke-linecap: square"/>
   </g>
   <g id="patch_7">
    <path d="M 40.91875 7.2 
L 400.72625 7.2 
" style="fill: none; stroke: #000000; stroke-width: 0.8; stroke-linejoin: miter; stroke-linecap: square"/>
   </g>
  </g>
  <g id="axes_2">
   <g id="matplotlib.axis_3">
    <g id="ytick_7">
     <g id="line2d_15">
      <defs>
       <path id="mfedcf3139f" d="M 0 0 
L 3.5 0 
" style="stroke: #000000; stroke-width: 0.8"/>
      </defs>
      <g>
       <use xlink:href="#mfedcf3139f" x="400.72625" y="307.067533" style="stroke: #000000; stroke-width: 0.8"/>
      </g>
     </g>
     <g id="text_15">
      <!-- 0.000 -->
      <g transform="translate(407.72625 311.626596) scale(0.12 -0.12)">
       <use xlink:href="#DejaVuSans-30"/>
       <use xlink:href="#DejaVuSans-2e" transform="translate(63.623047 0)"/>
       <use xlink:href="#DejaVuSans-30" transform="translate(95.410156 0)"/>
       <use xlink:href="#DejaVuSans-30" transform="translate(159.033203 0)"/>
       <use xlink:href="#DejaVuSans-30" transform="translate(222.65625 0)"/>
      </g>
     </g>
    </g>
    <g id="ytick_8">
     <g id="line2d_16">
      <g>
       <use xlink:href="#mfedcf3139f" x="400.72625" y="267.138656" style="stroke: #000000; stroke-width: 0.8"/>
      </g>
     </g>
     <g id="text_16">
      <!-- 0.025 -->
      <g transform="translate(407.72625 271.697719) scale(0.12 -0.12)">
       <use xlink:href="#DejaVuSans-30"/>
       <use xlink:href="#DejaVuSans-2e" transform="translate(63.623047 0)"/>
       <use xlink:href="#DejaVuSans-30" transform="translate(95.410156 0)"/>
       <use xlink:href="#DejaVuSans-32" transform="translate(159.033203 0)"/>
       <use xlink:href="#DejaVuSans-35" transform="translate(222.65625 0)"/>
      </g>
     </g>
    </g>
    <g id="ytick_9">
     <g id="line2d_17">
      <g>
       <use xlink:href="#mfedcf3139f" x="400.72625" y="227.20978" style="stroke: #000000; stroke-width: 0.8"/>
      </g>
     </g>
     <g id="text_17">
      <!-- 0.050 -->
      <g transform="translate(407.72625 231.768842) scale(0.12 -0.12)">
       <use xlink:href="#DejaVuSans-30"/>
       <use xlink:href="#DejaVuSans-2e" transform="translate(63.623047 0)"/>
       <use xlink:href="#DejaVuSans-30" transform="translate(95.410156 0)"/>
       <use xlink:href="#DejaVuSans-35" transform="translate(159.033203 0)"/>
       <use xlink:href="#DejaVuSans-30" transform="translate(222.65625 0)"/>
      </g>
     </g>
    </g>
    <g id="ytick_10">
     <g id="line2d_18">
      <g>
       <use xlink:href="#mfedcf3139f" x="400.72625" y="187.280903" style="stroke: #000000; stroke-width: 0.8"/>
      </g>
     </g>
     <g id="text_18">
      <!-- 0.075 -->
      <g transform="translate(407.72625 191.839965) scale(0.12 -0.12)">
       <defs>
        <path id="DejaVuSans-37" d="M 525 4666 
L 3525 4666 
L 3525 4397 
L 1831 0 
L 1172 0 
L 2766 4134 
L 525 4134 
L 525 4666 
z
" transform="scale(0.015625)"/>
       </defs>
       <use xlink:href="#DejaVuSans-30"/>
       <use xlink:href="#DejaVuSans-2e" transform="translate(63.623047 0)"/>
       <use xlink:href="#DejaVuSans-30" transform="translate(95.410156 0)"/>
       <use xlink:href="#DejaVuSans-37" transform="translate(159.033203 0)"/>
       <use xlink:href="#DejaVuSans-35" transform="translate(222.65625 0)"/>
      </g>
     </g>
    </g>
    <g id="ytick_11">
     <g id="line2d_19">
      <g>
       <use xlink:href="#mfedcf3139f" x="400.72625" y="147.352026" style="stroke: #000000; stroke-width: 0.8"/>
      </g>
     </g>
     <g id="text_19">
      <!-- 0.100 -->
      <g transform="translate(407.72625 151.911088) scale(0.12 -0.12)">
       <use xlink:href="#DejaVuSans-30"/>
       <use xlink:href="#DejaVuSans-2e" transform="translate(63.623047 0)"/>
       <use xlink:href="#DejaVuSans-31" transform="translate(95.410156 0)"/>
       <use xlink:href="#DejaVuSans-30" transform="translate(159.033203 0)"/>
       <use xlink:href="#DejaVuSans-30" transform="translate(222.65625 0)"/>
      </g>
     </g>
    </g>
    <g id="ytick_12">
     <g id="line2d_20">
      <g>
       <use xlink:href="#mfedcf3139f" x="400.72625" y="107.423149" style="stroke: #000000; stroke-width: 0.8"/>
      </g>
     </g>
     <g id="text_20">
      <!-- 0.125 -->
      <g transform="translate(407.72625 111.982211) scale(0.12 -0.12)">
       <use xlink:href="#DejaVuSans-30"/>
       <use xlink:href="#DejaVuSans-2e" transform="translate(63.623047 0)"/>
       <use xlink:href="#DejaVuSans-31" transform="translate(95.410156 0)"/>
       <use xlink:href="#DejaVuSans-32" transform="translate(159.033203 0)"/>
       <use xlink:href="#DejaVuSans-35" transform="translate(222.65625 0)"/>
      </g>
     </g>
    </g>
    <g id="ytick_13">
     <g id="line2d_21">
      <g>
       <use xlink:href="#mfedcf3139f" x="400.72625" y="67.494272" style="stroke: #000000; stroke-width: 0.8"/>
      </g>
     </g>
     <g id="text_21">
      <!-- 0.150 -->
      <g transform="translate(407.72625 72.053334) scale(0.12 -0.12)">
       <use xlink:href="#DejaVuSans-30"/>
       <use xlink:href="#DejaVuSans-2e" transform="translate(63.623047 0)"/>
       <use xlink:href="#DejaVuSans-31" transform="translate(95.410156 0)"/>
       <use xlink:href="#DejaVuSans-35" transform="translate(159.033203 0)"/>
       <use xlink:href="#DejaVuSans-30" transform="translate(222.65625 0)"/>
      </g>
     </g>
    </g>
    <g id="ytick_14">
     <g id="line2d_22">
      <g>
       <use xlink:href="#mfedcf3139f" x="400.72625" y="27.565395" style="stroke: #000000; stroke-width: 0.8"/>
      </g>
     </g>
     <g id="text_22">
      <!-- 0.175 -->
      <g transform="translate(407.72625 32.124457) scale(0.12 -0.12)">
       <use xlink:href="#DejaVuSans-30"/>
       <use xlink:href="#DejaVuSans-2e" transform="translate(63.623047 0)"/>
       <use xlink:href="#DejaVuSans-31" transform="translate(95.410156 0)"/>
       <use xlink:href="#DejaVuSans-37" transform="translate(159.033203 0)"/>
       <use xlink:href="#DejaVuSans-35" transform="translate(222.65625 0)"/>
      </g>
     </g>
    </g>
   </g>
   <g id="line2d_23">
    <path d="M 61.377315 212.392518 
L 61.675763 209.289753 
L 57.968102 246.812017 
L 57.273636 253.381003 
L 60.040033 226.190214 
L 67.885046 146.626236 
L 70.266074 125.087217 
L 70.075493 126.740319 
L 68.926212 136.976805 
L 72.166146 109.333059 
L 74.372301 92.771276 
L 76.410968 79.167604 
L 77.277265 73.88207 
L 79.637812 60.952378 
L 77.236658 74.123272 
L 79.302223 62.661122 
L 81.437235 52.501295 
L 82.444003 48.282541 
L 80.609851 56.239784 
L 81.876976 50.614526 
L 84.550059 40.585857 
L 82.010049 50.057086 
L 93.697614 22.493194 
L 91.192308 25.250964 
L 92.6677 23.449868 
L 95.815274 21.246321 
L 96.984009 20.943918 
L 97.360668 20.901275 
L 96.224932 21.110448 
L 93.582604 22.588232 
L 96.039499 21.16789 
L 96.914478 20.954654 
L 97.88796 20.88483 
L 96.966629 20.946517 
L 96.004727 21.179406 
L 94.712542 21.778779 
L 95.628085 21.319397 
L 98.68762 20.953245 
L 99.997208 21.296811 
L 101.689226 22.137025 
L 104.122952 24.050657 
L 104.864655 24.783722 
L 106.4118 26.516946 
L 110.78095 32.702885 
L 106.104717 26.151897 
L 107.36793 27.716732 
L 104.65025 24.565053 
L 101.387903 21.956363 
L 105.258678 25.199578 
L 107.564933 27.975442 
L 106.06413 26.104407 
L 109.662554 30.956751 
L 109.077306 30.084877 
L 111.829763 34.429739 
L 108.636931 29.44877 
L 104.934198 24.855809 
L 107.060685 27.320981 
L 101.102138 21.797186 
L 101.664919 22.121969 
L 103.376477 23.381109 
L 102.436565 22.640417 
L 99.906937 21.264246 
L 99.466006 21.123808 
L 100.307285 21.418382 
L 102.297322 22.540757 
L 103.028358 23.093174 
L 104.339595 24.25793 
L 106.300638 26.383634 
L 104.24675 24.1684 
L 105.679827 25.663677 
L 100.835256 21.659395 
L 101.009287 21.748048 
L 99.257137 21.068225 
L 98.201173 20.898427 
L 100.632179 21.561683 
L 101.792542 22.201958 
L 103.567949 23.546146 
L 103.150204 23.192161 
L 104.670305 24.585276 
L 102.424961 22.632011 
L 102.523595 22.704049 
L 113.170085 36.752033 
L 116.999341 43.996006 
L 122.174623 54.863743 
L 116.900714 43.799575 
L 121.787779 54.018979 
L 126.939478 65.565752 
L 126.225093 63.932389 
L 135.692153 85.958822 
L 123.721823 58.283379 
L 133.33411 80.43158 
L 142.89987 102.714959 
L 141.273172 98.966656 
L 147.498978 113.151192 
L 151.823951 122.697459 
L 146.85372 111.703277 
L 142.203263 101.112952 
L 150.568321 119.955797 
L 155.916416 131.449348 
L 155.375788 130.309948 
L 161.293563 142.48882 
L 166.054515 151.800918 
L 162.153887 144.204266 
L 169.007979 157.353218 
L 165.372243 150.493729 
L 157.059522 133.841129 
L 157.792538 135.362286 
L 151.102791 121.125915 
L 158.763962 137.362845 
L 168.100534 155.665714 
L 173.522121 165.504507 
L 173.359233 165.217416 
L 178.740092 174.424418 
L 184.347875 183.421226 
L 186.395487 186.557679 
L 182.701604 180.842365 
L 178.641229 174.260374 
L 167.111634 153.808109 
L 175.895564 169.628195 
L 169.333754 157.955043 
L 178.123516 173.398224 
L 183.236759 181.686308 
L 187.692754 188.504473 
L 183.661643 182.352486 
L 177.96313 173.130072 
L 185.600028 185.348526 
L 188.597709 189.844215 
L 183.079592 181.439018 
L 183.574356 182.215906 
L 178.40549 173.868444 
L 185.105186 184.59038 
L 174.069008 166.464557 
L 171.467117 161.843963 
L 177.602247 172.52487 
L 171.659212 162.189693 
L 167.509015 154.556905 
L 168.184221 155.822025 
L 175.460158 168.880037 
L 174.488128 167.196307 
L 181.065607 178.228521 
L 173.114386 164.784881 
L 168.911785 157.175111 
L 175.011965 168.106004 
L 174.528833 167.26719 
L 178.417111 173.887789 
L 181.95035 179.648435 
L 188.551104 189.775584 
L 194.214744 197.83045 
L 185.733853 185.552774 
L 185.955045 185.88963 
L 184.069109 182.988145 
L 190.149771 192.107273 
L 189.683823 191.432454 
L 192.846421 195.936502 
L 198.257273 203.237711 
L 192.549383 195.521029 
L 188.961586 190.378704 
L 180.091075 176.647096 
L 191.227294 193.652877 
L 190.755501 192.978695 
L 195.065523 198.991639 
L 192.74159 195.790051 
L 185.391231 185.029187 
L 190.341968 192.384486 
L 198.216523 203.184583 
L 203.493416 209.838089 
L 202.608101 208.75318 
L 208.126835 215.317131 
L 199.094076 204.322599 
L 201.296892 207.12338 
L 196.325988 200.689119 
L 198.627881 203.719626 
L 206.565013 213.507053 
L 211.425221 219.020552 
L 205.556843 212.318918 
L 197.543987 202.303743 
L 185.976267 185.921901 
L 179.822337 176.207777 
L 186.47158 186.67273 
L 182.386451 180.342819 
L 176.349118 170.40357 
L 177.543753 172.426535 
L 171.622949 162.124483 
L 159.006275 137.859116 
L 163.918908 147.678661 
L 158.353614 136.519918 
L 150.970077 120.835788 
L 161.098372 142.097632 
L 165.661373 151.048806 
L 169.903837 159.003115 
L 162.654327 145.195529 
L 153.254471 125.789402 
L 160.742906 141.383355 
L 138.62149 92.808485 
L 141.989845 100.621184 
L 123.597185 58.005641 
L 121.607994 53.627885 
L 116.929625 43.857107 
L 122.261344 55.053713 
L 122.243824 55.015316 
L 129.617238 71.749561 
L 129.582243 71.668239 
L 136.220656 87.196874 
L 123.305519 57.357188 
L 119.566304 49.260366 
L 122.943846 56.556057 
L 130.270583 73.269678 
L 145.403044 108.427681 
L 128.228899 68.532753 
L 144.638117 106.689724 
L 152.941708 125.116326 
L 144.276046 105.86462 
L 152.731497 124.663018 
L 154.973818 129.459402 
L 150.652681 120.140789 
L 151.94315 122.956397 
L 143.8848 104.971318 
L 144.35777 106.050991 
L 135.324231 85.096612 
L 136.340259 87.476954 
L 124.749073 60.586016 
L 121.007575 52.329011 
L 129.572069 71.644601 
L 147.244753 112.581417 
L 127.356404 66.522623 
L 141.554776 99.617336 
L 151.637543 122.29205 
L 151.953559 122.978998 
L 157.998508 135.787931 
L 163.809401 147.464867 
L 161.351642 142.605077 
L 167.022103 153.638972 
L 166.208709 152.095071 
L 164.408199 148.631038 
L 174.650634 167.479095 
L 177.203935 171.853942 
L 183.569622 182.208496 
L 185.876932 185.770775 
L 190.878121 193.154299 
L 183.464198 182.043335 
L 186.749527 187.092067 
L 181.256412 178.536012 
L 187.522519 188.250772 
L 191.692121 194.313226 
L 190.134349 192.085 
L 196.798701 201.318742 
L 202.403062 208.500138 
L 201.372346 207.217917 
L 212.504964 220.198524 
L 216.47546 224.389237 
L 227.092697 234.573594 
L 223.578964 231.360264 
L 215.011402 222.869409 
L 202.836415 209.034158 
L 196.259934 200.600837 
L 199.539352 204.895159 
L 190.814332 193.06298 
L 201.051181 206.814889 
L 204.777929 211.390238 
L 198.601847 203.685848 
L 209.512544 216.892495 
L 202.938015 209.158926 
L 198.68974 203.799842 
L 186.61882 186.895048 
L 195.783341 199.961661 
L 187.222341 187.802117 
L 169.54955 158.352534 
L 183.923349 182.761115 
L 157.882921 135.549163 
L 170.112085 159.384356 
L 161.644833 143.190962 
L 167.428334 154.40513 
L 188.810297 190.156772 
L 186.724279 187.054034 
L 193.533258 196.891266 
L 190.890515 193.172034 
L 198.426027 203.457431 
L 197.259938 201.929437 
L 185.230038 184.782097 
L 192.496037 195.446248 
L 185.722255 185.535086 
L 200.072612 205.576559 
L 194.582133 198.333417 
L 200.922292 206.652676 
L 209.184414 216.52203 
L 207.362076 214.435417 
L 215.483554 223.362753 
L 211.000908 218.553052 
L 200.723051 206.401394 
L 212.489283 220.181536 
L 217.686818 225.62475 
L 214.06554 221.871819 
L 208.498811 215.742823 
L 214.921053 222.774654 
L 217.294204 225.226468 
L 221.442864 229.33241 
L 225.913811 233.512135 
L 231.843778 238.687074 
L 225.152035 232.817363 
L 231.023419 237.995202 
L 241.811093 246.518268 
L 249.18845 251.683412 
L 254.362509 255.016869 
L 247.131685 250.293726 
L 241.723199 246.453638 
L 251.967586 253.502177 
L 249.270914 251.738346 
L 254.922217 255.364021 
L 262.443618 259.789398 
L 249.06574 251.601557 
L 252.260743 253.690167 
L 259.969685 258.381786 
L 257.478233 256.917235 
L 268.200469 262.893677 
L 274.285629 265.931192 
L 282.358079 269.608014 
L 278.518234 267.906837 
L 291.708481 273.415835 
L 300.982699 276.769778 
L 297.224982 275.45817 
L 311.130421 280.016877 
L 313.967839 280.853481 
L 332.094218 285.558523 
L 327.498127 284.462658 
L 342.318168 287.787932 
L 338.923824 287.078048 
L 356.422948 290.448024 
L 366.990126 292.170039 
L 379.316515 293.929022 
L 348.095949 288.931807 
L 338.877611 287.068182 
L 322.2353 283.129813 
L 341.047327 287.525538 
L 328.13458 284.618098 
L 327.178701 284.384187 
L 348.553406 289.019049 
L 360.176043 291.084165 
L 362.146373 291.407083 
L 349.19255 289.140147 
L 365.008086 291.863039 
L 377.011863 293.618834 
L 359.407864 290.956233 
L 360.041198 291.061791 
L 351.045644 289.486094 
L 361.577625 291.314634 
L 357.038717 290.55433 
L 336.801733 286.619271 
L 348.189854 288.949755 
L 366.362692 292.07362 
L 374.941908 293.333156 
L 384.371364 294.58142 
L 362.527536 291.468697 
L 342.337438 287.79188 
L 349.112913 289.125108 
" clip-path="url(#pe3a67d85a2)" style="fill: none; stroke: #ff0000; stroke-width: 1.5; stroke-linecap: square"/>
    <defs>
     <path id="me3d16b3c08" d="M 0 3 
C 0.795609 3 1.55874 2.683901 2.12132 2.12132 
C 2.683901 1.55874 3 0.795609 3 0 
C 3 -0.795609 2.683901 -1.55874 2.12132 -2.12132 
C 1.55874 -2.683901 0.795609 -3 0 -3 
C -0.795609 -3 -1.55874 -2.683901 -2.12132 -2.12132 
C -2.683901 -1.55874 -3 -0.795609 -3 0 
C -3 0.795609 -2.683901 1.55874 -2.12132 2.12132 
C -1.55874 2.683901 -0.795609 3 0 3 
z
" style="stroke: #ff0000"/>
    </defs>
    <g clip-path="url(#pe3a67d85a2)">
     <use xlink:href="#me3d16b3c08" x="61.377315" y="212.392518" style="fill: #ffffff; stroke: #ff0000"/>
     <use xlink:href="#me3d16b3c08" x="59.833416" y="228.297761" style="fill: #ffffff; stroke: #ff0000"/>
     <use xlink:href="#me3d16b3c08" x="58.484656" y="241.796378" style="fill: #ffffff; stroke: #ff0000"/>
     <use xlink:href="#me3d16b3c08" x="59.270949" y="233.98749" style="fill: #ffffff; stroke: #ff0000"/>
     <use xlink:href="#me3d16b3c08" x="58.903628" y="237.659004" style="fill: #ffffff; stroke: #ff0000"/>
     <use xlink:href="#me3d16b3c08" x="57.428599" y="251.934191" style="fill: #ffffff; stroke: #ff0000"/>
     <use xlink:href="#me3d16b3c08" x="58.674054" y="239.933182" style="fill: #ffffff; stroke: #ff0000"/>
     <use xlink:href="#me3d16b3c08" x="61.061649" y="215.667883" style="fill: #ffffff; stroke: #ff0000"/>
     <use xlink:href="#me3d16b3c08" x="61.773342" y="208.274403" style="fill: #ffffff; stroke: #ff0000"/>
     <use xlink:href="#me3d16b3c08" x="61.076342" y="215.515619" style="fill: #ffffff; stroke: #ff0000"/>
     <use xlink:href="#me3d16b3c08" x="61.865508" y="207.315097" style="fill: #ffffff; stroke: #ff0000"/>
     <use xlink:href="#me3d16b3c08" x="62.631631" y="199.33848" style="fill: #ffffff; stroke: #ff0000"/>
     <use xlink:href="#me3d16b3c08" x="63.322869" y="192.157496" style="fill: #ffffff; stroke: #ff0000"/>
     <use xlink:href="#me3d16b3c08" x="63.207662" y="193.352212" style="fill: #ffffff; stroke: #ff0000"/>
     <use xlink:href="#me3d16b3c08" x="64.019867" y="184.956411" style="fill: #ffffff; stroke: #ff0000"/>
     <use xlink:href="#me3d16b3c08" x="63.772175" y="187.509495" style="fill: #ffffff; stroke: #ff0000"/>
     <use xlink:href="#me3d16b3c08" x="63.651204" y="188.758948" style="fill: #ffffff; stroke: #ff0000"/>
     <use xlink:href="#me3d16b3c08" x="62.942688" y="196.103619" style="fill: #ffffff; stroke: #ff0000"/>
     <use xlink:href="#me3d16b3c08" x="63.288306" y="192.515805" style="fill: #ffffff; stroke: #ff0000"/>
     <use xlink:href="#me3d16b3c08" x="67.885046" y="146.626236" style="fill: #ffffff; stroke: #ff0000"/>
     <use xlink:href="#me3d16b3c08" x="69.162989" y="134.831144" style="fill: #ffffff; stroke: #ff0000"/>
     <use xlink:href="#me3d16b3c08" x="69.642344" y="130.545055" style="fill: #ffffff; stroke: #ff0000"/>
     <use xlink:href="#me3d16b3c08" x="69.48064" y="131.982153" style="fill: #ffffff; stroke: #ff0000"/>
     <use xlink:href="#me3d16b3c08" x="69.78095" y="129.32042" style="fill: #ffffff; stroke: #ff0000"/>
     <use xlink:href="#me3d16b3c08" x="69.209196" y="134.4146" style="fill: #ffffff; stroke: #ff0000"/>
     <use xlink:href="#me3d16b3c08" x="69.746302" y="129.625922" style="fill: #ffffff; stroke: #ff0000"/>
     <use xlink:href="#me3d16b3c08" x="72.84185" y="104.059255" style="fill: #ffffff; stroke: #ff0000"/>
     <use xlink:href="#me3d16b3c08" x="73.390502" y="99.907196" style="fill: #ffffff; stroke: #ff0000"/>
     <use xlink:href="#me3d16b3c08" x="74.955607" y="88.711461" style="fill: #ffffff; stroke: #ff0000"/>
     <use xlink:href="#me3d16b3c08" x="75.562001" y="84.633362" style="fill: #ffffff; stroke: #ff0000"/>
     <use xlink:href="#me3d16b3c08" x="76.722843" y="77.230915" style="fill: #ffffff; stroke: #ff0000"/>
     <use xlink:href="#me3d16b3c08" x="79.171549" y="63.33795" style="fill: #ffffff; stroke: #ff0000"/>
     <use xlink:href="#me3d16b3c08" x="78.905904" y="64.733784" style="fill: #ffffff; stroke: #ff0000"/>
     <use xlink:href="#me3d16b3c08" x="78.665779" y="66.018586" style="fill: #ffffff; stroke: #ff0000"/>
     <use xlink:href="#me3d16b3c08" x="79.319592" y="62.571645" style="fill: #ffffff; stroke: #ff0000"/>
     <use xlink:href="#me3d16b3c08" x="77.439174" y="72.926726" style="fill: #ffffff; stroke: #ff0000"/>
     <use xlink:href="#me3d16b3c08" x="79.302223" y="62.661122" style="fill: #ffffff; stroke: #ff0000"/>
     <use xlink:href="#me3d16b3c08" x="81.298373" y="53.111455" style="fill: #ffffff; stroke: #ff0000"/>
     <use xlink:href="#me3d16b3c08" x="82.316694" y="48.796302" style="fill: #ffffff; stroke: #ff0000"/>
     <use xlink:href="#me3d16b3c08" x="81.061159" y="54.169838" style="fill: #ffffff; stroke: #ff0000"/>
     <use xlink:href="#me3d16b3c08" x="81.338876" y="52.932768" style="fill: #ffffff; stroke: #ff0000"/>
     <use xlink:href="#me3d16b3c08" x="84.38227" y="41.144784" style="fill: #ffffff; stroke: #ff0000"/>
     <use xlink:href="#me3d16b3c08" x="82.750642" y="47.068205" style="fill: #ffffff; stroke: #ff0000"/>
     <use xlink:href="#me3d16b3c08" x="83.971482" y="42.552161" style="fill: #ffffff; stroke: #ff0000"/>
     <use xlink:href="#me3d16b3c08" x="92.6677" y="23.449868" style="fill: #ffffff; stroke: #ff0000"/>
     <use xlink:href="#me3d16b3c08" x="96.984009" y="20.943918" style="fill: #ffffff; stroke: #ff0000"/>
     <use xlink:href="#me3d16b3c08" x="96.224932" y="21.110448" style="fill: #ffffff; stroke: #ff0000"/>
     <use xlink:href="#me3d16b3c08" x="97.88796" y="20.88483" style="fill: #ffffff; stroke: #ff0000"/>
     <use xlink:href="#me3d16b3c08" x="98.68762" y="20.953245" style="fill: #ffffff; stroke: #ff0000"/>
     <use xlink:href="#me3d16b3c08" x="104.122952" y="24.050657" style="fill: #ffffff; stroke: #ff0000"/>
     <use xlink:href="#me3d16b3c08" x="107.36793" y="27.716732" style="fill: #ffffff; stroke: #ff0000"/>
     <use xlink:href="#me3d16b3c08" x="102.541031" y="22.716921" style="fill: #ffffff; stroke: #ff0000"/>
     <use xlink:href="#me3d16b3c08" x="102.732257" y="22.860782" style="fill: #ffffff; stroke: #ff0000"/>
     <use xlink:href="#me3d16b3c08" x="103.694147" y="23.657471" style="fill: #ffffff; stroke: #ff0000"/>
     <use xlink:href="#me3d16b3c08" x="106.550885" y="26.68559" style="fill: #ffffff; stroke: #ff0000"/>
     <use xlink:href="#me3d16b3c08" x="110.775145" y="32.693562" style="fill: #ffffff; stroke: #ff0000"/>
     <use xlink:href="#me3d16b3c08" x="105.600565" y="25.574808" style="fill: #ffffff; stroke: #ff0000"/>
     <use xlink:href="#me3d16b3c08" x="107.159313" y="27.446983" style="fill: #ffffff; stroke: #ff0000"/>
     <use xlink:href="#me3d16b3c08" x="101.676517" y="22.129143" style="fill: #ffffff; stroke: #ff0000"/>
     <use xlink:href="#me3d16b3c08" x="100.086806" y="21.330399" style="fill: #ffffff; stroke: #ff0000"/>
     <use xlink:href="#me3d16b3c08" x="101.850576" y="22.239095" style="fill: #ffffff; stroke: #ff0000"/>
     <use xlink:href="#me3d16b3c08" x="104.24675" y="24.1684" style="fill: #ffffff; stroke: #ff0000"/>
     <use xlink:href="#me3d16b3c08" x="105.279507" y="25.222059" style="fill: #ffffff; stroke: #ff0000"/>
     <use xlink:href="#me3d16b3c08" x="101.270381" y="21.889457" style="fill: #ffffff; stroke: #ff0000"/>
     <use xlink:href="#me3d16b3c08" x="99.727084" y="21.20321" style="fill: #ffffff; stroke: #ff0000"/>
     <use xlink:href="#me3d16b3c08" x="100.632179" y="21.561683" style="fill: #ffffff; stroke: #ff0000"/>
     <use xlink:href="#me3d16b3c08" x="103.150204" y="23.192161" style="fill: #ffffff; stroke: #ff0000"/>
     <use xlink:href="#me3d16b3c08" x="103.283637" y="23.302781" style="fill: #ffffff; stroke: #ff0000"/>
     <use xlink:href="#me3d16b3c08" x="113.170085" y="36.752033" style="fill: #ffffff; stroke: #ff0000"/>
     <use xlink:href="#me3d16b3c08" x="116.900714" y="43.799575" style="fill: #ffffff; stroke: #ff0000"/>
     <use xlink:href="#me3d16b3c08" x="123.280433" y="57.301514" style="fill: #ffffff; stroke: #ff0000"/>
     <use xlink:href="#me3d16b3c08" x="126.643264" y="64.887506" style="fill: #ffffff; stroke: #ff0000"/>
     <use xlink:href="#me3d16b3c08" x="135.692153" y="85.958822" style="fill: #ffffff; stroke: #ff0000"/>
     <use xlink:href="#me3d16b3c08" x="131.295494" y="75.660595" style="fill: #ffffff; stroke: #ff0000"/>
     <use xlink:href="#me3d16b3c08" x="134.780311" y="83.821635" style="fill: #ffffff; stroke: #ff0000"/>
     <use xlink:href="#me3d16b3c08" x="127.990748" y="67.983108" style="fill: #ffffff; stroke: #ff0000"/>
     <use xlink:href="#me3d16b3c08" x="128.03719" y="68.090241" style="fill: #ffffff; stroke: #ff0000"/>
     <use xlink:href="#me3d16b3c08" x="138.60194" y="92.762902" style="fill: #ffffff; stroke: #ff0000"/>
     <use xlink:href="#me3d16b3c08" x="140.431501" y="97.017778" style="fill: #ffffff; stroke: #ff0000"/>
     <use xlink:href="#me3d16b3c08" x="138.276737" y="92.004342" style="fill: #ffffff; stroke: #ff0000"/>
     <use xlink:href="#me3d16b3c08" x="139.914551" y="95.817949" style="fill: #ffffff; stroke: #ff0000"/>
     <use xlink:href="#me3d16b3c08" x="133.380569" y="80.540454" style="fill: #ffffff; stroke: #ff0000"/>
     <use xlink:href="#me3d16b3c08" x="136.598207" y="88.080862" style="fill: #ffffff; stroke: #ff0000"/>
     <use xlink:href="#me3d16b3c08" x="138.023646" y="91.413587" style="fill: #ffffff; stroke: #ff0000"/>
     <use xlink:href="#me3d16b3c08" x="141.889345" y="100.389454" style="fill: #ffffff; stroke: #ff0000"/>
     <use xlink:href="#me3d16b3c08" x="141.04063" y="98.428808" style="fill: #ffffff; stroke: #ff0000"/>
     <use xlink:href="#me3d16b3c08" x="151.823951" y="122.697459" style="fill: #ffffff; stroke: #ff0000"/>
     <use xlink:href="#me3d16b3c08" x="142.203263" y="101.112952" style="fill: #ffffff; stroke: #ff0000"/>
     <use xlink:href="#me3d16b3c08" x="146.85372" y="111.703277" style="fill: #ffffff; stroke: #ff0000"/>
     <use xlink:href="#me3d16b3c08" x="150.568321" y="119.955797" style="fill: #ffffff; stroke: #ff0000"/>
     <use xlink:href="#me3d16b3c08" x="157.857975" y="135.497601" style="fill: #ffffff; stroke: #ff0000"/>
     <use xlink:href="#me3d16b3c08" x="157.096447" y="133.917993" style="fill: #ffffff; stroke: #ff0000"/>
     <use xlink:href="#me3d16b3c08" x="161.293563" y="142.48882" style="fill: #ffffff; stroke: #ff0000"/>
     <use xlink:href="#me3d16b3c08" x="164.659372" y="149.118107" style="fill: #ffffff; stroke: #ff0000"/>
     <use xlink:href="#me3d16b3c08" x="166.403295" y="152.465605" style="fill: #ffffff; stroke: #ff0000"/>
     <use xlink:href="#me3d16b3c08" x="167.246188" y="154.062004" style="fill: #ffffff; stroke: #ff0000"/>
     <use xlink:href="#me3d16b3c08" x="165.372243" y="150.493729" style="fill: #ffffff; stroke: #ff0000"/>
     <use xlink:href="#me3d16b3c08" x="152.01027" y="123.102101" style="fill: #ffffff; stroke: #ff0000"/>
     <use xlink:href="#me3d16b3c08" x="153.813551" y="126.988397" style="fill: #ffffff; stroke: #ff0000"/>
     <use xlink:href="#me3d16b3c08" x="156.879204" y="133.46542" style="fill: #ffffff; stroke: #ff0000"/>
     <use xlink:href="#me3d16b3c08" x="157.495836" y="134.747763" style="fill: #ffffff; stroke: #ff0000"/>
     <use xlink:href="#me3d16b3c08" x="167.047632" y="153.687216" style="fill: #ffffff; stroke: #ff0000"/>
     <use xlink:href="#me3d16b3c08" x="173.149842" y="164.847589" style="fill: #ffffff; stroke: #ff0000"/>
     <use xlink:href="#me3d16b3c08" x="176.657529" y="170.928507" style="fill: #ffffff; stroke: #ff0000"/>
     <use xlink:href="#me3d16b3c08" x="184.347875" y="183.421226" style="fill: #ffffff; stroke: #ff0000"/>
     <use xlink:href="#me3d16b3c08" x="178.641229" y="174.260374" style="fill: #ffffff; stroke: #ff0000"/>
     <use xlink:href="#me3d16b3c08" x="177.803563" y="172.862791" style="fill: #ffffff; stroke: #ff0000"/>
     <use xlink:href="#me3d16b3c08" x="184.644509" y="183.880459" style="fill: #ffffff; stroke: #ff0000"/>
     <use xlink:href="#me3d16b3c08" x="186.327604" y="186.454951" style="fill: #ffffff; stroke: #ff0000"/>
     <use xlink:href="#me3d16b3c08" x="179.965506" y="176.441995" style="fill: #ffffff; stroke: #ff0000"/>
     <use xlink:href="#me3d16b3c08" x="188.178623" y="189.225642" style="fill: #ffffff; stroke: #ff0000"/>
     <use xlink:href="#me3d16b3c08" x="183.079592" y="181.439018" style="fill: #ffffff; stroke: #ff0000"/>
     <use xlink:href="#me3d16b3c08" x="185.105186" y="184.59038" style="fill: #ffffff; stroke: #ff0000"/>
     <use xlink:href="#me3d16b3c08" x="173.970089" y="166.291345" style="fill: #ffffff; stroke: #ff0000"/>
     <use xlink:href="#me3d16b3c08" x="175.460158" y="168.880037" style="fill: #ffffff; stroke: #ff0000"/>
     <use xlink:href="#me3d16b3c08" x="181.065607" y="178.228521" style="fill: #ffffff; stroke: #ff0000"/>
     <use xlink:href="#me3d16b3c08" x="171.554472" y="162.001274" style="fill: #ffffff; stroke: #ff0000"/>
     <use xlink:href="#me3d16b3c08" x="175.011965" y="168.106004" style="fill: #ffffff; stroke: #ff0000"/>
     <use xlink:href="#me3d16b3c08" x="188.551104" y="189.775584" style="fill: #ffffff; stroke: #ff0000"/>
     <use xlink:href="#me3d16b3c08" x="185.733853" y="185.552774" style="fill: #ffffff; stroke: #ff0000"/>
     <use xlink:href="#me3d16b3c08" x="184.069109" y="182.988145" style="fill: #ffffff; stroke: #ff0000"/>
     <use xlink:href="#me3d16b3c08" x="190.149771" y="192.107273" style="fill: #ffffff; stroke: #ff0000"/>
     <use xlink:href="#me3d16b3c08" x="197.2322" y="201.892811" style="fill: #ffffff; stroke: #ff0000"/>
     <use xlink:href="#me3d16b3c08" x="195.63047" y="199.75582" style="fill: #ffffff; stroke: #ff0000"/>
     <use xlink:href="#me3d16b3c08" x="195.578066" y="199.685165" style="fill: #ffffff; stroke: #ff0000"/>
     <use xlink:href="#me3d16b3c08" x="180.091075" y="176.647096" style="fill: #ffffff; stroke: #ff0000"/>
     <use xlink:href="#me3d16b3c08" x="184.17395" y="183.151195" style="fill: #ffffff; stroke: #ff0000"/>
     <use xlink:href="#me3d16b3c08" x="189.124675" y="190.61748" style="fill: #ffffff; stroke: #ff0000"/>
     <use xlink:href="#me3d16b3c08" x="189.590624" y="191.297007" style="fill: #ffffff; stroke: #ff0000"/>
     <use xlink:href="#me3d16b3c08" x="191.227294" y="193.652877" style="fill: #ffffff; stroke: #ff0000"/>
     <use xlink:href="#me3d16b3c08" x="188.76939" y="190.096693" style="fill: #ffffff; stroke: #ff0000"/>
     <use xlink:href="#me3d16b3c08" x="192.170823" y="194.989275" style="fill: #ffffff; stroke: #ff0000"/>
     <use xlink:href="#me3d16b3c08" x="192.74159" y="195.790051" style="fill: #ffffff; stroke: #ff0000"/>
     <use xlink:href="#me3d16b3c08" x="198.216523" y="203.184583" style="fill: #ffffff; stroke: #ff0000"/>
     <use xlink:href="#me3d16b3c08" x="204.694377" y="211.290062" style="fill: #ffffff; stroke: #ff0000"/>
     <use xlink:href="#me3d16b3c08" x="201.226968" y="207.035689" style="fill: #ffffff; stroke: #ff0000"/>
     <use xlink:href="#me3d16b3c08" x="203.890181" y="210.320284" style="fill: #ffffff; stroke: #ff0000"/>
     <use xlink:href="#me3d16b3c08" x="196.325988" y="200.689119" style="fill: #ffffff; stroke: #ff0000"/>
     <use xlink:href="#me3d16b3c08" x="206.565013" y="213.507053" style="fill: #ffffff; stroke: #ff0000"/>
     <use xlink:href="#me3d16b3c08" x="200.061451" y="205.562346" style="fill: #ffffff; stroke: #ff0000"/>
     <use xlink:href="#me3d16b3c08" x="186.47158" y="186.67273" style="fill: #ffffff; stroke: #ff0000"/>
     <use xlink:href="#me3d16b3c08" x="176.349118" y="170.40357" style="fill: #ffffff; stroke: #ff0000"/>
     <use xlink:href="#me3d16b3c08" x="158.353614" y="136.519918" style="fill: #ffffff; stroke: #ff0000"/>
     <use xlink:href="#me3d16b3c08" x="168.04481" y="155.561555" style="fill: #ffffff; stroke: #ff0000"/>
     <use xlink:href="#me3d16b3c08" x="162.654327" y="145.195529" style="fill: #ffffff; stroke: #ff0000"/>
     <use xlink:href="#me3d16b3c08" x="138.62149" y="92.808485" style="fill: #ffffff; stroke: #ff0000"/>
     <use xlink:href="#me3d16b3c08" x="131.9897" y="77.283468" style="fill: #ffffff; stroke: #ff0000"/>
     <use xlink:href="#me3d16b3c08" x="141.989845" y="100.621184" style="fill: #ffffff; stroke: #ff0000"/>
     <use xlink:href="#me3d16b3c08" x="129.2439" y="70.882596" style="fill: #ffffff; stroke: #ff0000"/>
     <use xlink:href="#me3d16b3c08" x="128.514731" y="69.19334" style="fill: #ffffff; stroke: #ff0000"/>
     <use xlink:href="#me3d16b3c08" x="120.441322" y="51.114762" style="fill: #ffffff; stroke: #ff0000"/>
     <use xlink:href="#me3d16b3c08" x="117.460444" y="44.920456" style="fill: #ffffff; stroke: #ff0000"/>
     <use xlink:href="#me3d16b3c08" x="127.517211" y="66.892347" style="fill: #ffffff; stroke: #ff0000"/>
     <use xlink:href="#me3d16b3c08" x="131.303087" y="75.678334" style="fill: #ffffff; stroke: #ff0000"/>
     <use xlink:href="#me3d16b3c08" x="136.220656" y="87.196874" style="fill: #ffffff; stroke: #ff0000"/>
     <use xlink:href="#me3d16b3c08" x="127.225552" y="66.222036" style="fill: #ffffff; stroke: #ff0000"/>
     <use xlink:href="#me3d16b3c08" x="129.23224" y="70.855541" style="fill: #ffffff; stroke: #ff0000"/>
     <use xlink:href="#me3d16b3c08" x="134.581463" y="83.355472" style="fill: #ffffff; stroke: #ff0000"/>
     <use xlink:href="#me3d16b3c08" x="135.368974" y="85.201477" style="fill: #ffffff; stroke: #ff0000"/>
     <use xlink:href="#me3d16b3c08" x="134.349055" y="82.810624" style="fill: #ffffff; stroke: #ff0000"/>
     <use xlink:href="#me3d16b3c08" x="136.895009" y="88.775468" style="fill: #ffffff; stroke: #ff0000"/>
     <use xlink:href="#me3d16b3c08" x="141.455588" y="99.388231" style="fill: #ffffff; stroke: #ff0000"/>
     <use xlink:href="#me3d16b3c08" x="144.276046" y="105.86462" style="fill: #ffffff; stroke: #ff0000"/>
     <use xlink:href="#me3d16b3c08" x="149.239535" y="117.027287" style="fill: #ffffff; stroke: #ff0000"/>
     <use xlink:href="#me3d16b3c08" x="154.792805" y="129.075453" style="fill: #ffffff; stroke: #ff0000"/>
     <use xlink:href="#me3d16b3c08" x="150.652681" y="120.140789" style="fill: #ffffff; stroke: #ff0000"/>
     <use xlink:href="#me3d16b3c08" x="154.138765" y="127.683369" style="fill: #ffffff; stroke: #ff0000"/>
     <use xlink:href="#me3d16b3c08" x="148.492106" y="115.368236" style="fill: #ffffff; stroke: #ff0000"/>
     <use xlink:href="#me3d16b3c08" x="143.8848" y="104.971318" style="fill: #ffffff; stroke: #ff0000"/>
     <use xlink:href="#me3d16b3c08" x="137.420585" y="90.004664" style="fill: #ffffff; stroke: #ff0000"/>
     <use xlink:href="#me3d16b3c08" x="133.344665" y="80.456314" style="fill: #ffffff; stroke: #ff0000"/>
     <use xlink:href="#me3d16b3c08" x="124.749073" y="60.586016" style="fill: #ffffff; stroke: #ff0000"/>
     <use xlink:href="#me3d16b3c08" x="125.392126" y="62.038853" style="fill: #ffffff; stroke: #ff0000"/>
     <use xlink:href="#me3d16b3c08" x="128.268398" y="68.623982" style="fill: #ffffff; stroke: #ff0000"/>
     <use xlink:href="#me3d16b3c08" x="132.313882" y="78.042053" style="fill: #ffffff; stroke: #ff0000"/>
     <use xlink:href="#me3d16b3c08" x="135.903367" y="86.453681" style="fill: #ffffff; stroke: #ff0000"/>
     <use xlink:href="#me3d16b3c08" x="137.943649" y="91.226793" style="fill: #ffffff; stroke: #ff0000"/>
     <use xlink:href="#me3d16b3c08" x="140.007312" y="96.033396" style="fill: #ffffff; stroke: #ff0000"/>
     <use xlink:href="#me3d16b3c08" x="142.287287" y="101.306442" style="fill: #ffffff; stroke: #ff0000"/>
     <use xlink:href="#me3d16b3c08" x="144.158013" y="105.595312" style="fill: #ffffff; stroke: #ff0000"/>
     <use xlink:href="#me3d16b3c08" x="139.212257" y="94.184809" style="fill: #ffffff; stroke: #ff0000"/>
     <use xlink:href="#me3d16b3c08" x="135.318763" y="85.083796" style="fill: #ffffff; stroke: #ff0000"/>
     <use xlink:href="#me3d16b3c08" x="129.770844" y="72.10663" style="fill: #ffffff; stroke: #ff0000"/>
     <use xlink:href="#me3d16b3c08" x="143.047279" y="103.05332" style="fill: #ffffff; stroke: #ff0000"/>
     <use xlink:href="#me3d16b3c08" x="140.524868" y="97.234258" style="fill: #ffffff; stroke: #ff0000"/>
     <use xlink:href="#me3d16b3c08" x="147.342293" y="112.800132" style="fill: #ffffff; stroke: #ff0000"/>
     <use xlink:href="#me3d16b3c08" x="149.267532" y="117.089268" style="fill: #ffffff; stroke: #ff0000"/>
     <use xlink:href="#me3d16b3c08" x="143.854582" y="104.902252" style="fill: #ffffff; stroke: #ff0000"/>
     <use xlink:href="#me3d16b3c08" x="143.31033" y="103.656555" style="fill: #ffffff; stroke: #ff0000"/>
     <use xlink:href="#me3d16b3c08" x="149.285131" y="117.128224" style="fill: #ffffff; stroke: #ff0000"/>
     <use xlink:href="#me3d16b3c08" x="151.637543" y="122.29205" style="fill: #ffffff; stroke: #ff0000"/>
     <use xlink:href="#me3d16b3c08" x="154.270874" y="127.965158" style="fill: #ffffff; stroke: #ff0000"/>
     <use xlink:href="#me3d16b3c08" x="162.49274" y="144.875993" style="fill: #ffffff; stroke: #ff0000"/>
     <use xlink:href="#me3d16b3c08" x="161.351642" y="142.605077" style="fill: #ffffff; stroke: #ff0000"/>
     <use xlink:href="#me3d16b3c08" x="164.388738" y="148.593248" style="fill: #ffffff; stroke: #ff0000"/>
     <use xlink:href="#me3d16b3c08" x="162.287937" y="144.470265" style="fill: #ffffff; stroke: #ff0000"/>
     <use xlink:href="#me3d16b3c08" x="166.208709" y="152.095071" style="fill: #ffffff; stroke: #ff0000"/>
     <use xlink:href="#me3d16b3c08" x="165.339333" y="150.430444" style="fill: #ffffff; stroke: #ff0000"/>
     <use xlink:href="#me3d16b3c08" x="167.049314" y="153.690395" style="fill: #ffffff; stroke: #ff0000"/>
     <use xlink:href="#me3d16b3c08" x="174.650634" y="167.479095" style="fill: #ffffff; stroke: #ff0000"/>
     <use xlink:href="#me3d16b3c08" x="182.656019" y="180.770226" style="fill: #ffffff; stroke: #ff0000"/>
     <use xlink:href="#me3d16b3c08" x="180.594678" y="177.466604" style="fill: #ffffff; stroke: #ff0000"/>
     <use xlink:href="#me3d16b3c08" x="183.569622" y="182.208496" style="fill: #ffffff; stroke: #ff0000"/>
     <use xlink:href="#me3d16b3c08" x="186.608961" y="186.880174" style="fill: #ffffff; stroke: #ff0000"/>
     <use xlink:href="#me3d16b3c08" x="190.878121" y="193.154299" style="fill: #ffffff; stroke: #ff0000"/>
     <use xlink:href="#me3d16b3c08" x="186.749527" y="187.092067" style="fill: #ffffff; stroke: #ff0000"/>
     <use xlink:href="#me3d16b3c08" x="191.692121" y="194.313226" style="fill: #ffffff; stroke: #ff0000"/>
     <use xlink:href="#me3d16b3c08" x="201.372346" y="207.217917" style="fill: #ffffff; stroke: #ff0000"/>
     <use xlink:href="#me3d16b3c08" x="215.011402" y="222.869409" style="fill: #ffffff; stroke: #ff0000"/>
     <use xlink:href="#me3d16b3c08" x="201.051181" y="206.814889" style="fill: #ffffff; stroke: #ff0000"/>
     <use xlink:href="#me3d16b3c08" x="198.68974" y="203.799842" style="fill: #ffffff; stroke: #ff0000"/>
     <use xlink:href="#me3d16b3c08" x="183.923349" y="182.761115" style="fill: #ffffff; stroke: #ff0000"/>
     <use xlink:href="#me3d16b3c08" x="163.361735" y="146.588443" style="fill: #ffffff; stroke: #ff0000"/>
     <use xlink:href="#me3d16b3c08" x="190.890515" y="193.172034" style="fill: #ffffff; stroke: #ff0000"/>
     <use xlink:href="#me3d16b3c08" x="185.722255" y="185.535086" style="fill: #ffffff; stroke: #ff0000"/>
     <use xlink:href="#me3d16b3c08" x="200.922292" y="206.652676" style="fill: #ffffff; stroke: #ff0000"/>
     <use xlink:href="#me3d16b3c08" x="211.000908" y="218.553052" style="fill: #ffffff; stroke: #ff0000"/>
     <use xlink:href="#me3d16b3c08" x="216.878169" y="224.802169" style="fill: #ffffff; stroke: #ff0000"/>
     <use xlink:href="#me3d16b3c08" x="213.485429" y="221.253812" style="fill: #ffffff; stroke: #ff0000"/>
     <use xlink:href="#me3d16b3c08" x="231.843778" y="238.687074" style="fill: #ffffff; stroke: #ff0000"/>
     <use xlink:href="#me3d16b3c08" x="247.893472" y="250.812851" style="fill: #ffffff; stroke: #ff0000"/>
     <use xlink:href="#me3d16b3c08" x="247.131685" y="250.293726" style="fill: #ffffff; stroke: #ff0000"/>
     <use xlink:href="#me3d16b3c08" x="249.651337" y="251.990994" style="fill: #ffffff; stroke: #ff0000"/>
     <use xlink:href="#me3d16b3c08" x="254.922217" y="255.364021" style="fill: #ffffff; stroke: #ff0000"/>
     <use xlink:href="#me3d16b3c08" x="255.449801" y="255.688912" style="fill: #ffffff; stroke: #ff0000"/>
     <use xlink:href="#me3d16b3c08" x="264.395777" y="260.86836" style="fill: #ffffff; stroke: #ff0000"/>
     <use xlink:href="#me3d16b3c08" x="265.515485" y="261.474896" style="fill: #ffffff; stroke: #ff0000"/>
     <use xlink:href="#me3d16b3c08" x="282.358079" y="269.608014" style="fill: #ffffff; stroke: #ff0000"/>
     <use xlink:href="#me3d16b3c08" x="282.621849" y="269.721811" style="fill: #ffffff; stroke: #ff0000"/>
     <use xlink:href="#me3d16b3c08" x="287.581379" y="271.791211" style="fill: #ffffff; stroke: #ff0000"/>
     <use xlink:href="#me3d16b3c08" x="288.208656" y="272.043695" style="fill: #ffffff; stroke: #ff0000"/>
     <use xlink:href="#me3d16b3c08" x="307.466475" y="278.891832" style="fill: #ffffff; stroke: #ff0000"/>
     <use xlink:href="#me3d16b3c08" x="311.065993" y="279.997536" style="fill: #ffffff; stroke: #ff0000"/>
     <use xlink:href="#me3d16b3c08" x="327.439554" y="284.448292" style="fill: #ffffff; stroke: #ff0000"/>
     <use xlink:href="#me3d16b3c08" x="342.318168" y="287.787932" style="fill: #ffffff; stroke: #ff0000"/>
     <use xlink:href="#me3d16b3c08" x="379.316515" y="293.929022" style="fill: #ffffff; stroke: #ff0000"/>
     <use xlink:href="#me3d16b3c08" x="331.588529" y="285.44093" style="fill: #ffffff; stroke: #ff0000"/>
     <use xlink:href="#me3d16b3c08" x="335.148003" y="286.253507" style="fill: #ffffff; stroke: #ff0000"/>
     <use xlink:href="#me3d16b3c08" x="332.438769" y="285.638231" style="fill: #ffffff; stroke: #ff0000"/>
     <use xlink:href="#me3d16b3c08" x="362.146373" y="291.407083" style="fill: #ffffff; stroke: #ff0000"/>
     <use xlink:href="#me3d16b3c08" x="367.406508" y="292.233638" style="fill: #ffffff; stroke: #ff0000"/>
     <use xlink:href="#me3d16b3c08" x="370.485172" y="292.694463" style="fill: #ffffff; stroke: #ff0000"/>
     <use xlink:href="#me3d16b3c08" x="356.200186" y="290.409376" style="fill: #ffffff; stroke: #ff0000"/>
     <use xlink:href="#me3d16b3c08" x="348.29538" y="288.969899" style="fill: #ffffff; stroke: #ff0000"/>
     <use xlink:href="#me3d16b3c08" x="374.941908" y="293.333156" style="fill: #ffffff; stroke: #ff0000"/>
     <use xlink:href="#me3d16b3c08" x="358.446175" y="290.79444" style="fill: #ffffff; stroke: #ff0000"/>
     <use xlink:href="#me3d16b3c08" x="358.059135" y="290.728807" style="fill: #ffffff; stroke: #ff0000"/>
     <use xlink:href="#me3d16b3c08" x="353.860337" y="289.997229" style="fill: #ffffff; stroke: #ff0000"/>
     <use xlink:href="#me3d16b3c08" x="360.920915" y="291.207119" style="fill: #ffffff; stroke: #ff0000"/>
     <use xlink:href="#me3d16b3c08" x="348.133367" y="288.938961" style="fill: #ffffff; stroke: #ff0000"/>
     <use xlink:href="#me3d16b3c08" x="354.204552" y="290.058577" style="fill: #ffffff; stroke: #ff0000"/>
     <use xlink:href="#me3d16b3c08" x="345.476155" y="288.422921" style="fill: #ffffff; stroke: #ff0000"/>
    </g>
   </g>
   <g id="patch_8">
    <path d="M 40.91875 308.26625 
L 40.91875 7.2 
" style="fill: none; stroke: #000000; stroke-width: 0.8; stroke-linejoin: miter; stroke-linecap: square"/>
   </g>
   <g id="patch_9">
    <path d="M 400.72625 308.26625 
L 400.72625 7.2 
" style="fill: none; stroke: #000000; stroke-width: 0.8; stroke-linejoin: miter; stroke-linecap: square"/>
   </g>
   <g id="patch_10">
    <path d="M 40.91875 308.26625 
L 400.72625 308.26625 
" style="fill: none; stroke: #000000; stroke-width: 0.8; stroke-linejoin: miter; stroke-linecap: square"/>
   </g>
   <g id="patch_11">
    <path d="M 40.91875 7.2 
L 400.72625 7.2 
" style="fill: none; stroke: #000000; stroke-width: 0.8; stroke-linejoin: miter; stroke-linecap: square"/>
   </g>
  </g>
 </g>
 <defs>
  <clipPath id="pe3a67d85a2">
   <rect x="40.91875" y="7.2" width="359.8075" height="301.06625"/>
  </clipPath>
 </defs>
</svg>
