<?xml version="1.0" encoding="utf-8" standalone="no"?>
<!DOCTYPE svg PUBLIC "-//W3C//DTD SVG 1.1//EN"
  "http://www.w3.org/Graphics/SVG/1.1/DTD/svg11.dtd">
<svg xmlns:xlink="http://www.w3.org/1999/xlink" width="565.92pt" height="230.735625pt" viewBox="0 0 565.92 230.735625" xmlns="http://www.w3.org/2000/svg" version="1.1">
 <metadata>
  <rdf:RDF xmlns:dc="http://purl.org/dc/elements/1.1/" xmlns:cc="http://creativecommons.org/ns#" xmlns:rdf="http://www.w3.org/1999/02/22-rdf-syntax-ns#">
   <cc:Work>
    <dc:type rdf:resource="http://purl.org/dc/dcmitype/StillImage"/>
    <dc:date>2025-01-24T16:08:56.518342</dc:date>
    <dc:format>image/svg+xml</dc:format>
    <dc:creator>
     <cc:Agent>
      <dc:title>Matplotlib v3.10.0, https://matplotlib.org/</dc:title>
     </cc:Agent>
    </dc:creator>
   </cc:Work>
  </rdf:RDF>
 </metadata>
 <defs>
  <style type="text/css">*{stroke-linejoin: round; stroke-linecap: butt}</style>
 </defs>
 <g id="figure_1">
  <g id="patch_1">
   <path d="M 0 230.735625 
L 565.92 230.735625 
L 565.92 0 
L 0 0 
z
" style="fill: #ffffff"/>
  </g>
  <g id="axes_1">
   <g id="patch_2">
    <path d="M 57.8 177.32 
L 558.72 177.32 
L 558.72 7.2 
L 57.8 7.2 
z
" style="fill: #ffffff"/>
   </g>
   <g id="matplotlib.axis_1">
    <g id="xtick_1">
     <g id="line2d_1">
      <defs>
       <path id="m4c249fb348" d="M 0 0 
L 0 3.5 
" style="stroke: #000000"/>
      </defs>
      <g>
       <use xlink:href="#m4c249fb348" x="79.56935" y="177.32" style="stroke: #000000"/>
      </g>
     </g>
     <g id="text_1">
      <!-- 2016 -->
      <g transform="translate(64.29935 193.438125) scale(0.12 -0.12)">
       <defs>
        <path id="DejaVuSans-32" d="M 1228 531 
L 3431 531 
L 3431 0 
L 469 0 
L 469 531 
Q 828 903 1448 1529 
Q 2069 2156 2228 2338 
Q 2531 2678 2651 2914 
Q 2772 3150 2772 3378 
Q 2772 3750 2511 3984 
Q 2250 4219 1831 4219 
Q 1534 4219 1204 4116 
Q 875 4013 500 3803 
L 500 4441 
Q 881 4594 1212 4672 
Q 1544 4750 1819 4750 
Q 2544 4750 2975 4387 
Q 3406 4025 3406 3419 
Q 3406 3131 3298 2873 
Q 3191 2616 2906 2266 
Q 2828 2175 2409 1742 
Q 1991 1309 1228 531 
z
" transform="scale(0.015625)"/>
        <path id="DejaVuSans-30" d="M 2034 4250 
Q 1547 4250 1301 3770 
Q 1056 3291 1056 2328 
Q 1056 1369 1301 889 
Q 1547 409 2034 409 
Q 2525 409 2770 889 
Q 3016 1369 3016 2328 
Q 3016 3291 2770 3770 
Q 2525 4250 2034 4250 
z
M 2034 4750 
Q 2819 4750 3233 4129 
Q 3647 3509 3647 2328 
Q 3647 1150 3233 529 
Q 2819 -91 2034 -91 
Q 1250 -91 836 529 
Q 422 1150 422 2328 
Q 422 3509 836 4129 
Q 1250 4750 2034 4750 
z
" transform="scale(0.015625)"/>
        <path id="DejaVuSans-31" d="M 794 531 
L 1825 531 
L 1825 4091 
L 703 3866 
L 703 4441 
L 1819 4666 
L 2450 4666 
L 2450 531 
L 3481 531 
L 3481 0 
L 794 0 
L 794 531 
z
" transform="scale(0.015625)"/>
        <path id="DejaVuSans-36" d="M 2113 2584 
Q 1688 2584 1439 2293 
Q 1191 2003 1191 1497 
Q 1191 994 1439 701 
Q 1688 409 2113 409 
Q 2538 409 2786 701 
Q 3034 994 3034 1497 
Q 3034 2003 2786 2293 
Q 2538 2584 2113 2584 
z
M 3366 4563 
L 3366 3988 
Q 3128 4100 2886 4159 
Q 2644 4219 2406 4219 
Q 1781 4219 1451 3797 
Q 1122 3375 1075 2522 
Q 1259 2794 1537 2939 
Q 1816 3084 2150 3084 
Q 2853 3084 3261 2657 
Q 3669 2231 3669 1497 
Q 3669 778 3244 343 
Q 2819 -91 2113 -91 
Q 1303 -91 875 529 
Q 447 1150 447 2328 
Q 447 3434 972 4092 
Q 1497 4750 2381 4750 
Q 2619 4750 2861 4703 
Q 3103 4656 3366 4563 
z
" transform="scale(0.015625)"/>
       </defs>
       <use xlink:href="#DejaVuSans-32"/>
       <use xlink:href="#DejaVuSans-30" transform="translate(63.623047 0)"/>
       <use xlink:href="#DejaVuSans-31" transform="translate(127.246094 0)"/>
       <use xlink:href="#DejaVuSans-36" transform="translate(190.869141 0)"/>
      </g>
     </g>
    </g>
    <g id="xtick_2">
     <g id="line2d_2">
      <g>
       <use xlink:href="#m4c249fb348" x="171.04561" y="177.32" style="stroke: #000000"/>
      </g>
     </g>
     <g id="text_2">
      <!-- 2017 -->
      <g transform="translate(155.77561 193.438125) scale(0.12 -0.12)">
       <defs>
        <path id="DejaVuSans-37" d="M 525 4666 
L 3525 4666 
L 3525 4397 
L 1831 0 
L 1172 0 
L 2766 4134 
L 525 4134 
L 525 4666 
z
" transform="scale(0.015625)"/>
       </defs>
       <use xlink:href="#DejaVuSans-32"/>
       <use xlink:href="#DejaVuSans-30" transform="translate(63.623047 0)"/>
       <use xlink:href="#DejaVuSans-31" transform="translate(127.246094 0)"/>
       <use xlink:href="#DejaVuSans-37" transform="translate(190.869141 0)"/>
      </g>
     </g>
    </g>
    <g id="xtick_3">
     <g id="line2d_3">
      <g>
       <use xlink:href="#m4c249fb348" x="262.271935" y="177.32" style="stroke: #000000"/>
      </g>
     </g>
     <g id="text_3">
      <!-- 2018 -->
      <g transform="translate(247.001935 193.438125) scale(0.12 -0.12)">
       <defs>
        <path id="DejaVuSans-38" d="M 2034 2216 
Q 1584 2216 1326 1975 
Q 1069 1734 1069 1313 
Q 1069 891 1326 650 
Q 1584 409 2034 409 
Q 2484 409 2743 651 
Q 3003 894 3003 1313 
Q 3003 1734 2745 1975 
Q 2488 2216 2034 2216 
z
M 1403 2484 
Q 997 2584 770 2862 
Q 544 3141 544 3541 
Q 544 4100 942 4425 
Q 1341 4750 2034 4750 
Q 2731 4750 3128 4425 
Q 3525 4100 3525 3541 
Q 3525 3141 3298 2862 
Q 3072 2584 2669 2484 
Q 3125 2378 3379 2068 
Q 3634 1759 3634 1313 
Q 3634 634 3220 271 
Q 2806 -91 2034 -91 
Q 1263 -91 848 271 
Q 434 634 434 1313 
Q 434 1759 690 2068 
Q 947 2378 1403 2484 
z
M 1172 3481 
Q 1172 3119 1398 2916 
Q 1625 2713 2034 2713 
Q 2441 2713 2670 2916 
Q 2900 3119 2900 3481 
Q 2900 3844 2670 4047 
Q 2441 4250 2034 4250 
Q 1625 4250 1398 4047 
Q 1172 3844 1172 3481 
z
" transform="scale(0.015625)"/>
       </defs>
       <use xlink:href="#DejaVuSans-32"/>
       <use xlink:href="#DejaVuSans-30" transform="translate(63.623047 0)"/>
       <use xlink:href="#DejaVuSans-31" transform="translate(127.246094 0)"/>
       <use xlink:href="#DejaVuSans-38" transform="translate(190.869141 0)"/>
      </g>
     </g>
    </g>
    <g id="xtick_4">
     <g id="line2d_4">
      <g>
       <use xlink:href="#m4c249fb348" x="353.49826" y="177.32" style="stroke: #000000"/>
      </g>
     </g>
     <g id="text_4">
      <!-- 2019 -->
      <g transform="translate(338.22826 193.438125) scale(0.12 -0.12)">
       <defs>
        <path id="DejaVuSans-39" d="M 703 97 
L 703 672 
Q 941 559 1184 500 
Q 1428 441 1663 441 
Q 2288 441 2617 861 
Q 2947 1281 2994 2138 
Q 2813 1869 2534 1725 
Q 2256 1581 1919 1581 
Q 1219 1581 811 2004 
Q 403 2428 403 3163 
Q 403 3881 828 4315 
Q 1253 4750 1959 4750 
Q 2769 4750 3195 4129 
Q 3622 3509 3622 2328 
Q 3622 1225 3098 567 
Q 2575 -91 1691 -91 
Q 1453 -91 1209 -44 
Q 966 3 703 97 
z
M 1959 2075 
Q 2384 2075 2632 2365 
Q 2881 2656 2881 3163 
Q 2881 3666 2632 3958 
Q 2384 4250 1959 4250 
Q 1534 4250 1286 3958 
Q 1038 3666 1038 3163 
Q 1038 2656 1286 2365 
Q 1534 2075 1959 2075 
z
" transform="scale(0.015625)"/>
       </defs>
       <use xlink:href="#DejaVuSans-32"/>
       <use xlink:href="#DejaVuSans-30" transform="translate(63.623047 0)"/>
       <use xlink:href="#DejaVuSans-31" transform="translate(127.246094 0)"/>
       <use xlink:href="#DejaVuSans-39" transform="translate(190.869141 0)"/>
      </g>
     </g>
    </g>
    <g id="xtick_5">
     <g id="line2d_5">
      <g>
       <use xlink:href="#m4c249fb348" x="444.724584" y="177.32" style="stroke: #000000"/>
      </g>
     </g>
     <g id="text_5">
      <!-- 2020 -->
      <g transform="translate(429.454584 193.438125) scale(0.12 -0.12)">
       <use xlink:href="#DejaVuSans-32"/>
       <use xlink:href="#DejaVuSans-30" transform="translate(63.623047 0)"/>
       <use xlink:href="#DejaVuSans-32" transform="translate(127.246094 0)"/>
       <use xlink:href="#DejaVuSans-30" transform="translate(190.869141 0)"/>
      </g>
     </g>
    </g>
    <g id="xtick_6">
     <g id="line2d_6">
      <g>
       <use xlink:href="#m4c249fb348" x="536.200844" y="177.32" style="stroke: #000000"/>
      </g>
     </g>
     <g id="text_6">
      <!-- 2021 -->
      <g transform="translate(520.930844 193.438125) scale(0.12 -0.12)">
       <use xlink:href="#DejaVuSans-32"/>
       <use xlink:href="#DejaVuSans-30" transform="translate(63.623047 0)"/>
       <use xlink:href="#DejaVuSans-32" transform="translate(127.246094 0)"/>
       <use xlink:href="#DejaVuSans-31" transform="translate(190.869141 0)"/>
      </g>
     </g>
    </g>
   </g>
   <g id="matplotlib.axis_2">
    <g id="ytick_1">
     <g id="line2d_7">
      <defs>
       <path id="m4006c967d8" d="M 0 0 
L -3.5 0 
" style="stroke: #000000"/>
      </defs>
      <g>
       <use xlink:href="#m4006c967d8" x="57.8" y="136.478527" style="stroke: #000000"/>
      </g>
     </g>
     <g id="text_7">
      <!-- −10 -->
      <g transform="translate(25.474375 141.03759) scale(0.12 -0.12)">
       <defs>
        <path id="DejaVuSans-2212" d="M 678 2272 
L 4684 2272 
L 4684 1741 
L 678 1741 
L 678 2272 
z
" transform="scale(0.015625)"/>
       </defs>
       <use xlink:href="#DejaVuSans-2212"/>
       <use xlink:href="#DejaVuSans-31" transform="translate(83.789062 0)"/>
       <use xlink:href="#DejaVuSans-30" transform="translate(147.412109 0)"/>
      </g>
     </g>
    </g>
    <g id="ytick_2">
     <g id="line2d_8">
      <g>
       <use xlink:href="#m4006c967d8" x="57.8" y="95.306282" style="stroke: #000000"/>
      </g>
     </g>
     <g id="text_8">
      <!-- 0 -->
      <g transform="translate(43.165 99.865345) scale(0.12 -0.12)">
       <use xlink:href="#DejaVuSans-30"/>
      </g>
     </g>
    </g>
    <g id="ytick_3">
     <g id="line2d_9">
      <g>
       <use xlink:href="#m4006c967d8" x="57.8" y="54.134037" style="stroke: #000000"/>
      </g>
     </g>
     <g id="text_9">
      <!-- 10 -->
      <g transform="translate(35.53 58.6931) scale(0.12 -0.12)">
       <use xlink:href="#DejaVuSans-31"/>
       <use xlink:href="#DejaVuSans-30" transform="translate(63.623047 0)"/>
      </g>
     </g>
    </g>
    <g id="ytick_4">
     <g id="line2d_10">
      <g>
       <use xlink:href="#m4006c967d8" x="57.8" y="12.961792" style="stroke: #000000"/>
      </g>
     </g>
     <g id="text_10">
      <!-- 20 -->
      <g transform="translate(35.53 17.520855) scale(0.12 -0.12)">
       <use xlink:href="#DejaVuSans-32"/>
       <use xlink:href="#DejaVuSans-30" transform="translate(63.623047 0)"/>
      </g>
     </g>
    </g>
    <g id="text_11">
     <!-- Price (USD) -->
     <g transform="translate(18.97875 126.30625) rotate(-90) scale(0.12 -0.12)">
      <defs>
       <path id="DejaVuSans-50" d="M 1259 4147 
L 1259 2394 
L 2053 2394 
Q 2494 2394 2734 2622 
Q 2975 2850 2975 3272 
Q 2975 3691 2734 3919 
Q 2494 4147 2053 4147 
L 1259 4147 
z
M 628 4666 
L 2053 4666 
Q 2838 4666 3239 4311 
Q 3641 3956 3641 3272 
Q 3641 2581 3239 2228 
Q 2838 1875 2053 1875 
L 1259 1875 
L 1259 0 
L 628 0 
L 628 4666 
z
" transform="scale(0.015625)"/>
       <path id="DejaVuSans-72" d="M 2631 2963 
Q 2534 3019 2420 3045 
Q 2306 3072 2169 3072 
Q 1681 3072 1420 2755 
Q 1159 2438 1159 1844 
L 1159 0 
L 581 0 
L 581 3500 
L 1159 3500 
L 1159 2956 
Q 1341 3275 1631 3429 
Q 1922 3584 2338 3584 
Q 2397 3584 2469 3576 
Q 2541 3569 2628 3553 
L 2631 2963 
z
" transform="scale(0.015625)"/>
       <path id="DejaVuSans-69" d="M 603 3500 
L 1178 3500 
L 1178 0 
L 603 0 
L 603 3500 
z
M 603 4863 
L 1178 4863 
L 1178 4134 
L 603 4134 
L 603 4863 
z
" transform="scale(0.015625)"/>
       <path id="DejaVuSans-63" d="M 3122 3366 
L 3122 2828 
Q 2878 2963 2633 3030 
Q 2388 3097 2138 3097 
Q 1578 3097 1268 2742 
Q 959 2388 959 1747 
Q 959 1106 1268 751 
Q 1578 397 2138 397 
Q 2388 397 2633 464 
Q 2878 531 3122 666 
L 3122 134 
Q 2881 22 2623 -34 
Q 2366 -91 2075 -91 
Q 1284 -91 818 406 
Q 353 903 353 1747 
Q 353 2603 823 3093 
Q 1294 3584 2113 3584 
Q 2378 3584 2631 3529 
Q 2884 3475 3122 3366 
z
" transform="scale(0.015625)"/>
       <path id="DejaVuSans-65" d="M 3597 1894 
L 3597 1613 
L 953 1613 
Q 991 1019 1311 708 
Q 1631 397 2203 397 
Q 2534 397 2845 478 
Q 3156 559 3463 722 
L 3463 178 
Q 3153 47 2828 -22 
Q 2503 -91 2169 -91 
Q 1331 -91 842 396 
Q 353 884 353 1716 
Q 353 2575 817 3079 
Q 1281 3584 2069 3584 
Q 2775 3584 3186 3129 
Q 3597 2675 3597 1894 
z
M 3022 2063 
Q 3016 2534 2758 2815 
Q 2500 3097 2075 3097 
Q 1594 3097 1305 2825 
Q 1016 2553 972 2059 
L 3022 2063 
z
" transform="scale(0.015625)"/>
       <path id="DejaVuSans-20" transform="scale(0.015625)"/>
       <path id="DejaVuSans-28" d="M 1984 4856 
Q 1566 4138 1362 3434 
Q 1159 2731 1159 2009 
Q 1159 1288 1364 580 
Q 1569 -128 1984 -844 
L 1484 -844 
Q 1016 -109 783 600 
Q 550 1309 550 2009 
Q 550 2706 781 3412 
Q 1013 4119 1484 4856 
L 1984 4856 
z
" transform="scale(0.015625)"/>
       <path id="DejaVuSans-55" d="M 556 4666 
L 1191 4666 
L 1191 1831 
Q 1191 1081 1462 751 
Q 1734 422 2344 422 
Q 2950 422 3222 751 
Q 3494 1081 3494 1831 
L 3494 4666 
L 4128 4666 
L 4128 1753 
Q 4128 841 3676 375 
Q 3225 -91 2344 -91 
Q 1459 -91 1007 375 
Q 556 841 556 1753 
L 556 4666 
z
" transform="scale(0.015625)"/>
       <path id="DejaVuSans-53" d="M 3425 4513 
L 3425 3897 
Q 3066 4069 2747 4153 
Q 2428 4238 2131 4238 
Q 1616 4238 1336 4038 
Q 1056 3838 1056 3469 
Q 1056 3159 1242 3001 
Q 1428 2844 1947 2747 
L 2328 2669 
Q 3034 2534 3370 2195 
Q 3706 1856 3706 1288 
Q 3706 609 3251 259 
Q 2797 -91 1919 -91 
Q 1588 -91 1214 -16 
Q 841 59 441 206 
L 441 856 
Q 825 641 1194 531 
Q 1563 422 1919 422 
Q 2459 422 2753 634 
Q 3047 847 3047 1241 
Q 3047 1584 2836 1778 
Q 2625 1972 2144 2069 
L 1759 2144 
Q 1053 2284 737 2584 
Q 422 2884 422 3419 
Q 422 4038 858 4394 
Q 1294 4750 2059 4750 
Q 2388 4750 2728 4690 
Q 3069 4631 3425 4513 
z
" transform="scale(0.015625)"/>
       <path id="DejaVuSans-44" d="M 1259 4147 
L 1259 519 
L 2022 519 
Q 2988 519 3436 956 
Q 3884 1394 3884 2338 
Q 3884 3275 3436 3711 
Q 2988 4147 2022 4147 
L 1259 4147 
z
M 628 4666 
L 1925 4666 
Q 3281 4666 3915 4102 
Q 4550 3538 4550 2338 
Q 4550 1131 3912 565 
Q 3275 0 1925 0 
L 628 0 
L 628 4666 
z
" transform="scale(0.015625)"/>
       <path id="DejaVuSans-29" d="M 513 4856 
L 1013 4856 
Q 1481 4119 1714 3412 
Q 1947 2706 1947 2009 
Q 1947 1309 1714 600 
Q 1481 -109 1013 -844 
L 513 -844 
Q 928 -128 1133 580 
Q 1338 1288 1338 2009 
Q 1338 2731 1133 3434 
Q 928 4138 513 4856 
z
" transform="scale(0.015625)"/>
      </defs>
      <use xlink:href="#DejaVuSans-50"/>
      <use xlink:href="#DejaVuSans-72" transform="translate(58.552734 0)"/>
      <use xlink:href="#DejaVuSans-69" transform="translate(99.666016 0)"/>
      <use xlink:href="#DejaVuSans-63" transform="translate(127.449219 0)"/>
      <use xlink:href="#DejaVuSans-65" transform="translate(182.429688 0)"/>
      <use xlink:href="#DejaVuSans-20" transform="translate(243.953125 0)"/>
      <use xlink:href="#DejaVuSans-28" transform="translate(275.740234 0)"/>
      <use xlink:href="#DejaVuSans-55" transform="translate(314.753906 0)"/>
      <use xlink:href="#DejaVuSans-53" transform="translate(387.947266 0)"/>
      <use xlink:href="#DejaVuSans-44" transform="translate(451.423828 0)"/>
      <use xlink:href="#DejaVuSans-29" transform="translate(528.425781 0)"/>
     </g>
    </g>
   </g>
   <g id="line2d_11">
    <path d="M 80.569091 97.244359 
L 81.068961 110.739686 
L 81.318896 99.573467 
L 82.068702 88.119846 
L 82.318637 87.34407 
L 82.568572 105.007142 
L 82.818507 84.597249 
L 83.068442 132.78122 
L 84.068183 94.752962 
L 84.318118 98.20765 
L 84.817988 91.558441 
L 85.567794 99.845748 
L 85.817729 90.577097 
L 86.067664 97.093929 
L 86.317599 93.096446 
L 86.567534 80.881501 
L 87.31734 97.960861 
L 87.567275 108.932484 
L 88.067145 89.2722 
L 88.31708 105.402315 
L 89.316821 95.449177 
L 89.566756 103.595155 
L 90.066626 89.17851 
L 91.066367 93.293807 
L 91.316302 85.435156 
L 91.816172 105.242432 
L 92.565977 86.128197 
L 92.815913 103.021708 
L 93.065848 89.730967 
L 93.315783 89.241225 
L 93.565718 92.804217 
L 94.315523 98.207589 
L 94.565459 84.453153 
L 94.815394 93.001738 
L 95.065329 94.766896 
L 95.315264 94.633028 
L 96.065069 91.139445 
L 96.315004 100.363063 
L 96.56494 91.129641 
L 96.814875 90.238164 
L 97.06481 88.586991 
L 97.814615 99.584232 
L 98.06455 92.424382 
L 98.314486 94.785875 
L 98.564421 91.538572 
L 98.814356 86.294267 
L 99.564161 99.589817 
L 99.814096 95.560904 
L 100.064032 99.38272 
L 100.313967 96.850275 
L 101.313707 95.048018 
L 101.563642 89.111011 
L 101.813577 91.110215 
L 102.063513 99.837599 
L 102.313448 94.033598 
L 103.063253 101.015849 
L 103.563123 92.983048 
L 103.813059 102.108413 
L 104.062994 94.262262 
L 104.812799 94.785639 
L 105.062734 92.836141 
L 105.312669 91.817196 
L 105.562605 99.534938 
L 105.81254 99.708354 
L 106.562345 92.819746 
L 106.81228 95.956683 
L 107.062215 90.094627 
L 107.562086 99.55604 
L 108.311891 98.559468 
L 108.811761 90.716948 
L 109.061696 103.605553 
L 109.311632 106.29086 
L 110.061437 90.819304 
L 110.311372 98.668807 
L 110.561307 98.726051 
L 110.811242 94.616548 
L 111.061178 93.378497 
L 111.810983 98.595697 
L 112.060918 90.608855 
L 112.310853 96.398987 
L 112.560788 99.415355 
L 112.810723 93.231018 
L 113.560529 88.698892 
L 113.810464 100.860976 
L 114.060399 95.168953 
L 114.310334 100.248582 
L 114.560269 88.080615 
L 115.310075 94.213844 
L 115.56001 84.001935 
L 115.809945 90.931905 
L 116.05988 93.994833 
L 116.309815 94.260175 
L 117.309556 95.045426 
L 117.809426 94.00577 
L 118.059361 97.121291 
L 118.809167 94.524951 
L 119.059102 92.706992 
L 119.309037 95.177107 
L 119.808907 94.017232 
L 120.558713 93.635818 
L 120.808648 95.690193 
L 121.058583 102.095634 
L 121.308518 94.264301 
L 121.558453 94.396881 
L 122.308259 89.991288 
L 122.808129 95.688502 
L 123.058064 86.380616 
L 123.307999 113.27788 
L 124.057805 106.137707 
L 124.30774 89.007035 
L 124.557675 85.537918 
L 124.80761 84.088057 
L 125.057545 95.933893 
L 126.057286 96.186369 
L 126.307221 91.652622 
L 126.557156 92.434069 
L 126.807091 85.385287 
L 127.556897 90.704758 
L 127.806832 88.599853 
L 128.056767 94.48161 
L 128.306702 93.07174 
L 128.556637 96.826785 
L 129.306442 95.541105 
L 129.556378 94.131527 
L 129.806313 88.98125 
L 130.056248 111.687482 
L 130.306183 90.620701 
L 131.055988 94.950037 
L 131.305924 90.558747 
L 131.555859 98.35696 
L 132.055729 94.240561 
L 132.805534 95.424359 
L 133.05547 98.7323 
L 133.305405 95.906509 
L 133.55534 91.339233 
L 133.805275 90.543854 
L 134.55508 94.599995 
L 134.805015 96.716382 
L 135.054951 99.904524 
L 135.304886 93.517624 
L 135.554821 96.612301 
L 136.304626 91.257026 
L 136.554561 91.768071 
L 136.804497 97.528042 
L 137.054432 95.894141 
L 137.304367 92.127344 
L 138.054172 93.904295 
L 138.304107 94.840402 
L 138.554043 98.214024 
L 139.053913 93.311671 
L 139.803718 91.919985 
L 140.053653 93.568916 
L 140.303588 93.115154 
L 140.803459 94.620307 
L 141.803199 89.714811 
L 142.053134 96.544804 
L 142.30307 95.531995 
L 142.553005 106.60493 
L 143.30281 87.87105 
L 143.552745 100.669637 
L 143.80268 95.190827 
L 144.052616 84.440935 
L 144.302551 82.806046 
L 145.052356 100.880415 
L 145.552226 91.869713 
L 145.802161 94.206957 
L 146.052097 99.253502 
L 146.801902 101.284425 
L 147.051837 89.352423 
L 147.551707 96.625862 
L 147.801643 90.562205 
L 148.551448 96.288064 
L 148.801383 96.618205 
L 149.051318 90.37084 
L 149.301253 94.439384 
L 149.551189 94.981738 
L 150.300994 96.170856 
L 150.550929 103.427925 
L 150.800864 96.852922 
L 151.050799 97.080498 
L 151.300734 89.960651 
L 152.05054 97.065364 
L 152.300475 90.227212 
L 152.55041 119.737065 
L 152.800345 96.233888 
L 153.05028 98.560043 
L 153.800086 94.017975 
L 154.050021 97.174456 
L 154.299956 97.417706 
L 154.799826 96.134183 
L 155.549632 93.765491 
L 155.799567 99.438967 
L 156.049502 94.352101 
L 156.299437 100.221957 
L 156.549372 99.189196 
L 157.299178 82.076455 
L 157.549113 94.712799 
L 157.799048 95.187745 
L 158.048983 98.268383 
L 158.298918 93.993472 
L 159.048724 96.852717 
L 159.298659 90.171735 
L 159.548594 96.131973 
L 159.798529 93.1791 
L 160.048464 96.129132 
L 160.79827 94.952918 
L 161.048205 89.421254 
L 161.29814 98.555443 
L 161.79801 92.499092 
L 162.547816 94.493021 
L 162.797751 97.625208 
L 163.297621 106.459661 
L 163.547556 90.428048 
L 164.297362 92.534035 
L 164.547297 91.355507 
L 164.797232 86.056735 
L 165.047167 92.986812 
L 165.297102 94.614293 
L 166.046907 92.888466 
L 166.296843 85.805829 
L 166.546778 98.103453 
L 166.796713 92.602618 
L 167.046648 100.677967 
L 167.796453 88.729657 
L 168.046389 91.734901 
L 168.296324 97.851167 
L 168.546259 95.862962 
L 168.796194 94.860382 
L 169.795935 94.192569 
L 170.04587 100.193074 
L 170.295805 94.969335 
L 170.54574 99.686189 
L 171.54548 91.560182 
L 171.795416 97.443608 
L 172.045351 95.984883 
L 172.295286 93.833713 
L 173.045091 93.839119 
L 173.295026 96.0935 
L 173.544962 90.686466 
L 173.794897 97.980598 
L 174.044832 94.409033 
L 175.044572 95.194377 
L 175.294508 95.75381 
L 175.544443 97.434358 
L 175.794378 91.140571 
L 176.544183 97.201163 
L 176.794118 85.788648 
L 177.293989 97.920411 
L 177.543924 90.702313 
L 178.293729 101.377159 
L 178.543664 101.907818 
L 178.793599 98.660902 
L 179.043535 93.5025 
L 179.29347 94.175792 
L 180.043275 98.124613 
L 180.29321 94.398239 
L 180.543145 94.966466 
L 180.793081 105.718267 
L 181.043016 96.699528 
L 181.792821 89.947045 
L 182.042756 93.811257 
L 182.292691 93.931182 
L 182.542626 91.194768 
L 182.792562 94.514737 
L 183.792302 94.854914 
L 184.042237 100.37943 
L 184.292172 94.050698 
L 184.542108 91.32353 
L 185.291913 95.531684 
L 185.541848 98.80204 
L 185.791783 98.377089 
L 186.041718 95.535528 
L 186.291654 95.420916 
L 187.041459 99.090901 
L 187.291394 92.64395 
L 187.541329 97.376582 
L 187.791264 92.994386 
L 188.041199 94.271884 
L 188.791005 103.905298 
L 189.04094 95.072017 
L 189.290875 96.242568 
L 189.790745 93.783096 
L 190.540551 93.438597 
L 190.790486 99.838279 
L 191.040421 91.428831 
L 191.290356 96.470279 
L 191.540291 96.590374 
L 192.290097 92.613041 
L 192.540032 92.863044 
L 192.789967 95.653311 
L 193.289837 91.620931 
L 194.039643 94.279 
L 194.289578 93.939955 
L 194.789448 97.465964 
L 195.039383 95.306282 
L 195.789189 97.93457 
L 196.039124 95.996409 
L 196.289059 96.57338 
L 196.538994 99.697491 
L 197.538735 92.619835 
L 197.78867 91.940953 
L 198.038605 93.694948 
L 198.28854 92.210544 
L 198.538475 93.713155 
L 199.288281 90.431799 
L 199.538216 93.961943 
L 199.788151 94.636184 
L 200.038086 89.731916 
L 200.288021 109.386063 
L 201.287762 87.822621 
L 201.787632 96.753708 
L 202.037567 95.641534 
L 202.787373 98.437183 
L 203.037308 97.221888 
L 203.287243 99.381558 
L 203.537178 98.964967 
L 203.787113 97.152119 
L 204.786854 93.110766 
L 205.036789 104.271763 
L 205.286724 93.191303 
L 205.536659 93.202004 
L 206.286464 91.003218 
L 206.5364 94.270215 
L 206.786335 92.321175 
L 207.286205 95.306282 
L 208.285946 96.214693 
L 208.535881 96.102873 
L 208.785816 95.192364 
L 209.035751 93.026506 
L 209.785556 95.07945 
L 210.035491 97.68561 
L 210.285427 93.824777 
L 210.535362 92.80831 
L 210.785297 103.996615 
L 211.535102 95.075708 
L 211.785037 93.577907 
L 212.034973 99.322459 
L 213.284648 91.798237 
L 213.534583 102.842793 
L 213.784519 98.613326 
L 214.284389 97.343315 
L 215.034194 96.751479 
L 215.284129 100.381774 
L 215.534064 88.576863 
L 215.784 103.251726 
L 216.033935 92.851111 
L 216.78374 98.723159 
L 217.28361 84.477913 
L 217.533546 103.818915 
L 217.783481 92.245749 
L 218.533286 98.101177 
L 218.783221 92.002738 
L 219.033156 91.300781 
L 219.283092 95.426525 
L 219.533027 90.015295 
L 220.282832 97.799445 
L 220.532767 94.58965 
L 220.782702 94.948589 
L 221.032637 93.042736 
L 221.282573 95.543335 
L 222.032378 98.032827 
L 222.282313 93.277543 
L 222.532248 94.356211 
L 223.032119 91.303174 
L 223.781924 93.440715 
L 224.031859 85.091531 
L 224.281794 92.021526 
L 224.531729 93.913812 
L 224.781665 97.450121 
L 225.53147 93.831711 
L 225.781405 95.532397 
L 226.03134 93.270827 
L 226.281275 100.369747 
L 226.53121 98.382341 
L 227.281016 89.911431 
L 227.530951 99.158541 
L 227.780886 97.479067 
L 228.030821 102.664742 
L 228.280756 97.17934 
L 229.030562 96.364748 
L 229.280497 98.489648 
L 229.530432 95.187444 
L 229.780367 94.712398 
L 230.030302 95.780705 
L 230.780108 95.543795 
L 231.279978 93.409412 
L 231.529913 93.182097 
L 231.779848 95.071479 
L 232.779589 96.127692 
L 233.029524 86.606159 
L 233.279459 97.839439 
L 233.529394 99.360827 
L 234.2792 88.520396 
L 234.529135 91.622897 
L 235.029005 93.606451 
L 235.27894 89.437281 
L 236.028746 95.306282 
L 236.278681 92.746908 
L 236.528616 97.075675 
L 236.778551 93.862569 
L 237.028486 95.527565 
L 237.778292 95.527735 
L 238.028227 91.871717 
L 238.278162 94.536946 
L 238.528097 92.125587 
L 238.778032 92.585539 
L 239.527838 84.926723 
L 240.027708 95.724301 
L 240.277643 93.317875 
L 240.527578 94.264797 
L 241.277383 92.916663 
L 241.527319 97.475455 
L 241.777254 98.940639 
L 242.027189 96.458736 
L 242.277124 90.263579 
L 243.026929 94.37213 
L 243.276865 94.99554 
L 243.5268 90.546546 
L 243.776735 96.942963 
L 244.02667 91.814479 
L 244.776475 91.232844 
L 245.276346 97.015403 
L 245.526281 89.55156 
L 245.776216 64.937466 
L 246.526021 95.584381 
L 246.775956 84.913469 
L 247.025892 84.264316 
L 247.525762 101.949669 
L 248.275567 89.648887 
L 248.525502 94.601037 
L 248.775438 96.010322 
L 249.275308 101.708734 
L 250.025113 93.77079 
L 250.275048 94.316331 
L 250.524984 98.897467 
L 250.774919 93.58541 
L 251.024854 104.505726 
L 252.024594 92.353587 
L 252.274529 97.963149 
L 252.7744 94.384167 
L 253.524205 97.698375 
L 253.77414 93.085238 
L 254.024075 102.485936 
L 254.274011 86.968797 
L 254.523946 96.775449 
L 255.273751 97.05703 
L 255.523686 105.023337 
L 255.773621 95.211575 
L 256.023557 98.812128 
L 256.273492 92.725962 
L 257.023297 92.361987 
L 257.273232 98.418217 
L 257.523167 95.211335 
L 257.773102 96.06629 
L 258.023038 82.933559 
L 258.772843 79.59874 
L 259.022778 88.364209 
L 259.272713 90.75488 
L 259.522648 102.231804 
L 259.772584 95.834578 
L 260.772324 100.772417 
L 261.022259 95.038237 
L 261.272194 94.324141 
L 261.52213 95.84071 
L 262.52187 89.151913 
L 262.771805 109.279345 
L 263.02174 102.856687 
L 263.271675 92.433472 
L 264.021481 95.306282 
L 264.271416 105.613227 
L 264.521351 105.877701 
L 264.771286 86.490563 
L 265.021221 96.918791 
L 266.020962 96.258467 
L 266.270897 83.37636 
L 266.520832 94.471614 
L 266.770767 92.159055 
L 267.520573 86.763137 
L 268.020443 100.222685 
L 268.270378 97.205898 
L 268.520313 51.862017 
L 269.520054 105.109091 
L 269.769989 100.791462 
L 270.019924 99.497031 
L 270.269859 108.267144 
L 271.019665 109.848111 
L 271.2696 88.881918 
L 271.519535 92.647598 
L 271.76947 117.623199 
L 272.019405 83.749167 
L 272.769211 87.062312 
L 273.019146 98.704439 
L 273.269081 86.786563 
L 273.519016 90.407001 
L 273.768951 98.534142 
L 274.768692 88.438257 
L 275.018627 98.683952 
L 275.268562 96.56092 
L 275.518497 77.956379 
L 276.268303 83.402316 
L 276.518238 88.599244 
L 277.018108 107.418346 
L 277.268043 85.495111 
L 278.017849 88.833778 
L 278.267784 87.361463 
L 278.517719 90.353586 
L 278.767654 99.959425 
L 279.017589 83.540416 
L 279.767394 100.591804 
L 280.01733 93.228674 
L 280.267265 94.670134 
L 280.5172 103.086558 
L 280.767135 92.959628 
L 281.51694 98.041906 
L 281.766876 89.474383 
L 282.516681 107.213196 
L 283.266486 69.281803 
L 283.516422 105.426861 
L 283.766357 108.094612 
L 284.016292 74.720134 
L 285.016032 120.287892 
L 285.265967 88.320854 
L 285.515903 93.320003 
L 285.765838 92.094247 
L 286.015773 108.30029 
L 287.015513 81.014454 
L 287.265449 96.671445 
L 287.515384 82.253639 
L 287.765319 102.022573 
L 288.765059 86.348979 
L 289.26493 105.981491 
L 289.514865 100.746518 
L 290.26467 98.741978 
L 290.514605 92.48618 
L 290.76454 95.866545 
L 291.014476 81.924181 
L 291.264411 97.789749 
L 292.014216 103.973245 
L 292.264151 81.667341 
L 292.514086 103.180965 
L 293.013957 88.969742 
L 293.763762 91.015893 
L 294.013697 92.99017 
L 294.263632 89.855609 
L 294.513568 90.457071 
L 294.763503 97.627758 
L 295.513308 93.574152 
L 295.763243 102.655833 
L 296.013178 89.808511 
L 296.263113 94.02523 
L 296.513049 105.146785 
L 297.262854 88.995744 
L 297.512789 94.320981 
L 297.762724 89.559553 
L 298.012659 98.736626 
L 298.262595 90.11762 
L 299.262335 96.197328 
L 299.51227 92.626981 
L 299.762205 98.855565 
L 300.012141 81.283928 
L 300.761946 97.10945 
L 301.011881 97.479817 
L 301.261816 91.664631 
L 301.511751 103.608605 
L 301.761686 101.421614 
L 302.511492 99.270303 
L 302.761427 93.040791 
L 303.011362 93.729005 
L 303.261297 91.490529 
L 303.511232 98.493892 
L 304.261038 109.426332 
L 304.510973 97.549833 
L 304.760908 91.183595 
L 305.010843 105.08721 
L 305.260778 92.860739 
L 306.010584 109.344072 
L 306.260519 103.750272 
L 306.510454 102.849309 
L 306.760389 91.168826 
L 307.010324 91.460702 
L 307.76013 91.247971 
L 308.010065 101.293423 
L 308.509935 84.653299 
L 308.75987 90.276377 
L 309.509676 91.379005 
L 309.759611 92.924554 
L 310.009546 102.883893 
L 310.259481 86.058743 
L 310.509416 96.328591 
L 311.259222 96.96202 
L 311.509157 97.36455 
L 312.009027 93.236509 
L 312.258962 95.860814 
L 313.008768 92.133667 
L 313.258703 96.329444 
L 313.508638 93.333681 
L 313.758573 97.426576 
L 314.008508 130.668927 
L 314.758314 95.219908 
L 315.258184 89.228913 
L 315.508119 89.654586 
L 315.758054 94.05825 
L 316.507859 95.556601 
L 316.757795 91.965747 
L 317.257665 93.822867 
L 317.5076 105.899006 
L 318.257405 98.677591 
L 318.507341 98.110637 
L 318.757276 100.953379 
L 319.257146 95.917249 
L 320.006951 100.551098 
L 320.256887 85.389577 
L 320.506822 100.234479 
L 320.756757 95.918885 
L 321.006692 89.346837 
L 321.756497 89.345592 
L 322.006432 93.432884 
L 322.256368 93.780376 
L 322.506303 99.6135 
L 322.756238 93.684702 
L 323.755978 99.301936 
L 324.005914 97.366612 
L 324.255849 99.275259 
L 324.505784 102.36279 
L 325.255589 96.635874 
L 325.505524 107.489031 
L 325.75546 95.306282 
L 326.005395 89.441521 
L 326.25533 95.577255 
L 327.005135 96.39117 
L 327.25507 89.142316 
L 327.505005 94.859641 
L 327.754941 85.938839 
L 328.004876 100.016716 
L 328.754681 93.100309 
L 329.004616 104.08319 
L 329.254551 97.189485 
L 329.504487 93.684668 
L 329.754422 82.653206 
L 330.504227 102.61947 
L 330.754162 80.68105 
L 331.503968 104.716165 
L 332.253773 95.306282 
L 332.503708 99.508465 
L 332.753643 110.784509 
L 333.253514 89.255699 
L 334.003319 98.51715 
L 334.253254 82.269483 
L 334.753124 103.560425 
L 335.00306 104.187112 
L 335.752865 85.855412 
L 336.252735 114.55075 
L 336.50267 76.962214 
L 337.502411 97.919584 
L 337.752346 73.903928 
L 338.002281 102.892524 
L 338.252216 83.537698 
L 338.502151 104.783951 
L 339.251957 87.790242 
L 339.501892 98.933686 
L 339.751827 82.497251 
L 340.251697 102.701995 
L 341.001503 107.800806 
L 341.251438 88.775286 
L 341.501373 97.912786 
L 341.751308 86.387981 
L 342.001243 89.144521 
L 342.751049 102.304615 
L 343.250919 98.433971 
L 343.750789 99.595959 
L 344.500595 87.255886 
L 344.75053 89.926525 
L 345.000465 88.539857 
L 345.2504 105.081118 
L 345.500335 81.409562 
L 346.250141 88.459604 
L 346.500076 114.853381 
L 346.999946 89.960401 
L 347.249881 113.436778 
L 347.999687 86.669309 
L 348.249622 93.823587 
L 348.499557 91.395915 
L 348.749492 91.346703 
L 348.999427 98.972447 
L 349.749233 102.016259 
L 349.999168 89.53445 
L 350.249103 114.021031 
L 350.499038 95.577283 
L 350.748973 101.634963 
L 351.498779 106.783812 
L 351.998649 70.74845 
L 352.248584 93.790884 
L 352.498519 91.842722 
L 353.248325 93.72101 
L 353.748195 93.990276 
L 353.99813 117.956249 
L 354.248065 70.0421 
L 354.99787 93.388107 
L 355.247806 92.702603 
L 355.497741 92.9778 
L 355.747676 90.589638 
L 355.997611 92.169205 
L 356.747416 100.186709 
L 356.997352 93.177405 
L 357.247287 99.287805 
L 357.497222 92.397879 
L 357.747157 89.190437 
L 358.746898 103.006644 
L 358.996833 98.120995 
L 359.246768 79.675648 
L 359.496703 117.812004 
L 360.246508 98.194594 
L 360.496443 96.80481 
L 360.746379 86.459594 
L 360.996314 98.943681 
L 361.246249 81.238664 
L 361.996054 91.16618 
L 362.245989 88.698063 
L 362.495925 93.60766 
L 362.74586 100.834541 
L 362.995795 98.567935 
L 363.7456 95.896363 
L 363.995535 84.838217 
L 364.245471 91.519043 
L 364.495406 92.532624 
L 364.745341 88.418518 
L 365.745081 97.378564 
L 365.995016 95.386336 
L 366.244952 95.146074 
L 366.494887 86.65694 
L 367.244692 90.521666 
L 367.494627 94.298189 
L 367.744562 95.228947 
L 367.994498 97.471673 
L 368.244433 92.663066 
L 368.994238 90.362404 
L 369.244173 97.290937 
L 369.494108 100.905245 
L 369.993979 96.245456 
L 370.743784 88.480887 
L 370.993719 93.608427 
L 371.243654 89.157743 
L 371.493589 102.348831 
L 371.743525 88.449367 
L 372.49333 97.049282 
L 372.743265 94.773473 
L 372.9932 97.966517 
L 373.243135 89.033295 
L 373.493071 105.704879 
L 374.242876 99.016933 
L 374.492811 90.15774 
L 374.742746 97.463535 
L 374.992681 95.693536 
L 375.242617 90.732438 
L 375.992422 89.095901 
L 376.242357 96.439238 
L 376.492292 86.823445 
L 376.992162 97.662356 
L 377.741968 94.713809 
L 377.991903 97.968306 
L 378.241838 92.105974 
L 378.491773 94.936954 
L 378.741708 90.731679 
L 379.491514 96.327954 
L 379.741449 92.160531 
L 379.991384 81.87496 
L 380.241319 95.798419 
L 381.24106 92.983352 
L 381.490995 95.586318 
L 381.74093 95.726544 
L 381.990865 103.089221 
L 382.2408 132.326279 
L 383.240541 95.870191 
L 383.490476 97.564902 
L 383.740411 97.009672 
L 383.990346 85.532494 
L 385.240022 105.419848 
L 385.489957 117.213593 
L 385.739892 99.015362 
L 386.489698 108.13926 
L 386.739633 91.534966 
L 386.989568 91.204562 
L 387.489438 101.093752 
L 388.239244 107.504703 
L 388.489179 86.799681 
L 388.739114 99.56614 
L 388.989049 90.346914 
L 389.238984 94.936407 
L 390.238725 104.543854 
L 390.48866 89.069576 
L 390.738595 90.652012 
L 390.98853 101.657358 
L 391.738335 100.728654 
L 391.988271 82.706405 
L 392.238206 97.51237 
L 392.488141 90.223368 
L 392.738076 86.816188 
L 393.487881 88.418934 
L 393.987752 99.963961 
L 394.237687 91.928489 
L 394.487622 99.802692 
L 395.237427 95.841039 
L 395.487363 84.238942 
L 395.737298 97.913765 
L 395.987233 94.256688 
L 396.237168 92.950642 
L 396.986973 93.831455 
L 397.236908 102.048814 
L 397.486844 83.530126 
L 397.736779 101.543288 
L 397.986714 91.749439 
L 398.986454 94.706475 
L 399.23639 91.883738 
L 399.73626 99.040032 
L 400.486065 97.532733 
L 400.736 95.908899 
L 400.985936 91.340045 
L 401.235871 91.975593 
L 401.485806 84.123765 
L 402.235611 93.65666 
L 402.485546 103.110394 
L 402.735481 93.463902 
L 402.985417 90.721618 
L 403.235352 92.585539 
L 403.985157 86.460926 
L 404.235092 92.099056 
L 404.485027 85.997696 
L 404.734963 101.219266 
L 404.984898 99.805431 
L 405.734703 87.964141 
L 405.984638 101.657294 
L 406.234573 104.46451 
L 406.484509 103.858397 
L 406.734444 102.126725 
L 407.484249 109.769026 
L 407.734184 92.614735 
L 407.984119 97.322888 
L 408.234054 91.429533 
L 408.48399 105.693152 
L 409.233795 98.708971 
L 409.48373 84.110284 
L 409.733665 103.832545 
L 410.233536 88.098909 
L 410.983341 88.842671 
L 411.233276 100.798325 
L 411.483211 90.446827 
L 411.733146 98.53724 
L 411.983082 111.324506 
L 412.732887 89.811792 
L 413.232757 95.306282 
L 413.482692 85.595501 
L 413.732627 90.562676 
L 414.732368 99.040573 
L 414.982303 78.304572 
L 415.232238 85.375006 
L 415.482173 88.567653 
L 416.231979 89.888793 
L 416.481914 93.470659 
L 416.731849 87.599514 
L 417.231719 98.956695 
L 417.981525 97.970761 
L 418.23146 97.278087 
L 418.73133 96.658965 
L 418.981265 102.092511 
L 419.731071 93.845105 
L 419.981006 104.042345 
L 420.230941 85.38918 
L 420.480876 96.113337 
L 420.730811 96.438181 
L 421.480617 89.225347 
L 421.730552 101.458568 
L 421.980487 106.418427 
L 422.230422 89.971272 
L 422.480357 87.982081 
L 423.230163 97.731955 
L 423.480098 102.545188 
L 423.730033 89.096881 
L 423.979968 90.167827 
L 424.229903 87.411853 
L 424.979709 98.863135 
L 425.229644 87.25355 
L 425.479579 96.870386 
L 425.729514 99.937569 
L 425.979449 99.275884 
L 426.729255 89.133598 
L 426.97919 96.254099 
L 427.229125 97.601946 
L 427.47906 91.246354 
L 427.728995 61.961721 
L 428.478801 93.118655 
L 428.728736 98.352818 
L 428.978671 93.406347 
L 429.228606 95.815421 
L 429.478541 95.451872 
L 430.228346 87.291973 
L 430.478282 95.735049 
L 430.728217 92.680633 
L 430.978152 92.089632 
L 431.228087 93.746005 
L 431.977892 94.741076 
L 432.477763 97.499248 
L 432.977633 94.237899 
L 433.727438 93.246255 
L 433.977374 94.599601 
L 434.227309 98.481374 
L 434.477244 93.030764 
L 434.727179 99.620182 
L 435.476984 86.730255 
L 435.726919 94.676146 
L 435.976855 98.032528 
L 436.476725 98.543109 
L 437.22653 98.072447 
L 437.476465 106.659718 
L 437.726401 95.673441 
L 437.976336 94.865312 
L 438.226271 89.946766 
L 438.976076 97.335579 
L 439.475947 91.81399 
L 439.725882 91.843425 
L 439.975817 93.589264 
L 440.725622 95.947509 
L 440.975557 98.16051 
L 441.225492 96.240396 
L 441.475428 89.616851 
L 441.725363 88.273811 
L 442.475168 93.350743 
L 442.725103 94.055067 
L 443.224974 92.464917 
L 443.474909 93.516668 
L 444.224714 98.458673 
L 444.474649 93.717956 
L 444.97452 88.495828 
L 445.224455 100.314084 
L 445.97426 96.470889 
L 446.224195 102.176365 
L 446.47413 95.026769 
L 446.724065 93.002334 
L 446.974001 97.805729 
L 447.723806 90.765764 
L 447.973741 96.411745 
L 448.223676 98.700926 
L 448.473611 90.276766 
L 448.723547 95.720348 
L 449.723287 88.743602 
L 449.973222 80.482899 
L 450.223157 91.433893 
L 450.473093 61.819686 
L 451.222898 112.02291 
L 451.472833 85.152726 
L 451.722768 101.300693 
L 451.972703 94.437248 
L 452.222638 111.039288 
L 452.972444 92.150698 
L 453.222379 88.659343 
L 453.472314 83.48182 
L 453.972184 101.872678 
L 454.971925 88.980552 
L 455.22186 95.001045 
L 455.471795 95.428334 
L 455.72173 96.344121 
L 456.721471 102.222402 
L 456.971406 89.267954 
L 457.221341 105.49051 
L 457.471276 102.288895 
L 458.221082 111.81615 
L 458.471017 108.839234 
L 458.720952 95.8577 
L 458.970887 121.673141 
L 459.220822 97.59234 
L 459.970628 75.580369 
L 460.220563 110.945784 
L 460.470498 75.371182 
L 460.720433 107.374583 
L 460.970368 103.907871 
L 461.720174 131.628211 
L 461.970109 69.963258 
L 462.469979 144.081766 
L 462.719914 14.932727 
L 463.46972 169.587273 
L 463.719655 44.821593 
L 463.96959 115.612867 
L 464.219525 109.748232 
L 465.219266 61.617488 
L 465.469201 71.888434 
L 465.719136 104.263597 
L 465.969071 60.929215 
L 466.219006 118.805587 
L 466.968811 70.777554 
L 467.218747 105.471411 
L 467.468682 112.347226 
L 467.718617 75.704278 
L 467.968552 96.972828 
L 468.718357 62.599764 
L 468.968293 95.517547 
L 469.218228 91.217345 
L 469.468163 108.150798 
L 470.467903 84.065765 
L 470.717839 81.558719 
L 470.967774 107.455745 
L 471.217709 81.878292 
L 471.467644 98.218447 
L 472.217449 103.355367 
L 472.467384 114.925241 
L 472.71732 67.984847 
L 472.967255 102.567906 
L 473.21719 93.772124 
L 473.966995 93.847244 
L 474.21693 100.290949 
L 474.466866 73.931793 
L 474.716801 107.431374 
L 474.966736 112.535824 
L 475.716541 91.580855 
L 475.966476 89.910403 
L 476.216412 89.950167 
L 476.466347 95.375887 
L 476.716282 91.827021 
L 477.466087 92.13231 
L 477.716022 107.220436 
L 477.965957 99.889589 
L 478.215893 85.751237 
L 478.465828 100.881395 
L 479.215633 83.720401 
L 479.465568 92.763908 
L 479.715503 76.116727 
L 479.965439 102.614225 
L 480.215374 93.446268 
L 481.215114 94.777215 
L 481.465049 87.248819 
L 481.714985 107.354776 
L 481.96492 87.098651 
L 482.714725 102.306766 
L 482.96466 93.575839 
L 483.214595 96.565535 
L 483.46453 88.392105 
L 483.714466 86.348757 
L 484.464271 99.593672 
L 484.714206 99.380223 
L 484.964141 89.885437 
L 485.214076 122.187216 
L 485.464012 97.857908 
L 486.213817 89.96289 
L 486.463752 93.251094 
L 486.713687 94.692811 
L 486.963622 98.096916 
L 487.213558 98.458683 
L 487.963363 92.060526 
L 488.463233 101.009328 
L 488.713168 99.347613 
L 488.963103 102.413458 
L 489.962844 84.283615 
L 490.212779 102.325534 
L 490.462714 93.066017 
L 491.462455 92.451374 
L 491.71239 103.811762 
L 491.962325 93.188064 
L 492.21226 96.640978 
L 492.462195 87.483474 
L 493.212001 101.876627 
L 493.461936 92.494948 
L 493.711871 94.957197 
L 493.961806 94.539159 
L 494.211741 89.319061 
L 494.961547 87.414948 
L 495.211482 98.336045 
L 495.461417 92.932273 
L 495.711352 99.689947 
L 495.961287 162.177123 
L 496.711093 103.607391 
L 496.961028 98.047168 
L 497.210963 105.089317 
L 497.460898 95.9916 
L 497.710833 97.53693 
L 498.710574 88.231052 
L 498.960509 97.066132 
L 499.210444 95.475769 
L 499.460379 99.883812 
L 500.210185 85.105318 
L 500.46012 103.922252 
L 500.710055 86.762569 
L 500.95999 100.579328 
L 501.209925 92.508343 
L 501.959731 94.96946 
L 502.209666 97.662327 
L 502.459601 98.014407 
L 502.709536 88.150329 
L 502.959471 94.385206 
L 503.709277 96.475973 
L 503.959212 92.876512 
L 504.209147 94.306712 
L 504.459082 96.552666 
L 504.709017 86.721849 
L 505.458822 91.060853 
L 505.708758 96.599271 
L 505.958693 83.470893 
L 506.208628 109.962886 
L 506.458563 97.839177 
L 507.458304 104.925196 
L 507.708239 89.329502 
L 507.958174 100.782655 
L 508.208109 92.615269 
L 508.957914 94.220148 
L 509.20785 90.389994 
L 509.457785 92.259544 
L 509.957655 98.824661 
L 510.70746 96.709243 
L 510.957395 93.401655 
L 511.207331 104.620486 
L 511.457266 92.4389 
L 511.707201 88.773641 
L 512.457006 83.022233 
L 512.706941 97.227578 
L 512.956877 90.560911 
L 513.206812 91.648608 
L 513.456747 105.000411 
L 514.206552 89.817692 
L 514.456487 97.855136 
L 514.706423 84.887077 
L 514.956358 89.83435 
L 515.206293 99.549173 
L 515.956098 87.043805 
L 516.206033 95.688334 
L 516.455968 97.447895 
L 516.705904 92.999749 
L 516.955839 92.9361 
L 517.705644 92.113421 
L 517.955579 103.981251 
L 518.205514 94.766945 
L 518.45545 92.227899 
L 518.705385 138.846491 
L 519.45519 107.948422 
L 519.705125 104.823897 
L 519.95506 107.84551 
L 520.204996 96.609014 
L 520.454931 93.719444 
L 521.204736 93.632663 
L 521.454671 91.69459 
L 521.704606 87.503314 
L 522.204477 97.920047 
L 522.954282 93.401489 
L 523.204217 96.750939 
L 523.454152 87.060889 
L 523.704087 107.742316 
L 523.954023 90.634953 
L 524.703828 88.694771 
L 524.953763 101.189343 
L 525.203698 99.556405 
L 525.453633 90.189505 
L 525.703569 97.381985 
L 526.703309 86.81453 
L 526.953244 94.955821 
L 528.452855 85.002672 
L 528.70279 92.481707 
L 528.952725 86.312726 
L 529.20266 87.231703 
L 529.952466 109.481802 
L 530.202401 91.287462 
L 530.452336 100.342126 
L 530.702271 93.743894 
L 530.952206 99.647965 
L 531.702012 89.179733 
L 531.951947 93.674762 
L 532.201882 91.649714 
L 532.451817 99.091651 
L 532.701752 121.237121 
L 534.201363 90.885829 
L 535.201104 95.306282 
L 535.451039 75.013213 
L 535.700974 100.641339 
L 535.950909 86.26953 
L 535.950909 86.26953 
" clip-path="url(#p50586ed6e1)" style="fill: none; stroke: #1f77b4; stroke-linecap: square"/>
   </g>
   <g id="patch_3">
    <path d="M 57.8 177.32 
L 57.8 7.2 
" style="fill: none; stroke: #000000; stroke-linejoin: miter; stroke-linecap: square"/>
   </g>
   <g id="patch_4">
    <path d="M 57.8 177.32 
L 558.72 177.32 
" style="fill: none; stroke: #000000; stroke-linejoin: miter; stroke-linecap: square"/>
   </g>
   <g id="legend_1">
    <g id="patch_5">
     <path d="M 66.2 34.41375 
L 139.025 34.41375 
Q 141.425 34.41375 141.425 32.01375 
L 141.425 15.6 
Q 141.425 13.2 139.025 13.2 
L 66.2 13.2 
Q 63.8 13.2 63.8 15.6 
L 63.8 32.01375 
Q 63.8 34.41375 66.2 34.41375 
z
" style="fill: #eeeeee; opacity: 0.85"/>
    </g>
    <g id="line2d_12">
     <path d="M 68.6 22.918125 
L 80.6 22.918125 
L 92.6 22.918125 
" style="fill: none; stroke: #1f77b4; stroke-linecap: square"/>
    </g>
    <g id="text_12">
     <!-- NVDA -->
     <g transform="translate(102.2 27.118125) scale(0.12 -0.12)">
      <defs>
       <path id="DejaVuSans-4e" d="M 628 4666 
L 1478 4666 
L 3547 763 
L 3547 4666 
L 4159 4666 
L 4159 0 
L 3309 0 
L 1241 3903 
L 1241 0 
L 628 0 
L 628 4666 
z
" transform="scale(0.015625)"/>
       <path id="DejaVuSans-56" d="M 1831 0 
L 50 4666 
L 709 4666 
L 2188 738 
L 3669 4666 
L 4325 4666 
L 2547 0 
L 1831 0 
z
" transform="scale(0.015625)"/>
       <path id="DejaVuSans-41" d="M 2188 4044 
L 1331 1722 
L 3047 1722 
L 2188 4044 
z
M 1831 4666 
L 2547 4666 
L 4325 0 
L 3669 0 
L 3244 1197 
L 1141 1197 
L 716 0 
L 50 0 
L 1831 4666 
z
" transform="scale(0.015625)"/>
      </defs>
      <use xlink:href="#DejaVuSans-4e"/>
      <use xlink:href="#DejaVuSans-56" transform="translate(74.804688 0)"/>
      <use xlink:href="#DejaVuSans-44" transform="translate(143.212891 0)"/>
      <use xlink:href="#DejaVuSans-41" transform="translate(218.464844 0)"/>
     </g>
    </g>
   </g>
  </g>
  <g id="text_13">
   <!-- Figure 1: some caption -->
   <g transform="translate(7.2 221.04) scale(0.12 -0.12)">
    <defs>
     <path id="DejaVuSans-46" d="M 628 4666 
L 3309 4666 
L 3309 4134 
L 1259 4134 
L 1259 2759 
L 3109 2759 
L 3109 2228 
L 1259 2228 
L 1259 0 
L 628 0 
L 628 4666 
z
" transform="scale(0.015625)"/>
     <path id="DejaVuSans-67" d="M 2906 1791 
Q 2906 2416 2648 2759 
Q 2391 3103 1925 3103 
Q 1463 3103 1205 2759 
Q 947 2416 947 1791 
Q 947 1169 1205 825 
Q 1463 481 1925 481 
Q 2391 481 2648 825 
Q 2906 1169 2906 1791 
z
M 3481 434 
Q 3481 -459 3084 -895 
Q 2688 -1331 1869 -1331 
Q 1566 -1331 1297 -1286 
Q 1028 -1241 775 -1147 
L 775 -588 
Q 1028 -725 1275 -790 
Q 1522 -856 1778 -856 
Q 2344 -856 2625 -561 
Q 2906 -266 2906 331 
L 2906 616 
Q 2728 306 2450 153 
Q 2172 0 1784 0 
Q 1141 0 747 490 
Q 353 981 353 1791 
Q 353 2603 747 3093 
Q 1141 3584 1784 3584 
Q 2172 3584 2450 3431 
Q 2728 3278 2906 2969 
L 2906 3500 
L 3481 3500 
L 3481 434 
z
" transform="scale(0.015625)"/>
     <path id="DejaVuSans-75" d="M 544 1381 
L 544 3500 
L 1119 3500 
L 1119 1403 
Q 1119 906 1312 657 
Q 1506 409 1894 409 
Q 2359 409 2629 706 
Q 2900 1003 2900 1516 
L 2900 3500 
L 3475 3500 
L 3475 0 
L 2900 0 
L 2900 538 
Q 2691 219 2414 64 
Q 2138 -91 1772 -91 
Q 1169 -91 856 284 
Q 544 659 544 1381 
z
M 1991 3584 
L 1991 3584 
z
" transform="scale(0.015625)"/>
     <path id="DejaVuSans-3a" d="M 750 794 
L 1409 794 
L 1409 0 
L 750 0 
L 750 794 
z
M 750 3309 
L 1409 3309 
L 1409 2516 
L 750 2516 
L 750 3309 
z
" transform="scale(0.015625)"/>
     <path id="DejaVuSans-73" d="M 2834 3397 
L 2834 2853 
Q 2591 2978 2328 3040 
Q 2066 3103 1784 3103 
Q 1356 3103 1142 2972 
Q 928 2841 928 2578 
Q 928 2378 1081 2264 
Q 1234 2150 1697 2047 
L 1894 2003 
Q 2506 1872 2764 1633 
Q 3022 1394 3022 966 
Q 3022 478 2636 193 
Q 2250 -91 1575 -91 
Q 1294 -91 989 -36 
Q 684 19 347 128 
L 347 722 
Q 666 556 975 473 
Q 1284 391 1588 391 
Q 1994 391 2212 530 
Q 2431 669 2431 922 
Q 2431 1156 2273 1281 
Q 2116 1406 1581 1522 
L 1381 1569 
Q 847 1681 609 1914 
Q 372 2147 372 2553 
Q 372 3047 722 3315 
Q 1072 3584 1716 3584 
Q 2034 3584 2315 3537 
Q 2597 3491 2834 3397 
z
" transform="scale(0.015625)"/>
     <path id="DejaVuSans-6f" d="M 1959 3097 
Q 1497 3097 1228 2736 
Q 959 2375 959 1747 
Q 959 1119 1226 758 
Q 1494 397 1959 397 
Q 2419 397 2687 759 
Q 2956 1122 2956 1747 
Q 2956 2369 2687 2733 
Q 2419 3097 1959 3097 
z
M 1959 3584 
Q 2709 3584 3137 3096 
Q 3566 2609 3566 1747 
Q 3566 888 3137 398 
Q 2709 -91 1959 -91 
Q 1206 -91 779 398 
Q 353 888 353 1747 
Q 353 2609 779 3096 
Q 1206 3584 1959 3584 
z
" transform="scale(0.015625)"/>
     <path id="DejaVuSans-6d" d="M 3328 2828 
Q 3544 3216 3844 3400 
Q 4144 3584 4550 3584 
Q 5097 3584 5394 3201 
Q 5691 2819 5691 2113 
L 5691 0 
L 5113 0 
L 5113 2094 
Q 5113 2597 4934 2840 
Q 4756 3084 4391 3084 
Q 3944 3084 3684 2787 
Q 3425 2491 3425 1978 
L 3425 0 
L 2847 0 
L 2847 2094 
Q 2847 2600 2669 2842 
Q 2491 3084 2119 3084 
Q 1678 3084 1418 2786 
Q 1159 2488 1159 1978 
L 1159 0 
L 581 0 
L 581 3500 
L 1159 3500 
L 1159 2956 
Q 1356 3278 1631 3431 
Q 1906 3584 2284 3584 
Q 2666 3584 2933 3390 
Q 3200 3197 3328 2828 
z
" transform="scale(0.015625)"/>
     <path id="DejaVuSans-61" d="M 2194 1759 
Q 1497 1759 1228 1600 
Q 959 1441 959 1056 
Q 959 750 1161 570 
Q 1363 391 1709 391 
Q 2188 391 2477 730 
Q 2766 1069 2766 1631 
L 2766 1759 
L 2194 1759 
z
M 3341 1997 
L 3341 0 
L 2766 0 
L 2766 531 
Q 2569 213 2275 61 
Q 1981 -91 1556 -91 
Q 1019 -91 701 211 
Q 384 513 384 1019 
Q 384 1609 779 1909 
Q 1175 2209 1959 2209 
L 2766 2209 
L 2766 2266 
Q 2766 2663 2505 2880 
Q 2244 3097 1772 3097 
Q 1472 3097 1187 3025 
Q 903 2953 641 2809 
L 641 3341 
Q 956 3463 1253 3523 
Q 1550 3584 1831 3584 
Q 2591 3584 2966 3190 
Q 3341 2797 3341 1997 
z
" transform="scale(0.015625)"/>
     <path id="DejaVuSans-70" d="M 1159 525 
L 1159 -1331 
L 581 -1331 
L 581 3500 
L 1159 3500 
L 1159 2969 
Q 1341 3281 1617 3432 
Q 1894 3584 2278 3584 
Q 2916 3584 3314 3078 
Q 3713 2572 3713 1747 
Q 3713 922 3314 415 
Q 2916 -91 2278 -91 
Q 1894 -91 1617 61 
Q 1341 213 1159 525 
z
M 3116 1747 
Q 3116 2381 2855 2742 
Q 2594 3103 2138 3103 
Q 1681 3103 1420 2742 
Q 1159 2381 1159 1747 
Q 1159 1113 1420 752 
Q 1681 391 2138 391 
Q 2594 391 2855 752 
Q 3116 1113 3116 1747 
z
" transform="scale(0.015625)"/>
     <path id="DejaVuSans-74" d="M 1172 4494 
L 1172 3500 
L 2356 3500 
L 2356 3053 
L 1172 3053 
L 1172 1153 
Q 1172 725 1289 603 
Q 1406 481 1766 481 
L 2356 481 
L 2356 0 
L 1766 0 
Q 1100 0 847 248 
Q 594 497 594 1153 
L 594 3053 
L 172 3053 
L 172 3500 
L 594 3500 
L 594 4494 
L 1172 4494 
z
" transform="scale(0.015625)"/>
     <path id="DejaVuSans-6e" d="M 3513 2113 
L 3513 0 
L 2938 0 
L 2938 2094 
Q 2938 2591 2744 2837 
Q 2550 3084 2163 3084 
Q 1697 3084 1428 2787 
Q 1159 2491 1159 1978 
L 1159 0 
L 581 0 
L 581 3500 
L 1159 3500 
L 1159 2956 
Q 1366 3272 1645 3428 
Q 1925 3584 2291 3584 
Q 2894 3584 3203 3211 
Q 3513 2838 3513 2113 
z
" transform="scale(0.015625)"/>
    </defs>
    <use xlink:href="#DejaVuSans-46"/>
    <use xlink:href="#DejaVuSans-69" transform="translate(50.269531 0)"/>
    <use xlink:href="#DejaVuSans-67" transform="translate(78.052734 0)"/>
    <use xlink:href="#DejaVuSans-75" transform="translate(141.529297 0)"/>
    <use xlink:href="#DejaVuSans-72" transform="translate(204.908203 0)"/>
    <use xlink:href="#DejaVuSans-65" transform="translate(243.771484 0)"/>
    <use xlink:href="#DejaVuSans-20" transform="translate(305.294922 0)"/>
    <use xlink:href="#DejaVuSans-31" transform="translate(337.082031 0)"/>
    <use xlink:href="#DejaVuSans-3a" transform="translate(400.705078 0)"/>
    <use xlink:href="#DejaVuSans-20" transform="translate(434.396484 0)"/>
    <use xlink:href="#DejaVuSans-73" transform="translate(466.183594 0)"/>
    <use xlink:href="#DejaVuSans-6f" transform="translate(518.283203 0)"/>
    <use xlink:href="#DejaVuSans-6d" transform="translate(579.464844 0)"/>
    <use xlink:href="#DejaVuSans-65" transform="translate(676.876953 0)"/>
    <use xlink:href="#DejaVuSans-20" transform="translate(738.400391 0)"/>
    <use xlink:href="#DejaVuSans-63" transform="translate(770.1875 0)"/>
    <use xlink:href="#DejaVuSans-61" transform="translate(825.167969 0)"/>
    <use xlink:href="#DejaVuSans-70" transform="translate(886.447266 0)"/>
    <use xlink:href="#DejaVuSans-74" transform="translate(949.923828 0)"/>
    <use xlink:href="#DejaVuSans-69" transform="translate(989.132812 0)"/>
    <use xlink:href="#DejaVuSans-6f" transform="translate(1016.916016 0)"/>
    <use xlink:href="#DejaVuSans-6e" transform="translate(1078.097656 0)"/>
   </g>
  </g>
 </g>
 <defs>
  <clipPath id="p50586ed6e1">
   <rect x="57.8" y="7.2" width="500.92" height="170.12"/>
  </clipPath>
 </defs>
</svg>
